<?xml version="1.0" encoding="utf-8"?>
<!-- Generator: Adobe Illustrator 19.1.0, SVG Export Plug-In . SVG Version: 6.00 Build 0)  -->
<svg version="1.1" xmlns="http://www.w3.org/2000/svg" xmlns:xlink="http://www.w3.org/1999/xlink" x="0px" y="0px"
	 viewBox="0 0 2007 1663.9" enable-background="new 0 0 2007 1663.9" xml:space="preserve">
<g id="phone">
	<path fill="#747474" d="M-671.6,65.3c0,2-1.6,3.6-3.6,3.6c-2,0-3.6-1.6-3.6-3.6c0-2,1.6-3.6,3.6-3.6
		C-673.2,61.7-671.6,63.3-671.6,65.3z"/>
	<rect x="-809.3" y="118.2" fill="none" stroke="#747474" stroke-width="2" width="418.8" height="739.5"/>
	<circle fill="none" stroke="#747474" stroke-width="4" cx="-600" cy="913.4" r="35.5"/>
	<line fill="none" stroke="#747474" stroke-width="4" stroke-linecap="round" x1="-637" y1="65" x2="-562.9" y2="65"/>
	<g>
		<path fill="#747474" d="M-445.4,9.5c43.5,0,78.9,35.4,78.9,78.9v798.7c0,43.5-35.4,78.9-78.9,78.9h-309.2
			c-43.5,0-78.9-35.4-78.9-78.9V88.4c0-43.5,35.4-78.9,78.9-78.9H-445.4 M-445.4,5.5h-309.2c-45.8,0-82.9,37.1-82.9,82.9v798.7
			c0,45.8,37.1,82.9,82.9,82.9h309.2c45.8,0,82.9-37.1,82.9-82.9V88.4C-362.5,42.6-399.6,5.5-445.4,5.5L-445.4,5.5z"/>
	</g>
</g>
<g id="desktop">
	<path fill="#FFFFFF" stroke="#747474" stroke-width="3.5" d="M1945.7,3.5H61.3C29.4,3.5,3.5,29.4,3.5,61.3V1388
		c0,31.9,25.9,57.8,57.8,57.8h1884.5c31.9,0,57.8-25.9,57.8-57.8V61.3C2003.5,29.4,1977.6,3.5,1945.7,3.5z M1918.6,1178.7H88.4V80.6
		h1830.2V1178.7z"/>
	<circle fill="none" stroke="#747474" stroke-width="7" cx="1003.5" cy="1348.9" r="59.5"/>
	<path fill="none" stroke="#747474" stroke-width="7" d="M1945.7,1445.8H61.3c-31.9,0-57.8-25.9-57.8-57.8V61.3
		c0-31.9,25.9-57.8,57.8-57.8h1884.5c31.9,0,57.8,25.9,57.8,57.8V1388C2003.5,1419.9,1977.6,1445.8,1945.7,1445.8z"/>
	<line fill="none" stroke="#747474" stroke-width="3.5" x1="3.5" y1="1256.7" x2="2003.5" y2="1256.7"/>
	<circle fill="none" stroke="#747474" stroke-width="3.5" cx="1003.5" cy="39.4" r="16"/>
	<path fill="none" stroke="#747474" stroke-width="7" d="M735.5,1633.4c30.7-15.2,34.5-108.7,40.7-187.6"/>
	<path fill="none" stroke="#747474" stroke-width="7" d="M1318.5,1633.4h-630c-14.9,0-27,12.1-27,27l0,0h684l0,0
		C1345.5,1645.5,1333.4,1633.4,1318.5,1633.4z"/>
	<path fill="none" stroke="#747474" stroke-width="7" d="M1271.5,1633.4c-30.7-15.2-34.5-108.7-40.7-187.6"/>
	<g>
	</g>
	<g>
	</g>
	<g>
	</g>
	<g>
	</g>
	<g>
	</g>
	<g>
	</g>
</g>
</svg>
