<svg xmlns="http://www.w3.org/2000/svg" viewBox="0 0 722.6 231.1"><style>.a{fill:#747575;}.b{fill:#FFF;stroke-linejoin:round;stroke-width:2;stroke:#747474;}.c{fill:#FFF;}.d{fill:#747474;}.e{fill:#FFF;stroke-width:2;stroke:#747474;}.f{fill:none;stroke-width:2;stroke:#747474;}.g{fill:none;stroke-linejoin:round;stroke-width:2;stroke:#747474;}.h{fill:#FFF;stroke-linejoin:round;stroke-width:3;stroke:#747474;}</style><path d="M3.5 72.9l-2.8 0 0.1-8 2.7 0c1.6 0 2.1 0.8 2.1 2l0 0.3c0 0.9-0.4 1.4-1.2 1.6 0.9 0.2 1.3 0.8 1.3 1.6l0 0.5C5.7 72.1 5.1 72.9 3.5 72.9zM4.4 70.4c0-0.7-0.3-1-1-1l-1.3 0 0 2.5 1.5 0c0.6 0 0.9-0.4 0.9-0.9L4.4 70.4zM4.4 66.8c0-0.5-0.2-0.9-0.8-0.9l-1.4 0 0 2.4 1.3 0c0.7 0 1-0.3 1-1L4.4 66.8z" class="a"/><path d="M11.2 72.9l-0.5-2.1 -2.1 0 -0.5 2.1 -1.2 0 2.2-8 1.3 0 2.1 8L11.2 72.9zM9.7 66.7l-0.8 3.1 1.5 0L9.7 66.7z" class="a"/><path d="M18.9 73.1c-1.1 0-1.4-0.3-1.4-1.2l0-1.3c0-0.6-0.3-1-1-1.1l-1.4 0 0 3.5 -1.3 0 0.1-8 2.7 0c1.6 0 2.1 0.8 2.1 2l0 0.5c0 0.9-0.3 1.4-1.2 1.5 0.9 0.1 1.3 0.8 1.2 1.5l0 1.2c0 0.2 0.1 0.3 0.4 0.3l0 1L18.9 73.1zM17.5 66.9c0-0.5-0.2-0.9-0.9-0.9l-1.4 0 0 2.5 1.3 0c0.6 0 1-0.3 1-1L17.5 66.9z" class="a"/><path d="M25.7 73.1c-1.1 0-1.4-0.3-1.4-1.2l0-1.3c0-0.6-0.3-1-1-1.1l-1.4 0 0 3.5 -1.3 0 0.1-8 2.7 0c1.6 0 2.1 0.8 2.1 2l0 0.5c0 0.9-0.3 1.4-1.2 1.5 0.9 0.1 1.3 0.8 1.2 1.5l0 1.2c0 0.2 0.1 0.3 0.4 0.3l0 1L25.7 73.1zM24.3 67c0-0.5-0.2-0.9-0.9-0.9l-1.4 0 0 2.5 1.3 0c0.6 0 1-0.3 1-1L24.3 67z" class="a"/><path d="M31.2 73.1L30.7 71l-2.1 0 -0.5 2.1 -1.2 0 2.2-8 1.3 0 2.1 8L31.2 73.1zM29.7 66.8l-0.8 3.1 1.5 0L29.7 66.8z" class="a"/><path d="M38.2 73.1L38 72.5c-0.3 0.6-1 0.9-1.8 0.9 -1.7 0-2.4-1.2-2.4-2.5l0-3.5c0-1.3 0.8-2.4 2.6-2.4 1.8 0 2.5 1 2.5 2.5l0 0.2 -1.2 0 0-0.3c0-0.6-0.3-1.2-1.2-1.2 -0.9 0-1.3 0.6-1.3 1.2l0 3.7c0 0.6 0.4 1.3 1.3 1.3 0.9 0 1.3-0.6 1.3-1.2l0-0.9 -1.3 0 0-1.1 2.5 0 0 4.2L38.2 73.1z" class="a"/><path d="M40.8 73.2l0.1-8 4.3 0 0 1.1 -3 0 0 2.1 2.2 0 0 1.1 -2.2 0 0 2.5 3 0 0 1.1L40.8 73.2z" class="a"/><path d="M53.3 73.3l-0.5-2.1 -2.1 0 -0.5 2.1 -1.2 0 2.2-8 1.3 0 2.1 8L53.3 73.3zM51.8 67L51 70.1l1.5 0L51.8 67z" class="a"/><path d="M58.3 66.5l-0.1 6.8 -1.3 0 0.1-6.8 -1.9 0 0-1.2 5.2 0 0 1.2L58.3 66.5z" class="a"/><path d="M64.6 66.5l-0.1 6.8 -1.3 0 0.1-6.8 -1.9 0 0-1.2 5.2 0 0 1.2L64.6 66.5z" class="a"/><path d="M71.3 73.4l-0.5-2.1 -2.1 0 -0.5 2.1 -1.2 0 2.2-8 1.3 0 2.1 8L71.3 73.4zM69.8 67.1L69 70.3l1.5 0L69.8 67.1z" class="a"/><path d="M76.4 73.6c-1.8 0-2.6-1.2-2.6-2.5l0-3.4c0-1.3 0.8-2.5 2.6-2.5 1.8 0 2.5 1.1 2.5 2.4l0 0.6 -1.2 0 0-0.6c0-0.8-0.4-1.3-1.3-1.3 -0.9 0-1.3 0.5-1.4 1.2l0 3.7c0 0.7 0.4 1.3 1.3 1.3 0.9 0 1.3-0.5 1.4-1.3l0-0.6 1.2 0 0 0.6C78.9 72.6 78.2 73.7 76.4 73.6z" class="a"/><path d="M84.5 73.5l-1.8-3.6 -0.7 1 0 2.6 -1.3 0 0.1-8 1.3 0 0 3.7 2.6-3.7 1.4 0 -2.4 3.4 2.4 4.6L84.5 73.5z" class="a"/><path d="M26.6 220.2c-1.5 0-2.5-1-2.5-2.2v-0.4h1.3v0.1c0 1 0.4 1.4 1.3 1.4 0.8 0 1.2-0.5 1.2-1.2 0-0.7-0.3-1-1.5-1.6 -1.1-0.5-2.1-1.1-2.1-2.4 0-1.2 0.9-2.2 2.4-2.2 1.5 0 2.5 0.9 2.5 2.2v0.3h-1.2v-0.1c0-0.7-0.4-1.4-1.3-1.4 -0.7 0-1.1 0.4-1.1 1 0 0.6 0.3 0.9 1.7 1.6 1.4 0.7 2 1.3 2 2.4C29.2 219.2 28.1 220.2 26.6 220.2z" class="a"/><path d="M35.2 220l-2.3-3.8 -0.8-1.5v5.3h-1.2v-8h1l2.2 3.9 0.8 1.5V212h1.2v8H35.2z" class="a"/><path d="M38.2 220v-8h1.3v8H38.2z" class="a"/><path d="M44.3 216.9h-1.4v3.1h-1.3v-8h2.7c1.6 0 2.1 0.9 2.1 2v0.8C46.4 216 45.8 216.9 44.3 216.9zM45.1 214c0-0.6-0.2-0.9-0.9-0.9h-1.4v2.7h1.4c0.6 0 0.9-0.4 0.9-1V214z" class="a"/><path d="M48.1 220v-8h4.3v1.1h-3v2.1h2.2v1.1h-2.2v2.5h3v1.1H48.1z" class="a"/><path d="M59.2 220.1c-1.1 0-1.4-0.3-1.4-1.2v-1.3c0-0.6-0.3-1-1-1h-1.4v3.5h-1.3v-8h2.7c1.6 0 2.1 0.8 2.1 2v0.5c0 0.9-0.3 1.4-1.2 1.5 0.9 0.1 1.3 0.8 1.3 1.5v1.2c0 0.2 0.1 0.3 0.4 0.3v1H59.2zM57.7 214c0-0.5-0.2-0.9-0.9-0.9h-1.4v2.5h1.3c0.6 0 1-0.3 1-1V214z" class="a"/><path d="M23.7 25.1h39.3c0 0 2.1-8-6.5-8 0 0 0.2-9.5-7.8-9.5S41 14.4 41 14.4c-3-5.3-12.7-1-9.7 5.8C26.2 17.6 23.7 21.6 23.7 25.1" class="b"/><path d="M40.3 50.8c-0.2 0-0.3 0-0.5-0.1 -0.5-0.2-0.7-0.8-0.6-1.3l3.1-10.3h-4.2c-0.4 0-0.7-0.2-0.9-0.5 -0.2-0.3-0.2-0.7-0.1-1.1l4.1-8.5c0.2-0.4 0.6-0.6 1-0.6h5.6c0.4 0 0.8 0.2 1 0.5 0.2 0.3 0.2 0.8 0 1.1l-1.7 3.1h4.1c0.4 0 0.8 0.2 1 0.6s0.2 0.8-0.1 1.1L41.2 50.4C41 50.7 40.7 50.8 40.3 50.8z" class="c"/><path d="M47.9 29.5l-2.7 4.7h6L40.3 49.7 43.9 38h-5.6l4.1-8.5H47.9M51.2 34.2L51.2 34.2M47.9 27.3h-5.6c-0.8 0-1.6 0.5-2 1.3l-4.1 8.5c-0.3 0.7-0.3 1.5 0.1 2.1 0.4 0.6 1.1 1 1.9 1h2.7l-2.7 8.9c-0.3 1 0.2 2.1 1.1 2.6 0.3 0.2 0.6 0.2 1 0.2 0.7 0 1.4-0.3 1.8-0.9L53 35.6c0.3-0.4 0.4-0.8 0.4-1.3 0-1.2-1-2.2-2.2-2.2h0H49l0.8-1.4c0.4-0.7 0.4-1.5 0-2.2C49.4 27.7 48.6 27.3 47.9 27.3L47.9 27.3z" class="d"/><line x1="58.8" y1="28.8" x2="58.8" y2="41.8" class="b"/><line x1="53.1" y1="40.2" x2="53.1" y2="48.2" class="b"/><line x1="30.5" y1="29.8" x2="30.5" y2="44.6" class="b"/><circle cx="42.7" cy="176.7" r="17.1" class="b"/><line x1="46.6" y1="180.5" x2="38.8" y2="172.7" class="b"/><line x1="63.3" y1="176.6" x2="48.2" y2="176.6" class="b"/><line x1="22" y1="176.6" x2="37.1" y2="176.6" class="b"/><line x1="42.7" y1="197.3" x2="42.7" y2="182.2" class="b"/><line x1="42.7" y1="156" x2="42.7" y2="171.1" class="b"/><line x1="38.8" y1="180.5" x2="46.6" y2="172.7" class="b"/><circle cx="42.7" cy="176.6" r="5.5" style="fill:none;stroke-linejoin:round;stroke-width:3;stroke:#FFF"/><path d="M663.7 213.2v6.8h-1.3v-6.8h-1.9V212h5.2v1.2H663.7z" class="a"/><path d="M670.5 220L670 218h-2.1l-0.5 2.1h-1.2l2.1-8h1.3l2.1 8H670.5zM668.9 213.8l-0.8 3.1h1.5L668.9 213.8z" class="a"/><path d="M677 220l-1.8-3.6 -0.7 1v2.6h-1.3v-8h1.3v3.7l2.6-3.7h1.4l-2.4 3.4 2.4 4.6H677z" class="a"/><path d="M679.9 220v-8h4.3v1.1h-3v2.1h2.2v1.1h-2.2v2.5h3v1.1H679.9z" class="a"/><path d="M688.6 220H686v-8h2.6c1.7 0 2.5 1.1 2.5 2.4v3.3C691.1 219 690.3 220 688.6 220zM689.8 214.5c0-0.8-0.4-1.3-1.3-1.3h-1.2v5.7h1.2c0.9 0 1.3-0.5 1.3-1.3V214.5z" class="a"/><path d="M695.5 220.2c-1.8 0-2.6-1.1-2.6-2.6v-3.2c0-1.5 0.8-2.6 2.6-2.6 1.8 0 2.6 1.1 2.6 2.6v3.2C698.1 219.1 697.3 220.2 695.5 220.2zM696.8 214.3c0-0.8-0.4-1.4-1.3-1.4 -0.9 0-1.3 0.6-1.3 1.4v3.4c0 0.8 0.4 1.4 1.3 1.4 0.9 0 1.3-0.6 1.3-1.4V214.3z" class="a"/><path d="M706.1 220h-1.2l-1.2-5.7 -1.3 5.7h-1.2l-1.7-8h1.3l1 6 1.3-6h1.2l1.2 6 1-6h1.3L706.1 220z" class="a"/><path d="M713.5 220l-2.3-3.8 -0.8-1.5v5.3h-1.2v-8h1l2.2 3.9 0.8 1.5V212h1.2v8H713.5z" class="a"/><path d="M718.7 220.2c-1.5 0-2.5-1-2.5-2.2v-0.4h1.3v0.1c0 1 0.4 1.4 1.3 1.4 0.8 0 1.2-0.5 1.2-1.2 0-0.7-0.3-1-1.5-1.6 -1.1-0.5-2.1-1.1-2.1-2.4 0-1.2 0.9-2.2 2.4-2.2 1.5 0 2.5 0.9 2.5 2.2v0.3h-1.2v-0.1c0-0.7-0.4-1.4-1.3-1.4 -0.7 0-1.1 0.4-1.1 1 0 0.6 0.3 0.9 1.7 1.6 1.4 0.7 2 1.3 2 2.4C721.2 219.2 720.2 220.2 718.7 220.2z" class="a"/><path d="M666.8 72.9h-1.2l-1.2-5.7 -1.3 5.7h-1.2l-1.7-8h1.3l1 6 1.3-6h1.2l1.2 6 1-6h1.3L666.8 72.9z" class="a"/><path d="M669.9 72.9v-8h1.3v8H669.9z" class="a"/><path d="M673.3 72.9v-8h1.3v6.8h3v1.1H673.3z" class="a"/><path d="M679.1 72.9v-8h1.3v6.8h3v1.1H679.1z" class="a"/><path d="M690.4 69.8H689v3.1h-1.3v-8h2.7c1.6 0 2.1 0.9 2.1 2v0.8C692.5 69 692 69.8 690.4 69.8zM691.2 67c0-0.6-0.2-0.9-0.9-0.9H689v2.7h1.4c0.6 0 0.9-0.4 0.9-1V67z" class="a"/><path d="M696.7 73.1c-1.8 0-2.6-1.1-2.6-2.6v-3.2c0-1.5 0.8-2.6 2.6-2.6 1.8 0 2.6 1.1 2.6 2.6v3.2C699.3 72 698.5 73.1 696.7 73.1zM698 67.3c0-0.8-0.4-1.4-1.3-1.4 -0.9 0-1.3 0.6-1.3 1.4v3.4c0 0.8 0.4 1.4 1.3 1.4 0.9 0 1.3-0.6 1.3-1.4V67.3z" class="a"/><path d="M707.3 72.9H706l-1.2-5.7 -1.3 5.7h-1.2l-1.7-8h1.3l1 6 1.3-6h1.2l1.2 6 1-6h1.3L707.3 72.9z" class="a"/><path d="M710.4 72.9v-8h4.3v1.1h-3v2.1h2.2v1.1h-2.2v2.5h3v1.1H710.4z" class="a"/><path d="M721.5 73c-1.1 0-1.4-0.3-1.4-1.2v-1.3c0-0.6-0.3-1-1-1h-1.4v3.5h-1.3v-8h2.7c1.6 0 2.1 0.8 2.1 2v0.5c0 0.9-0.3 1.4-1.2 1.5 0.9 0.1 1.3 0.8 1.3 1.5v1.2c0 0.2 0.1 0.3 0.4 0.3v1H721.5zM720 66.9c0-0.5-0.2-0.9-0.9-0.9h-1.4v2.5h1.3c0.6 0 1-0.3 1-1V66.9z" class="a"/><rect x="682" y="166.6" width="18" height="23.8" class="e"/><line x1="696.2" y1="158.7" x2="685.7" y2="158.7" class="e"/><line x1="691" y1="166.6" x2="691" y2="190.5" class="e"/><polyline points="672.5 190.4 677.9 190.4 677.9 162.6 704.2 162.6 704.2 190.4 709.2 190.4 " class="f"/><polyline points="707.9 173.7 710.3 169.7 712.6 173.7 " class="e"/><polyline points="707.9 178.9 710.3 182.9 712.6 178.9 " class="e"/><path d="M691.3 52c-0.2 0-0.4-0.1-0.6-0.2 -5.8-3.7-19.6-13.6-21.5-24.3 -0.6-3.7 0.2-7.1 2.6-10.2 3.4-4.4 7.1-5.4 9.5-5.4 3.7 0 7.3 2 10 5.5 2.7-3.5 6.3-5.5 10-5.5 2.5 0 6.1 0.9 9.5 5.4 2.4 3.1 3.2 6.5 2.6 10.2 -1.8 10.7-15.6 20.5-21.5 24.3C691.7 51.9 691.5 52 691.3 52z" class="c"/><path d="M701.2 13.1c2.9 0 5.9 1.4 8.7 4.9 8.8 11.4-7 25.4-18.6 32.9 -11.6-7.5-27.4-21.5-18.6-32.9 2.7-3.5 5.7-4.9 8.7-4.9 3.9 0 7.6 2.6 10 6.3C693.6 15.7 697.3 13.1 701.2 13.1M701.2 10.9c-3.6 0-7.2 1.8-10 4.9 -2.8-3.1-6.3-4.9-10-4.9 -2.7 0-6.7 1-10.4 5.8 -2.6 3.3-3.5 7-2.8 11.1 1.9 11.1 16 21.2 22 25 0.4 0.2 0.8 0.3 1.2 0.3s0.8-0.1 1.2-0.3c6-3.8 20.1-13.9 22-25 0.7-4-0.2-7.7-2.8-11.1C707.9 11.9 703.9 10.9 701.2 10.9L701.2 10.9z" class="d"/><path d="M704 16.1c0 0 8.1 4.1 5.6 13.5" class="b"/><path d="M176.5 73.1c-1.5 0-2.5-1-2.5-2.2v-0.4h1.3v0.1c0 1 0.4 1.4 1.3 1.4 0.8 0 1.2-0.5 1.2-1.2 0-0.7-0.3-1-1.5-1.6 -1.1-0.5-2.1-1.1-2.1-2.4 0-1.2 0.9-2.2 2.4-2.2 1.5 0 2.5 0.9 2.5 2.2v0.3h-1.2v-0.1c0-0.7-0.4-1.4-1.3-1.4 -0.7 0-1.1 0.4-1.1 1 0 0.6 0.3 0.9 1.7 1.6 1.4 0.7 2 1.3 2 2.4C179 72.1 178 73.1 176.5 73.1z" class="a"/><path d="M183.3 73.1c-1.5 0-2.6-0.8-2.6-2.3V65h1.3v5.9c0 0.8 0.4 1.3 1.3 1.3 0.9 0 1.3-0.4 1.3-1.3V65h1.3v5.9C185.9 72.3 184.9 73.1 183.3 73.1z" class="a"/><path d="M190.7 72.9H188v-8h2.7c1.6 0 2.1 0.8 2.1 2v0.3c0 0.9-0.4 1.5-1.2 1.6 0.9 0.2 1.3 0.7 1.3 1.6V71C192.9 72.2 192.3 72.9 190.7 72.9zM191.5 66.9c0-0.5-0.2-0.9-0.9-0.9h-1.4v2.4h1.3c0.7 0 1-0.3 1-1V66.9zM191.6 70.4c0-0.7-0.3-1-1-1h-1.3v2.5h1.5c0.6 0 0.9-0.4 0.9-0.9V70.4z" class="a"/><path d="M200.5 72.9v-6.3l-0.4 1.6 -1.3 4.7h-1.3l-1.2-4.7 -0.4-1.6v6.3h-1.1v-8h1.8l1.3 5 0.4 1.6 0.4-1.6 1.3-5h1.8v8H200.5z" class="a"/><path d="M203.7 72.9v-8h1.3v8H203.7z" class="a"/><path d="M209.7 66.1v6.8h-1.3v-6.8h-1.9V65h5.2v1.2H209.7z" class="a"/><path d="M215.9 66.1v6.8h-1.3v-6.8h-1.9V65h5.2v1.2H215.9z" class="a"/><path d="M219.4 72.9v-8h1.3v8H219.4z" class="a"/><path d="M225.2 73.1c-1.8 0-2.6-1.1-2.6-2.6v-3.2c0-1.5 0.8-2.6 2.6-2.6 1.8 0 2.6 1.1 2.6 2.6v3.2C227.8 72 227 73.1 225.2 73.1zM226.5 67.3c0-0.8-0.4-1.4-1.3-1.4 -0.9 0-1.3 0.6-1.3 1.4v3.4c0 0.8 0.4 1.4 1.3 1.4 0.9 0 1.3-0.6 1.3-1.4V67.3z" class="a"/><path d="M234 72.9l-2.3-3.8 -0.8-1.5v5.3h-1.2v-8h1l2.2 3.9 0.8 1.5V65h1.2v8H234z" class="a"/><path d="M239.2 73.1c-1.5 0-2.5-1-2.5-2.2v-0.4h1.3v0.1c0 1 0.4 1.4 1.3 1.4 0.8 0 1.2-0.5 1.2-1.2 0-0.7-0.3-1-1.5-1.6 -1.1-0.5-2.1-1.1-2.1-2.4 0-1.2 0.9-2.2 2.4-2.2 1.5 0 2.5 0.9 2.5 2.2v0.3h-1.2v-0.1c0-0.7-0.4-1.4-1.3-1.4 -0.7 0-1.1 0.4-1.1 1 0 0.6 0.3 0.9 1.7 1.6 1.4 0.7 2 1.3 2 2.4C241.8 72.1 240.7 73.1 239.2 73.1z" class="a"/><path d="M181.7 220v-3.5h-2.7v3.5h-1.3v-8h1.3v3.4h2.7V212h1.3v8H181.7z" class="a"/><path d="M185 220v-8h1.3v8H185z" class="a"/><path d="M192.7 220l-0.2-0.7c-0.3 0.6-1 0.9-1.8 0.9 -1.7 0-2.4-1.2-2.4-2.5v-3.5c0-1.3 0.8-2.4 2.6-2.4 1.8 0 2.5 1 2.5 2.4v0.2h-1.2v-0.3c0-0.6-0.3-1.2-1.2-1.2 -0.9 0-1.3 0.6-1.3 1.3v3.7c0 0.6 0.4 1.2 1.3 1.2 0.9 0 1.3-0.6 1.3-1.2v-0.9h-1.3v-1.1h2.5v4.2H192.7z" class="a"/><path d="M199.3 220v-3.5h-2.7v3.5h-1.3v-8h1.3v3.4h2.7V212h1.3v8H199.3z" class="a"/><path d="M208.1 213.2v6.8h-1.3v-6.8h-1.9V212h5.2v1.2H208.1z" class="a"/><path d="M211.6 220v-8h4.3v1.1h-3v2.1h2.2v1.1h-2.2v2.5h3v1.1H211.6z" class="a"/><path d="M223.3 220v-6.3l-0.4 1.6 -1.3 4.7h-1.3l-1.2-4.7 -0.4-1.6v6.3h-1.1v-8h1.8l1.3 5 0.4 1.6 0.4-1.6 1.3-5h1.8v8H223.3z" class="a"/><path d="M229.2 216.9h-1.4v3.1h-1.3v-8h2.7c1.6 0 2.1 0.9 2.1 2v0.8C231.4 216 230.8 216.9 229.2 216.9zM230.1 214c0-0.6-0.2-0.9-0.9-0.9h-1.4v2.7h1.4c0.6 0 0.9-0.4 0.9-1V214z" class="a"/><path d="M235.6 220.2c-1.8 0-2.6-1.1-2.6-2.6v-3.2c0-1.5 0.8-2.6 2.6-2.6 1.8 0 2.6 1.1 2.6 2.6v3.2C238.1 219.1 237.4 220.2 235.6 220.2zM236.9 214.3c0-0.8-0.4-1.4-1.3-1.4 -0.9 0-1.3 0.6-1.3 1.4v3.4c0 0.8 0.4 1.4 1.3 1.4 0.9 0 1.3-0.6 1.3-1.4V214.3z" class="a"/><path d="M217.4 18c0-5-4.1-9.1-9.1-9.1 -5 0-9.1 4.1-9.1 9.1 0 0.1 0 0.2 0 0.2v8.7h7.1c0.6 0.1 1.3 0.2 2 0.2s1.4-0.1 2-0.2h7.1v-8.7C217.4 18.2 217.4 18.1 217.4 18z" class="b"/><path d="M203.4 26v-7.8c0-0.1 0-0.1 0-0.2 0 0 0-0.1 0-0.1 0-2.7 2.2-4.8 4.8-4.8s4.8 2.2 4.8 4.8l0 0.1c0 0 0 0.1 0 0.1V26H203.4z" class="c"/><path d="M208.2 14.3c2 0 3.7 1.6 3.7 3.7 0 0 0 0.1 0 0.1 0 0.1 0 0.2 0 0.2v6.6h-7.4v-6.6c0-0.1 0-0.2 0-0.2 0 0 0-0.1 0-0.1C204.6 15.9 206.2 14.3 208.2 14.3M208.2 12.1c-3.3 0-5.9 2.6-5.9 5.9 0 0 0 0.1 0 0.1h0v9h11.8v-9h0c0 0 0-0.1 0-0.1C214.1 14.7 211.5 12.1 208.2 12.1L208.2 12.1z" class="d"/><rect x="193.6" y="25.7" width="29.3" height="20.5" class="c"/><rect x="193.6" y="25.7" width="29.3" height="20.5" class="f"/><path d="M209.6 35.1c0.9-0.5 1.6-1.4 1.6-2.5 0-1.6-1.3-2.9-2.9-2.9s-2.9 1.3-2.9 2.9c0 1.1 0.6 2.1 1.6 2.5l-1.7 5.9h3 3L209.6 35.1" class="b"/><circle cx="208.2" cy="176.7" r="20.7" class="b"/><circle cx="208.2" cy="176.7" r="3" class="b"/><line x1="208.2" y1="156" x2="208.2" y2="160" class="b"/><line x1="191.6" y1="176.6" x2="187.6" y2="176.6" class="b"/><line x1="196.5" y1="164.9" x2="193.6" y2="162" class="b"/><line x1="222.9" y1="162" x2="220" y2="164.9" class="b"/><polyline points=" 193.6 191.3 196.5 188.4 220 188.4 222.9 191.3 " class="b"/><line x1="222.8" y1="162.1" x2="210.2" y2="174.8" class="b"/><line x1="200.3" y1="157.5" x2="201.9" y2="161.2" class="b"/><line x1="216.2" y1="157.5" x2="214.6" y2="161.2" class="b"/><line x1="192.8" y1="183" x2="189.2" y2="184.5" class="b"/><line x1="192.8" y1="170.3" x2="189.2" y2="168.7" class="b"/><line x1="224.9" y1="176.6" x2="228.9" y2="176.6" class="b"/><line x1="223.6" y1="183" x2="227.3" y2="184.5" class="b"/><line x1="223.6" y1="170.3" x2="227.3" y2="168.7" class="b"/><path d="M519 72.9l-0.5-2.1h-2.1l-0.5 2.1h-1.2l2.1-8h1.3l2.1 8H519zM517.4 66.7l-0.8 3.1h1.5L517.4 66.7z" class="a"/><path d="M526 72.9l-2.3-3.8 -0.8-1.5v5.3h-1.2v-8h1l2.2 3.9 0.8 1.5V65h1.2v8H526z" class="a"/><path d="M533.3 72.9l-0.2-0.7c-0.3 0.6-1 0.9-1.8 0.9 -1.7 0-2.4-1.2-2.4-2.5v-3.5c0-1.3 0.8-2.4 2.6-2.4 1.8 0 2.5 1 2.5 2.4v0.2h-1.2v-0.3c0-0.6-0.3-1.2-1.2-1.2 -0.9 0-1.3 0.6-1.3 1.3v3.7c0 0.6 0.4 1.2 1.3 1.2 0.9 0 1.3-0.6 1.3-1.2v-0.9h-1.3v-1.1h2.5v4.2H533.3z" class="a"/><path d="M535.9 72.9v-8h1.3v6.8h3v1.1H535.9z" class="a"/><path d="M541.6 72.9v-8h4.3v1.1h-3v2.1h2.2v1.1h-2.2v2.5h3v1.1H541.6z" class="a"/><path d="M549.9 73.1c-1.5 0-2.5-1-2.5-2.2v-0.4h1.3v0.1c0 1 0.4 1.4 1.3 1.4 0.8 0 1.2-0.5 1.2-1.2 0-0.7-0.3-1-1.5-1.6 -1.1-0.5-2.1-1.1-2.1-2.4 0-1.2 0.9-2.2 2.4-2.2 1.5 0 2.5 0.9 2.5 2.2v0.3h-1.2v-0.1c0-0.7-0.4-1.4-1.3-1.4 -0.7 0-1.1 0.4-1.1 1 0 0.6 0.3 0.9 1.7 1.6 1.4 0.7 2 1.3 2 2.4C552.4 72.1 551.4 73.1 549.9 73.1z" class="a"/><path d="M508.4 220v-6.3l-0.4 1.6 -1.3 4.7h-1.3l-1.2-4.7 -0.4-1.6v6.3h-1.1v-8h1.8l1.3 5 0.4 1.6 0.4-1.6 1.3-5h1.8v8H508.4z" class="a"/><path d="M511.6 220v-8h1.3v8H511.6z" class="a"/><path d="M519.3 220l-2.3-3.8 -0.8-1.5v5.3h-1.2v-8h1l2.2 3.9 0.8 1.5V212h1.2v8H519.3z" class="a"/><path d="M524.8 220h-2.6v-8h2.6c1.7 0 2.5 1.1 2.5 2.4v3.3C527.3 219 526.5 220 524.8 220zM526 214.5c0-0.8-0.4-1.3-1.3-1.3h-1.2v5.7h1.2c0.9 0 1.3-0.5 1.3-1.3V214.5z" class="a"/><path d="M536.4 220l-0.2-0.7c-0.3 0.6-1 0.9-1.8 0.9 -1.7 0-2.4-1.2-2.4-2.5v-3.5c0-1.3 0.8-2.4 2.6-2.4 1.8 0 2.5 1 2.5 2.4v0.2h-1.2v-0.3c0-0.6-0.3-1.2-1.2-1.2s-1.3 0.6-1.3 1.3v3.7c0 0.6 0.4 1.2 1.3 1.2s1.3-0.6 1.3-1.2v-0.9h-1.3v-1.1h2.5v4.2H536.4z" class="a"/><path d="M542.7 220l-0.5-2.1h-2.1l-0.5 2.1h-1.2l2.1-8h1.3l2.1 8H542.7zM541.1 213.8l-0.8 3.1h1.5L541.1 213.8z" class="a"/><path d="M551.1 220v-6.3l-0.4 1.6 -1.3 4.7h-1.3l-1.2-4.7 -0.4-1.6v6.3h-1.1v-8h1.8l1.3 5 0.4 1.6 0.4-1.6 1.3-5h1.8v8H551.1z" class="a"/><path d="M554.3 220v-8h4.3v1.1h-3v2.1h2.2v1.1h-2.2v2.5h3v1.1H554.3z" class="a"/><path d="M562.6 220.2c-1.5 0-2.5-1-2.5-2.2v-0.4h1.3v0.1c0 1 0.4 1.4 1.3 1.4 0.8 0 1.2-0.5 1.2-1.2 0-0.7-0.3-1-1.5-1.6 -1.1-0.5-2.1-1.1-2.1-2.4 0-1.2 0.9-2.2 2.4-2.2 1.5 0 2.5 0.9 2.5 2.2v0.3h-1.2v-0.1c0-0.7-0.4-1.4-1.3-1.4 -0.7 0-1.1 0.4-1.1 1 0 0.6 0.3 0.9 1.7 1.6 1.4 0.7 2 1.3 2 2.4C565.1 219.2 564.1 220.2 562.6 220.2z" class="a"/><line x1="554" y1="37.9" x2="549.9" y2="33.8" class="g"/><path d="M542.7 34.5c0-5.7-2.3-10.8-6-14.5" class="g"/><line x1="542.3" y1="9.5" x2="536.5" y2="9.5" class="g"/><path d="M520.5 31.3l-6.6 6.6h9.4C523.3 35.3 522.2 33 520.5 31.3z" class="g"/><line x1="542.3" y1="9.5" x2="542.3" y2="15.3" class="g"/><line x1="554" y1="37.9" x2="549.9" y2="33.8" class="b"/><line x1="554" y1="37.9" x2="549.9" y2="42" class="b"/><line x1="542.3" y1="9.5" x2="536.5" y2="9.5" class="b"/><polyline points=" 541.5 10.3 513.9 37.9 553 37.9 " class="g"/><line x1="542.3" y1="9.5" x2="542.3" y2="15.3" class="b"/><path d="M523.6 194.8v-4.3l0.8-0.2c0.2 0 0.3-0.1 0.5-0.2 0 0 0 0-0.1-0.1 -0.5-0.7-0.7-1.6-0.5-2.9l0.1-0.6 0.5-0.2c2.7-1.2 6.7-8.8 5.2-14.8H528v-1.1c0-2.8 1.7-4.4 4.5-4.4h3.4c2.8 0 4.5 1.6 4.5 4.4v1.1h-2.2c-1.5 6 2.4 13.6 5.2 14.8l0.5 0.2 0.1 0.6c0.2 1.3 0 2.3-0.5 2.9 0 0 0 0-0.1 0.1 0.2 0.1 0.3 0.1 0.5 0.2l0.8 0.2v4.3H523.6z" class="c"/><path d="M535.8 167c1.8 0 3.4 0.8 3.4 3.3h-1.9c-2.2 6.6 2.2 15.4 5.5 16.9 0.2 1.6-0.1 2.4-1.2 2.5 0 1 1.9 1.6 1.9 1.6v2.4h-9.4 -9.4v-2.4c0 0 1.9-0.6 1.9-1.6 -1-0.1-1.4-0.9-1.2-2.5 3.3-1.5 7.8-10.3 5.5-16.9h-1.9c0-2.5 1.5-3.3 3.4-3.3H535.8M535.8 164.8h-3.4c-3.4 0-5.6 2.1-5.6 5.5v2.2h2.2 0.2c0.8 5.4-2.7 11.8-4.7 12.7l-1.1 0.5 -0.2 1.2c-0.1 1-0.1 1.8 0.1 2.5l-0.8 0.2v1.6 2.4 2.2h2.2 9.4 9.4 2.2v-2.2 -2.4 -1.6l-0.8-0.2c0.2-0.7 0.2-1.6 0.1-2.5l-0.2-1.2 -1.1-0.5c-2-0.9-5.5-7.4-4.7-12.7h0.2 2.2v-2.2C541.4 166.9 539.2 164.8 535.8 164.8L535.8 164.8z" class="d"/><circle cx="534.1" cy="161.1" r="5.7" class="e"/><line x1="528.9" y1="171.3" x2="539.4" y2="171.3" class="e"/><line x1="524.4" y1="190.7" x2="543.8" y2="190.7" class="e"/><rect x="521.9" y="190.2" width="24.4" height="4.6" class="c"/><path d="M545.2 191.3v2.4H523v-2.4H545.2M547.4 189.1h-2.2H523h-2.2v2.2 2.4 2.2h2.2 22.2 2.2v-2.2 -2.4V189.1L547.4 189.1z" class="d"/><path d="M357.2 220.2c-0.3 0-0.7-0.1-0.9-0.3 -0.4 0.2-0.9 0.3-1.4 0.3 -1.8 0-2.6-1.2-2.6-2.5v-3.5c0-1.3 0.8-2.4 2.6-2.4 1.8 0 2.6 1.2 2.6 2.4v3.7c0 0.4-0.1 0.8-0.3 1.1 0.2 0.2 0.4 0.2 0.8 0.2v0.7C357.7 220.1 357.6 220.2 357.2 220.2zM356.1 214.2c0-0.6-0.4-1.3-1.3-1.3 -0.9 0-1.3 0.6-1.3 1.3v3.7c0 0.6 0.4 1.2 1.3 1.2 0.3 0 0.5-0.1 0.7-0.2l-0.3-0.3 0.9-0.7V214.2z" class="a"/><path d="M361.9 220.2c-1.5 0-2.6-0.8-2.6-2.3V212h1.3v5.9c0 0.8 0.4 1.3 1.3 1.3 0.9 0 1.3-0.4 1.3-1.3V212h1.3v5.9C364.5 219.4 363.5 220.2 361.9 220.2z" class="a"/><path d="M366.6 220v-8h1.3v8H366.6z" class="a"/><path d="M372.4 220.2c-1.8 0-2.6-1.2-2.6-2.5v-3.4c0-1.3 0.8-2.5 2.6-2.5 1.8 0 2.5 1.1 2.5 2.3v0.6h-1.2v-0.6c0-0.8-0.4-1.3-1.3-1.3s-1.3 0.5-1.3 1.3v3.7c0 0.7 0.4 1.2 1.3 1.2s1.3-0.5 1.3-1.3v-0.6h1.2v0.6C375 219.2 374.2 220.2 372.4 220.2z" class="a"/><path d="M380.5 220l-1.8-3.6 -0.7 1v2.6h-1.3v-8h1.3v3.7l2.6-3.7h1.4l-2.4 3.4 2.4 4.6H380.5z" class="a"/><path d="M382.2 216.9v-1h2.9v1H382.2z" class="a"/><path d="M388.2 213.2v2.3h2.3v1.1h-2.3v3.4H387v-8h4.3v1.1H388.2z" class="a"/><path d="M392.8 220v-8h1.3v8H392.8z" class="a"/><path d="M401.2 220.1c-1.1 0-1.4-0.3-1.4-1.2v-1.3c0-0.6-0.3-1-1-1h-1.4v3.5h-1.3v-8h2.7c1.6 0 2.1 0.8 2.1 2v0.5c0 0.9-0.3 1.4-1.2 1.5 0.9 0.1 1.3 0.8 1.3 1.5v1.2c0 0.2 0.1 0.3 0.4 0.3v1H401.2zM399.7 214c0-0.5-0.2-0.9-0.9-0.9h-1.4v2.5h1.3c0.6 0 1-0.3 1-1V214z" class="a"/><path d="M403 220v-8h4.3v1.1h-3v2.1h2.2v1.1h-2.2v2.5h3v1.1H403z" class="a"/><circle cx="380.1" cy="180.9" r="16.6" class="b"/><circle cx="380.1" cy="180.9" r="12.6" class="b"/><line x1="380.1" y1="180.9" x2="380.1" y2="168.3" class="g"/><rect x="375.7" y="155.1" width="8.8" height="4.9" class="e"/><rect x="377.7" y="160" width="4.8" height="4.4" class="e"/><path d="M364.2 168.5c1.3-1.6 2.8-3.1 4.5-4.2" class="h"/><path d="M396 168.5c-1.3-1.6-2.8-3.1-4.5-4.2" class="h"/><path d="M338 72.9l-1.8-3.6 -0.7 1v2.6h-1.3v-8h1.3v3.7L338 65h1.4l-2.4 3.4 2.4 4.6H338z" class="a"/><path d="M345.2 72.9l-2.3-3.8 -0.8-1.5v5.3h-1.2v-8h1l2.2 3.9 0.8 1.5V65h1.2v8H345.2z" class="a"/><path d="M350.6 73.1c-1.8 0-2.6-1.1-2.6-2.6v-3.2c0-1.5 0.8-2.6 2.6-2.6 1.8 0 2.6 1.1 2.6 2.6v3.2C353.2 72 352.4 73.1 350.6 73.1zM352 67.3c0-0.8-0.4-1.4-1.3-1.4 -0.9 0-1.3 0.6-1.3 1.4v3.4c0 0.8 0.4 1.4 1.3 1.4 0.9 0 1.3-0.6 1.3-1.4V67.3z" class="a"/><path d="M357.7 73.1c-1.8 0-2.6-1.2-2.6-2.5v-3.4c0-1.3 0.8-2.5 2.6-2.5 1.8 0 2.5 1.1 2.5 2.3v0.6H359v-0.6c0-0.8-0.4-1.3-1.3-1.3s-1.3 0.5-1.3 1.3v3.7c0 0.7 0.4 1.2 1.3 1.2s1.3-0.5 1.3-1.3v-0.6h1.2v0.6C360.2 72.1 359.5 73.1 357.7 73.1z" class="a"/><path d="M365.8 72.9l-1.8-3.6 -0.7 1v2.6H362v-8h1.3v3.7l2.6-3.7h1.4l-2.4 3.4 2.4 4.6H365.8z" class="a"/><path d="M371 73.1c-1.8 0-2.6-1.1-2.6-2.6v-3.2c0-1.5 0.8-2.6 2.6-2.6 1.8 0 2.6 1.1 2.6 2.6v3.2C373.6 72 372.8 73.1 371 73.1zM372.3 67.3c0-0.8-0.4-1.4-1.3-1.4 -0.9 0-1.3 0.6-1.3 1.4v3.4c0 0.8 0.4 1.4 1.3 1.4 0.9 0 1.3-0.6 1.3-1.4V67.3z" class="a"/><path d="M378.1 73.1c-1.5 0-2.6-0.8-2.6-2.3V65h1.3v5.9c0 0.8 0.4 1.3 1.3 1.3 0.9 0 1.3-0.4 1.3-1.3V65h1.3v5.9C380.7 72.3 379.6 73.1 378.1 73.1z" class="a"/><path d="M385.4 66.1v6.8h-1.3v-6.8h-1.9V65h5.2v1.2H385.4z" class="a"/><path d="M394.4 69.8h-1.4v3.1h-1.3v-8h2.7c1.6 0 2.1 0.9 2.1 2v0.8C396.5 69 395.9 69.8 394.4 69.8zM395.2 67c0-0.6-0.2-0.9-0.9-0.9h-1.4v2.7h1.4c0.6 0 0.9-0.4 0.9-1V67z" class="a"/><path d="M400.7 73.1c-1.8 0-2.6-1.1-2.6-2.6v-3.2c0-1.5 0.8-2.6 2.6-2.6 1.8 0 2.6 1.1 2.6 2.6v3.2C403.3 72 402.5 73.1 400.7 73.1zM402 67.3c0-0.8-0.4-1.4-1.3-1.4 -0.9 0-1.3 0.6-1.3 1.4v3.4c0 0.8 0.4 1.4 1.3 1.4 0.9 0 1.3-0.6 1.3-1.4V67.3z" class="a"/><path d="M411.3 72.9H410l-1.2-5.7 -1.3 5.7h-1.2l-1.7-8h1.3l1 6 1.3-6h1.2l1.2 6 1-6h1.3L411.3 72.9z" class="a"/><path d="M414.4 72.9v-8h4.3v1.1h-3v2.1h2.2v1.1h-2.2v2.5h3v1.1H414.4z" class="a"/><path d="M425.5 73c-1.1 0-1.4-0.3-1.4-1.2v-1.3c0-0.6-0.3-1-1-1h-1.4v3.5h-1.3v-8h2.7c1.6 0 2.1 0.8 2.1 2v0.5c0 0.9-0.3 1.4-1.2 1.5 0.9 0.1 1.3 0.8 1.3 1.5v1.2c0 0.2 0.1 0.3 0.4 0.3v1H425.5zM424 66.9c0-0.5-0.2-0.9-0.9-0.9h-1.4v2.5h1.3c0.6 0 1-0.3 1-1V66.9z" class="a"/><polygon points=" 366.1 25.2 359.5 18.6 371.1 18.6 376.7 24.2 " class="b"/><polygon points=" 366.1 32.6 359.5 39.2 371.1 39.2 376.7 33.6 " class="b"/><path d="M403.8 28.8c0-3.2-2.7-9.1-14.1-9.1 -11.3 0-23.7 5.6-23.7 5.6v3.6 3.6c0 0 12.3 5.6 23.7 5.6C401.1 37.9 403.8 32 403.8 28.8z" class="b"/><line x1="376.7" y1="28.5" x2="357.6" y2="28.5" class="b"/><line x1="388.2" y1="37.9" x2="388.2" y2="19.9" class="b"/></svg>