<svg xmlns="http://www.w3.org/2000/svg" viewBox="0 0 798.5 798.5" style="enable-background:new 0 0 798.5 798.5;version:1"><style>.a{fill:#ACACAC;}.b{fill:#CECECE;stroke-linejoin:round;stroke-miterlimit:10;stroke-width:6;stroke:#CECECE;}.c{fill:#6F6F6F;}.d{fill:#DADADA;}.e{fill:#CECECE;}.f{fill:#ECECEC;}.g{fill:#5A5A5A;}.h{fill:#B2B2B2;}.i{fill:#686868;}.j{fill:none;stroke-linecap:round;stroke-miterlimit:10;stroke-width:6;stroke:#313131;}.k{fill:none;stroke-linecap:round;stroke-linejoin:round;stroke-miterlimit:10;stroke-width:6;stroke:#2B2B2B;}.l{fill:none;stroke-linecap:round;stroke-miterlimit:10;stroke-width:6;stroke:#2B2B2B;}.m{fill:none;stroke-linecap:round;stroke-linejoin:round;stroke-miterlimit:10;stroke-width:6;stroke:#313131;}</style><rect x="-47.9" y="-76.2" width="895.8" height="951.3" fill="#A4A4A4"/><path d="M494.7 479.6L494.7 479.6c0.1 0 100.5 47.6 118.2 55.9 31.6 14.9 48.2 34.1 59.8 42.1 11.6 8 38.4 13.9 49.6 25.2 11.2 11.2 24 36.1 24 36.1H53.6c0 0 12.7-24.9 24-36.1 11.2-11.2 38-17.2 49.6-25.2 11.6-8 28.3-27.2 59.8-42.1 17.7-8.3 118.2-55.9 118.2-55.9l0.1 0c1.7-18.7 2.6-37.7 2.7-41.5 3.3 17 7.5 33.4 13 46.4 13 30.7 41.3 61.8 78.9 61.9h0.1c37.7 0 66-31.1 78.9-61.9 5.5-13 9.7-29.4 13-46.4C492.1 441.8 493 460.9 494.7 479.6z" class="a"/><path d="M502.8 339.9C502.8 339.9 502.8 339.9 502.8 339.9c0-0.1 0-0.2 0-0.3 0 0 0-0.1 0-0.1 0.7-5.6 2.1-18 3.6-31.4 7.8-9 15.9-14.1 20.3-9.8 4.5 4.5 6.8 21.5 4 31.9 -2.8 10.4-9.2 31.3-17.4 39.9 6.2 15.1-1.7 21.6-13.3 15.9l-0.8-0.1c2.1-20.5 2.9-36.8 3.1-41.8C502.6 342.8 502.7 341.4 502.8 339.9z" class="a"/><path d="M429 597.9c18.9 0 54.5-17.5 76.5-44.9 42.5 4.8 96.5 28 118.9 43.8 29.5 20.8 45.7 1.2 67.5 42.1H417.6C442.2 624.9 446.7 611.2 429 597.9z" class="b"/><path d="M426.6 596.1c0.9 0.6 1.6 1.2 2.4 1.8C427.5 597.7 426.6 597.1 426.6 596.1z" class="b"/><path d="M506.5 308.1c-1.5 13.4-3 25.8-3.6 31.4 0.5-4.7 4.6-50.5-16.8-61.4 7.7-20.3 6.8-47.9-14.5-72.2l-0.3-0.4c5.8-3.4 11-7.2 15.4-11.6 1 1.4 2 2.8 3 4.2 19.9 30.2 22.1 58.3 19.7 83.2C508.5 289.6 507.5 299.1 506.5 308.1z" class="c"/><path d="M411.2 332.1c-0.6-2 32.8-5.3 43.3-18.4 3.4-0.2 6.8 0 10 1 0.1 0 0.3 0.1 0.4 0.1 0.2 0 0.3 0.1 0.5 0.1 0.2 0.1 0.5 0.1 0.7 0.2 2.7 1 5.1 2.4 7.1 3.9 0.2 0.1 0.4 0.3 0.5 0.4 0 0 4.2-7.5 6.4-11.4 3.8-3.9 5-14.3-13.5-22.3 2.6-6.9 4.1-13.2 4.8-18.9 1.1-6.6 1.1-13.8-1.4-21.7 0-20.6-15.9-31.7-16.2-32 6.3-2.1 12-4.7 17.1-7.6 0.1 0 0.2-0.1 0.2-0.1l0.3 0.4c21.3 24.3 22.2 51.8 14.5 72.2 21.5 10.9 17.3 56.7 16.8 61.4 0 0 0 0 0 0.1 0 0.1 0 0.1 0 0.2 0 0 0 0 0 0.1 -0.2 1.7-0.3 2.7-0.3 2.7 0 0 0 0.6 0 1.6 -4.1 38.7-23.3 58.4-32.9 58.4 0 0 2.4 30.7-6 39.2 -3.1-8.5-8-15-13.4-20.1 -9.7-9.9-20-13.9-24-14.9 4.5-2.4 11.4-16.6-9-31.7 5.5-16.5-1.4-24.4-4.1-26.8 -0.2-0.2-0.4-0.3-0.5-0.4 -0.2-0.2-0.4-0.3-0.5-0.3 0 0-0.1-3.4-0.2-7.1C411.5 336.8 411.3 333 411.2 332.1zM454 334.1c-5.9-2.6-11-3.6-15.8-2.3 -6.1 1.7-12.6 7.5-15.2 12.1 -0.4 0.6-0.7 1.3-0.9 1.9 0 0 0 0.1 0 0.2 0.2 1.4 1.9 2.6 4.2 3.7 2.2 1.1 4.9 2.2 7 3.3 18.3 13.9 33.2 13.9 43.5-4.3 -1.8-2.4-10.5-8.4-10.5-8.4C463.3 337.4 459.1 335.4 454 334.1L454 334.1z" class="a"/><path d="M308 438.2c-3.4-17.8-5.8-36.2-7.4-52.1 -1.9-19.2-2.8-34.7-3.1-40.7 4.3 37.4 22.8 56.7 32.4 57.2 0.1 0 0.3 0 0.4 0 0 0-2.4 30.7 6 39.2 0 0 0 0 0-0.1 0 0 0 0 0.1 0.1 0.1-0.4 0.3-0.7 0.4-1.1 3.5-7.6 7.8-13.6 12.2-18.3 14.4-13.9 33.3-16.5 33.3-16.5 6 1.5 10 7.4 17.6 7.5 0 0 0 0 0.1 0 7.6 0 11.6-5.9 17.6-7.5 0 0 18.2 2.6 32.5 15.8 4.9 5 9.7 11.6 13.4 20.1 8.5-8.5 6-39.2 6-39.2 9.6 0 28.8-19.7 32.9-58.3 -0.2 5-1 21.2-3.1 41.8 -1.6 15.9-4 34.3-7.4 52.1 -3.3 17-7.5 33.4-13 46.4 -13 30.7-41.3 61.8-78.9 61.9H400c-37.7 0-66-31.1-78.9-61.9C315.6 471.6 311.3 455.2 308 438.2 308 438.2 308 438.2 308 438.2zM442.6 446.7c-8.4-7.7-17.7-14.1-29.7-16 -4.4 9-21.3 8.9-25.6 0 -12.1 1.9-21.3 8.3-29.7 16C377.8 465.8 422.2 465.8 442.6 446.7z" class="c"/><path d="M371 597.9c-18.9 0-54.5-17.5-76.5-44.9 -42.5 4.8-96.5 28-118.9 43.8 -29.5 20.8-45.7 1.2-67.5 42.1h274.2C357.8 624.9 353.3 611.2 371 597.9z" class="b"/><path d="M373.4 596.1c-0.9 0.6-1.6 1.2-2.4 1.8C372.5 597.7 373.4 597.1 373.4 596.1z" class="b"/><path d="M373.4 596.1c0 27.7 53.1 27.7 53.1 0 31.5 4.9 78.9-43.2 78.9-43.2v85.9H292.5l9.9-41.8L373.4 596.1z" class="b"/><path d="M466.7 285.8c18.6 8 17.4 18.4 13.5 22.3C486.2 289.7 468 291.9 466.7 285.8z" class="d"/><path d="M329.6 246.3c0.1-0.4 0.2-0.7 0.2-1.1 0-20.8 16.2-31.9 16.2-31.9s-0.2-0.1-0.5-0.2c15.2 5.2 33.4 8 54.4 8h0.1c20.7 0 38.8-2.6 53.9-7.8 0.4 0.3 16.2 11.4 16.2 31.9 1.5 6.6 2.3 13.6 1.4 21.7 -1 6.1-2.9 11.6-4.6 16.6 -0.3 0.9-0.3 1.6-0.2 2.2 1.3 6 19.4 3.9 13.5 22.3 -2.2 3.9-6.3 11.4-6.3 11.4 -0.2-0.2-0.4-0.3-0.6-0.4 -2.3-1.8-4.7-3-7.1-3.9 -0.2-0.1-0.5-0.2-0.7-0.2 -0.2-0.1-0.4-0.1-0.5-0.2 -0.1 0-0.3-0.1-0.4-0.1 -2.9-0.9-6.3-1.3-10-1 -15.8 15.8-43.3 18.5-43.3 18.5s-1.3 9.3 0.6 15.4c0 0 0 0 0 0 0.1 0 0.2 0.1 0.4 0.3 0.2 0.1 0.3 0.3 0.6 0.5 2.5 2.2 8.3 9.5 4.1 26.8 8.5 9.9 20.1 20.7 9 31.7 -3.4-1.5-6.1-1.5-8.5-0.9 -6 1.5-10 7.4-17.6 7.5 0 0 0 0-0.1 0 -7.6 0-11.6-5.9-17.6-7.5 -2.4-0.6-5.1-0.5-8.5 0.9 0 0 0 0 0 0 -11-11 0.5-21.8 9-31.7 0 0 0 0 0 0 -4.8-19.7 3.5-26.4 5-27.4 0.1-0.1 0.2-0.1 0.2-0.1 1.9-6.1 0.6-15.4 0.6-15.4s0 0-0.1 0c1.2-1.9-13.4-2.4-26.7-7.4 -5.9-2.7-11.7-6.3-16.5-11.1 -3-0.3-5.7 0-8.2 0.5 -3.9 0.8-7.6 2.5-11.1 5.3 0 0-4.1-7.5-6.3-11.4l0.1 0c-5.9-18.3 12.2-16.2 13.5-22.3 0.1-0.6 0.1-1.4-0.2-2.3 -1.8-5.4-3.9-11.4-4.8-18.1C327.7 258.5 328.3 252.2 329.6 246.3z" class="e"/><circle cx="397.6" cy="254.7" r="53.4" class="f"/><path d="M413.5 391c0 6.4-6.1 10.5-13.6 10.5 -7.5 0-13.6-4.1-13.6-10.5s6.1-12.7 13.6-12.7C407.4 378.4 413.5 384.7 413.5 391z" class="f"/><path d="M408.8 366.6c0 11.7-4 27.4-8.9 27.4 -4.9 0-8.9-15.7-8.9-27.4 0-11.7 4-14.9 8.9-14.9C404.8 351.7 408.8 354.9 408.8 366.6z" class="f"/><path d="M486.7 193.9c-4.4 4.4-9.5 8.3-15.4 11.6 -0.1 0-0.2 0.1-0.2 0.1 -5.2 2.9-16.4 7.3-17.1 7.6 0 0 0 0 0 0 -15 5.1-33.1 7.8-53.9 7.8H400c-21 0-39.3-2.7-54.4-8 0 0 0 0 0 0 -2.1-0.8-9.9-4-14.9-6.5 0 0 0 0 0 0 -0.6-0.3-1.3-0.7-1.9-1 -5.8-3.4-11-7.2-15.4-11.6 29.3-39.7 75.6-38.7 86.6-38.7h0.1C411.1 155.1 457.4 154.2 486.7 193.9z" class="g"/><path d="M470.1 245.2c2.4 7.9 2.4 15.1 1.4 21.7C472.4 258.9 471.6 251.8 470.1 245.2z" class="h"/><path d="M466.2 340.3c0 0 8.7 6 10.5 8.4 -10.3 18.2-25.1 18.3-43.5 4.4 -2.1-1.1-4.8-2.1-7-3.3 -2.2-1.1-4-2.3-4.2-3.7 0-0.1 0-0.2 0.1-0.2 0.2-0.6 0.5-1.2 0.9-1.9 0 0 0 0 0 0 2.4-3.9 8.5-8 15.2-12.1 0.6 0 1.2 0.1 1.8 0.1l0 0c0 0 0 0-0.1 0 -1.7 1.5-2.8 3.7-2.8 6.2 0 4.4 3.5 8 7.9 8.2 0.1 0 0.3 0 0.4 0 0.1 0 0.2 0 0.4 0 4.4-0.2 7.9-3.8 7.9-8.2 0-1.6-0.5-3.2-1.3-4.4 0.6 0.1 1.1 0.3 1.7 0.4h0C457.7 335.7 461.7 337.8 466.2 340.3z" class="e"/><path d="M466.9 283.6c1.7-5 3.6-10.5 4.6-16.6 -0.6 5.7-2.1 11.9-4.8 18.8C466.6 285.2 466.6 284.4 466.9 283.6z" class="d"/><path d="M473.4 319.1c-2-1.5-4.4-2.9-7.1-3.9C468.7 316 471.1 317.3 473.4 319.1z" class="h"/><path d="M466.2 315.2c-0.2-0.1-0.5-0.2-0.7-0.2C465.8 315 466 315.1 466.2 315.2z" class="h"/><path d="M465 314.7c-0.1 0-0.3-0.1-0.4-0.1C464.7 314.7 464.9 314.7 465 314.7z" class="d"/><path d="M453.9 213.3c0.7-0.3 11.9-4.7 17.1-7.6C465.9 208.6 460.2 211.2 453.9 213.3z" class="h"/><path d="M454 334.1c5 1.3 9.2 3.2 12.2 6.2C461.7 337.8 457.7 335.7 454 334.1z" class="h"/><path d="M454.6 313.7c3.7-0.3 7 0.1 10 1C461.4 313.7 458 313.4 454.6 313.7z" class="d"/><path d="M454 334.1c-0.5-0.1-1.1-0.3-1.7-0.4 0 0 0 0 0 0l0 0c-0.4-0.1-0.9-0.2-1.4-0.3 -0.5-0.1-1-0.2-1.5-0.3 -0.5-0.1-1-0.2-1.5-0.2 -0.5-0.1-0.9-0.1-1.4-0.2 -0.1 0-0.2 0-0.4 0 -0.3 0-0.7-0.1-1-0.1 -0.2 0-0.3 0-0.5-0.1 0 0 0 0-0.1 0 -0.4 0-0.9-0.1-1.4-0.1 -0.9-0.1-1.9-0.2-2.9-0.3 -0.1 0-0.3 0-0.4 0 -0.6 0-1.2-0.1-1.8-0.1C443 330.5 448.1 331.6 454 334.1z" class="d"/><path d="M452.4 333.7c0.8 1.3 1.3 2.8 1.3 4.4 0 4.4-3.5 8-7.9 8.2 4.3-0.2 7.8-3.8 7.8-8.2C453.6 336.5 453.1 335 452.4 333.7c-0.8-0.2-1.5-0.3-2.2-0.4 -0.2 0-0.5-0.1-0.7-0.1 -0.2 0-0.5-0.1-0.7-0.1 -0.3 0-0.5-0.1-0.8-0.1 -0.2 0-0.4-0.1-0.6-0.1 -0.4-0.1-0.7-0.1-1.1-0.2 -0.3 0-0.7-0.1-1.1-0.1 -0.2 0-0.3 0-0.5-0.1 -0.5-0.1-1-0.1-1.4-0.2 -0.9-0.1-1.9-0.2-2.9-0.3 -0.1 0-0.2 0-0.3 0l0 0c0.1 0 0.3 0 0.4 0 1 0.1 1.9 0.2 2.9 0.3 0.5 0 0.9 0.1 1.4 0.1 0 0 0 0 0.1 0 0.2 0 0.3 0 0.5 0.1 0.3 0 0.7 0.1 1 0.1 0.1 0 0.2 0 0.4 0 0.5 0.1 0.9 0.1 1.4 0.2 0.5 0.1 1 0.2 1.5 0.2 0.5 0.1 1 0.2 1.5 0.3C451.4 333.5 451.8 333.6 452.4 333.7L452.4 333.7C452.3 333.7 452.3 333.7 452.4 333.7z" class="d"/><path d="M452.3 333.7c0.8 1.3 1.3 2.8 1.3 4.4 0 4.4-3.5 8-7.8 8.2 -0.1 0-0.2 0-0.4 0 -0.1 0-0.3 0-0.4 0 -4.3-0.2-7.8-3.8-7.8-8.2 0-2.5 1.1-4.6 2.8-6.1 0.1 0 0.2 0 0.3 0 1 0.1 1.9 0.2 2.9 0.3 0.5 0 1 0.1 1.4 0.2 0.2 0 0.3 0 0.5 0.1 0.4 0 0.7 0.1 1.1 0.1 0.4 0 0.8 0.1 1.1 0.2 0.2 0 0.4 0.1 0.6 0.1 0.3 0 0.5 0.1 0.8 0.1 0.3 0 0.5 0.1 0.7 0.1 0.2 0 0.5 0.1 0.7 0.1C450.9 333.4 451.6 333.6 452.3 333.7z" class="i"/><path d="M452.3 333.7c-0.4-0.1-0.9-0.2-1.4-0.3C451.4 333.5 451.8 333.6 452.3 333.7z" class="d"/><path d="M463.5 441.8c-3.7-8.5-8.5-15.1-13.4-20.1C455.5 426.7 460.4 433.3 463.5 441.8z" class="h"/><path d="M449.5 333.1c0.5 0.1 1 0.2 1.5 0.3C450.4 333.3 450 333.2 449.5 333.1z" class="d"/><path d="M444.6 332.4c-0.4 0-0.9-0.1-1.4-0.1C443.7 332.3 444.2 332.4 444.6 332.4z" class="d"/><path d="M426.1 406.8c4 1 14.3 4.9 24 14.9 -14.3-13.2-32.5-15.8-32.5-15.8C420 405.3 422.7 405.4 426.1 406.8z" class="d"/><path d="M439.9 332C440 332 440 332 439.9 332c-1.6 1.5-2.7 3.7-2.7 6.2 0 4.4 3.5 8 7.8 8.2 -4.4-0.2-7.9-3.8-7.9-8.2C437.2 335.7 438.2 333.5 439.9 332z" class="d"/><path d="M412.8 430.8c12.1 1.9 21.3 8.3 29.7 16 -16.1-6.2-41.5-1.7-42.6-1.5 -1.1-0.2-26.5-4.7-42.6 1.5 8.4-7.7 17.7-14.1 29.7-16C391.6 439.6 408.5 439.8 412.8 430.8z" fill="#7E7E7E"/><path d="M423 344c2.6-4.6 9.1-10.4 15.2-12.1C431.5 336 425.4 340.1 423 344z" class="d"/><path d="M426.1 406.8c11-11.1-0.5-21.9-9-31.7C437.5 390.2 430.6 404.4 426.1 406.8z" class="d"/><path d="M423 344c-0.4 0.7-0.7 1.3-0.9 1.9C422.3 345.3 422.6 344.6 423 344z" class="h"/><path d="M400 445.3c1.1-0.2 26.5-4.7 42.6 1.5 -20.3 19.1-64.8 19.1-85.1 0C373.5 440.6 398.9 445.1 400 445.3 400 445.3 400 445.3 400 445.3L400 445.3C400 445.3 400 445.3 400 445.3z" fill="#B3B3B3"/><path d="M413 348.3c2.8 2.4 9.7 10.3 4.1 26.8C421.3 357.8 415.5 350.5 413 348.3z" class="d"/><path d="M411.9 347.5c0.1 0 0.2 0.1 0.4 0.3C412.2 347.7 412 347.6 411.9 347.5z" class="h"/><path d="M388.7 332.1c0 0 1.3 9.3-0.6 15.4 0 0-0.1 0-0.2 0.1l0 0c0.1-0.1 0.2-0.1 0.2-0.1S388.4 333.9 388.7 332.1C388.7 332.1 388.7 332.1 388.7 332.1 388.7 332.1 388.7 332.1 388.7 332.1z" class="d"/><path d="M361.9 324.7c13.3 4.9 28 5.5 26.7 7.4C387.6 332 374.8 330.6 361.9 324.7z" class="h"/><path d="M344.1 363.1c6.8-0.2 14.3-3.7 22.6-9.9 2.1-1.1 4.8-2.1 7-3.3 2.2-1.1 4-2.3 4.2-3.7 -0.3-1-0.8-2-1.6-3.1 -2.9-4.4-8.9-9.5-14.5-11.1 0 0 0 0-0.1 0 0 0 0 0-0.1 0l0 0c-4.9-1.4-10-0.3-15.9 2.3 -4.9 1.3-9 3.2-11.9 6.1 -0.1 0-0.1 0.1-0.2 0.1 0 0-8.7 6-10.5 8.4 5.3 9.5 11.9 14 19.6 14.3C343.2 363.1 343.7 363.1 344.1 363.1zM337.1 314.2c2.7-0.6 5.4-0.7 8.2-0.5 3.9 5.2 10.1 8.7 16.6 11.1 12.9 5.9 25.7 7.3 26.7 7.4 0 0 0 0 0 0 -0.2 1.7-0.6 15.4-0.6 15.4s-0.1 0-0.2 0.1c-1.4 1-11.3 8.6-5 27.5 -20.4 15.1-13.5 29.3-9 31.7 -4.1 1-14.8 5.1-24.7 15.6 -4.9 4.7-9.3 10.7-12.2 18.3 -0.2 0.3-0.3 0.7-0.5 1 -8.4-8.6-6-39.1-6-39.1 0 0 0 0-0.1 0 -0.1 0-0.2 0-0.4 0 -9.7-0.6-28.4-20.3-32.4-58.3 0-1-0.1-1.6-0.1-1.7 0 0-0.1-1-0.3-2.7 0 0 0 0 0-0.1 0-0.1 0-0.1 0-0.2 0 0 0-0.1 0-0.1 -0.5-4.7-4.6-50.5 16.8-61.4 -7.7-20.3-6.8-47.9 14.5-72.2l0.2-0.4c0.6 0.3 1.2 0.7 1.9 1 0 0 0 0 0 0 4.6 2.5 9.6 4.7 14.9 6.5 0 0 0 0 0 0 0.3 0.1 0.5 0.2 0.5 0.2s-16.2 11.2-16.2 31.9c-0.1 0.4-0.2 0.7-0.2 1.1 -2 6.9-2.1 13.3-1.3 19.2 0.5 6.1 2 12.8 4.9 20.3 -18.6 8-17.4 18.4-13.5 22.3 0 0 0 0 0 0 2.2 3.9 6.3 11.4 6.3 11.4C329.5 316.7 333.3 315 337.1 314.2z" class="a"/><path d="M387.8 347.6L387.8 347.6c-1.5 1.1-9.7 7.8-4.9 27.5 0 0 0 0 0 0l0 0C376.5 356.2 386.4 348.6 387.8 347.6z" class="d"/><path d="M382.8 375.1L382.8 375.1c-8.5 9.9-20 20.7-9 31.7l0 0C369.4 404.4 362.5 390.2 382.8 375.1z" class="d"/><path d="M373.9 406.8c3.4-1.5 6.1-1.5 8.5-0.9 0 0-18.8 2.7-33.3 16.5C359 411.9 369.7 407.9 373.9 406.8L373.9 406.8C373.9 406.8 373.9 406.8 373.9 406.8z" class="d"/><path d="M342.8 363.1c-7.7-0.2-14.2-4.8-19.6-14.3 1.8-2.4 10.5-8.4 10.5-8.4 0.1 0 0.1-0.1 0.2-0.1 0.1 0 0.1-0.1 0.2-0.1 4.3-2.4 8.1-4.4 11.7-5.9 0.6-0.2 1.2-0.3 1.9-0.5 -0.8 1.3-1.3 2.8-1.3 4.4 0 4.4 3.5 8 7.9 8.2 0.1 0 0.3 0 0.4 0 0.1 0 0.2 0 0.4 0 4.4-0.2 7.9-3.8 7.9-8.2 0-2.5-1.1-4.6-2.8-6.2 0.6 0 1.2-0.1 1.8-0.1 0 0 0.1 0 0.1 0 6.2 3.8 11.8 7.5 14.5 11.1 0.7 1.1 1.3 2.2 1.6 3.1 -0.2 1.4-2 2.6-4.2 3.7 -2.2 1.1-4.9 2.2-7 3.3 -8.3 6.3-15.9 9.7-22.6 9.9C343.7 363.1 343.2 363.1 342.8 363.1z" class="e"/><path d="M376.4 343c-2.7-3.6-8.3-7.3-14.5-11.1C367.5 333.5 373.5 338.6 376.4 343z" class="d"/><path d="M383 375.1c-32.7 6.5-50.3 29-46 65.6 4.9-14.4 18-25.4 37-33.9L383 375.1z" class="e"/><path d="M360 332c1.7 1.5 2.8 3.7 2.8 6.2 0 4.4-3.5 8-7.9 8.2 4.3-0.2 7.8-3.8 7.8-8.2C362.7 335.7 361.6 333.5 360 332 359.9 332 360 332 360 332z" class="d"/><path d="M347.6 333.7C347.6 333.7 347.6 333.7 347.6 333.7c0.7-0.2 1.4-0.3 2.2-0.5 0.2 0 0.5-0.1 0.7-0.1 0.2 0 0.5-0.1 0.7-0.1 0.3 0 0.5-0.1 0.8-0.1 0.2 0 0.4-0.1 0.6-0.1 0.4-0.1 0.7-0.1 1.1-0.2 0.3 0 0.7-0.1 1.1-0.1 0.2 0 0.3 0 0.5-0.1 0.4 0 0.9-0.1 1.4-0.1 0 0 0 0 0.1 0 0.9-0.1 1.9-0.2 2.9-0.3 0.1 0 0.2 0 0.3 0 1.7 1.5 2.8 3.7 2.8 6.1 0 4.4-3.5 8-7.8 8.2 -0.1 0-0.2 0-0.4 0 -0.1 0-0.3 0-0.4 0 -4.3-0.2-7.8-3.8-7.8-8.2C346.3 336.5 346.8 335 347.6 333.7z" class="i"/><path d="M361.9 331.9c0 0-0.1 0-0.1 0C361.8 331.9 361.8 331.9 361.9 331.9 361.8 331.9 361.8 331.9 361.9 331.9z" class="h"/><path d="M361.7 331.9L361.7 331.9c-0.6 0-1.2 0.1-1.7 0.1 0 0 0 0-0.1 0l0 0c-0.1 0-0.3 0-0.4 0 -1 0.1-1.9 0.2-2.9 0.3 -0.5 0-1 0.1-1.4 0.2 -0.2 0-0.3 0-0.5 0.1 -0.3 0-0.7 0.1-1 0.1 -0.1 0-0.2 0-0.4 0 -0.5 0.1-0.9 0.1-1.4 0.2 -0.5 0.1-1 0.2-1.5 0.2 -0.5 0.1-1 0.2-1.5 0.3 -0.5 0.1-0.9 0.2-1.4 0.3 0 0 0 0 0 0 0 0 0 0 0 0 -0.6 0.1-1.2 0.3-1.8 0.4C351.8 331.6 356.8 330.5 361.7 331.9z" class="d"/><path d="M417.1 375.1c32.7 6.5 50.3 29 46 65.6 -4.9-14.4-18-25.4-37-33.9L417.1 375.1z" class="e"/><path d="M359.9 332L359.9 332c-0.1 0-0.2 0-0.3 0 -1 0.1-1.9 0.2-2.9 0.3 0 0 0 0-0.1 0 -0.5 0-0.9 0.1-1.4 0.1 -0.2 0-0.3 0-0.5 0.1 -0.4 0-0.7 0.1-1.1 0.1 -0.4 0-0.8 0.1-1.1 0.2 -0.2 0-0.4 0.1-0.6 0.1 -0.3 0-0.5 0.1-0.8 0.1 -0.2 0-0.5 0.1-0.7 0.1 -0.2 0-0.5 0.1-0.7 0.1 -0.7 0.1-1.5 0.3-2.2 0.4 0 0-0.1 0-0.1 0 0 0 0 0 0 0 0 0 0 0 0 0 0.5-0.1 0.9-0.2 1.4-0.3 0.5-0.1 1-0.2 1.5-0.3 0.5-0.1 1-0.2 1.5-0.2 0.5-0.1 0.9-0.1 1.4-0.2 0.1 0 0.2 0 0.4 0 0.3 0 0.7-0.1 1-0.1 0.2 0 0.3 0 0.5-0.1 0.5-0.1 1-0.1 1.4-0.2 0.9-0.1 1.9-0.2 2.9-0.3C359.6 332 359.8 332 359.9 332z" class="d"/><path d="M356.7 332.3c-0.5 0-0.9 0.1-1.4 0.1C355.7 332.4 356.2 332.3 356.7 332.3z" class="d"/><path d="M346.3 338.2c0 4.4 3.5 8 7.8 8.2C349.7 346.2 346.3 342.6 346.3 338.2c-0.1-1.6 0.4-3.1 1.2-4.4 0 0 0.1 0 0.1 0C346.8 335 346.3 336.5 346.3 338.2z" class="d"/><path d="M347.6 333.7C347.6 333.7 347.6 333.7 347.6 333.7 347.6 333.7 347.6 333.7 347.6 333.7 347.5 333.7 347.5 333.7 347.6 333.7 347.6 333.7 347.6 333.7 347.6 333.7z" class="d"/><path d="M347.5 333.7C347.5 333.7 347.5 333.7 347.5 333.7c-0.6 0.2-1.3 0.3-1.9 0.5 0 0 0.1 0 0.1 0C346.4 334 346.9 333.9 347.5 333.7z" class="d"/><path d="M345.4 313.7c4.8 4.8 10.7 8.4 16.5 11.1C355.4 322.3 349.2 318.8 345.4 313.7c-2.9-0.2-5.6 0-8.2 0.5C339.6 313.6 342.4 313.4 345.4 313.7z" class="d"/><path d="M345.8 334.2C345.7 334.2 345.7 334.2 345.8 334.2c-4.9 1.3-8.9 3.2-11.8 6 0 0-0.1 0.1-0.2 0.1C336.8 337.4 340.9 335.4 345.8 334.2z" class="h"/><path d="M334 340.2c2.9-2.8 6.9-4.7 11.7-5.9C342.1 335.7 338.3 337.8 334 340.2z" class="h"/><path d="M330.6 206.6c5 2.5 12.8 5.7 14.9 6.5C340.1 211.2 335.1 209.1 330.6 206.6z" class="h"/><path d="M336.9 440.7c3-7.6 7.3-13.6 12.2-18.3C344.7 427.1 340.4 433.1 336.9 440.7z" class="h"/><path d="M336.4 441.7c0.2-0.3 0.3-0.7 0.5-1C336.8 441.1 336.6 441.4 336.4 441.7 336.5 441.8 336.5 441.8 336.4 441.7z" class="d"/><path d="M336.4 441.7C336.4 441.8 336.4 441.8 336.4 441.7c-8.5-8.4-6.1-39.1-6.1-39.1 0 0 0 0 0.1 0C330.4 402.6 328 433.2 336.4 441.7z" class="h"/><path d="M333.1 283.6c0.3 0.9 0.3 1.6 0.2 2.3l-0.1 0c-2.9-7.5-4.4-14.2-4.9-20.3C329.2 272.2 331.2 278.2 333.1 283.6z" class="d"/><path d="M333.2 285.8L333.2 285.8c-1.3 6-19.4 3.9-13.5 22.3l-0.1 0c0 0 0 0 0 0C315.8 304.2 314.6 293.9 333.2 285.8z" class="d"/><path d="M328.7 205.5c0.6 0.4 1.2 0.7 1.9 1C329.9 206.2 329.2 205.9 328.7 205.5L328.7 205.5z" class="d"/><path d="M293.5 308.1c-1-9-2-18.6-2.8-26.8 -2.4-24.9-0.2-53.1 19.7-83.2 1-1.5 2-2.9 3-4.2 4.4 4.4 9.5 8.3 15.4 11.6l0 0c0 0 0 0-0.1 0l-0.3 0.4c-21.3 24.3-22.2 51.8-14.5 72.2 -19.4 9.9-17.9 48.3-17 59C296.1 330.8 294.8 319.9 293.5 308.1z" class="c"/><path d="M328.7 205.5l-0.2 0.4c-21.3 24.3-22.2 51.8-14.5 72.2 -21.4 10.9-17.3 56.7-16.8 61.4 -0.1-0.7-0.2-1.5-0.3-2.4 -0.8-10.8-2.4-49.1 17-59 -7.7-20.3-6.8-47.9 14.5-72.2L328.7 205.5C328.6 205.5 328.7 205.5 328.7 205.5z" class="h"/><path d="M329.6 246.3c-1.3 5.9-1.9 12.1-1.3 19.2C327.5 259.6 327.6 253.2 329.6 246.3z" class="h"/><path d="M297.6 344.3c4 38 22.7 57.7 32.4 58.3 -9.6-0.5-28.1-19.8-32.4-57.2C297.6 345 297.6 344.6 297.6 344.3z" class="h"/><path d="M297.1 339.8C297.1 339.8 297.1 339.9 297.1 339.8c0 0.1 0 0.1 0 0.1 0.1 0.7 0.2 1.3 0.2 1.8 0 0 0 0 0 0 0 0.4 0.1 0.9 0.1 1.3 0 0 0 0 0 0 0 0.3 0 0.6 0 1.1 0 0.4 0.1 0.7 0.1 1.1 0.3 6 1.1 21.5 3.1 40.7l-0.8 0.1c-11.6 5.7-19.5-0.8-13.3-15.9 -8.2-8.6-14.6-29.5-17.4-39.9 -2.8-10.4-0.5-27.4 4-31.9 4.4-4.4 12.5 0.7 20.3 9.8 1.3 11.7 2.6 22.7 3.3 29 0.1 1.3 0.2 2.1 0.2 2.5C297.1 339.7 297.1 339.8 297.1 339.8z" class="a"/><path d="M297.6 345.4c0-0.4-0.1-0.7-0.1-1.1 0-0.5 0-0.9 0-1.1 0 0.4 0.1 0.8 0.1 1.2C297.6 344.6 297.6 345 297.6 345.4z" class="h"/><path d="M297.5 342.7c0 0 0 0.6 0.1 1.7 0-0.4-0.1-0.8-0.1-1.2 0 0 0 0 0 0C297.4 342.8 297.4 342.7 297.5 342.7c-0.1 0-0.1-0.3-0.2-0.9 0 0 0 0 0 0 -0.1-0.6-0.1-1.2-0.1-1.8C297.4 341.7 297.5 342.7 297.5 342.7z" class="h"/><path d="M297.2 339.9c0 0.6 0.1 1.2 0.1 1.8C297.3 341.3 297.2 340.7 297.2 339.9 297.1 339.9 297.1 339.9 297.2 339.9c-0.1-0.1-0.1-0.1-0.1-0.1L297.2 339.9z" class="h"/><path d="M297.2 339.9C297.2 339.9 297.2 339.9 297.2 339.9L297.2 339.9c-0.1-0.1-0.1-0.2-0.1-0.2 0-0.4-0.1-1.3-0.2-2.5 0.1 0.9 0.2 1.7 0.3 2.4 0 0 0 0.1 0 0.1C297.2 339.7 297.2 339.8 297.2 339.9z" class="h"/><path d="M400 155.1L400 155.1c-10 0-48.8-0.8-77.8 28.4 2.1 1.5 4.2 2.9 6.5 4.2 0.6 0.4 1.2 0.7 1.9 1 0 0 0 0 0 0 5 2.5 12.8 5.7 14.9 6.5 0 0 0 0 0 0 15.2 5.2 33.4 8 54.4 8h0.1c20.7 0 38.8-2.6 53.9-7.8 0 0 0 0 0 0 0.7-0.3 11.9-4.7 17.1-7.6 0.1 0 0.2-0.1 0.2-0.1 2.3-1.3 4.4-2.7 6.5-4.2C448.8 154.4 410 155.1 400 155.1z" class="c"/><path d="M382.9 375.1C382.9 375.1 382.9 375.1 382.9 375.1c-8.5 9.9-20 20.7-9.1 31.7 0 0 0 0 0 0 3.4-1.5 6.1-1.5 8.5-0.9 6 1.5 10 7.4 17.6 7.5" class="j"/><path d="M356.7 332.3c-0.5 0-0.9 0.1-1.4 0.1" class="j"/><path d="M368.1 492.9l31.5 53.5c-106.1-4.2-99.4-184.4-102.7-209.3 3.2 32.2 12 56.9 33.1 65.4 -1.1 15.2 0.2 28.7 6.4 39.2C333.1 460.8 350.5 489.5 368.1 492.9z" class="g"/><path d="M378 346.1c-0.3-1-0.8-2.1-1.6-3.1 -2.7-3.6-8.3-7.3-14.5-11.1 0 0 0 0-0.1 0 0 0 0 0-0.1 0 -0.6 0-1.2 0.1-1.8 0.1" class="j"/><path d="M432 492.9c-9.9-18.5-54-18.5-63.9 0l31.9 53.5L432 492.9z" class="g"/><path d="M336.5 441.8c0.1-0.4 0.3-0.7 0.4-1.1 3-7.6 7.3-13.6 12.2-18.3 14.4-13.9 33.3-16.5 33.3-16.5" class="j"/><path d="M294.1 308.8c-0.2-0.2-0.4-0.4-0.5-0.6 -7.8-9-15.9-14.1-20.3-9.8 -4.5 4.5-6.8 21.5-4 31.9 2.8 10.4 9.2 31.3 17.4 39.9 -6.2 15.1 1.7 21.6 13.3 15.9" class="j"/><polyline points="278.3 311.3 297.1 339.8 297.2 339.9 " class="j"/><path d="M316.7 331c0 0 6.3-13.8 20.4-16.9 2.5-0.6 5.2-0.8 8.2-0.5 4.8 4.8 10.7 8.4 16.5 11.1 12.9 5.9 25.7 7.3 26.7 7.4 0 0 0.1 0 0.1 0s1.3 9.3-0.6 15.4c0 0-0.1 0-0.2 0.1 -1.5 1-9.8 7.7-5 27.4" class="k"/><path d="M336.5 441.8C336.5 441.8 336.5 441.8 336.5 441.8c-8.5-8.6-6-39.2-6-39.2 0 0 0 0-0.1 0 -0.1 0-0.2 0-0.4 0 -9.7-0.6-28.4-20.3-32.4-58.3 0-0.4-0.1-0.8-0.1-1.2 0 0 0 0 0 0 0-0.4-0.1-0.9-0.1-1.3 0 0 0 0 0 0 -0.1-0.6-0.1-1.2-0.1-1.8" class="j"/><path d="M319.7 308.1c-5.9-18.3 12.2-16.2 13.5-22.3 0.1-0.6 0.1-1.4-0.2-2.3 -1.8-5.4-3.9-11.4-4.8-18.1 -0.8-5.9-0.7-12.3 1.3-19.2 0.1-0.4 0.2-0.7 0.3-1.1" class="j"/><path d="M432 492.9c-9.9-18.5-54-18.5-63.9 0" class="j"/><path d="M308 438.2c-0.2 3.8-1.1 22.8-2.7 41.5 -1.4 15.6-3.3 31-5.8 37.1" class="j"/><path d="M308.1 437.5c0 0 0 0.2 0 0.7" class="j"/><path d="M305.2 479.6c0 0-100.5 47.6-118.2 55.9 -31.6 14.9-48.2 34.1-59.8 42.1 -11.6 8-38.4 13.9-49.6 25.2 -11.2 11.2-24 36.1-24 36.1h692.8c0 0-12.7-24.9-24-36.1 -11.2-11.2-38-17.2-49.6-25.2 -11.6-8-28.3-27.2-59.8-42.1 -17.7-8.3-118.2-55.9-118.2-55.9" class="l"/><path d="M366.8 353.1c-8.3 6.3-15.9 9.7-22.7 9.9 -0.4 0-0.9 0-1.3 0 -7.6-0.3-14.2-4.8-19.5-14.3" class="j"/><path d="M294.6 553c0 0 47.3 48.1 78.9 43.2" class="j"/><path d="M297.1 339.6c-0.5-4.7-4.6-50.5 16.8-61.4 -7.7-20.3-6.8-47.9 14.5-72.2" class="j"/><path d="M313.3 193.9L313.3 193.9c4.4 4.4 9.5 8.3 15.4 11.6 0.6 0.4 1.2 0.7 1.9 1 0 0 0 0 0 0 4.6 2.5 9.6 4.7 14.9 6.5 0 0 0 0 0 0 15.2 5.2 33.4 8 54.4 8" class="j"/><path d="M390.8 396.6c0 5.8 18.9 5.8 18.9 0" class="j"/><path d="M417.1 375.1c8.5 9.9 20.1 20.7 9 31.7 -3.4-1.5-6.1-1.5-8.5-0.9 -6 1.5-10 7.4-17.6 7.5 0 0 0 0-0.1 0" class="j"/><path d="M400 445.3c-1.1-0.2-26.5-4.7-42.6 1.5 8.4-7.7 17.7-14.1 29.7-16 4.4 8.9 21.3 9 25.6 0 12.1 1.9 21.3 8.3 29.7 16C426.5 440.6 401.1 445.1 400 445.3" class="m"/><path d="M400 445.3C400 445.3 400 445.3 400 445.3L400 445.3C400 445.3 400 445.3 400 445.3z" class="m"/><path d="M442.6 446.7c-20.3 19.1-64.8 19.1-85.1 0" class="j"/><path d="M466.2 340.3c-3-3-7.2-4.9-12.2-6.2h0c-0.5-0.1-1.1-0.3-1.7-0.4" class="j"/><path d="M449.5 333.1c0.5 0.1 1 0.2 1.5 0.3 0.5 0.1 0.9 0.2 1.4 0.3" class="j"/><path d="M443.3 332.3c0.5 0 0.9 0.1 1.4 0.1" class="j"/><path d="M422 346.1c0-0.1 0-0.2 0.1-0.2 0.2-0.6 0.5-1.3 0.9-1.9 0 0 0 0 0 0 2.4-3.9 8.5-8 15.2-12.1 0.6 0 1.2 0.1 1.8 0.1" class="j"/><path d="M463.5 441.8c-3.1-8.5-8-15.1-13.4-20.1 -14.3-13.2-32.5-15.8-32.5-15.8" class="j"/><path d="M505.9 308.8c0.2-0.2 0.4-0.4 0.5-0.6 7.8-9 15.9-14.1 20.3-9.8 4.5 4.5 6.8 21.5 4 31.9 -2.8 10.4-9.2 31.3-17.4 39.9 6.2 15.1-1.7 21.6-13.3 15.9" class="j"/><line x1="521.7" y1="311.3" x2="502.8" y2="339.9" class="j"/><path d="M431.8 492.9l-31.5 53.5c106.1-4.2 99.4-184.4 102.7-209.3 -3.2 32.2-12 56.9-33.1 65.4 1.1 15.2-0.2 28.7-6.4 39.2C466.8 460.8 449.4 489.5 431.8 492.9z" class="g"/><path d="M463.5 441.8c8.5-8.5 6-39.2 6-39.2 9.6 0 28.8-19.7 32.9-58.3 0.2-1.4 0.3-2.8 0.4-4.3" class="l"/><path d="M480.2 308.1c5.9-18.4-12.2-16.2-13.5-22.3 -0.1-0.6-0.1-1.4 0.2-2.2 1.7-5 3.6-10.5 4.6-16.6 1.1-6.6 1.1-13.8-1.4-21.7" class="j"/><path d="M491.9 437.5c0 0 0 0.2 0 0.6 0.2 3.7 1.1 22.8 2.7 41.5 1.4 15.6 3.3 31 5.8 37.1" class="j"/><path d="M433.2 353.1c18.4 13.9 33.2 13.9 43.5-4.4" class="j"/><path d="M505.4 553c0 0-47.3 48.1-78.9 43.2" class="j"/><path d="M502.9 339.6c0.5-4.7 4.6-50.5-16.8-61.4 7.7-20.3 6.8-47.9-14.5-72.2" class="j"/><path d="M486.7 193.9L486.7 193.9c-4.4 4.4-9.5 8.3-15.4 11.6 -0.1 0-0.2 0.1-0.2 0.1 -5.2 3-10.9 5.5-17.1 7.6 0 0 0 0 0 0 -15 5.1-33.1 7.8-53.9 7.8" class="j"/><path d="M400 155.1c11 0 57.3-0.9 86.6 38.7 1 1.4 2 2.8 3 4.2 19.9 30.2 22.1 58.3 19.7 83.2 -0.8 8.2-1.8 17.8-2.8 26.8 -1.5 13.4-3 25.8-3.6 31.4 0 0 0 0.1 0 0.1 0 0.1 0 0.1 0 0.2 0 0 0 0 0 0.1 -0.2 1.7-0.3 2.7-0.3 2.7 0 0 0 0.6-0.1 1.6 -0.2 5-1 21.2-3.1 41.8 -1.6 15.9-4 34.3-7.4 52.1 -3.3 17-7.5 33.4-13 46.4 -13 30.7-41.3 61.8-78.9 61.9H400c-37.7 0-66-31.1-78.9-61.9 -5.5-12.9-9.7-29.3-13-46.4 0 0 0 0 0 0 -3.4-17.8-5.8-36.2-7.4-52.1 -1.9-19.2-2.8-34.7-3.1-40.7 0-0.4 0-0.7 0-1 0-1-0.1-1.6-0.1-1.7 0 0-0.1-1-0.3-2.7 0 0 0 0 0-0.1 0-0.1 0-0.1 0-0.2 0 0 0-0.1 0-0.1 -0.1-0.7-0.2-1.5-0.3-2.4 -0.7-6.3-2-17.2-3.3-29 -1-9-2-18.6-2.8-26.8 -2.4-24.9-0.2-53.1 19.7-83.2 1-1.5 2-2.9 3-4.2C342.6 154.2 388.9 155.1 400 155.1" class="l"/><path d="M440 332L440 332c-1.7 1.5-2.8 3.7-2.8 6.2 0 4.4 3.5 8 7.8 8.2 0.1 0 0.3 0 0.4 0 0.1 0 0.2 0 0.4 0 4.4-0.2 7.9-3.8 7.9-8.2 0-1.6-0.5-3.2-1.3-4.4 0 0 0 0 0 0l0 0c-0.4-0.1-0.9-0.2-1.4-0.3 -0.5-0.1-1-0.2-1.5-0.3 -0.5-0.1-1-0.2-1.5-0.2 -0.5-0.1-0.9-0.1-1.4-0.2 -0.1 0-0.2 0-0.4 0 -0.3 0-0.7-0.1-1-0.1 -0.2 0-0.3 0-0.5-0.1 0 0 0 0-0.1 0 -0.4 0-0.9-0.1-1.4-0.1 -0.9-0.1-1.9-0.2-2.9-0.3C440.3 332 440.1 332 440 332z" class="j"/><path d="M360 332C360 332 359.9 332 360 332c-0.2 0-0.3 0-0.4 0 -1 0.1-1.9 0.2-2.9 0.3 0 0 0 0-0.1 0 -0.5 0-0.9 0.1-1.4 0.1 -0.2 0-0.3 0-0.5 0.1 -0.4 0-0.7 0.1-1.1 0.1 -0.4 0-0.8 0.1-1.1 0.2 -0.2 0-0.4 0.1-0.6 0.1 -0.3 0-0.5 0.1-0.8 0.1 -0.2 0-0.5 0.1-0.7 0.1 -0.2 0-0.5 0.1-0.7 0.1 -0.7 0.1-1.5 0.3-2.2 0.4 0 0 0 0 0 0 -0.8 1.3-1.3 2.8-1.3 4.4 0 4.4 3.5 8 7.8 8.2 0.1 0 0.3 0 0.4 0 0.1 0 0.2 0 0.4 0 4.4-0.2 7.9-3.8 7.9-8.2C362.8 335.7 361.7 333.5 360 332z" class="j"/><path d="M333.8 340.3c0.1-0.1 0.1-0.1 0.2-0.2 2.9-2.8 6.9-4.7 11.7-5.9 0.6-0.2 1.2-0.3 1.9-0.5 0 0 0.1 0 0.1 0 0 0 0.1 0 0.1 0" class="j"/><path d="M483 331c0 0-6.3-13.8-20.4-16.9 -2.5-0.6-5.2-0.8-8.2-0.5 -4.8 4.8-10.7 8.4-16.5 11.1 -12.9 5.9-25.7 7.3-26.7 7.4 0 0-0.1 0-0.1 0s-1.3 9.3 0.6 15.4c0 0 0.1 0 0.2 0.1 1.5 1 9.8 7.7 5 27.4" class="k"/></svg>