<svg xmlns="http://www.w3.org/2000/svg" viewBox="0 0 2007 1663.9"><style>.a{fill:#747474;}.b{fill:none;stroke-width:4;stroke:#747474;}.c{fill:none;stroke-width:7;stroke:#747474;}</style><path d="M-671.6 65.3c0 2-1.6 3.6-3.6 3.6 -2 0-3.6-1.6-3.6-3.6 0-2 1.6-3.6 3.6-3.6C-673.2 61.7-671.6 63.3-671.6 65.3z" class="a"/><rect x="-809.3" y="118.2" width="418.8" height="739.5" style="fill:none;stroke-width:2;stroke:#747474"/><circle cx="-600" cy="913.4" r="35.5" class="b"/><line x1="-637" y1="65" x2="-562.9" y2="65" class="b"/><path d="M-445.4 9.5c43.5 0 78.9 35.4 78.9 78.9v798.7c0 43.5-35.4 78.9-78.9 78.9h-309.2c-43.5 0-78.9-35.4-78.9-78.9V88.4c0-43.5 35.4-78.9 78.9-78.9H-445.4M-445.4 5.5h-309.2c-45.8 0-82.9 37.1-82.9 82.9v798.7c0 45.8 37.1 82.9 82.9 82.9h309.2c45.8 0 82.9-37.1 82.9-82.9V88.4C-362.5 42.6-399.6 5.5-445.4 5.5L-445.4 5.5z" class="a"/><circle cx="1003.5" cy="1348.9" r="59.5" class="c"/><path d="M1945.7 1445.8H61.3c-31.9 0-57.8-25.9-57.8-57.8V61.3c0-31.9 25.9-57.8 57.8-57.8h1884.5c31.9 0 57.8 25.9 57.8 57.8V1388C2003.5 1419.9 1977.6 1445.8 1945.7 1445.8z" class="c"/><rect x="88.4" y="80.6" width="1830.2" height="1098.1" class="b"/><line x1="3.5" y1="1256.7" x2="2003.5" y2="1256.7" class="b"/><circle cx="1003.5" cy="39.4" r="16" class="b"/><path d="M735.5 1633.4c30.7-15.2 34.5-108.7 40.7-187.6" class="c"/><path d="M1318.5 1633.4h-630c-14.9 0-27 12.1-27 27l0 0h684l0 0C1345.5 1645.5 1333.4 1633.4 1318.5 1633.4z" class="c"/><path d="M1271.5 1633.4c-30.7-15.2-34.5-108.7-40.7-187.6" class="c"/></svg>