<svg xmlns="http://www.w3.org/2000/svg" viewBox="0 0 474.9 964.4"><style>.a{fill:#747474;}.b{fill:none;stroke-width:4;stroke:#747474;}</style><path d="M165.8 59.8c0 2-1.6 3.6-3.6 3.6 -2 0-3.6-1.6-3.6-3.6 0-2 1.6-3.6 3.6-3.6C164.2 56.2 165.8 57.8 165.8 59.8z" class="a"/><rect x="28.1" y="112.7" width="418.8" height="739.5" style="fill:none;stroke-width:2;stroke:#747474"/><circle cx="237.5" cy="907.8" r="35.5" class="b"/><line x1="200.4" y1="59.4" x2="274.5" y2="59.4" class="b"/><path d="M392.1 4c43.5 0 78.9 35.4 78.9 78.9v798.7c0 43.5-35.4 78.9-78.9 78.9H82.9C39.4 960.4 4 925 4 881.5V82.9C4 39.4 39.4 4 82.9 4H392.1M392.1 0H82.9C37.1 0 0 37.1 0 82.9v798.7c0 45.8 37.1 82.9 82.9 82.9h309.2c45.8 0 82.9-37.1 82.9-82.9V82.9C474.9 37.1 437.8 0 392.1 0L392.1 0z" class="a"/></svg>