<svg xmlns="http://www.w3.org/2000/svg" viewBox="0 0 2500 375"><style>.a{fill:#cea472}.b{fill:#ebcb96;stroke-linejoin:round;stroke-width:3;stroke:#ebcb96}.c{fill:#99623c}.d{fill:#efd9b1}.e{fill:#ebcb96}.f{fill:#f3ebdf}.g{fill:#7c5031}.h{fill:#ceae84}.i{fill:#666b56}.j{fill:none;stroke-width:4;stroke:#0e423a}.k{stroke-linejoin:round}.k,.l,.m{fill:none;stroke-width:4;stroke:#003f33}.m{stroke-linejoin:round;stroke:#0e423a}.n{fill:#b9896e}.o{fill:#996d60}.p{fill:#d3a994}.q{stroke-linejoin:round;stroke-width:4;stroke:#3f3117}.q,.r{fill:none}.r,.s,.t{stroke-linejoin:round;stroke-width:4}.r{stroke:#010101}.s{fill:#594319;stroke:#3f3117}.t{fill:none;stroke:#3c2c14}.u{fill:#cb8f71}.v{fill:#41141c}.w{fill:#ceb1ae}.x{fill:#3a1215}.y{fill:#dbc2c0}.z{fill:#e0a892}.A{fill:#996556}.B{fill:#63483c}.C{fill:#562b36}.D{stroke-width:4;stroke:#27153c}.D,.E{fill:none}.E,.F{stroke-width:4}.E{stroke:#301218}.F{fill:#442a3d;stroke:#27153c}.G{fill:#242f49}.H{fill:#845b3e}.I{fill:#aa6d53}.J{fill:#cc8a76}.K,.L{fill:none;stroke-width:4;stroke:#152b44}.L{stroke:#152235}.M{fill:#fccaad}.N{fill:#442b2b}.O{fill:#562b2b}.P{fill:#d8a380}.Q{fill:#f8dac5}.R{fill:#331d1d}.S{fill:#ddb89e}.T{fill:#3c7268}.U{fill:#fddfcf}.V{fill:#c5485b}.W{fill:#4c3939}.X,.Y{fill:none;stroke-linejoin:round;stroke-width:4;stroke:#501426}.Y{stroke-width:3}</style><path fill="#61C4B5" d="M1000 0h500v375h-500z"/><path d="M1308.1 236.7s61.7 29.2 72.6 34.3c19.4 9.1 29.6 20.9 36.7 25.8 7.1 4.9 23.6 8.5 30.5 15.4 6.9 6.9 14.7 22.1 14.7 22.1h-425.1s7.8-15.2 14.7-22.1c6.9-6.9 23.3-10.5 30.5-15.4 7.1-4.9 17.4-16.7 36.7-25.8 10.9-5.1 72.5-34.3 72.5-34.3 1-11.5 1.6-23.1 1.7-25.4 2 10.4 4.6 20.5 8 28.5 8 18.9 25.3 37.9 48.4 38 23.1 0 40.5-19.1 48.4-38 3.4-7.9 6-18 8-28.5.1 2.2.7 13.9 1.7 25.4zm5-85.7c0-.1 0-.1 0 0v-.3c.4-3.4 1.3-11 2.2-19.3 4.8-5.5 9.8-8.7 12.5-6 2.7 2.7 4.2 13.2 2.4 19.6-1.7 6.4-5.7 19.2-10.7 24.5 3.8 9.3-1 13.3-8.2 9.8h-.5c1.3-12.6 1.8-22.6 1.9-25.6.3-1 .3-1.9.4-2.7z" class="a"/><path d="M1267.8 309.2c11.6 0 33.4-10.7 46.9-27.6 26.1 2.9 59.2 17.2 72.9 26.9 18.1 12.8 28 .7 41.4 25.9h-168.3c15.2-8.6 18-17 7.1-25.2z" class="b"/><path d="M1266.3 308.2c.5.4 1 .7 1.5 1.1-.9-.2-1.5-.5-1.5-1.1z" class="b"/><path d="M1315.3 131.4c-.9 8.3-1.8 15.9-2.2 19.3.3-2.9 2.8-31-10.3-37.7 4.7-12.5 4.2-29.4-8.9-44.3l-.2-.3c3.6-2.1 6.7-4.4 9.4-7.1.6.8 1.2 1.7 1.8 2.6 12.2 18.5 13.6 35.8 12.1 51.1-.4 5-1 10.9-1.7 16.4z" class="c"/><path d="M1256.9 146.1c-.4-1.2 20.1-3.3 26.6-11.3 2.1-.1 4.2 0 6.1.6.1 0 .2.1.3.1.1 0 .2.1.3.1.1.1.3.1.4.1 1.7.6 3.1 1.5 4.4 2.4l.3.3s2.6-4.6 3.9-7c2.4-2.4 3.1-8.8-8.3-13.7 1.6-4.3 2.5-8.1 2.9-11.6.7-4 .7-8.5-.8-13.3 0-12.6-9.7-19.4-9.9-19.6 3.8-1.3 7.4-2.9 10.5-4.7.1 0 .1-.1.1-.1l.2.3c13 14.9 13.6 31.8 8.9 44.3 13.2 6.7 10.6 34.8 10.3 37.7v.3c-.1 1.1-.2 1.7-.2 1.7v1c-2.5 23.7-14.3 35.8-20.2 35.8 0 0 1.5 18.9-3.7 24-1.9-5.2-4.9-9.2-8.3-12.3-6-6.1-12.3-8.5-14.7-9.1 2.7-1.5 7-10.2-5.5-19.5 3.4-10.1-.8-15-2.5-16.4l-.3-.3c-.1-.1-.2-.2-.3-.2 0 0-.1-2.1-.1-4.3-.2-2.3-.3-4.7-.4-5.3zm26.2 1.3c-3.6-1.6-6.7-2.2-9.7-1.4-3.7 1.1-7.7 4.6-9.4 7.4-.2.4-.4.8-.5 1.2v.1c.1.9 1.2 1.6 2.6 2.3 1.4.7 3 1.3 4.3 2 11.3 8.5 20.4 8.5 26.7-2.7-1.1-1.5-6.4-5.2-6.4-5.2-1.9-1.7-4.5-2.9-7.6-3.7z" class="a"/><path d="M1193.6 211.2c-2.1-10.9-3.5-22.2-4.5-32-1.2-11.8-1.7-21.3-1.9-25 2.6 23 14 34.8 19.9 35.1h.2s-1.5 18.9 3.7 24.1c.1-.2.2-.4.2-.7 2.1-4.7 4.8-8.3 7.5-11.2 8.8-8.5 20.4-10.2 20.4-10.2 3.7.9 6.1 4.6 10.8 4.6 4.7 0 7.1-3.6 10.8-4.6 0 0 11.1 1.6 19.9 9.7 3 3.1 5.9 7.1 8.2 12.3 5.2-5.2 3.7-24.1 3.7-24.1 5.9 0 17.7-12.1 20.2-35.8-.1 3.1-.6 13-1.9 25.6-1 9.7-2.4 21.1-4.5 32-2 10.5-4.6 20.5-8 28.5-8 18.9-25.3 37.9-48.4 38-23.1 0-40.5-19.1-48.4-38-3.3-7.8-5.9-17.8-7.9-28.3zm82.5 5.3c-5.2-4.7-10.8-8.6-18.2-9.8-2.7 5.5-13 5.4-15.7 0-7.4 1.2-13.1 5.1-18.3 9.8 12.5 11.7 39.8 11.7 52.2 0z" class="c"/><path d="M1232.2 309.2c-11.6 0-33.4-10.7-46.9-27.6-26.1 2.9-59.2 17.2-72.9 26.9-18.1 12.8-28 .7-41.4 25.9h168.3c-15.2-8.6-18-17-7.1-25.2z" class="b"/><path d="M1233.7 308.2c-.5.4-1 .7-1.5 1.1.9-.2 1.5-.5 1.5-1.1z" class="b"/><path d="M1233.7 308.2c0 17 32.6 17 32.6 0 19.4 3 48.4-26.5 48.4-26.5v52.7H1184l6.1-25.6 43.6-.6z" class="b"/><path d="M1290.9 117.7c11.4 4.9 10.7 11.3 8.3 13.7 3.7-11.3-7.5-10-8.3-13.7z" class="d"/><path d="M1206.8 93.5c0-.2.1-.4.1-.7 0-12.8 10-19.6 10-19.6s-.1 0-.3-.1c9.3 3.2 20.5 4.9 33.4 4.9 12.7 0 23.8-1.6 33.1-4.8.2.2 10 7 10 19.6.9 4 1.4 8.4.8 13.3-.6 3.7-1.8 7.1-2.8 10.2-.2.5-.2 1-.1 1.4.8 3.7 11.9 2.4 8.3 13.7-1.3 2.4-3.9 7-3.9 7l-.3-.3c-1.4-1.1-2.9-1.9-4.4-2.4-.1-.1-.3-.1-.4-.1-.1 0-.2-.1-.3-.1-.1 0-.2-.1-.3-.1-1.8-.5-3.8-.8-6.1-.6-9.7 9.7-26.6 11.3-26.6 11.3s-.8 5.7.4 9.5c0 0 .1.1.3.2l.3.3c1.5 1.4 5.1 5.8 2.5 16.4 5.2 6 12.3 12.7 5.5 19.5-2.1-.9-3.7-.9-5.2-.6-3.7.9-6.1 4.6-10.8 4.6-4.7 0-7.1-3.6-10.8-4.6-1.5-.4-3.1-.3-5.2.6-6.7-6.8.3-13.4 5.5-19.4-2.9-12.1 2.1-16.2 3-16.8l.1-.1c1.2-3.8.4-9.5.4-9.5.8-1.2-8.2-1.5-16.4-4.5-3.6-1.6-7.2-3.8-10.2-6.8-1.8-.2-3.5 0-5.1.3-2.4.5-4.7 1.5-6.8 3.3 0 0-2.5-4.6-3.9-7-3.6-11.3 7.5-10 8.3-13.7.1-.4.1-.8-.1-1.4-1.1-3.3-2.4-7-2.9-11.1-.3-4.3.1-8.2.9-11.8z" class="e"/><circle cx="1248.6" cy="98.6" r="32.8" class="f"/><path d="M1258.3 182.3c0 3.9-3.7 6.4-8.4 6.4s-8.4-2.5-8.4-6.4c0-3.9 3.7-7.8 8.4-7.8s8.4 3.9 8.4 7.8z" class="f"/><path d="M1255.4 167.3c0 7.2-2.4 16.8-5.5 16.8s-5.5-9.6-5.5-16.8c0-7.2 2.4-9.1 5.5-9.1s5.5 1.9 5.5 9.1z" class="f"/><path d="M1303.2 61.3c-2.7 2.7-5.8 5.1-9.4 7.1-.1 0-.1.1-.2.1-3.2 1.8-10.1 4.5-10.5 4.7-9.2 3.1-20.3 4.8-33.1 4.8-12.9 0-24.1-1.7-33.4-4.9-1.3-.5-6.1-2.4-9.2-4-.4-.2-.8-.4-1.1-.6-3.6-2.1-6.7-4.4-9.4-7.1 18-24.3 46.4-23.8 53.2-23.8 6.7-.1 35.1-.6 53.1 23.7z" class="g"/><path d="M1293 92.8c1.5 4.9 1.5 9.3.8 13.3.6-4.9.2-9.2-.8-13.3z" class="h"/><path d="M1290.7 151.2s5.3 3.7 6.4 5.2c-6.3 11.2-15.4 11.2-26.7 2.7-1.3-.7-2.9-1.3-4.3-2s-2.4-1.4-2.6-2.3v-.1c.1-.4.3-.8.5-1.2 1.5-2.4 5.2-4.9 9.3-7.4.4 0 .7.1 1.1.1-1 .9-1.7 2.3-1.7 3.8 0 2.7 2.1 4.9 4.8 5h.5c2.7-.1 4.8-2.3 4.8-5 0-1-.3-1.9-.8-2.7.3.1.7.2 1 .2 2.4.8 4.9 2.2 7.7 3.7z" class="e"/><path d="M1291.1 116.4c1-3.1 2.2-6.5 2.8-10.2-.4 3.5-1.3 7.3-2.9 11.6-.1-.5-.1-.9.1-1.4z" class="d"/><path d="M1295 138.1c-1.3-.9-2.7-1.8-4.4-2.4 1.6.6 3 1.4 4.4 2.4zm-4.3-2.4c-.1 0-.3-.1-.4-.1.1 0 .2.1.4.1z" class="h"/><path d="M1289.9 135.5c-.1 0-.2-.1-.3-.1.1 0 .2.1.3.1z" class="d"/><path d="M1283.1 73.2c.4-.2 7.3-2.9 10.5-4.7-3.2 1.9-6.7 3.4-10.5 4.7zm.1 74.2c3.1.8 5.7 2 7.5 3.8-2.8-1.5-5.3-2.9-7.5-3.8z" class="h"/><path d="M1283.5 134.8c2.3-.2 4.3.1 6.1.6-1.9-.6-4-.7-6.1-.6zm-.3 12.6c-.3-.1-.7-.2-1-.2-.3-.1-.6-.1-.8-.2-.3-.1-.6-.1-.9-.2-.3-.1-.6-.1-.9-.2-.3 0-.6-.1-.9-.1h-.2c-.2 0-.4-.1-.6-.1h-.3c-.3 0-.6-.1-.8-.1-.6-.1-1.2-.1-1.8-.2h-.2c-.4 0-.7-.1-1.1-.1 2.7-.8 5.8-.2 9.5 1.4z" class="d"/><path d="M1282.1 147.1c.5.8.8 1.7.8 2.7 0-1-.3-1.9-.8-2.7-.5-.1-.9-.2-1.4-.3-.2 0-.3-.1-.5-.1s-.3-.1-.5-.1-.3 0-.5-.1c-.1 0-.2 0-.4-.1-.2 0-.5-.1-.7-.1-.2 0-.4-.1-.6-.1h-.3c-.3 0-.6-.1-.9-.1-.6-.1-1.2-.1-1.8-.2h-.2.2c.6 0 1.2.1 1.8.2.3 0 .6.1.8.1h.3c.2 0 .4.1.6.1h.2c.3 0 .6.1.9.1.3 0 .6.1.9.2.3.1.6.1.9.2.6.2.9.3 1.2.3z" class="d"/><path d="M1282.1 147.1c.5.8.8 1.7.8 2.7 0 2.7-2.1 4.9-4.8 5h-.5c-2.7-.1-4.8-2.3-4.8-5 0-1.5.7-2.9 1.7-3.8h.2c.6 0 1.2.1 1.8.2.3 0 .6.1.9.1h.3c.2 0 .4.1.6.1.2 0 .5.1.7.1.1 0 .2 0 .4.1.2 0 .3 0 .5.1s.3.1.5.1.3.1.5.1c.3 0 .8.1 1.2.2z" class="i"/><path d="M1282.1 147.1c-.3-.1-.6-.1-.8-.2.2.1.5.2.8.2z" class="d"/><path d="M1289 213.5c-2.3-5.2-5.2-9.2-8.2-12.3 3.3 3 6.3 7 8.2 12.3z" class="h"/><path d="M1280.4 146.8c.3.1.6.1.9.2-.3-.1-.6-.2-.9-.2zm-3-.5c-.3 0-.6-.1-.8-.1.2.1.5.1.8.1zM1266 192c2.4.6 8.8 3 14.7 9.1-8.8-8.1-19.9-9.7-19.9-9.7 1.5-.4 3.1-.3 5.2.6zm8.5-45.9c-1 .9-1.7 2.3-1.7 3.8 0-1.6.7-2.9 1.7-3.8z" class="d"/><path d="M1257.9 206.7c7.4 1.2 13.1 5.1 18.2 9.8-9.9-3.8-25.5-1-26.1-.9-.7-.1-16.2-2.9-26.1.9 5.2-4.7 10.8-8.6 18.3-9.8 2.6 5.4 13 5.5 15.7 0z" fill="#AA6E5D"/><path d="M1264.1 153.4c1.6-2.8 5.6-6.4 9.3-7.4-4.1 2.5-7.8 5-9.3 7.4zm1.9 38.6c6.8-6.8-.3-13.4-5.5-19.5 12.5 9.3 8.3 18 5.5 19.5z" class="d"/><path d="M1264.1 153.4c-.2.4-.4.8-.5 1.2.1-.4.2-.8.5-1.2z" class="h"/><path d="M1250 215.6c.7-.1 16.2-2.9 26.1.9-12.5 11.7-39.8 11.7-52.2 0 9.9-3.8 25.4-1 26.1-.9z" fill="#E8A18B"/><path d="M1258 156.1c1.7 1.4 5.9 6.3 2.5 16.4 2.6-10.6-1-15.1-2.5-16.4z" class="d"/><path d="M1257.3 155.6s.1.1.3.2c-.1-.1-.2-.2-.3-.2z" class="h"/><path d="M1243.1 146.1s.8 5.7-.4 9.5l-.1.1c.1 0 .1-.1.1-.1s.2-8.4.4-9.5c-.1 0-.1 0 0 0z" class="d"/><path d="M1226.6 141.6c8.2 3 17.2 3.3 16.4 4.5-.6 0-8.4-.9-16.4-4.5z" class="h"/><path d="M1215.7 165.1c4.1-.1 8.8-2.2 13.9-6.1 1.3-.7 2.9-1.3 4.3-2s2.4-1.4 2.6-2.3c-.2-.6-.5-1.2-1-1.9-1.8-2.7-5.4-5.8-8.9-6.8-3-.8-6.1-.2-9.8 1.4-3 .8-5.5 2-7.3 3.7 0 0-.1 0-.1.1 0 0-5.3 3.7-6.4 5.2 3.3 5.8 7.3 8.6 12 8.8.2-.1.4-.1.7-.1zm-4.3-30c1.6-.3 3.3-.4 5-.3 2.4 3.2 6.2 5.3 10.2 6.8 7.9 3.6 15.8 4.5 16.4 4.5-.1 1.1-.4 9.5-.4 9.5l-.1.1c-.9.6-7 5.3-3.1 16.9-12.5 9.3-8.3 18-5.5 19.5-2.5.6-9.1 3.1-15.2 9.6-3 2.9-5.7 6.6-7.5 11.2l-.3.6c-5.2-5.2-3.7-24-3.7-24h-.2c-6-.4-17.4-12.4-19.9-35.8v-1s-.1-.6-.2-1.7v-.2c-.3-2.9-2.8-31 10.3-37.7-4.7-12.5-4.2-29.4 8.9-44.3l.2-.3c.3.2.7.4 1.2.6 2.8 1.5 5.9 2.9 9.2 4 .2.1.3.1.3.1s-10 6.8-10 19.6c-.1.2-.1.4-.1.7-1.2 4.2-1.3 8.2-.8 11.8.3 3.7 1.3 7.8 3 12.5-11.4 4.9-10.7 11.3-8.3 13.7 1.3 2.4 3.9 7 3.9 7 2.1-1.8 4.3-2.9 6.7-3.4z" class="a"/><path d="M1242.5 155.7c-.9.6-6 4.8-3 16.9-3.9-11.7 2.2-16.3 3-16.9z" class="d"/><path d="M1239.5 172.5c-5.2 6.1-12.2 12.7-5.5 19.5-2.8-1.5-7-10.2 5.5-19.5z" class="d"/><path d="M1234 192c2.1-.9 3.7-.9 5.2-.6 0 0-11.6 1.6-20.4 10.2 6.1-6.5 12.6-9 15.2-9.6z" class="d"/><path d="M1214.9 165.1c-4.7-.2-8.7-2.9-12-8.8 1.1-1.5 6.4-5.2 6.4-5.2s.1 0 .1-.1c0 0 .1 0 .1-.1 2.6-1.5 5-2.7 7.2-3.6.4-.1.7-.2 1.1-.3-.5.8-.8 1.7-.8 2.7 0 2.7 2.1 4.9 4.8 5h.5c2.7-.1 4.8-2.3 4.8-5 0-1.5-.7-2.9-1.7-3.8.4 0 .7-.1 1.1-.1h.1c3.8 2.3 7.2 4.6 8.9 6.8.4.7.8 1.3 1 1.9-.1.9-1.2 1.6-2.6 2.3-1.4.7-3 1.3-4.3 2-5.1 3.9-9.7 6-13.9 6.1-.3.2-.5.2-.8.2z" class="e"/><path d="M1235.5 152.8c-1.7-2.2-5.1-4.5-8.9-6.8 3.5 1 7.1 4.1 8.9 6.8z" class="d"/><path d="M1239.6 172.5c-20 4-30.9 17.8-28.2 40.3 3-8.9 11-15.6 22.7-20.8l5.5-19.5z" class="e"/><path d="M1225.4 146.1c1 .9 1.7 2.3 1.7 3.8 0-1.6-.7-2.9-1.7-3.8z" class="d"/><path d="M1217.9 147.1c.4-.1.9-.2 1.3-.3.2 0 .3-.1.5-.1s.3-.1.5-.1.3 0 .5-.1c.1 0 .2 0 .4-.1.2 0 .5-.1.7-.1.2 0 .4-.1.6-.1h.3c.3 0 .6-.1.8-.1.6-.1 1.2-.1 1.8-.2h.2c1 .9 1.7 2.3 1.7 3.8 0 2.7-2.1 4.9-4.8 5h-.5c-2.7-.1-4.8-2.3-4.8-5 0-.8.3-1.8.8-2.6z" class="i"/><path d="M1226.6 146s-.1 0 0 0c-.1 0-.1 0 0 0z" class="h"/><path d="M1226.5 146c-.4 0-.7.1-1.1.1h-.2c-.6 0-1.2.1-1.8.2-.3 0-.6.1-.9.1h-.3c-.2 0-.4.1-.6.1h-.2c-.3 0-.6.1-.9.1-.3 0-.6.1-.9.2-.3.1-.6.1-.9.2-.3.1-.6.1-.9.2-.4.1-.7.2-1.1.3 3.7-1.7 6.8-2.3 9.8-1.5z" class="d"/><path d="M1260.5 172.5c20 4 30.9 17.8 28.2 40.3-3-8.9-11-15.6-22.7-20.8l-5.5-19.5z" class="e"/><path d="M1225.4 146.1h-.2c-.6 0-1.2.1-1.8.2-.3 0-.6.1-.8.1h-.3c-.2 0-.4.1-.6.1-.2 0-.5.1-.7.1-.1 0-.2 0-.4.1-.2 0-.3 0-.5.1-.2 0-.3.1-.5.1s-.3.1-.5.1c-.4.1-.9.2-1.3.3h-.1c.3-.1.6-.1.9-.2.3-.1.6-.1.9-.2.3-.1.6-.1.9-.2.3 0 .6-.1.9-.1h.2c.2 0 .4-.1.6-.1h.3c.3 0 .6-.1.9-.1.6-.1 1.2-.1 1.8-.2.1-.1.2-.1.3-.1z" class="d"/><path d="M1223.4 146.3c-.3 0-.6.1-.8.1.2-.1.5-.1.8-.1zm-6.3 3.6c0 2.7 2.1 4.9 4.8 5-2.7-.1-4.9-2.3-4.8-5 0-1 .2-1.9.7-2.7h.1c-.5.7-.8 1.7-.8 2.7zm.8-2.8c-.1 0-.1 0 0 0-.1.1-.1 0 0 0-.1 0-.1 0 0 0zm-.1 0s0 .1 0 0c-.4.1-.8.2-1.1.3h.1c.3-.1.6-.2 1-.3zm-1.3-12.3c3 3 6.6 5.2 10.2 6.8-4.1-1.5-7.9-3.6-10.2-6.8-1.8-.1-3.4 0-5.1.3 1.6-.3 3.2-.4 5.1-.3z" class="d"/><path d="M1216.7 147.4c-3 .8-5.5 2-7.2 3.7 0 0-.1 0-.1.1 1.8-1.8 4.3-3 7.3-3.8z" class="h"/><path d="M1209.5 151.1c1.8-1.7 4.2-2.9 7.2-3.6-2.2.9-4.6 2.1-7.2 3.6zm-2.1-82c3.1 1.6 7.9 3.5 9.2 4-3.3-1.1-6.4-2.5-9.2-4zm3.9 143.7c1.8-4.7 4.5-8.3 7.5-11.2-2.8 2.9-5.4 6.5-7.5 11.2z" class="h"/><path d="M1211 213.4l.3-.6-.3.6z" class="d"/><path d="M1211 213.4c-5.2-5.2-3.7-24-3.7-24s-1.5 18.8 3.7 24z" class="h"/><path d="M1208.9 116.4c.2.5.2 1 .1 1.4-1.8-4.6-2.7-8.7-3-12.5.5 4.1 1.8 7.7 2.9 11.1z" class="d"/><path d="M1209 117.7c-.8 3.7-11.9 2.4-8.3 13.7-2.4-2.4-3.1-8.7 8.3-13.7zm-2.8-49.2c.4.2.8.4 1.1.6-.3-.2-.7-.4-1.1-.6z" class="d"/><path d="M1184.7 131.4c-.6-5.5-1.2-11.4-1.7-16.4-1.5-15.3-.1-32.6 12.1-51.1.6-.9 1.2-1.8 1.8-2.6 2.7 2.7 5.8 5.1 9.4 7.1l-.2.3c-13 14.9-13.6 31.8-8.9 44.3-11.9 6.1-11 29.6-10.4 36.2-.6-3.8-1.3-10.6-2.1-17.8z" class="c"/><path d="M1206.2 68.5l-.2.3c-13 14.9-13.6 31.8-8.9 44.3-13.2 6.7-10.6 34.8-10.3 37.7-.1-.4-.1-.9-.2-1.5-.5-6.6-1.5-30.1 10.4-36.2-4.7-12.5-4.2-29.4 8.9-44.3l.3-.3zm.6 25c-.8 3.6-1.2 7.4-.8 11.8-.5-3.6-.4-7.5.8-11.8zm-19.7 60.1c2.5 23.3 13.9 35.4 19.9 35.8-5.9-.3-17.3-12.2-19.9-35.1.1-.3.1-.5 0-.7z" class="h"/><path d="M1186.8 150.9c.1 0 .1 0 0 0 .1 0 .1 0 0 0 .1.5.1.9.1 1.2 0 .3 0 .5.1.8v.7c0 .2 0 .5.1.7.2 3.7.7 13.2 1.9 25h-.5c-7.1 3.5-12-.5-8.2-9.8-5-5.2-9-18.1-10.7-24.5-1.7-6.4-.3-16.8 2.4-19.6 2.7-2.7 7.7.5 12.5 6 .8 7.2 1.6 13.9 2 17.8.3.8.3 1.3.3 1.7 0-.1 0-.1 0 0z" class="a"/><path d="M1187.2 154.3c0-.2-.1-.5-.1-.7v-.7c0 .2 0 .5.1.7v.7zm-.1-1.7v1c0-.2-.1-.5-.1-.7.1-.2.1-.3.1-.3s-.1-.2-.1-.5c0-.4-.1-.7-.1-1.1.1 1 .2 1.6.2 1.6z" class="h"/><path d="M1186.9 151c0 .4.1.7.1 1.1 0-.3-.1-.7-.1-1.1 0-.1 0-.1 0 0 0-.1 0-.1 0 0zm0-.1l-.1-.1c0-.3-.1-.8-.1-1.6.1.6.1 1.1.2 1.5v.2z" class="h"/><path d="M1250 37.5c-6.2 0-30-.5-47.8 17.4 1.3.9 2.6 1.8 4 2.6.4.2.8.4 1.1.6 3.1 1.6 7.9 3.5 9.2 4 9.3 3.2 20.5 4.9 33.4 4.9 12.7 0 23.8-1.6 33.1-4.8.4-.2 7.3-2.9 10.5-4.7.1 0 .1-.1.2-.1 1.4-.8 2.7-1.7 4-2.6-17.7-17.7-41.6-17.3-47.7-17.3z" class="c"/><path d="M1239.5 172.5c-5.2 6.1-12.3 12.7-5.6 19.5 2.1-.9 3.7-.9 5.2-.6 3.7.9 6.1 4.6 10.8 4.6m-26.5-49.7c-.3 0-.6.1-.8.1" class="j"/><path d="M1230.4 244.8l19.3 32.8c-65.1-2.6-61-113.1-63-128.4 2 19.8 7.4 34.9 20.3 40.2-.7 9.3.1 17.6 4 24-2 11.7 8.6 29.3 19.4 31.4z" class="g"/><path d="M1236.5 154.7c-.2-.6-.5-1.3-1-1.9-1.7-2.2-5.1-4.5-8.9-6.8-.4 0-.7 0-1.1.1" class="j"/><path d="M1269.6 244.8c-6.1-11.3-33.1-11.3-39.2 0l19.6 32.8 19.6-32.8z" class="g"/><path d="M1211 213.5c.1-.2.2-.4.2-.7 1.8-4.7 4.5-8.3 7.5-11.2 8.8-8.5 20.4-10.2 20.4-10.2m-54.1-59.6c-.1-.1-.2-.3-.3-.4-4.8-5.5-9.8-8.7-12.5-6-2.7 2.7-4.2 13.2-2.4 19.6 1.7 6.4 5.6 19.2 10.7 24.5-3.8 9.3 1 13.3 8.2 9.8" class="j"/><path class="j" d="M1175.3 133.4l11.5 17.5.1.1"/><path d="M1198.9 145.5s3.9-8.4 12.5-10.3c1.5-.3 3.2-.5 5.1-.3 3 3 6.6 5.2 10.2 6.8 7.9 3.6 15.8 4.5 16.4 4.5s.8 5.7-.4 9.5l-.1.1c-.9.6-6 4.8-3 16.8" class="k"/><path d="M1211 213.5c0-.1 0-.1 0 0-5.2-5.3-3.7-24.1-3.7-24.1h-.2c-6-.4-17.4-12.4-19.9-35.8 0-.2-.1-.5-.1-.7 0-.3-.1-.5-.1-.8 0-.4-.1-.7-.1-1.1m13.9-19.6c-3.6-11.3 7.5-10 8.3-13.7.1-.4.1-.8-.1-1.4-1.1-3.3-2.4-7-2.9-11.1-.5-3.6-.4-7.5.8-11.8.1-.2.1-.4.2-.7m62.5 152.1c-6.1-11.3-33.1-11.3-39.2 0m-36.8-33.6c-.1 2.3-.7 14-1.7 25.4-.9 9.6-2 19-3.6 22.7m5.3-48.5v.4" class="j"/><path d="M1191.8 236.7s-61.6 29.2-72.5 34.3c-19.4 9.1-29.6 20.9-36.7 25.8-7.1 4.9-23.6 8.5-30.5 15.4-6.9 6.9-14.7 22.1-14.7 22.1h425.1s-7.8-15.2-14.7-22.1c-6.9-6.9-23.3-10.5-30.5-15.4-7.1-4.9-17.4-16.7-36.7-25.8-10.9-5.1-72.5-34.3-72.5-34.3" class="l"/><path d="M1229.6 159c-5.1 3.9-9.8 6-13.9 6.1h-.8c-4.7-.2-8.7-3-12-8.8m-17.6 125.4s29 29.5 48.4 26.5m-46.8-157.5c-.3-2.9-2.8-31 10.3-37.7-4.7-12.5-4.2-29.4 8.9-44.3m-9.3-7.4c2.7 2.7 5.8 5.1 9.4 7.1.4.2.8.4 1.1.6 2.8 1.5 5.9 2.9 9.2 4 9.3 3.2 20.5 4.9 33.4 4.9m-5.5 107.8c0 3.6 11.6 3.6 11.6 0" class="j"/><path d="M1260.5 172.5c5.2 6 12.3 12.7 5.5 19.5-2.1-.9-3.7-.9-5.2-.6-3.7.9-6.1 4.6-10.8 4.6" class="j"/><path d="M1250 215.6c-.7-.1-16.2-2.9-26.1.9 5.2-4.7 10.8-8.6 18.3-9.8 2.7 5.4 13.1 5.5 15.7 0 7.4 1.2 13.1 5.1 18.2 9.8-9.9-3.8-25.4-1-26.1-.9m0 0z" class="m"/><path d="M1276.1 216.5c-12.5 11.7-39.8 11.7-52.2 0m66.8-65.3c-1.8-1.8-4.4-3-7.5-3.8-.3-.1-.7-.2-1-.2m-1.8-.4c.3.1.6.1.9.2.3.1.6.1.8.2m-5.5-.9c.3 0 .6.1.8.1m-13.9 8.3v-.1c.1-.4.3-.8.5-1.2 1.5-2.4 5.2-4.9 9.3-7.4.4 0 .7.1 1.1.1m14.6 67.4c-1.9-5.2-4.9-9.3-8.2-12.3-8.8-8.1-19.9-9.7-19.9-9.7m54.1-59.7c.1-.1.2-.3.3-.4 4.8-5.5 9.8-8.7 12.5-6 2.7 2.7 4.2 13.2 2.4 19.6-1.7 6.4-5.7 19.2-10.7 24.5 3.8 9.3-1 13.3-8.2 9.8m13.4-45.9l-11.6 17.6" class="j"/><path d="M1269.5 244.8l-19.3 32.8c65.1-2.6 61-113.1 63-128.4-2 19.8-7.4 34.9-20.3 40.2.7 9.3-.1 17.6-4 24 2.1 11.7-8.6 29.3-19.4 31.4z" class="g"/><path d="M1289 213.5c5.2-5.2 3.7-24.1 3.7-24.1 5.9 0 17.7-12.1 20.2-35.8.1-.9.2-1.7.2-2.6" class="l"/><path d="M1299.2 131.4c3.6-11.3-7.5-10-8.3-13.7-.1-.4-.1-.8.1-1.4 1-3.1 2.2-6.5 2.8-10.2.7-4 .7-8.5-.8-13.3m13.4 118v.4c.1 2.3.7 14 1.7 25.5.9 9.6 2 19 3.6 22.7M1270.4 159c11.3 8.5 20.4 8.5 26.7-2.7m17.6 125.4s-29 29.5-48.4 26.5m46.8-157.5c.3-2.9 2.8-31-10.3-37.7 4.7-12.5 4.2-29.4-8.9-44.3m9.3-7.4c-2.7 2.7-5.8 5.1-9.4 7.1-.1 0-.1.1-.2.1-3.2 1.8-6.7 3.4-10.5 4.7-9.2 3.1-20.3 4.8-33.1 4.8" class="j"/><path d="M1250 37.5c6.8 0 35.2-.6 53.2 23.8.6.8 1.2 1.7 1.8 2.6 12.2 18.5 13.6 35.8 12.1 51.1-.5 5.1-1.1 10.9-1.7 16.4-.9 8.3-1.8 15.9-2.2 19.3v.2c-.1 1.1-.2 1.7-.2 1.7v1c-.1 3.1-.6 13-1.9 25.6-1 9.7-2.4 21.1-4.5 32-2 10.5-4.6 20.5-8 28.5-8 18.9-25.3 37.9-48.4 38-23.1 0-40.5-19.1-48.4-38-3.4-7.9-6-18-8-28.5-2.1-10.9-3.5-22.2-4.5-32-1.2-11.8-1.7-21.3-1.9-25v-1.6s-.1-.6-.2-1.7v-.2c-.1-.4-.1-.9-.2-1.5-.5-3.9-1.2-10.6-2-17.8-.6-5.5-1.2-11.4-1.7-16.4-1.5-15.3-.1-32.6 12.1-51.1.6-.9 1.2-1.8 1.8-2.6 17.6-24.3 46-23.8 52.8-23.8" class="l"/><path d="M1274.6 146.1c-1 .9-1.7 2.3-1.7 3.8 0 2.7 2.1 4.9 4.8 5h.5c2.7-.1 4.8-2.3 4.8-5 0-1-.3-1.9-.8-2.7-.3-.1-.6-.1-.8-.2-.3-.1-.6-.1-.9-.2-.3-.1-.6-.1-.9-.2-.3 0-.6-.1-.9-.1h-.2c-.2 0-.4-.1-.6-.1h-.3c-.3 0-.6-.1-.8-.1-.6-.1-1.2-.1-1.8-.2h-.4zm-49.2 0h-.2c-.6 0-1.2.1-1.8.2-.3 0-.6.1-.8.1h-.3c-.2 0-.4.1-.6.1-.2 0-.5.1-.7.1-.1 0-.2 0-.4.1-.2 0-.3 0-.5.1-.2 0-.3.1-.5.1s-.3.1-.5.1c-.4.1-.9.2-1.3.3-.5.8-.8 1.7-.8 2.7 0 2.7 2.1 4.9 4.8 5h.5c2.7-.1 4.8-2.3 4.8-5 .1-1.7-.6-3-1.7-3.9zm-16 5.1l.1-.1c1.8-1.7 4.2-2.9 7.2-3.6.4-.1.7-.2 1.1-.3h.1" class="j"/><path d="M1300.9 145.5s-3.9-8.4-12.5-10.3c-1.5-.3-3.2-.5-5.1-.3-3 3-6.6 5.2-10.2 6.8-7.9 3.6-15.8 4.5-16.4 4.5s-.8 5.7.4 9.5l.1.1c.9.6 6 4.8 3 16.8" class="k"/><path fill="#EFC66B" d="M0 0h500v375H0z"/><path d="M194.2 231.9c.5-14.7.6-27.7.6-27.7l.2-.1c4.2 12.1 17.4 24.3 21.8 31.3.6 1 1.2 1.9 1.9 2.7 0 0 0 .1.1.1 1.3 1.9 2.4 2.9 3 3.3 10.7 10 25.4 9.1 28.2 9.1 2.8 0 17.5.9 28.2-9.1.6-.4 1.7-1.4 3-3.3l.1-.1c.7-.8 1.3-1.7 1.9-2.7 4.4-7 17.6-19.2 21.8-31.3l.2.1s.1 13 .6 27.7h.9c0 .5.6 7.7 30.8 15.6 16.4 4.3 16.2 10.7 27.4 15.4 12.9 5.4 40.5 13.3 47.1 21.2 6.6 7.8 15.1 33.4 15.1 33.4H73.2s8.6-25.6 15.1-33.4c6.6-7.8 34.2-15.7 47.1-21.2 11.3-4.7 11.1-11.2 27.4-15.4 30.2-7.9 30.8-15 30.8-15.6h.6z" fill="#996d60" stroke-linejoin="round" stroke-width="4" stroke="#997768"/><path d="M313.8 150.3c.9-5 1.7-9.8 2.5-14.3h.1s6.6-5.8 12.2-4.2c5.7 1.6 9.1 8.9 6.4 19.3-2.7 10.5-12.7 34.3-26.3 30.1h-.1c1.6-10.1 3.5-20.9 5.2-30.9z" class="n"/><path d="M286.5 130.4c-2.2-1.1-4.5-1.7-6.8-1.7-.4 0-.8 0-1.1.1-.4 0-.8.1-1.2.2-.3.1-.7.1-1 .2-.1 0-.1 0-.2.1-.4.1-.8.2-1.1.3-.2.5-.3 1.1-.3 1.7 0 3.3 2.7 5.9 5.9 5.9 3.3 0 5.9-2.6 5.9-5.9 0-.3 0-.6-.1-.9zm-73.1 0c0 .3-.1.5-.1.8 0 3.3 2.7 5.9 5.9 5.9 3.3 0 5.9-2.6 5.9-5.9 0-.6-.1-1.2-.3-1.7-.4-.1-.8-.2-1.1-.3-.1 0-.1 0-.2-.1-.3-.1-.7-.2-1-.2-.4-.1-.8-.1-1.2-.2-.4 0-.8-.1-1.1-.1-1.8 0-3.5.3-5.2 1-.2.1-.5.2-.7.3-.2.1-.5.2-.7.3-.1.2-.1.2-.2.2zm8.4 111.1c-1.1-1-2.1-2.1-3-3.3l-.1-.1c-.7-.8-1.3-1.7-1.9-2.7-4.4-7-17.6-19.2-21.8-31.3-.6-1.6-1-3.3-1.2-4.9-.7-5.6-1.5-11.7-2.5-17.9-1.5-10.2-3.4-20.8-5.2-30.8-.7-7.1-2.3-32.8 7.7-37.9 0 0 .6-35.8 13.2-45.9l42.9.4 42.9-.4c12.6 10.1 13.2 45.9 13.2 45.9 9.9 5 8.4 30.3 7.8 37.7-1.8 10-3.6 20.7-5.2 31-1 6.2-1.8 12.3-2.5 17.9-.2 1.6-.6 3.3-1.2 4.9-4.2 12.1-17.4 24.3-21.8 31.3-.6 1-1.2 1.9-1.9 2.7 0 0 0 .1-.1.1-.9 1.2-2 2.3-3 3.3-10.7 10-25.4 9.1-28.2 9.1-2.7 0-17.4.9-28.1-9.1zm38.4-33.2s9.8-1.8 11.1-8.2c-5.8-5.8-12.5-9.1-12.5-9.1-1.4 3.4-8.9 3.2-8.9 3.2s-7.5.2-8.9-3.2c0 0-6.7 3.3-12.5 9.1 1.4 6.4 11.2 8.2 11.2 8.2h20.5z" fill="#C4AD9D"/><path d="M271.4 200.1c-3 2.4-7.4 1.3-12.1-.7h-18.6c-4.6 1.9-9 3.1-12.1.7 5.8-5.8 12.5-9.1 12.5-9.1 1.4 3.4 8.9 3.2 8.9 3.2s7.5.2 8.9-3.2c-.1.1 6.7 3.3 12.5 9.1z" fill="#77484D"/><path d="M215.3 233.3s3 50.3 34.7 50.3 34.7-50.3 34.7-50.3h-69.4z" fill="#664943"/><path d="M259.3 199.5c4.6 1.9 9 3.1 12.1.7-1.4 6.4-11.1 8.2-11.1 8.2h-20.5s-9.8-1.8-11.2-8.2c3 2.4 7.4 1.3 12.1-.7h18.6z" fill="#AF727E"/><path d="M286.5 130.4c-2.2-1.1-4.5-1.7-6.8-1.7-.4 0-.8 0-1.1.1-.4 0-.8.1-1.2.2-.3.1-.7.1-1 .2-.1 0-.1 0-.2.1-.4.1-.8.2-1.1.3-.2.5-.3 1.1-.3 1.7 0 3.3 2.7 5.9 5.9 5.9 3.3 0 5.9-2.6 5.9-5.9 0-.3 0-.6-.1-.9zm-73.1 0c0 .3-.1.5-.1.8 0 3.3 2.7 5.9 5.9 5.9 3.3 0 5.9-2.6 5.9-5.9 0-.6-.1-1.2-.3-1.7-.4-.1-.8-.2-1.1-.3-.1 0-.1 0-.2-.1-.3-.1-.7-.2-1-.2-.4-.1-.8-.1-1.2-.2-.4 0-.8-.1-1.1-.1-1.8 0-3.5.3-5.2 1-.2.1-.5.2-.7.3-.2.1-.5.2-.7.3-.1.2-.1.2-.2.2zm8.4 111.1c-1.1-1-2.1-2.1-3-3.3l-.1-.1c-.7-.8-1.3-1.7-1.9-2.7-4.4-7-17.6-19.2-21.8-31.3-.6-1.6-1-3.3-1.2-4.9-.7-5.6-1.5-11.7-2.5-17.9-1.5-10.2-3.4-20.8-5.2-30.8-.7-7.1-2.3-32.8 7.7-37.9 0 0 .6-35.8 13.2-45.9l42.9.4 42.9-.4c12.6 10.1 13.2 45.9 13.2 45.9 9.9 5 8.4 30.3 7.8 37.7-1.8 10-3.6 20.7-5.2 31-1 6.2-1.8 12.3-2.5 17.9-.2 1.6-.6 3.3-1.2 4.9-4.2 12.1-17.4 24.3-21.8 31.3-.6 1-1.2 1.9-1.9 2.7 0 0 0 .1-.1.1-.9 1.2-2 2.3-3 3.3-10.7 10-25.4 9.1-28.2 9.1-2.7 0-17.4.9-28.1-9.1zm38.4-33.2s9.8-1.8 11.1-8.2c-5.8-5.8-12.5-9.1-12.5-9.1-1.4 3.4-8.9 3.2-8.9 3.2s-7.5.2-8.9-3.2c0 0-6.7 3.3-12.5 9.1 1.4 6.4 11.2 8.2 11.2 8.2h20.5z" fill="#b9896e" stroke-width="2" stroke="#162b17"/><path d="M234.1 135.6c1.4 12-19.8 26.2-33.7 8.9l-4.2-15.7c1.2-8.1 5.2-13.4 11.5-16.2 8.8-1 18-.1 27.7 2.3 5.2 6.6 7.9 14.2 8.9 22.6l-2.7 17.6c-.5-9.6-3-16.1-7.5-19.5zm-1.8 28.2l6.7.4 5.3.3h11.4l12.1-.7c2.5 6.5-.7 12.9-8.8 12.3l-.1 15c-6.5 4.5-12.4 4-17.7 0l-.1-15c-8.8-.7-9.5-5.2-8.8-12.3z" class="o"/><path d="M186.2 150.6c1.8 10 3.6 20.6 5.2 30.8h-.1c-13.6 4.2-23.6-19.6-26.3-30.1-2.7-10.5.7-17.7 6.4-19.3 5.7-1.6 12.3 4.2 12.3 4.2h.1c.6 4.4 1.5 9.3 2.4 14.4z" class="n"/><path d="M232.3 163.8c-7.6 11.3-10.6 23.4-10 36.4h6.3l12.5-9.1-.1-13.7c-8.9-2.3-10.2-7.4-8.7-13.6z" class="p"/><path fill="#DABBA9" d="M243.8 164.3l6.3-9.8 6.3 9.8z"/><path d="M232.5 67c-10.7 7-17.9 34.7-16 45l18.9 2.8h29.3l-13-47.7-19.2-.1z" class="p"/><path class="q" d="M244.3 164.4h5.7"/><path d="M267.5 67c10.7 7 17.9 34.7 16 45l-18.9 2.8h-29.3l13-47.7 19.2-.1zm-33.4 68.6c-1 14.9-22.2 24.1-33.7 8.9l7.5-10c9.7-8.9 18.2-6.7 26.2 1.1z" class="p"/><path d="M218.1 66.8c-12.6 9.1-14.2 38.1-11.3 45.9-5.7 2.4-10.5 15.9-10.5 15.9l4.2 15.7s-1.9 48.5 11.8 55c0 0 .5 2.2.2 9.5-.4 9.5-.1 17.9 2.8 24.4L195 204.1c-8.6-51.8-12.7-85-1.1-91.5.2-18.6 3.7-34.6 13.2-45.9l11 .1z" class="o"/><path d="M233.3 293.4c-6.6-6.1-64.5-15.7-81-11.2-22.2 6.1-29 35.3-29 35.3h120.2s-3.6-18-10.2-24.1zm33.4 0c6.6-6.1 64.5-15.7 81-11.2 22.2 6.1 29 35.3 29 35.3H256.5s3.6-18 10.2-24.1z" class="n"/><path d="M215 129.7c-.2.1-.5.2-.7.3-.2.1-.5.2-.7.3" class="r"/><path d="M240.6 306.9c0 6.8 18.8 6.8 18.8 0l4.8 10.6h-29l5.4-10.6z" class="n"/><path d="M223.6 129.1c-.3-.1-.7-.2-1-.2-.4-.1-.8-.1-1.2-.2-.4 0-.8-.1-1.1-.1" class="r"/><path d="M194.7 204.2s-.1 13-.6 27.7c-.6 17.9-1.8 38.2-4.1 40.5" fill="none" stroke-linejoin="round" stroke-width="4" stroke="#162b17"/><path d="M212.5 208.9c0 16.6 3.4 25 6.2 29.2 9.6 9.7 20 13.8 31.3 12.5v-18.1c-19 2.2-29.8-8.3-37.5-23.6z" class="o"/><path d="M221.8 241.5c-.6-.4-1.7-1.4-3-3.3" class="r"/><path d="M281.9 66.8c12.6 9.1 14.2 38.1 11.3 45.9 5.7 2.4 10.5 15.9 10.5 15.9l-4.2 15.7s-.4 33.8-2.3 33.4c-.1 8.9-3 16.2-9.5 21.5 0 0-.5 2.2-.2 9.5.4 9.5.1 17.9-2.8 24.4L305 204c8.6-51.8 12.7-85 1.1-91.5-.2-18.6-3.7-34.6-13.2-45.9l-11 .2z" class="o"/><path d="M287.5 208.9c0 16.6-3.4 25-6.2 29.2-9.6 9.7-20 12.5-31.3 12.5v-18.1c7.2.4 16.9-.9 20.1-3.4 4.7-2.9 11.4-7.7 17.4-20.2z" class="o"/><path d="M299.3 55.7c20 15.5 22.8 42.3 20.5 59.5-.7 5.2-2 12.4-3.4 20.9-.8 4.5-1.6 9.3-2.5 14.3.7-7.4 2.1-32.6-7.8-37.7 0 0-.6-35.8-13.2-45.9L250 70.4l-42.9-3.6c-12.6 10.1-13.2 45.9-13.2 45.9-10 5.1-8.4 30.8-7.7 37.9-.9-5.1-1.8-10-2.6-14.5-1.5-8.4-2.7-15.7-3.4-20.9-2.4-17.2.5-44 20.5-59.5s35.1-18.9 49.4-18.9c14.1.1 29.2 3.5 49.2 18.9z" fill="#5C4639"/><path d="M222.2 241.7s-.1-.1-.4-.2" class="r"/><path d="M201.4 55.1s18.9 5.3 48.3 5.3c29.5 0 49-5.2 49-5.2s-22.3-18.4-48.2-18.4-49.1 18.3-49.1 18.3z" fill="#71584F"/><path d="M278.2 241.5c1.1-1 2.1-2.1 3-3.3" class="r"/><path d="M265.9 135.6c-1.4 12 19.8 26.2 33.7 8.9l4.2-15.7c-1.2-8.1-5.2-13.4-11.5-16.2-8.8-1-18-.1-27.7 2.3-5.2 6.6-7.9 14.2-8.9 22.6l2.7 17.6c.4-9.6 3-16.1 7.5-19.5z" class="o"/><path d="M267.7 163.8c7.6 11.3 10.6 23.4 10 36.4h-6.3l-12.5-9.1.1-13.7c8.9-2.3 10.2-7.4 8.7-13.6zm-1.8-28.2c1 14.9 22.2 24.1 33.7 8.9l-7.5-10c-9.7-8.9-18.2-6.7-26.2 1.1z" class="p"/><path d="M279.7 128.7c-.4 0-.8 0-1.1.1-.4 0-.8.1-1.2.2-.3.1-.7.1-1 .2" class="r"/><path d="M183.6 136.1s-6.6-5.8-12.3-4.2c-5.7 1.6-9.1 8.9-6.4 19.3 2.7 10.5 12.7 34.3 26.3 30.1m-19.7-41.7s13.8 7.5 14.8 12.6m27.1-21.8c-1.9.9-3.7 2.3-5.5 4m26.2 1.2c-3.1-3-6.2-5-9.1-6-.4-.1-.8-.2-1.1-.3m31.8 35.1H250m66.4-28.3s6.6-5.8 12.2-4.2c5.7 1.6 9.1 8.9 6.4 19.3-2.7 10.5-12.7 34.3-26.3 30.1m-32.5-52.1c-.4.1-.8.2-1.1.3-3 1-6 3-9 6l-.1.1m26.1-1.2c-1.8-1.7-3.6-3-5.5-4" class="q"/><path d="M275 129.5c-.2.5-.3 1.1-.3 1.7 0 3.3 2.7 5.9 5.9 5.9 3.3 0 5.9-2.6 5.9-5.9 0-.3 0-.5-.1-.8-2.2-1.1-4.5-1.7-6.8-1.7-.4 0-.8 0-1.1.1-.4 0-.8.1-1.2.2-.3.1-.7.1-1 .2-.1 0-.1 0-.2.1-.3 0-.7.1-1.1.2zm-61.6.9c0 .3-.1.5-.1.8 0 3.3 2.7 5.9 5.9 5.9 3.3 0 5.9-2.6 5.9-5.9 0-.6-.1-1.2-.3-1.7-.4-.1-.8-.2-1.1-.3-.1 0-.1 0-.2-.1-.4-.1-.7-.2-1-.2-.4-.1-.8-.1-1.2-.2-.4 0-.8-.1-1.1-.1-1.8 0-3.5.3-5.2 1-.2.1-.5.2-.7.3-.2.1-.5.2-.7.3-.1.2-.1.2-.2.2z" class="s"/><path d="M266 135.4v.1c-1.3 11.9 19.8 26 33.7 8.7" class="q"/><path d="M250 177.4c-5 0-4.6-10.5-11.8-8.2m2.9 6.8c-5.3-.9-10.8-1.5-8.8-12.3l9.3-8.8m8.4 44.6h-9.3c-4.6 1.9-9 3.1-12.1.7 5.8-5.8 12.5-9.1 12.5-9.1 1.4 3.4 8.9 3.2 8.9 3.2" class="t"/><path d="M250 208.3h-10.2s-9.8-1.8-11.2-8.2m13-45.2l2.7-17.6s-4.2-17.8-8.9-22.6m-39.2 14s2.3-13.2 10.5-15.9c8.2-2.7 28.6 2 28.6 2m-34.9 29.6c13.9 17.3 35.1 3.1 33.7-8.9m-40.5 96.4c0 .5-.6 7.7-30.8 15.6-16.4 4.3-16.2 10.7-27.4 15.4-12.9 5.4-40.5 13.3-47.1 21.2-6.6 7.8-15.1 33.4-15.1 33.4h353.9s-8.6-25.6-15.1-33.4c-6.6-7.8-34.2-15.7-47.1-21.2-11.3-4.7-11.1-11.2-27.4-15.4-30.2-7.9-30.8-15-30.8-15.6m-88 6.2c-2.8-4.2-6.2-12.6-6.2-29.2" class="t"/><path d="M281.3 238.1c.7-.8 1.3-1.7 1.9-2.7 4.4-7 17.6-19.2 21.8-31.3.6-1.6 1-3.3 1.2-4.9.7-5.6 1.5-11.7 2.5-17.9 1.6-10.2 3.4-21 5.2-31 .9-5 1.7-9.8 2.5-14.3 1.5-8.4 2.7-15.7 3.4-20.9 2.4-17.2-.5-44-20.5-59.5S264.2 36.9 250 36.9c-14.2 0-29.3 3.4-49.4 18.9s-22.8 42.3-20.5 59.5c.7 5.2 2 12.4 3.4 20.9.8 4.5 1.7 9.4 2.6 14.5 1.8 10 3.6 20.6 5.2 30.8 1 6.2 1.8 12.3 2.5 17.9.2 1.6.6 3.3 1.2 4.9 4.2 12.1 17.4 24.3 21.8 31.3.6 1 1.2 1.9 1.9 2.7 0 0 0 .1.1.1.9 1.2 2 2.3 3 3.3 10.7 10 25.4 9.1 28.2 9.1 2.8 0 17.5.9 28.2-9.1M250 177.4c5 0 4.5-10.5 11.8-8.2" class="t"/><path d="M258.9 176c5.4-.9 10.8-1.5 8.8-12.3l-9.3-8.8" class="t"/><path d="M258.4 154.9l-2.7-17.6s4.2-17.8 8.9-22.6M250 199.5h9.3c4.6 1.9 9 3.1 12.1.7-5.8-5.8-12.5-9.1-12.5-9.1-1.4 3.4-8.9 3.2-8.9 3.2" class="t"/><path d="M250 208.3h10.2s9.8-1.8 11.1-8.2m-1.2 29c-5 3.8-20.1 3.4-20.1 3.4s-15.1.3-20.1-3.4m34.7-114.3s20.5-4.8 28.6-2c8.2 2.7 10.5 15.9 10.5 15.9m1.5 75.5s.1 13 .6 27.7c.6 17.9 1.8 38.2 4.1 40.5m-32.1-30.7s.1-.1.4-.2c.6-.4 1.7-1.4 3-3.3l.1-.1c2.8-4.2 6.2-12.6 6.2-29.2m-11.1-4.2s20.8-3.6 20.8-26.9m-55.8 6.6s-17.9 5.3-19.1 15.7" class="t"/><path d="M258.6 184.1s16.1 1.9 17.6 14.4m37.4-46.2c0-.3.1-1 .2-2 .7-7.4 2.1-32.6-7.8-37.7 0 0-.6-35.8-13.2-45.9 0 0-23.1 3.6-42.9 3.6S207 66.7 207 66.7c-12.6 10.1-13.2 45.9-13.2 45.9-10 5.1-8.4 30.8-7.7 37.9.1.9.1 1.5.2 1.7v.1m142.2-12.7s-13.8 7.5-14.8 12.6m-73.1 154.7c-5.1-24-47.1-23.8-76-25.9m94.8 25.9c5.1-24 47.1-23.8 76-25.9" class="q"/><path fill="#474E9E" d="M500 0h500v375H500z"/><path d="M659.4 270.8c2 4.6 4.1 8.7 6.5 12.4-5.4 15.3-8.2 32.8-5.9 53.3h-80.5c3-22 17-30.1 33.6-36.4 11.1-4.1 46-25.2 46-29.2l.3-.1zm278.5 65.7h-80.4c3.4-30.5-4.6-54.8-15.6-74.5 6.1 3.3 12 6.6 16.3 8.9 13 7.1 35 25.1 46.1 29.2 16.7 6.3 30.6 14.4 33.6 36.4z" class="u"/><path d="M826.5 168.7c-2.4-8.7-5.3-18.1-8.8-28.5-.5-1.8-1.2-3.7-2-5.4-5.3-11.3.3-34.6-7.9-48.8-3.9-6.7-10.1-11.4-16.8-14.8 2-12 1.9-22.5-4.1-29.7 0 0 24.5-1.2 41.4 37.8 17.8 41.1 36.3 137.4 29.9 191.5-4.3-2.3-10.2-5.6-16.3-8.9-3.7-1.9-7.3-4-10.7-5.8 6.6-25.3 5.9-49.2-4.7-87.4z" class="v"/><path d="M704.6 336.3v.2H660c-2.3-20.4.5-38 5.9-53.3 8.3 13 18.5 20.2 28.5 23.9 1.9 11.2 5.3 21.3 10.2 29.2zm126.6-80.1c3.4 1.8 7 3.9 10.7 5.8 11 19.7 19 43.9 15.6 74.5h-44.7v-.2c12.4-19.8 15.3-53.4 8.2-83.5l1.4-1.5c2.4 1.4 5.5 3 8.8 4.9z" class="w"/><path d="M826.5 168.7c10.6 38.2 11.2 62.1 4.7 87.5-3.3-1.8-6.4-3.5-8.8-4.8-3.6-1.9-5.8-3.2-5.8-3.2-8.6-2.4-16-15.9-14.2-32 9-9.7 11.3-24.4 13.7-35.9 6 .3 8.1-3.8 10.4-11.6z" class="x"/><path d="M822.4 251.3l-1.4 1.5c7.2 30.1 4.2 63.7-8.2 83.5v.2H704.6v-.2c-4.9-7.9-8.3-18-10.2-29.2 19.3 7.3 37.5 1.6 37.5 1.6s-19.8-25.4-26.9-64.6c8.6-2.4 11.9-11.8 10.1-27.9 1.1 1.2 2.3 2.3 3.7 3.4 8.6 6.7 17.2 24.5 40 24.5 22.9 0 31.5-17.8 40.1-24.5 1.4-1 2.6-2.2 3.6-3.4-1.8 16.1 5.6 29.6 14.2 32-.1 0 2.1 1.2 5.7 3.1z" class="u"/><path d="M662.2 295.4c2.8-.9 5.5-1.6 8-1.9 7.2-.9 14.8-.2 22.7 1.3 1.1 16 5 30.8 11.7 41.5v.2h-44.7c-1.7-15.2-.6-28.8 2.3-41.1z" class="y"/><path d="M670.3 293.6c27.4-3.3 62.1 15.6 88.4 15.6V337h-143c0-15.7 34.5-41.1 54.6-43.4z" class="z"/><path d="M817.7 140.2c3.5 10.3 6.4 19.8 8.8 28.5-2.3 7.8-4.4 11.9-10.5 11.6 2.9-13.7 5.3-27.9 1.7-40.1z" fill="#996A56"/><path d="M732.9 209.9c1 .5 9 4 9 4 5-5 16.7-2 16.7-2s11.7-3 16.7 2c0 0 8-3.5 9-4h-.1c-7.1 2.3-13-5.5-18.6-5.3-3.2.1-7 3.7-7 3.7s-3.8-3.5-7-3.7c-5.6-.2-11.5 7.6-18.6 5.3h-.1zm-5.5-66.6c-1.2.9-2 2.5-2 4.1 0 3.1 2.5 5.5 5.5 5.5s5.5-2.4 5.5-5.5c0-2.3-1.4-4.2-3.4-5-.2 0-.5-.1-.8-.1l-1.5-.3c-1.3.1-2.4.5-3.3 1.3zm-15.8 2.7c.6-2.1 1.3-4.1 2-6.2 1.2-3.5 2.5-6.8 3.9-10.1.5-1.2 1-2.4 1.6-3.6.8-1.8 1.6-3.5 2.4-5.2.5-1.1 1.1-2.2 1.7-3.2.2-.5.5-.9.8-1.4.7-1.4 1.5-2.8 2.3-4.2.5-.8.9-1.6 1.4-2.4 1.8-3.2 4.1-6.2 6.9-9l2.1-2.1c1.4-1.4 3-2.6 4.6-3.9 17-13.3 41-20.9 47.9-22.9.5-.1.8-.3 1.1-.4.5-.1.8-.2.8-.2 6.7 3.4 12.9 8.2 16.8 14.8 8.2 14.2 2.6 37.5 7.9 48.8.8 1.8 1.5 3.6 2 5.4 3.5 12.2 1.2 26.4-1.7 40.1-2.3 11.4-4.7 26.1-13.7 35.9-1 1.2-2.3 2.4-3.6 3.4-8.6 6.7-17.2 24.5-40.1 24.5-22.8 0-31.4-17.8-40-24.5-1.4-1-2.6-2.2-3.7-3.4-6.5-7.1-9.6-17-11.6-26.2.7-8.7 1.8-16.8 3.2-24.3.7-3.7 1.5-7.2 2.3-10.6 0-.1.1-.2.1-.3.9-3 1.7-5.9 2.6-8.8zm75.2-4c-.5.1-1 .2-1.6.3-.2 0-.5.1-.8.1-1.9.8-3.3 2.7-3.3 5 0 3.1 2.4 5.5 5.5 5.5s5.5-2.4 5.5-5.5c0-1.7-.8-3.2-2-4.1-1-.8-2.1-1.2-3.3-1.3z" fill="#cb8f71" stroke-width="4" stroke="#27153c"/><path d="M710.8 128.2c7.4-3.6 29.2 5.7 32.9 7.9 7.5 4.3 9.3 12.9 7.3 18l-7.4.2-4.8-9.7c-9.6-7.2-13.5-.7-22.1 5.4-9.7 1.8-11.3 10.6-11.3 18.2l9.7 48c-10.9-13.6-18.6-40.9-16.2-72.5l4.3-13.1 5.5-42.5 17.8-16.8 14.1 4.6c-13-.1-29.8 24.8-29.8 52.3z" class="A"/><path d="M665.9 283.2c-2.3-3.7-4.5-7.8-6.5-12.4-5.5-13.3-9.4-30.7-10.5-53.7-2.3-51.5 18.9-93.9 31.7-128.6C692 57.3 715 31.3 753.1 31.3c18 0 28.3 3.8 33.7 10.2 6.1 7.2 6.1 17.6 4.1 29.7 0 0-.3.1-.8.2-.3.1-.7.2-1.1.4-6.9 2-31 9.6-47.9 22.9-1.6 1.2-3.1 2.5-4.6 3.9-.8.7-1.5 1.4-2.1 2.1-2.8 2.8-5.1 5.8-6.9 9-.5.8-.9 1.6-1.4 2.4-.8 1.4-1.5 2.8-2.3 4.2-.3.5-.5.9-.8 1.4-.6 1.1-1.1 2.2-1.7 3.2-.8 1.7-1.6 3.5-2.4 5.2-.5 1.2-1.1 2.3-1.6 3.6-1.4 3.2-2.7 6.6-3.9 10.1-.8 2-1.4 4.1-2.1 6.2-.9 2.8-1.7 5.7-2.4 8.7 0 .1 0 .2-.1.3-.9 3.4-1.7 6.9-2.3 10.6-1.5 7.5-2.6 15.6-3.2 24.3-.8 9.3-1 19.3-.8 30.3.2 8.4 1.1 16.3 2.4 23.8 7.1 39.2 26.9 64.6 26.9 64.6s-18.2 5.6-37.5-1.6c-9.9-3.6-20.2-10.8-28.4-23.8z" class="v"/><path d="M790 143.3c1.2.9 2 2.5 2 4.1 0 3.1-2.4 5.5-5.5 5.5-3 0-5.5-2.4-5.5-5.5 0-2.3 1.4-4.2 3.3-5 .3 0 .5-.1.8-.1l1.5-.3c1.4.1 2.5.5 3.4 1.3z" class="B"/><path d="M806.6 128.2c-7.4-3.6-29.2 5.7-32.9 7.9-7.5 4.3-9.3 12.9-7.3 18l7.4.2 4.8-9.7c9.6-7.2 13.5-.7 22.1 5.4 9.7 1.8 11.3 10.6 11.3 18.2l-9.7 48c10.9-13.6 18.6-40.9 16.2-72.5l-4.3-13.1-5.5-42.5L791 71.2l-14.1 4.6c12.9 0 29.7 24.9 29.7 52.4z" class="A"/><path d="M727.4 143.3c.9-.8 2-1.2 3.2-1.3l1.5.3c.3 0 .5.1.8.1 2 .8 3.4 2.7 3.4 5 0 3.1-2.5 5.5-5.5 5.5s-5.5-2.4-5.5-5.5c.1-1.6.9-3.1 2.1-4.1z" class="B"/><path d="M792 55.8C707.8 10 664.5 128.3 651.3 241.4c0 0-9.7-33.2 11.9-108.8 21.6-75.5 37.1-83 61.8-95.9s56.5.4 56.5.4L792 55.8z" class="C"/><path d="M715 216.2c1.8 16.1-1.5 25.5-10.1 27.9-1.3-7.4-2.2-15.4-2.4-23.8-.2-11 0-21 .8-30.3 2.2 9.2 5.2 19.1 11.7 26.2z" class="x"/><path d="M766.4 154.2c-2-5.1-.3-13.7 7.3-18 3.7-2.2 25.5-11.5 32.9-7.9" class="D"/><path d="M758.7 269c27.4 0 43.7-52.9 43.7-52.9h-87.3c-.1.1 16.2 52.9 43.6 52.9z" class="A"/><path d="M786.8 142c3.9-.5 8.2-.5 11.1.2 5.6 1.4 8.4 4.2 8.4 4.2" class="D"/><path d="M758.7 244.1v-23.9s-26.7-3.1-25.8-10.3c1.6-12.2-7.2-19.5-12.3-19.5-11.3-3.2-14.4-12-15.2-17.9l-2.1 17.5c-2 20.6 47 64 55.4 54.1zm0 0v-23.9c2 2.3 13.2-.8 16.7-6.3 3.5-5.4 9.3-.6 9-4-.9-10.6 7.5-18.3 12.3-19.5 11.3-3.2 14.4-12 15.2-17.9L814 190c.8 19.7-37.5 57.6-55.3 54.1z" class="A"/><path d="M774.8 216c-2.9 2.9-9.2 4.2-16.1 4.2s-13.2-1.3-16.1-4.2l-.6-2c2.9-3.1 8.8-3.4 16.7-2 7-1.5 12.9-1.3 16.7 2l-.6 2z" fill="#D38997"/><path d="M766.2 180.6c0 3-3.3 5.4-7.3 5.4s-7.3-2.4-7.3-5.4 3.3-15 7.3-15 7.3 12 7.3 15z" class="z"/><path d="M785.2 142.3l1.5-.3" class="E"/><path d="M773.9 154.4s2.3-7.3 4.8-9.7c.9-.9 3.1-1.7 5.7-2.2m1.4-.1c1.5.2 2.9.5 4.2.9 4.2 1.3 7.8 3.5 10.8 6.7" class="D"/><path d="M792 55.8c21.2-1.3 34.1 29.3 50 65.7-8.1-43.6-24.7-76.5-55.2-79.9l5.2 14.2z" class="C"/><path d="M796.7 157.4c-6.1 4.5-7.8 4.1-16.1 1" class="D"/><path d="M673.8 293.3c-1.2.1-2.4.1-3.5.2-2.5.3-5.2.9-8 1.9-2.9 12.3-4 25.9-2.3 41.1h44.7v-.2c-4.9-7.9-8.3-18-10.2-29.2-7.1-2.6-14.2-7-20.7-13.8z" class="y"/><path d="M742.6 216c2.9 2.9 9.2 4.2 16.1 4.2s13.3-1.3 16.1-4.2m-29.2 12.1c0-3.5 26.2-3.5 26.2 0m40.2-61.4s2.4 18.8-15.3 23.8" class="D"/><path d="M847.1 293.6c-27.4-3.3-62.1 15.6-88.4 15.6V337h143c.1-15.7-34.5-41.1-54.6-43.4z" class="z"/><path d="M791 71.2c2-12 1.9-22.5-4.1-29.7-5.5-6.4-15.7-10.2-33.7-10.2-38.1 0-61.1 25.9-72.5 57.1-12.8 34.7-34 77.1-31.7 128.6 1 23 4.9 40.5 10.5 53.7 2 4.6 4.1 8.7 6.5 12.4 8.3 13 18.5 20.2 28.5 23.9 19.3 7.3 37.5 1.6 37.5 1.6" class="D"/><path d="M789.1 71.8c.5-.1.9-.3 1.1-.4m-55.7 29.2c.6-.7 1.4-1.4 2.1-2.1 1.4-1.4 2.9-2.7 4.6-3.9M724 116.3c.7-1.4 1.5-2.8 2.3-4.2" class="E"/><path d="M855.2 295.4c-2.8-.9-5.5-1.6-8-1.9-7.2-.9-14.8-.2-22.7 1.3-1.1 16-5 30.8-11.7 41.5v.2h44.7c1.7-15.2.6-28.8-2.3-41.1z" class="y"/><path d="M721.5 121c.5-1.1 1.1-2.2 1.7-3.2m-5.7 12c.5-1.2 1-2.4 1.6-3.6m-10 28.6c.7-3 1.6-5.9 2.4-8.7.7-2.1 1.4-4.2 2.1-6.2" class="E"/><path d="M731.9 308.7s-19.8-25.4-26.9-64.6c-1.3-7.4-2.2-15.4-2.4-23.8-.2-11 0-21 .8-30.3.7-8.7 1.8-16.8 3.2-24.3.7-3.7 1.4-7.2 2.3-10.6m77.9-113.5s24.5-1.2 41.4 37.8c17.8 41.1 36.3 137.4 29.9 191.5" class="D"/><path d="M659.2 270.9c-.1 4.1-35 25.1-46 29.2-16.6 6.3-30.6 14.3-33.6 36.4H938c-3-22-16.9-30.1-33.6-36.4-11.1-4.1-33.1-22.1-46.1-29.2-4.3-2.3-10.2-5.6-16.3-8.9-3.7-1.9-7.3-4-10.7-5.8-3.3-1.8-6.4-3.5-8.8-4.8-3.6-1.9-5.8-3.2-5.8-3.2-8.6-2.4-16-15.9-14.2-32m-43.8-22.5l-8.9-5.9" class="D"/><path d="M786.7 142l-1.5.3c-.2 0-.5.1-.8.1-1.9.8-3.3 2.7-3.3 5 0 3.1 2.4 5.5 5.5 5.5s5.5-2.4 5.5-5.5c0-1.7-.8-3.2-2-4.1-1-.8-2.1-1.2-3.4-1.3z" class="F"/><path d="M730.6 142c-3.9-.5-8.2-.5-11.1.2-4.2 1.1-6.9 3-7.9 3.8h-.1c-.3.2-.4.4-.4.4" class="D"/><path d="M732.2 142.3l-1.5-.3" class="E"/><path d="M743.6 154.4s-2.3-7.3-4.8-9.7c-.9-.9-3.1-1.7-5.7-2.2m-1.5-.1c-1.5.2-2.9.5-4.2.9-4.2 1.3-7.8 3.5-10.7 6.7m4 7.4c6.1 4.5 7.8 4.1 16.1 1" class="D"/><path d="M732.9 209.9c12-1.8 19.2-8.3 25.8-1.6 5.7-7 15.7 1.6 25.6 1.6l-8.9 4-16.7-2-16.7 2-9.1-4z" fill="#5C464C"/><path d="M730.7 142l1.5.3c.3 0 .5.1.8.1 2 .8 3.4 2.7 3.4 5 0 3.1-2.5 5.5-5.5 5.5s-5.5-2.4-5.5-5.5c0-1.7.8-3.2 2-4.1.9-.8 2-1.2 3.3-1.3z" class="F"/><path d="M732.9 209.9c1 .5 9 4 9 4 5-5 16.7-2 16.7-2" class="D"/><path d="M758.7 208.3s-3.8-3.5-7-3.7c-5.6-.2-11.5 7.6-18.6 5.3h-.2m84.8-69.7c3.5 10.3 6.4 19.8 8.8 28.5 10.6 38.2 11.2 62.1 4.7 87.5" class="D"/><path d="M816 180.3c6.1.3 8.2-3.8 10.5-11.6 0-.1 0-.2.1-.3M792 55.8c-32-15.5-63.5-14.8-90.2 22.9" class="D"/><path d="M817.7 140.2c-.5-1.8-1.2-3.7-2-5.4-5.3-11.3.3-34.6-7.9-48.8-3.9-6.7-10.1-11.4-16.8-14.8 0 0-.3.1-.8.2-.3.1-.7.2-1.1.4-6.9 2-31 9.6-47.9 22.9-1.6 1.3-3.1 2.5-4.6 3.9l-2.1 2.1c-2.8 2.8-5.1 5.8-6.9 9-.5.8-.9 1.6-1.4 2.4-.8 1.4-1.5 2.8-2.3 4.2-.3.5-.5.9-.8 1.4-.6 1.1-1.1 2.2-1.7 3.2-.8 1.7-1.6 3.5-2.4 5.2-.5 1.2-1 2.3-1.6 3.6-1.4 3.2-2.7 6.6-3.9 10.1-.7 2-1.4 4.1-2 6.2-.9 2.8-1.8 5.8-2.5 8.8 0 .1 0 .2-.1.3-.9 3.4-1.6 6.9-2.3 10.6-1.4 7.5-2.6 15.6-3.2 24.3 2.1 9.2 5.1 19.1 11.6 26.2 1.1 1.2 2.3 2.3 3.7 3.4 8.6 6.7 17.2 24.5 40 24.5 22.9 0 31.5-17.8 40.1-24.5 1.4-1 2.6-2.2 3.6-3.4 9-9.7 11.3-24.4 13.7-35.9 2.8-13.7 5.2-27.9 1.6-40.1z" class="D"/><path d="M751 154.2c2-5.1.3-13.7-7.3-18-2.8-1.6-15.8-7.3-25.2-8.5-.6 1.4-1.3 2.9-1.8 4.4m-11.2 40.4c.8 6 3.9 14.7 15.2 17.9M841.9 262c11 19.7 19 43.9 15.6 74.5" class="D"/><path d="M715 216.2c1.8 16.1-1.5 25.5-10.1 27.9" class="E"/><path d="M758.7 212s11.7-3 16.7 2c0 0 8-3.5 9-4h.1" class="D"/><path d="M758.7 208.3s3.8-3.5 7-3.7c5.6-.2 11.5 7.6 18.6 5.3h.1m-25.7-16.2l8.9-5.9m-1.3 4.3c9.1 3.2 12.9-8.9 8.1-13.8m-23.3 13.8c-9.1 3.2-12.9-8.9-8.1-13.8m77.9 74.5c7.2 30.1 4.2 63.7-8.2 83.5m-118.3-29.2c1.9 11.2 5.3 21.3 10.2 29.2m-38.7-53.1c-5.4 15.3-8.2 32.9-5.9 53.3" class="D"/><path fill="#3F98BF" d="M2000 0h500v375h-500z"/><path d="M2282 140.2c.1.4.1.8.1 1.2 0 2.9-2.3 5.2-5.2 5.2-2.9 0-5.2-2.3-5.2-5.2 0-1.2.4-2.4 1.1-3.2 3.4.1 6.5.9 9.2 2zm-54.8-2.1c.7.9 1.1 2 1.1 3.2 0 2.9-2.3 5.2-5.2 5.2-2.9 0-5.2-2.3-5.2-5.2 0-.4 0-.8.1-1.2 2.7-1 5.8-1.8 9.2-2z" class="G"/><path d="M2254.9 205.4c6.1.1 11.4 1.6 15.8 4.5-4.6 9.4-20.8 9.1-20.8 9.1s-16.1.3-20.8-9.1c4.4-2.9 9.7-4.4 15.8-4.5 0 1.9 4.9 2.1 4.9 2.1s5.1-.1 5.1-2.1z" fill="#a1576d" stroke-width="3" stroke="#152235"/><path d="M2270.8 209.9c-4.4-2.9-9.7-4.4-15.8-4.5 0 1.9-4.9 2.1-4.9 2.1s-4.9-.1-4.9-2.1c-6.1.1-11.4 1.6-15.8 4.5 0-9.6 16.3-16.3 16.3-16.3l4.5 1.9 4.5-1.9c-.2 0 16.1 6.7 16.1 16.3z" fill="#673045"/><path d="M2188.7 154.7c0 1.8.1 3.5.3 5.2.3 5.8.7 12.6 1.3 19.9 0 0-26.1-13-22.6-28.7 3.6-15.6 20.2-9 20.5-8.9s.1 4.8.5 12.5zm122.6 0c.4-7.7.5-12.4.5-12.4.3-.1 16.9-6.7 20.5 8.9 3.6 15.7-22.6 28.7-22.6 28.7.8-9.8 1.3-18.6 1.6-25.2zm-5 93.9c.3.3 21.6 18.3 37.3 24 9.4 3.5 23 13.7 32.7 20.2 9.7 6.4 13.9 5.1 22.7 7.6 8.8 2.5 35.9 31.1 35.9 31.1h-369.8s27-28.5 35.9-31.1c8.8-2.5 13-1.2 22.7-7.6 9.7-6.4 23.3-16.7 32.7-20.2 15.7-5.8 36.9-23.8 37.3-24 .9-11.9 1.5-22.1 1.5-22.1 2 13 4.5 24.2 7.7 30.1 11.6 22.1 82.7 22.1 94.4 0 3.1-6 5.7-17.1 7.7-30.1-.1.3.4 10.4 1.3 22.1z" class="H"/><path d="M2410.2 331.5c-6.9-16.9-23.2-27.9-46.2-34.5 0 0-64.5 5.2-78.2 9.2s-17.9 12.1-17.9 12.1c0 10.6-35.8 10.6-35.8 0 0 0-4.3-8.1-17.9-12.1-13.7-4-78.2-9.2-78.2-9.2-23 6.7-39.2 17.6-46.2 34.5" class="I"/><path d="M2247.3 184.5c-.1 0-2 .4-4.7 1.2-7.5 2.1-21.6 7.2-23.4 15.8l-2.7 15.2c-13.1-17.9-25.6-34.7-27.6-56.8-.1-1.8-.2-3.6-.3-5.2-.4-7.7-.5-12.4-.5-12.4-.2-.4-19-44.9 7.2-76.4 17.3-20.9 41.1-24.1 53.6-24.1s38.3 3.2 55.7 24.1c26.1 31.5 7.3 76 7.2 76.4s-.2 4.8-.5 12.4h-.1c-.3 24.7-13.7 42.7-27.8 62l-2.7-15.2c-1.8-8.6-15.8-13.7-23.3-15.8-2.5-.7-4.2-1.1-4.7-1.2-.8.5-1.7.7-2.6.6-1.1.2-2-.1-2.8-.6zm34.8-43.1c0-.4 0-.8-.1-1.2-2.7-1.1-5.8-1.9-9.2-2.1-.7.9-1.1 2-1.1 3.2 0 2.9 2.3 5.2 5.2 5.2 2.9.1 5.2-2.3 5.2-5.1zm-53.8 0c0-1.2-.4-2.4-1.1-3.2-3.4.1-6.5 1-9.2 2.1-.1.4-.1.8-.1 1.2 0 2.9 2.3 5.2 5.2 5.2 2.9-.1 5.2-2.5 5.2-5.3z" fill="#aa6d53" stroke-width="3" stroke="#152235"/><path d="M2288.4 52c-14.6-8.6-30.4-10.3-39.4-10.3-8.9 0-23.4 1.6-37.2 9.9-2.3 5.2-3.6 10.9-3.6 17 0 23.1 18.7 41.8 41.8 41.8 23.1 0 41.8-18.7 41.8-41.8 0-5.9-1.2-11.5-3.4-16.6z" class="J"/><path d="M2308.3 70.8c11.2 21.7 14.2 42.9 3.5 71.5 1.6 29.6-13.9 57.1-28.4 74.5l-3.1-18.3c-3.4-6.4-13.6-10.3-23.1-12.7 10.5 2.2 13.7-14.7 4.5-18.2l-4.8-19.7s-1.3-8.6 3.3-13.1c6.9 0 15.9-6.9 21.6-6 6.1 1 13.9 4 22.5 10l-1-11.3c-1.6-7-6.6-9.9-12.1-12.3 21.9-46.9-2.1-65.3-45.6-65.3 3.3-1.6 1.9-8.4 5.2-8.1 20.9 2.3 40.8 6.1 57.5 29z" class="H"/><path d="M2238.2 167.5c0 14 23.3 14 23.3 0 8.5 5 4.6 23-8.9 17.1l-6.4-.8c-11.1 7.5-17-9.7-8-16.3z" fill="#7F5C43"/><path d="M2196 132.8l.5-5.4c1.6-7 6.6-9.9 12.1-12.3-21.9-46.9-.1-64.1 41.4-66.3-3.3-1.6 2.3-7.4-1-7.1-20.7 2.4-40.6 6.2-57.3 29-11.2 21.7-14.2 42.9-3.5 71.5-1.6 29.6 13.9 57.1 28.4 74.5l3.1-18.3c3.4-6.4 13.6-10.3 23.1-12.7-10.5 2.2-13.7-14.7-4.5-18.2l4.8-19.7s1.3-8.6-3.3-13.1c-6.9 0-15.9-6.9-21.6-6-6.1 1-13.9 4-22.5 10l.3-5.9" class="H"/><path d="M2216.5 216.7c-2.1-25.3 5.6-41.3 21.7-49.2-8.3 3.2-6.9 20.7 4.5 18.2l-26.2 31zm-7.1-71.5c1.8-1.3 8.4-7.2 18.8-7.2 3.1 0 8.8 9 8.8 9-9.8 13.5-19.8 24.8-32.3 8.7-.1-3.6 2.8-9.2 4.7-10.5z" class="I"/><path d="M2270.8 209.9l2.7 18.5c-11.2 14.8-23.4 14.3-23.4 14.3s-12.2.4-23.4-14.3l2.7-18.5c4.6 9.4 20.8 9.1 20.8 9.1s15.9.3 20.6-9.1z" class="H"/><path d="M2203.4 134.2c5.6-14.5 22.7-25.4 42.9-13 1.7 5.6.7 10.1-4.6 13-11.1-1.8-22.3-12.3-38.3 0z" class="J"/><path d="M2188.2 142.3c-.3-.1-16.9-6.7-20.5 8.9-3.6 15.7 22.6 28.7 22.6 28.7" class="K"/><path d="M2283.5 216.7c2.1-25.3-5.6-41.3-21.7-49.2 8.3 3.2 6.9 20.7-4.5 18.2l26.2 31z" class="I"/><path d="M2242.7 185.7c-.5.1-10.1 1.3-9.2-11.8.3-4.8 4.8-6.4 4.8-6.4m18.8 18.2h.2c1.5.1 9.8.4 9-11.8-.3-4.8-4.8-6.4-4.8-6.4m-66-28.8s14.6-9.1 22.5-10c7.2-.8 14.5 6.7 21.6 6 .7-.1 1.3-.2 2-.4 7.8-2.7 4.6-13 4.6-13m-36.8 23.9s8.4-7.2 18.8-7.2c3.1 0 8.8 9 8.8 9-9.8 13.5-19.8 24.8-32.3 8.7m38.3-7.9s1.3-8.6-3.3-13.1" class="K"/><path d="M2195.2 226.5s-.5 10.2-1.5 22.1c-1.2 15-3 32.6-5.2 35.8" class="L"/><path d="M2193.7 248.6c-.3.3-21.6 18.3-37.3 24-9.4 3.5-23 13.7-32.7 20.2-9.7 6.4-13.9 5.1-22.7 7.6-8.8 2.5-35.9 31.1-35.9 31.1h369.8s-27-28.5-35.9-31.1c-8.8-2.5-13-1.2-22.7-7.6-9.7-6.4-23.3-16.7-32.7-20.2-15.7-5.8-37-23.8-37.3-24" class="K"/><path d="M2136 297s64.5 5.2 78.2 9.2c13.7 4 17.9 12.1 17.9 12.1" class="K"/><path d="M2296.6 134.2c-5.6-14.5-22.7-25.4-42.9-13-1.7 5.6-.7 10.1 4.6 13 11.1-1.8 22.3-12.3 38.3 0z" class="J"/><path d="M2188.7 154.7c-2.3 0-4.1-1.9-5.2-3.8-1.2-1.9-1.8-3.8-1.8-3.8-5.3-1.3-7 .7-8.8 5.6m74.4 31.8c-.1 0-2 .4-4.7 1.2-7.5 2.1-21.6 7.2-23.4 15.8l-2.7 15.2c-13.1-17.9-25.6-34.8-27.5-56.8-.1-1.7-.2-3.4-.3-5.2m116.1 71.8c2.2-14.7 3.8-31.7 4.9-46.7.7-9.7 1.2-18.5 1.5-25.1.4-7.7.5-12.4.5-12.4" class="K"/><path d="M2311.8 142.3c.2-.4 19-44.9-7.2-76.5-17.3-20.9-43.1-24.1-55.6-24.1s-36.3 3.2-53.6 24.1c-26.1 31.5-7.4 76-7.2 76.5 0 0 0 1.2.1 3.4.1 2.1.2 5.2.4 9.1v.1c.1 1.6.1 3.3.3 5.2.3 5.7.7 12.5 1.3 19.9 1.1 15 2.7 32 4.9 46.7 2 13 4.5 24.2 7.7 30.1 11.6 22.1 82.7 22.1 94.4 0 3.2-6 5.7-17.1 7.7-30.1" class="K"/><path d="M2229.3 209.9c0-9.5 16.3-16.3 16.3-16.3l4.5 1.9 4.5-1.9s16.3 6.7 16.3 16.3c-4.4-2.9-9.7-4.3-15.8-4.5 0 1.9-4.9 2.1-4.9 2.1s-4.9-.1-4.9-2.1c-6.4.2-11.6 1.6-16 4.5zm41.4 0c-4.6 9.4-20.7 9.1-20.7 9.1s-16.1.3-20.8-9.1" class="K"/><path d="M2270.7 209.9l2.7 18.5c-11.2 14.8-23.4 14.3-23.4 14.3s-12.3.4-23.5-14.3l2.7-18.5m23.3-25.4s.1.1 0 0c.5.1 2.3.5 4.8 1.2 7.5 2.1 21.5 7.2 23.3 15.8l2.7 15.2c14.1-19.3 27.5-37.3 27.8-62h.1c4.6-.1 6.9-7.6 6.9-7.6 5.3-1.3 7 .7 8.7 5.6" class="K"/><path d="M2290.6 145.2c-1.8-1.3-8.4-7.2-18.8-7.2-3.1 0-8.8 9-8.8 9 9.8 13.5 19.8 24.8 32.3 8.7.1-3.6-2.8-9.2-4.7-10.5z" class="I"/><path d="M2262.4 178.7c-4.4-1.3-6.6 4-9.8 5.9-.8.5-1.7.7-2.6.6-1 .2-1.9-.1-2.7-.6-3.1-1.9-5.3-7.1-9.7-5.8m16.1-57.6s-3.1 10.3 4.6 13c.7.2 1.3.4 2 .4 7.1.8 14.4-6.8 21.6-6 7.9.9 22.5 10 22.5 10m-13.8 6.6s-8.4-7.2-18.8-7.2c-3.1 0-8.8 9-8.8 9 9.8 13.5 19.8 24.8 32.3 8.7m-38.3-7.9s-1.3-8.6 3.3-13.1" class="K"/><path d="M2303.5 127.4c-1.1-5.1-4.9-9.2-12.1-12.3 0 0 15.8-34.8 3.1-49.3-12.7-14.5-34.5-17-44.6-17-10.1 0-31.9 2.5-44.6 17-12.7 14.5 3.1 49.3 3.1 49.3-7.2 3.1-11 7.3-12.1 12.3" class="K"/><path d="M2304.8 226.5c0 .3.6 10.4 1.5 22.1 1.2 15 3 32.6 5.2 35.8" class="L"/><path d="M2364 297s-64.5 5.2-78.2 9.2-17.9 12.1-17.9 12.1" class="K"/><path d="M2227.2 138.1c.7.9 1.1 2 1.1 3.2 0 2.9-2.3 5.2-5.2 5.2-2.9 0-5.2-2.4-5.2-5.2 0-.4 0-.8.1-1.2 2.7-1 5.8-1.8 9.2-2z" fill="#32323F"/><path d="M2223.1 146.6c2.9 0 5.2-2.4 5.2-5.2 0-1.2-.4-2.4-1.1-3.2-3.4.1-6.5 1-9.2 2.1-.1.4-.1.8-.1 1.2 0 2.8 2.3 5.1 5.2 5.1z" class="K"/><path d="M2271.7 141.4c0 2.9 2.3 5.2 5.2 5.2 2.9 0 5.2-2.3 5.2-5.2 0-.4 0-.8-.1-1.2-2.7-1.1-5.8-1.9-9.2-2.1-.7.9-1.1 2-1.1 3.3z" fill="#32323f" stroke-width="4" stroke="#152b44"/><path d="M2255.6 168.3c0-2.5-2.7-7.7-6-7.7s-6 5.2-6 7.7 2.7 4.5 6 4.5 6-2 6-4.5z" class="J"/><path d="M2311.2 154.7h.1c-.3 6.6-.8 15.4-1.5 25.1-1.1 15-2.7 32-4.9 46.7-2 13-4.5 24.2-7.7 30.1-11.6 22.1-82.7 22.1-94.4 0-3.2-6-5.7-17.1-7.7-30.1-2.2-14.7-3.8-31.7-4.9-46.7-.4-5-.9-14.1-1.3-19.9 2 22 14.4 38.9 27.5 56.8l2.7-15.2c1.8-8.6 15.9-13.7 23.4-15.8 2.7-.8 4.5-1.2 4.7-1.2h5.3c.4.1 2.2.5 4.7 1.2 7.5 2.1 21.5 7.2 23.3 15.8l2.7 15.2c14.3-19.3 27.6-37.3 28-62zm-37.7 73.7l-2.7-18.5c0-9.5-16.3-16.3-16.3-16.3l-4.5 1.9-4.5-1.9s-16.3 6.7-16.3 16.3l-2.7 18.5c11.2 14.8 23.5 14.3 23.5 14.3s12.3.5 23.5-14.3z" fill="#261C1A"/><path d="M2309.3 186.4c-1.1 13.3-2.5 27.6-4.4 40.1-2 13-4.5 24.2-7.7 30.1-11.6 22.1-82.7 22.1-94.4 0-3.2-6-5.7-17.1-7.7-30.1-1.9-12.6-3.4-27-4.4-40.3 5 34.3 19.4 76.2 59.3 76.2s54.2-41.7 59.3-76z" fill="#130E0E"/><path d="M2189 159.9c2 22 14.4 38.9 27.5 56.8l2.7-15.2c1.8-8.6 15.9-13.7 23.4-15.8 2.7-.8 4.5-1.2 4.7-1.2h5.3" class="K"/><path d="M2188.8 155.4c0 1.2.1 2.4.2 3.5" fill="none" stroke-width="4" stroke="#000"/><path d="M2304.8 226.5c1.9-12.5 3.4-26.9 4.4-40.1.1-2.2.3-4.4.5-6.6.7-9.7 1.2-18.5 1.5-25.1.4-7.7.5-12.4.5-12.4" class="K"/><path d="M2188.2 142.2s.1 4.8.5 12.4v.8c0 .7.1 2 .2 3.5 0 .3 0 .7.1 1 .3 5.8.9 14.9 1.3 19.9.1 2.1.3 4.2.5 6.4 1 13.3 2.5 27.7 4.4 40.3 2 13 4.5 24.2 7.7 30.1 11.6 22.1 82.7 22.1 94.4 0 3.2-6 5.7-17.1 7.7-30.1" class="K"/><path d="M2229.3 209.9c0-9.5 16.3-16.3 16.3-16.3l4.5 1.9 4.5-1.9s16.3 6.7 16.3 16.3c-4.4-2.9-9.7-4.3-15.8-4.5 0 1.9-4.9 2.1-4.9 2.1s-4.9-.1-4.9-2.1c-6.4.1-11.6 1.6-16 4.5zm41.4 0c-4.6 9.4-20.7 9.1-20.7 9.1s-16.1.3-20.8-9.1" class="K"/><path d="M2270.7 209.9l2.7 18.5c-11.2 14.8-23.4 14.3-23.4 14.3s-12.3.4-23.5-14.3l2.7-18.5m23.3-25.4s.1 0 0 0c.5.1 2.3.5 4.8 1.2 7.5 2.1 21.5 7.2 23.3 15.8l2.7 15.2c14.1-19.3 27.5-37.3 27.8-62h.1c.2 0 .4 0 .6-.1 4.2-.7 6.3-7.5 6.3-7.5 5.3-1.3 7 .7 8.7 5.6" class="K"/><path d="M2311.8 142.3c.3-.1 16.9-6.7 20.5 8.9 3.6 15.7-22.6 28.7-22.6 28.7" class="K"/><path fill="#BC2F4B" d="M1500 0h500v375h-500z"/><path d="M1905.3 311.8c11.3 16.5 8.6 19.4 8.6 19.4h-59.1c-4.5-24.8-12-49.3-12-49.3 7.4 2.8 13.6 4.9 16.8 5.7 12.9 3.4 34.4 7.7 45.7 24.2z" class="M"/><path d="M1854.8 331.2h-48.9c7.1-30.4 3.8-64.5 3.8-64.5 4.5 2.5 9.3 4.9 14.3 7.2 6.5 3 13 5.7 18.9 8-.1 0 7.4 24.6 11.9 49.3z" class="N"/><path d="M1790.4 249.5c-.6-9.2-.2-16.8.2-20.4 2-3.2 3.7-6.6 5.3-10.1 1.9-3.1 3.4-5.9 4.1-8 2.1-5.8 4.7-16.3 6.8-26.2 0 0 1.1 3.5 5.8 1.5 0 0 4.6 5.3 4.6 15.7v19.6c0 11.8 6.5 12.1 9.8 28.1 3.2 16-3.2 24.3-3.2 24.3-4.9-2.3-9.8-4.7-14.3-7.2-10.4-5.9-18.4-12.1-19.1-17.3z" class="O"/><path d="M1823.3 142.5c1.5 1.5-1.4 14.5-4.1 18.6.6 4.5-.3 9.7-2.1 15.2 0 0 .2 8-4.5 10s-5.8-1.5-5.8-1.5c2.4-11.3 4.3-22.1 4.3-24.9 0 0 3.4-6.5 6.6-16.1 2.2-2.7 4.1-2.8 5.6-1.3z" class="P"/><path d="M1776.1 222.3s7.3-17.4 6.8-30.3c20.1-1.4 22.9-24.6 7.8-27.4.5-1.4.4-5.2 0-6.9 10.7-4.3 13.7-10.3 11.2-18-1-8-3.8-15.3-10.2-17.7.6-1.1 1.1-2.2 1.4-3.4.2-.4.3-.9.4-1.3.1-.3.2-.6.2-.9 1.8-8.1.2-17.3.2-17.3l-1-8.9 8.8 5.5c.1.1.2.1.2.1 0 7.5 7.8 37.6 8.8 41.4.1.2.1.4.1.4l-3.4 8.9v.1c0 6.1 3.2 12.5 3.7 13.3v.1c-3.5 20.7-7.2 41.3-15.3 59.1-1.5 2.5-3.2 5.2-5.1 8h-26.9c.5-.4 1-.8 1.6-1.2.6-.4 1.5-.8 2.6-1.2 2.6-.2 5.3-.7 7.6-2 .1 0 .2-.1.2-.2.2-.1.3-.1.3-.2z" class="P"/><path d="M1811.2 159.9c0 2.9-1.9 13.6-4.3 24.9-2.1 10-4.8 20.4-6.8 26.2-.7 2.1-2.2 4.9-4.1 8 8-17.8 11.7-38.3 15.2-59.1z" class="Q"/><path d="M1807.5 146.6l3.7 13.3c-.5-.8-3.7-7.2-3.7-13.3z" class="R"/><path d="M1807.5 146.5l3.4-8.9c0 3.5-3 8.3-3.4 8.9z" class="Q"/><path d="M1802 95.9l8.8 41.4c-1-3.8-8.8-33.9-8.8-41.4z" class="R"/><path d="M1709.7 249.5c.6-9.2.1-16.8-.2-20.4 0 .1.1.2.2.3 1.9 11.7 12 62.4 40.4 62.4 28.3 0 38.4-50.7 40.4-62.4.1-.1.1-.2.2-.3-.3 3.6-.8 11.2-.2 20.4h.1c.6 5.1 8.7 11.3 19.2 17.2 0 0 3.4 34.1-3.8 64.5h-111.6c-7.1-30.4-3.8-64.5-3.8-64.5 10.3-5.8 18.4-12 19.1-17.2z" class="M"/><path d="M1777 146.9l3-9.3h.1l21.8 2.1c2.5 7.7-.5 13.8-11.2 18 .4 1.7.5 5.5 0 6.9l-.3-6.8c-2.8-2.2-5.7-3.5-8.5-3.9h-.3c-.5-.1-.9-.1-1.4-.1-.5 0-1.1 0-1.6.1-.2 0-.4 0-.6.1l-1.5.3c-.5.1-1 .2-1.5.4-.2 0-.4.1-.6.2l2.6-8z" class="P"/><path d="M1801.9 139.7l-21.8-2.1c6.1-1.4 13.4-1.2 21.8 2.1z" class="S"/><path d="M1801.8 95.8l-8.8-5.5c4.5 2.4 8 4.9 8.8 5.5z" class="Q"/><path d="M1791.7 122c6.4 2.3 9.2 9.7 10.2 17.7-8.4-3.3-15.7-3.5-21.8-2.1h-.1c-14.9 3.4-22.9 15.9-22.9 15.9l.3 12 7.9-4.1c.2.4 2.2 3.8 5.2 5.4 3.7 1.9 7 3 9.7 3.3 5.7 1 9.3-.6 10.4-5.5v-.1c15.1 2.8 12.3 26-7.8 27.4.5 12.9-6.8 30.3-6.8 30.3 0 .1-.1.1-.2.1s-.2 0-.4.1c-1.1.1-2.8-.2-4.8-.8-1.5-.4-3.2-1.1-4.8-1.7-.2-.1-.5-.2-.8-.3-4.5-1.8-8.9-3.8-9.6-4-.1.3-.3.6-.5.9l-2.3-12.9h-.1c.5-.1.9-.3 1.3-.6l3.2.1s4.8 1.9 7-1.9c3.6-6-1.6-13.8-1.6-13.8l-5.7.2c-.8-5.5-3.6-16.1-6.9-16.1-.5 0-1 .2-1.4.6l-6-6.6.3-12s-8-12.5-22.9-15.9h-.1c-6.1-1.4-13.4-1.2-21.8 2.1 1-8 3.8-15.3 10.2-17.7-.6-1.1-1.1-2.2-1.4-3.4-.2-.4-.3-.9-.4-1.3-.1-.3-.2-.6-.2-.9-1.8-8.1-.2-17.3-.2-17.3l1-8.9c2.7-1.5 5.8-3 8.8-4.1 0 22.8 15.3 41.3 34.1 41.3s34.1-18.5 34.1-41.3c3 1.1 6.1 2.6 8.8 4.1l1 8.9s1.6 9.2-.2 17.3c-.1.3-.2.6-.2.9-.1.4-.2.9-.4 1.3-.1 1.2-.6 2.4-1.2 3.4z" class="M"/><path d="M1793.1 118.7c.2-.4.3-.9.4-1.3-.1.4-.2.8-.4 1.3zm-2.3 108.3c1.9-2.8 3.6-5.5 5.1-8-1.6 3.5-3.3 6.9-5.3 10.1 0-.4.1-.8.1-1.1.1-.6.1-1 .1-1z" class="S"/><path d="M1790.8 227s0 .3-.1 1c-.1.4-.2.8-.2 1.4-3.3 5.5-7.2 10.7-11.8 15.4 3.1-4.8 7.8-11.4 12.1-17.8z" class="S"/><path d="M1759.4 242.9h-.1c-2.5-1-8.4-1.4-11.9-1.4l.3-6.8c7.6 0 15.4-5.1 17.8-7.7h25.2c-4.3 6.4-9 13-12.2 17.8-2.6 3.8-5.7 7.8-9.5 11.2-5.2 4-12.2 6.5-19.3 7.4l.1-6.8c8.4-.1 15.7-3.4 15.7-7.6 0-2.5-2.4-4.7-6.1-6.1z" class="P"/><path d="M1790.4 157.9l.3 6.8v.1c-1.4 3.8-5 6-10.4 5.5-2.8-.5-6-1.6-9.7-3.3l3.8-11.9c.2-.1.4-.2.6-.2-.7.9-1.1 1.9-1.1 3.2 0 2.8 2.3 5 5 5 2.8 0 5-2.3 5-5 0-1.7-.8-3.1-2-4 2.8.2 5.7 1.5 8.5 3.8z" class="M"/><path d="M1790.7 228c0 .3-.1.7-.1 1.1 0 .1-.1.2-.2.3.1-.6.2-1 .3-1.4zm0-63.3c-1.1 4.9-4.7 6.5-10.4 5.5 5.4.5 9-1.7 10.4-5.5z" class="S"/><path d="M1790.4 229.4c-2 11.7-12.1 62.4-40.4 62.4-28.4 0-38.4-50.7-40.4-62.4 3.3 5.5 7.2 10.7 11.8 15.4 2.5 4.5 5.7 8.3 9.5 11.2 5.1 4.5 11.3 7.7 18.6 7.4h.7c7.3.3 13.5-2.9 18.6-7.4 3.8-2.9 7-6.7 9.5-11.2 4.9-4.7 8.8-9.9 12.1-15.4z" class="P"/><path d="M1781.8 154c1.2.9 2 2.3 2 4 0 2.8-2.2 5-5 5s-5-2.3-5-5c0-1.2.5-2.3 1.1-3.2.5-.2 1-.3 1.5-.5s1-.2 1.5-.3c.2-.1.4-.1.6-.1.5-.1 1.1-.1 1.6-.1s.9 0 1.4.1c.1 0 .2 0 .3.1z" class="T"/><path d="M1781.8 154c-.1 0-.2 0-.3-.1.1 0 .2 0 .3.1z" class="T"/><path d="M1780.1 137.6s-.1 0 0 0z" class="S"/><path d="M1777 146.9l-2.6 8.1c-3 1.2-6 3.4-9 6.5l-7.9 4.1-.3-12s8-12.5 22.9-15.9l-3.1 9.2z" class="P"/><path d="M1777.9 154l-1.5.3c.6-.1 1.1-.2 1.5-.3z" class="T"/><path d="M1774.6 84.6c2.8-.4 6.1.4 9.5 1.6 0 22.8-15.3 41.3-34.1 41.3s-34.1-18.5-34.1-41.3c3.4-1.3 6.8-2 9.5-1.6 0 0 7.2 7.4 24.6 7.4 17.4 0 24.6-7.4 24.6-7.4z" class="U"/><path d="M1776.5 154.3c-.5.1-1 .3-1.5.5.5-.2 1-.4 1.5-.5z" class="T"/><path d="M1775.9 222.4c-.1.1-.2.1-.2.2-.2.1-.5.1-.8.1.2-.1.4-.1.6-.2.2-.1.3-.1.4-.1z" class="S"/><path d="M1774.9 222.6c.3 0 .6 0 .8-.1-2.3 1.3-5 1.9-7.6 2 2.3-.7 5.2-1.5 6.8-1.9z" class="S"/><path d="M1770.7 221.7c2 .6 3.7.9 4.8.8-.2 0-.4.1-.6.2-1-.1-2.5-.5-4.2-1z" class="V"/><path d="M1774.4 155l-3.8 11.9-5.2-5.4c3-3.1 6-5.3 9-6.5z" class="M"/><path d="M1774.9 222.6c-1.6.4-4.5 1.2-6.8 2-5.2.4-10-.8-10-.8-2.2 3.2-13.9 3.2-16.1 0 0 0-4.8 1.2-10 .8-2.6-.9-6.1-1.8-7.4-2.1 4.4.5 20.1-6.9 20.1-6.9-.3 3.1 2.6 4.9 5.4 4.9h.1c2.4 0 4.7-1.3 4.9-4 .2-.3.3-.6.5-.9.5.2 4.9 2.3 9.6 4 .3.1.6.2.8.3 1.7.6 3.3 1.2 4.8 1.7 1.6.6 3.1 1 4.1 1z" class="V"/><path d="M1770.6 166.9c3.7 1.7 7 2.8 9.7 3.3-2.8-.3-6-1.4-9.7-3.3z" class="S"/><path d="M1765.4 161.5l5.2 5.4c-3-1.6-4.9-5-5.2-5.4z" class="M"/><path d="M1769 256c3.8-3.3 7-7.4 9.5-11.2-2.4 4.5-5.6 8.2-9.5 11.2zm-18.6 7.2c7.2-.9 13.4-3.3 18.6-7.3-5.1 4.5-11.3 7.7-18.6 7.3z" class="S"/><path d="M1758.1 223.8s4.8 1.2 10 .8c-1.1.4-2 .8-2.6 1.2-.6.4-1.1.8-1.6 1.2h-27.7c-.5-.4-1.1-.8-1.6-1.2-.6-.4-1.5-.8-2.6-1.2 5.3.4 10-.8 10-.8 2.2 3.1 13.9 3.1 16.1 0zm7.8-3.8c-.2-.1-.5-.2-.8-.3.3 0 .6.2.8.3z" class="Q"/><path d="M1763.9 227h1.7c-2.3 2.7-7.9 7.9-15.5 7.9v-1.6c7.5.1 9.8-3 13.8-6.3z" class="S"/><path d="M1753.9 203c-.4.2-.8.4-1.3.6l-5.9-.2-2.1 12.3s-15.7 7.3-20.1 6.9c-.2 0-.3 0-.4-.1-.1 0-.1 0-.2-.1 0 0-7.3-17.4-6.8-30.3-20.1-1.4-22.9-24.6-7.8-27.4.3 1.5.9 2.7 1.7 3.6.2.3.6.6.9.8 1.5 1.2 3.6 1.6 6.2 1.4.5 0 1.1-.1 1.7-.2 2.8-.3 6-1.4 9.7-3.3 3.2-1.7 5.2-5.4 5.2-5.4l7.9 4.1 6 6.6c-3.2 2.9-5.7 14.7-5.7 17.9 0 3.6 3.2 6.6 7.1 6.6s7.1-2.9 7.1-6.6c0-.6-.1-1.4-.2-2.4l5.7-.2s5.2 7.8 1.6 13.8c-2.3 3.8-7 1.9-7 1.9l-3.3-.3z" class="M"/><path d="M1736.2 227h27.7c-4 3.2-6.3 6.4-13.8 6.3-7.6.1-9.9-3-13.9-6.3z" class="S"/><path d="M1759.4 242.9c3.7 1.4 6.1 3.6 6.1 6 0 4.1-6.7 7.5-15.1 7.6l-.2-14.6c3.2 0 6.4.3 9.1.9 0 .1 0 .1.1.1z" class="Q"/><path d="M1756.9 187.6c.1 1 .2 1.9.2 2.4 0 3.6-3.2 6.6-7.1 6.6s-7.1-2.9-7.1-6.6c0-3.2 2.4-15 5.7-17.9.5-.4.9-.6 1.4-.6 3.3 0 6.1 10.7 6.9 16.1z" class="U"/><path d="M1823 110.7c-1.9-41.6-23.2-67.9-66.5-74.2-2.1-.3-4.3-.6-6.5-.8-47.6 4.6-71 31.4-73 75-.5 12.1 2.3 24 5.3 33.1 3.2 9.7 6.6 16.1 6.6 16.1v-.1l3.7-13.3v-.1c-.4-.6-3.4-5.4-3.4-8.9 0 0 0-.1.1-.4l8.8-41.4s.1 0 .2-.1c.8-.6 4.4-3 8.8-5.5 2.7-1.5 5.8-3 8.8-4.1 3.4-1.3 6.8-2 9.5-1.6 0 0 7.2 7.4 24.6 7.4 17.4 0 24.6-7.4 24.6-7.4 2.8-.4 6.1.4 9.5 1.6 3 1.1 6.1 2.6 8.8 4.1 4.5 2.4 8 4.9 8.8 5.5.1.1.2.1.2.1l8.8 41.4c.1.2.1.4.1.4 0 3.5-3 8.3-3.4 8.9v.1l3.7 13.3v.1s3.4-6.5 6.6-16.1c3.1-9.1 5.9-21.1 5.3-33.1z" class="O"/><path d="M1755.5 215.6c.7.2 5 2.2 9.6 4-4.7-1.7-9.1-3.7-9.6-4zm0 0z" class="Q"/><path d="M1752.7 203.6l2.3 12.9c-1.3 1.9-4.5 3.7-4.9 4h-.1c-.5-.3-4.7-2.6-5.4-4.9l2.1-12.3c.8.4 1.8.6 3.3.6 1.2 0 2-.1 2.7-.3z" class="P"/><path d="M1750.1 220.5c.4-.2 3.6-2 4.9-4-.2 2.7-2.5 3.9-4.9 4zm-3.4-17.2l5.9.2c-.7.2-1.5.3-2.6.3-1.5.1-2.5-.1-3.3-.5z" class="S"/><path d="M1759.3 242.9c-2.8-.6-6-.9-9.1-.9v-.6c3.4 0 6.6.5 9.1 1.5z" class="Q"/><path d="M1750.4 263.2c0 .1-.1.1-.1.1-.1 0-.2 0-.2-.1.1.1.2.1.3 0z" class="S"/><path d="M1750.1 242l.2 14.6h-.6l.2-14.6h.2z" class="Q"/><path d="M1750 263.3c.1 0 .2 0 .2.1 0-.1-.1-.1-.2-.1-.1.1-.2.1-.4.1.2-.1.3-.1.4-.1z" class="S"/><path d="M1750.1 241.4v.6h-.2v-.6h.2z" class="Q"/><path d="M1750.1 234.9l.1 6.5h-.2l.1-6.5z" class="S"/><path d="M1750.1 220.5s-.1 0 0 0c-.1 0-.1 0 0 0-.1 0 0 0 0 0z" class="Q"/><path class="S" d="M1750 233.3l.1 1.6h-.1zm0 0v1.6c-7.6 0-13.1-5.2-15.5-7.8h1.7c4 3.2 6.3 6.3 13.8 6.2zm0 30c-.1 0-.2.1-.4.1v-.1h.4z"/><path d="M1740.7 242.9c-3.7 1.4-6.1 3.6-6.1 6 0 4.1 6.7 7.5 15.1 7.6l-.1 6.7c-7.2-.9-13.4-3.3-18.6-7.3-3.8-3.3-7-7.3-9.5-11.2-3.2-4.7-7.9-11.4-12.2-17.7h25.2c2.4 2.7 7.9 7.8 15.5 7.8l3.1 6.5c-3.4 0-9.8.6-12.3 1.5 0 .1-.1.1-.1.1z" class="P"/><path d="M1750 241.4v.6c-3.2 0-6.4.3-9.1.9 2.4-1 5.6-1.5 9.1-1.5z" class="Q"/><path d="M1750 242l-.2 14.6c-8.4-.1-15.1-3.4-15.1-7.6 0-2.4 2.4-4.6 6.1-6h.1c2.7-.7 5.9-1 9.1-1z" class="Q"/><path d="M1749.7 263.2c-7.3.4-13.5-2.8-18.6-7.3 5.1 4 11.4 6.5 18.6 7.3zm-5.1-47.6c.7 2.2 4.9 4.6 5.4 4.9-2.8 0-5.7-1.8-5.4-4.9z" class="S"/><path d="M1723 146.7l-2.9-9c14.9 3.4 22.9 15.9 22.9 15.9l-.3 12-7.9-4.1c-3-3.1-6.1-5.3-9-6.4l-2.8-8.4zm-16.7-30.3c.1.3.2.6.2.9.1.4.2.9.4 1.3.4 1.2.8 2.3 1.4 3.4-6.4 2.3-9.2 9.7-10.2 17.7-2.5 7.7.5 13.8 11.2 18-.4 1.7-.5 5.5 0 6.9-15.1 2.8-12.3 26 7.8 27.4-.5 12.9 6.8 30.3 6.8 30.3.1 0 .1.1.2.1 2.3 1.4 5.1 2 7.8 2.2 1.1.4 2 .8 2.6 1.2.6.4 1.1.8 1.6 1.2h-26.9c-1.9-2.8-3.6-5.4-5.1-7.9-8.1-17.9-11.8-38.4-15.3-59.2v-.1c.4-.8 3.7-7.1 3.7-13.3v-.1l-3.4-8.9s0-.1.1-.4c1-3.7 8.8-33.8 8.8-41.4 0 0 .1 0 .2-.1l8.8-5.5-1 8.9c.1.2-1.5 9.3.3 17.4z" class="P"/><path d="M1734.7 161.5s-2.1 3.7-5.2 5.4l-3.8-11.8c3 1.1 6 3.3 9 6.4z" class="M"/><path d="M1725.7 155l3.8 11.8c-2.6 1.2-4.9 2.1-7 2.7l-1.2-6.6c2.8 0 5-2.3 5-5 0-1.2-.4-2.3-1.1-3.2.1.2.3.2.5.3z" class="M"/><path d="M1724.5 222.5c1.3.3 4.9 1.2 7.4 2.1-2.7-.2-5.5-.8-7.8-2.2.2 0 .3 0 .4.1z" class="S"/><path d="M1723 146.7l2.7 8.3c-.2-.1-.4-.2-.6-.2-.1 0-.2-.1-.3-.1-.1-.1-.2-.1-.4-.1-.2-.1-.4-.1-.6-.2h-.2c-.5-.2-1-.2-1.5-.3-.2 0-.3-.1-.5-.1h-.1c-.5-.1-1.1-.1-1.6-.1s-.9 0-1.4.1h-.4c-2.9.4-5.7 1.7-8.5 3.9l-.3 6.8c-.5-1.4-.4-5.2 0-6.9-10.7-4.3-13.7-10.3-11.2-18l21.8-2.1h.1l3 9z" class="P"/><path d="M1725.1 154.8c.7.9 1.1 1.9 1.1 3.2 0 2.8-2.2 5-5 5s-5-2.3-5-5c0-1.7.8-3.1 2-4h.4c.5-.1.9-.1 1.4-.1.5 0 1.1 0 1.6.1h.1c.2 0 .3 0 .5.1l1.5.3h.2c.2.1.4.1.6.2.1 0 .2.1.4.1-.1 0 .1 0 .2.1z" class="T"/><path d="M1724.7 154.7c-.1-.1-.2-.1-.4-.1.2 0 .3 0 .4.1zm-2.3 14.8c2.1-.6 4.5-1.5 7-2.7-3.7 1.9-7 3-9.7 3.3.4-.1.7-.2 1.1-.2.6-.1 1.1-.2 1.6-.4zm8.6 86.4c-3.8-2.9-7-6.6-9.5-11.2 2.6 3.9 5.7 7.9 9.5 11.2z" class="S"/><path d="M1721.2 163l1.2 6.6c-.5.2-1 .3-1.5.4l-1.5.3h-.1c-5.2.4-8.7-1.9-10-5.6l.3-6.8c2.8-2.2 5.7-3.5 8.5-3.9-1.2.9-2 2.3-2 4 .1 2.7 2.4 5 5.1 5z" class="M"/><path d="M1720.9 169.9c-.4.1-.7.2-1.1.2h-.3c.4 0 .9 0 1.4-.2zm-.8-32.3s-.1 0 0 0zm-.1 0l-21.8 2.1c8.4-3.3 15.7-3.5 21.8-2.1zm-.6 32.6h.3c-.6.1-1.2.2-1.7.2.5 0 1-.1 1.4-.2z" class="S"/><path d="M1719.4 170.2c-.4.1-.9.2-1.3.2-2.6.2-4.7-.2-6.2-1.4-.3-.2-.6-.5-.9-.8-.8-.9-1.4-2.1-1.7-3.6 1.4 3.8 4.9 6 10.1 5.6z" class="S"/><path d="M1718.4 153.9h-.2.2z" class="T"/><path d="M1711 168.2c.2.3.6.6.9.8-.3-.2-.6-.5-.9-.8zm10.5 76.6c-4.6-4.7-8.5-9.9-11.8-15.4-.1-.7-.2-1.2-.3-1.6-.1-.4-.1-.7-.1-.8 4.2 6.4 9 13.1 12.2 17.8z" class="S"/><path d="M1709.7 229.4c-.1-.1-.1-.2-.2-.3-.1-.6-.1-1-.1-1.3 0 .4.1.9.3 1.6z" class="S"/><path d="M1709.4 227.8c0 .3.1.8.1 1.3-1.9-3.2-3.7-6.6-5.3-10 1.5 2.4 3.2 5.1 5.1 7.9 0 .1 0 .4.1.8z" class="S"/><path d="M1707.1 90.3l-8.8 5.5c.8-.6 4.3-3.1 8.8-5.5z" class="Q"/><path d="M1706.6 117.3c.1.4.2.9.4 1.3-.2-.4-.3-.8-.4-1.3z" class="S"/><path d="M1704.2 219.1c-1.9-3.2-3.4-6-4.1-8.1-2.1-5.8-4.7-16.3-6.8-26.2-2.4-11.3-4.3-22.1-4.3-24.9 3.4 20.8 7.1 41.4 15.2 59.2z" class="Q"/><path d="M1689.3 137.3l8.8-41.4c0 7.5-7.9 37.6-8.8 41.4z" class="R"/><path d="M1694.2 331.2h-49c4.5-24.8 12.1-49.3 12.1-49.3 10.3-4 22.8-9.5 33.1-15.2 0 0-3.3 34.1 3.8 64.5z" class="N"/><path d="M1692.6 146.6c0 6.1-3.2 12.5-3.7 13.3l3.7-13.3z" class="R"/><path d="M1689.2 137.6l3.4 8.9c-.4-.6-3.4-5.4-3.4-8.9z" class="Q"/><path d="M1693.2 184.9s-1.1 3.5-5.8 1.5c-4.7-1.9-4.5-10-4.5-10-1.8-5.6-2.8-10.8-2.1-15.2-2.8-4.1-5.6-17.1-4.1-18.6s3.4-1.4 5.6 1.3c3.2 9.7 6.6 16.1 6.6 16.1 0 2.8 1.9 13.5 4.3 24.9z" class="P"/><path d="M1657.3 281.9s-7.5 24.5-12.1 49.3h-59.4s-2.3-2.9 9-19.4 32.8-20.9 45.6-24.2c3.3-.8 9.5-2.8 16.9-5.7z" class="M"/><path d="M1778 331.8h121.3c-.8-9.2-17-25.9-31.4-27.8-27.3-3.6-69.2 8.2-117.1 8.2-48 0-89-13.6-117.1-8.2-14.3 2.8-30.6 18.6-31.4 27.8H1778z" class="U"/><path d="M1772.9 286.7c-1.1 6.6-6.8 35.2-22.8 35.2s-21.7-28.7-22.8-35.2c1.9 3.1 4.1 6 6.7 8.7 1.4 2.5 3.2 4.7 5.4 6.3 2.9 2.5 6.4 4.3 10.5 4.2h.4c4.1.2 7.6-1.6 10.5-4.2 2.2-1.7 4-3.8 5.4-6.3 2.6-2.7 4.8-5.6 6.7-8.7z" class="M"/><path d="M1848.7 303.5c-11.6.6-24.8 2.4-39.1 4.2-.7 7.7-1.8 15.8-3.7 23.6h48.9c-1.8-9.9-4-19.6-6.1-27.8zm-203.4 27.7h49c-1.9-8.1-3.1-16.5-3.7-24.4-14.2-2-27.3-3.8-38.9-4.1-2.3 8.4-4.6 18.4-6.4 28.5z" class="W"/><path d="M1750.1 233.3c16.2 0 22.5-10.2 22.5-10.2l-44 .4s5.4 9.8 21.5 9.8z" fill="#D19EAB"/><path d="M1750.1 226.9c-.3-1.2 22.4-3.8 22.5-3.8 2.7-.2-17.1-7.4-17.1-7.4l-5.5 4.8-5.4-4.9s-19.1 6.6-20.1 6.9c-2 .6 25.6 1.1 25.6 4.4z" fill="#7C505D"/><path d="M1737.7 187.3s-5.2 7.8-1.6 13.8c2.3 3.8 7.1 1.9 7.1 1.9m-19.4 19c.1.1.2.2.4.2 3.4 1.3 20.6-6.7 20.6-6.7.8 2.4 5.4 4.9 5.4 4.9m.1 12.8s-8.6.4-12.9-1.9m12.9 11.3s-7-1.5-13.9 1.7m-12.4-90c.4.1.9.2 1.3.4 3.2 1.1 6.4 3.4 9.6 6.7m-12.8-7.6c.6.1 1.2.2 1.8.4m-3.7-.5c.5 0 1 0 1.5.1m-11.8 3.9c2.8-2.3 5.7-3.6 8.5-3.9.1 0 .2 0 .3-.1m-9.1 10.8c1.2 5.7 5.8 7 13.1 4.9 2.1-.6 4.5-1.5 7-2.7" class="X"/><path d="M1706.3 99.1s-1.5 16.3 3.3 25" class="Y"/><path d="M1689.1 159.8s3.7-6.8 3.7-13.4c0 0-3.5-5.2-3.5-8.9 0 0 8.9-33.7 8.9-41.8 0 0 17.6-12.6 27.4-11.3 0 0 7.2 7.4 24.6 7.4m-67.7 51.9c-2.2-2.7-4-2.8-5.6-1.3-1.5 1.5 1.4 14.5 4.1 18.6-.7 4.5.3 9.7 2.1 15.2 0 0-.2 8 4.5 10s5.8-1.5 5.8-1.5m16.1 42.2c.1.7 1.2 10.2.4 22.5-.6 9-2.2 19.5-6 29.1" class="X"/><path d="M1750.3 35.6c-46.8 0-71 31.4-73 75-.5 12.1 2.3 24 5.3 33.1 3.2 9.6 6.6 16.1 6.6 16.1 0 2.9 1.9 13.6 4.3 24.9 2.1 10 4.7 20.4 6.8 26.2 1.3 3.7 5 9.7 9.2 15.9 4.3 6.4 9 13 12.2 17.7 6.1 9.1 15.7 19.3 28.6 18.5 12.8.7 22.5-9.5 28.6-18.5 3.2-4.8 7.9-11.4 12.2-17.8 4.2-6.3 7.9-12.2 9.2-15.9 2.1-5.8 4.7-16.3 6.8-26.2 2.4-11.3 4.3-22.1 4.3-24.9 0 0 3.4-6.5 6.6-16.1 3-9.1 5.8-21.1 5.3-33.1-2-43.6-25.4-74.9-73-74.9" class="X"/><path d="M1762.8 187.3s5.2 7.8 1.6 13.8c-2.3 3.8-7 1.9-7 1.9m19.3 19c-.1.1-.2.2-.4.2-3.4 1.3-20.6-6.7-20.6-6.7-.8 2.4-5.4 4.9-5.4 4.9" class="X"/><path d="M1776.7 222c-.1.1-.2.2-.4.2-6.9 4.3-18 1.4-18 1.4-2.2 3.2-13.9 3.2-16.1 0 0 0-11.1 2.8-18-1.4-.1-.1-.2-.1-.4-.2m26.5 11.2s8.6.4 12.9-1.9m-12.9 11.3s7-1.5 13.9 1.7m37.9-104.7c-28.8-11.2-44.8 13.9-44.8 13.9l.3 12" class="X"/><path d="M1776.5 154.3c-.5.1-.9.2-1.3.4-3.2 1.1-6.4 3.4-9.6 6.7m12.8-7.6c-.6.1-1.2.2-1.8.4m3.7-.5c-.6 0-1.1 0-1.7.1m12 3.9c-2.8-2.3-5.7-3.6-8.5-3.9-.1 0-.2 0-.3-.1m9.1 10.8c-1.6 7.3-8.8 7.4-20.1 2.3" class="X"/><path d="M1794.2 99.1s1.5 16.3-3.2 25" class="Y"/><path d="M1750.3 91.9c17.4 0 24.6-7.4 24.6-7.4 9.8-1.3 27.4 11.3 27.4 11.3 0 8 8.9 41.8 8.9 41.8 0 3.7-3.5 8.9-3.5 8.9 0 6.5 3.7 13.4 3.7 13.4m6.6-16.2c2.2-2.7 4-2.8 5.5-1.3 1.5 1.5-1.4 14.5-4.1 18.6.6 4.5-.3 9.7-2.1 15.2 0 0 .2 8-4.5 10s-5.8-1.5-5.8-1.5m5.9 1.5s4.6 5.3 4.6 15.7v19.6c0 11.8 6.5 12.1 9.8 28.1 3.2 16-3.2 24.3-3.2 24.3m-42-120.1c-.1 0-.2-.1-.3-.1-.5-.1-.9-.1-1.4-.1-.6 0-1.1 0-1.7.1h-.2c-.6.1-1.2.2-1.8.4h-.2c-.4.1-.9.2-1.3.4-.7.9-1.1 1.9-1.1 3.2 0 2.8 2.3 5 5 5 2.8 0 5-2.3 5-5 0-1.5-.8-2.9-2-3.9zm-63.3 0h-.3c-1.2.9-2 2.3-2 4 0 2.8 2.2 5 5 5s5-2.3 5-5c0-1.2-.4-2.3-1.1-3.2-.4-.2-.8-.3-1.3-.4h-.2c-.6-.2-1.2-.3-1.8-.4h-.4c-.5-.1-1-.1-1.5-.1s-.9 0-1.4.1zm41.4 43.9c-5.7 4-4.8 6-9.9 6-5.1 0-4.2-2-9.9-6" class="X"/><path d="M1698.4 139.6c28.8-11.2 44.8 13.9 44.8 13.9l-.3 12m48.1 61.4s-1.2 9.8-.4 22.5c.6 9 2.2 19.5 6 29.1m-2.5-127.6c-6.8-7.7-14.9-6.1-24.2-.4m-62.8.4c6.8-7.7 15-6.1 24.2-.4M1843 281.8s7.5 24.5 12 49.3" class="X"/><path d="M1806.1 331.1h108s2.7-2.9-8.6-19.4-32.8-20.9-45.7-24.2c-3.2-.8-9.5-2.9-16.8-5.7-5.8-2.3-12.4-5-18.9-8-4.9-2.3-9.8-4.7-14.3-7.2-10.5-5.9-18.6-12.1-19.2-17.2-.1-.5 0-1 0-1.4m-89.3 83.1h98m-89.5-83.1c.1.5.1 1 0 1.4-.6 5.1-8.7 11.3-19.2 17.2-10.3 5.7-22.8 11.2-33.1 15.2-7.4 2.8-13.6 4.9-16.9 5.7-12.8 3.3-34.3 7.6-45.6 24.2-11.3 16.5-9 19.4-9 19.4h108.4" class="X"/><path d="M1799.3 331.1h6.8c7.1-30.4 3.8-64.5 3.8-64.5m-108.6 64.5h-6.8c-7.1-30.4-3.8-64.5-3.8-64.5m-33.2 15.2s-7.5 24.5-12.1 49.3" class="X"/></svg>