<svg xmlns="http://www.w3.org/2000/svg" id="fighters" viewBox="0 0 10152.1 7513.2"><style>.a{fill:none;stroke-linejoin:round;stroke:#555}.a,.b{stroke-width:10}.b,.c{fill:none;stroke:#555}</style><g id="fighters-linework"><path d="M2548.8 642.6c-22.1-5.3-41.9-33.2-57.9-21.4-12.4-17.7-9.2-34.1 11.7-48.8m14.9-31.4l2-68.7c6.2-8.2-92.5-47.4-128.9-47.4-36.5 0-42.3 28-42.3 28" class="a"/><path d="M2491.5 485.6s-20.2-24.7-37.1-28.7-72.9 23.4-72.9 23.4m12.3 25.4s31.9 20.7 72.3-4.7m82.7 189s-13.7 1.3-23.4-14c0 0-30 24.7-72.9 10 18.6 13.9 96.4 23.4 96.4 23.4m-.1 47.4s-35.8-2-51.4 4.7m-202.1-355.1s-33-15.6-46-9.6-16.9 26.7-7.2 67.5 52.7 104.9 63.2 115.5c10.4 10.7 20.7 7.4 20.7 7.4" class="a"/><path d="M2257.7 423.5c11.5 27.5 27.8 47.4 49.8 58.8-11.8 12.4-14.3 25.4-11.4 38.7m252.7-191c-63.5-43.4-127-86.7-173.2-78.8-14.2 33.2-18.2 69.9-11.7 110.2-55.3 9.3-27.3 79.5-56.4 120.9m241.3 303.2l-78.8 3.3c-77.8-51.6-128.3-142.7-153.1-251.6m27.4 130.1s1.3 127.3-10 150.5" class="a"/><path d="M2343.8 726.9c-67.7 50.3-238.5 123.3-275.1 142.5-36.6 19.3-128.5 66.8-188.4 104.2-59.9 37.4-63.8 106.4-63.8 106.4l1464.4 1s-3.9-70-63.8-107.4-151.8-84.9-188.4-104.2c-36.6-19.3-207.4-92.3-275.1-142.5" class="a"/><path d="M2773.6 163.3c-53.8-96.2-160.7-113.6-224.8-113.6-64.1 0-171 17.5-224.8 113.6-53.8 96.2-28.6 243.1-28.6 243.1s34 220.6 49 260.9c15 40.3 92.3 204.4 204.4 204.4 112.2 0 189.4-164 204.4-204.4 15-40.3 49-260.9 49-260.9s25.3-146.9-28.6-243.1z" class="a"/><path d="M2548.8 642.6c22.1-5.3 41.9-33.2 57.9-21.4 12.4-17.7 9.2-34.1-11.7-48.8m-15-31.4l-2-68.7c-6.2-8.2 92.5-47.4 128.9-47.4s42.3 28 42.3 28" class="a"/><path d="M2606.1 485.6s20.2-24.7 37.1-28.7 72.9 23.4 72.9 23.4M2548.8 690s13.7 1.3 23.4-14c0 0 30 24.7 72.9 10-18.6 13.9-96.4 23.4-96.4 23.4" class="a"/><path d="M2645.1 686s-40.9 48.1-96.4 48.1c-55.4 0-96.4-48.1-96.4-48.1m96.5 70.8s35.8-2 51.4 4.7m202.1-355.1s33-15.6 46-9.6 16.9 26.7 7.2 67.5c-9.8 40.7-52.7 104.9-63.2 115.5-10.4 10.7-20.7 7.4-20.7 7.4" class="a"/><path d="M2839.8 423.5c-11.5 27.5-27.8 47.4-49.8 58.8 11.8 12.4 14.3 25.4 11.4 38.7" class="a"/><path d="M2548.8 330c63.5-43.4 127-86.7 173.2-78.8 14.2 33.2 18.2 69.9 11.7 110.2 55.3 9.3 27.3 79.5 56.4 120.9m-241.3 303.2l78.8 3.3c77.8-51.6 128.3-142.7 153.1-251.6m-27.5 130.1s-1.3 127.3 10 150.5m-247.1-222.5c0 17.8 64.1 17.8 64.1 0M2417 465c-.1.8-.2 1.7-.2 2.6 0 10.3 8.4 18.7 18.7 18.7 10.3 0 18.7-8.4 18.7-18.7 0-4.2-1.4-8-3.7-11.1-8.2 0-21.1 3.9-33.5 8.5zm230-8.5c-2.3 3.1-3.7 6.9-3.7 11.1 0 10.3 8.4 18.7 18.7 18.7 10.3 0 18.7-8.4 18.7-18.7 0-.9-.1-1.7-.2-2.6-12.4-4.6-25.3-8.5-33.5-8.5zm56.8 49.2s-31.9 20.7-72.3-4.7m-53.4-28.7s17.6 50.4 39.6 57.4m-97.8-57.4s-17.6 50.4-39.6 57.4m67.7 1314.8c-18.9 0-17.2-39.6-44.7-31" class="a"/><path d="M2514.3 1839.3c-20.2-3.4-40.8-5.8-33.3-46.4l35.3-33.3m-.1 0l10.3-66.4s-15.7-67.3-33.8-85.3m33.8 187.6h21.5m0 132.4h-35.3c-17.6 7.3-34.1 11.8-45.6 2.6 21.9-21.9 47.3-34.4 47.3-34.4 5.2 12.9 33.5 12 33.5 12" class="a"/><path d="M2548 1961.4h-38.7s-37-6.9-42.1-31m-170.3-242.1s-24.8-21.8-46.3-15.8c-21.5 6-34.4 33.5-24.1 73.1 10.3 39.6 48 129.5 99.5 113.7" class="a"/><path d="M2251.2 1701.6s52.8 28.6 56.2 48.2c0 0-15.3-127.7 28.6-150.1 0 0 2.3-135.4 50-173.5l162.1 1.3m-60.3 258.8c-35.1-34.4-67.9-33.2-98.9-4.3" class="a"/><path d="M2492.8 1607.8s-77.4-18.1-108.3-7.7c-31 10.3-39.6 60.2-39.6 60.2m142.9 26c5.4 45.2-74.7 99-127.3 33.5m-21.3 226s-1.6 242-17.7 258.1m-441.7 170.2h1337.9s-32.3-96.7-57.2-126.4c-24.8-29.7-129.1-59.4-177.9-80-42.6-18-41.8-42.2-103.7-58.3-118.6-31-116.3-59-116.3-59" class="a"/><path d="M2334.9 2050.5s2.3 28-116.3 59c-61.9 16.1-61.1 40.4-103.7 58.3-48.8 20.6-153.1 50.3-177.9 80-24.8 29.7-57.2 126.4-57.2 126.4m563.2-286.5s-36.7-18.7-36.7-124.2" class="a"/><path d="M2734.6 1384.5c-75.7-58.5-132.8-71.4-186.6-71.4s-110.9 12.9-186.6 71.4c-75.7 58.5-86.3 159.8-77.4 224.8 8.7 63.6 39.1 211.6 51.6 317.7 6 51.2 67.9 106.6 86.8 136.7 39 62 113.2 57.6 125.5 57.6 12.3 0 86.5 4.4 125.5-57.6 18.9-30.1 80.8-85.5 86.8-136.7 12.5-106.1 42.9-254.1 51.6-317.7 9.1-65-1.5-166.3-77.2-224.8zm-186.6 460c18.9 0 17.2-39.6 44.7-31" class="a"/><path d="M2581.8 1839.3c20.2-3.4 40.8-5.8 33.3-46.4l-35.3-33.3m0 0l-10.3-66.4s15.7-67.3 33.8-85.3m-33.8 187.6H2548m0 132.4h35.3c17.6 7.3 34.1 11.8 45.6 2.6-21.9-21.9-47.3-34.4-47.3-34.4-5.2 12.9-33.5 12-33.5 12" class="a"/><path d="M2548 1961.4h38.7s37-6.9 42.1-31m-4.7 109.4c-19 14.2-76.1 12.9-76.1 12.9s-57.1 1.3-76.1-12.9m327.3-351.5s24.8-21.8 46.3-15.8c21.5 6 34.4 33.5 24.1 73.1-10.3 39.6-48 129.5-99.5 113.7m-63-177.3c-31-28.9-63.8-30.1-98.9 4.3m-4.9-78.5s77.4-18.1 108.3-7.7c31 10.3 39.6 60.2 39.6 60.2m5.7 285.5s1.6 242 17.7 258.1m-121.5-116.2s36.7-18.7 36.7-124.2" class="a"/><path d="M2642.7 1663.4c-.6 2.1-1 4.2-1 6.5 0 12.3 10 22.4 22.4 22.4 12.3 0 22.4-10 22.4-22.4 0-1-.1-2-.2-3-14.2-7.2-28.7-8.5-43.6-3.5zm-232.9 3.5c-.1 1-.2 2-.2 3 0 12.3 10 22.4 22.4 22.4 12.3 0 22.4-10 22.4-22.4 0-2.3-.3-4.4-1-6.5-15-5-29.5-3.7-43.6 3.5zm198.8 18.6c-5.4 45.2 74.7 99 127.3 33.5m-87.9 228.9s78.9-13.6 78.9-101.7m-211.3 24.9s-67.7 20-72.2 59.3m137.3-60.5s60.9 7.2 66.6 54.6m197.5-222.9s-52.8 28.6-56.2 48.2c0 0 15.3-127.7-28.6-150.1 0 0-2.3-135.4-50-173.5l-162.1 1.3" class="a"/><path d="M2315.1 2973.8s-63.9-25.6-77.5 33.6c-13.5 59.3 85.3 108.3 85.3 108.3m198.2 22.3s-38.3 6.2-35-44.6c1.2-18 18.1-24.3 18.1-24.3m71.3 68.9s38.3 6.2 35-44.6c-1.2-18-18.1-24.3-18.1-24.3" class="b"/><path d="M2538.7 3133.6s-96.6 19.7-106.2 64.3l-10.2 57.4c-53.5-73-104-141.2-105.2-234.5-17.5 0-26.6-28.7-26.6-28.7-20-4.8-26.3 2.7-33 21.2m277.2-119s11.9 38.9-17.5 49.1c-29.3 10.2-59.3-24.3-89.2-20.9-29.9 3.4-85.2 37.8-85.2 37.8m52.5 24.8s31.6-27.1 71.1-27.1c11.9 0 33.3 33.9 33.3 33.9-37 50.9-74.8 93.6-121.9 32.7m144.5-29.9s4.7-32.3-12.6-49.7m-168.2 347.3s-10.5 196.9-25.2 218.9" class="b"/><path d="M2335.8 3375.7s-81.1 68.9-140.9 90.9c-35.6 13.1-86.9 51.9-123.6 76.2-36.7 24.3-52.5 19.2-85.8 28.8-33.3 9.6-96.5 78.5-96.5 78.5h1319.6s-63.2-68.9-96.5-78.5c-33.3-9.6-49.1-4.5-85.8-28.8-36.7-24.3-88.1-63.1-123.6-76.2-59.8-22-140.9-90.9-140.9-90.9" class="b"/><path d="M2117.9 3558.6s243.8 19.5 295.5 34.7c51.6 15.2 67.7 56.7 67.7 56.7m274.3-965.1c-65.5-79-163-91-210.4-91-47.4 0-137.3 12-202.8 91-99.2 119.7-27.1 289-27.1 289s11.3 348.8 55.3 432.3 312.7 83.5 356.7 0 55.3-432.3 55.3-432.3 72.2-169.3-27-289z" class="b"/><path d="M2782.4 2973.8s63.9-25.6 77.5 33.6c13.5 59.3-85.3 108.3-85.3 108.3" class="b"/><path d="M2595.6 3111.6c-20.9-6.2-28.8 27.1-46.8 24.3-18.1 2.8-26-30.5-46.8-24.3m46.8 63.7l16.9-7.3s61.5 25.4 61.5 61.5c-16.7-10.8-36.7-16.5-59.8-16.9 0 7.3-18.6 7.9-18.6 7.9s-18.6-.6-18.6-7.9c-23.2.4-43.1 6.1-59.8 16.9 0-36.1 61.5-61.5 61.5-61.5l16.9 7.3z" class="a"/><path d="M2627.2 3229.5c-17.5 35.6-78.5 34.4-78.5 34.4s-61 1.1-78.5-34.4m92.7-335.2s-11.9 38.9 17.5 49.1c29.3 10.2 59.3-24.3 89.2-20.9 29.9 3.4 85.2 37.8 85.2 37.8m-52.5 24.8s-31.6-27.1-71.1-27.1c-11.9 0-33.3 33.9-33.3 33.9 37 50.9 74.8 93.6 121.9 32.7m-144.5-29.9s-4.7-32.3 12.6-49.7" class="b"/><path d="M2751.1 2917.7c-4.3-19.1-18.5-35-45.7-46.6 0 0 59.8-131.5 11.9-186.3s-130.4-64.3-168.5-64.3c-38.1 0-120.5 9.6-168.5 64.3s11.9 186.3 11.9 186.3c-27.2 11.6-41.5 27.5-45.7 46.6m409.6 374.6s10.5 196.9 25.2 218.9m198.4 47.4s-243.8 19.5-295.5 34.7c-51.6 15.2-67.7 56.7-67.7 56.7" class="b"/><path d="M2627.2 3229.5l10.2 70c-42.3 55.9-88.6 54.2-88.6 54.2s-46.3 1.7-88.6-54.2l10.2-70" class="a"/><path d="M2558.4 3133.6s96.6 19.7 106.2 64.3l10.2 57.4c53.5-73 104-141.2 105.2-234.5 17.5 0 26.6-28.7 26.6-28.7 20-4.8 26.3 2.7 33 21.2m-392.4-23.1c10.9 0 19.8-8.8 19.8-19.8 0-4.6-1.6-8.9-4.3-12.3-12.8.5-24.6 3.8-34.7 7.9-.3 1.4-.5 2.9-.5 4.4-.1 11 8.8 19.8 19.7 19.8zm183.4-19.7c0 10.9 8.8 19.8 19.8 19.8 10.9 0 19.8-8.8 19.8-19.8 0-1.5-.2-3-.5-4.4-10.1-4.1-21.9-7.3-34.7-7.9-2.8 3.4-4.4 7.6-4.4 12.3z" class="b"/><path d="M2548.8 4496.1c-14.6 0-17.9-3.5-28-11.5l-24.5.6c-8.1-36.6 26.8-76.5 26.8-143.8l-12.2-38c-20.4-26.5-65.3-51.2-102-55.8-32.7 4.6-53.8 28.5-53.9 58.4m114.5 246.5c12.9 5.5 28.2 6 44.9 3.5 11.8 7.3 23.3 10.7 34.4 9.2" class="a"/><path d="M2548.8 4545l-14-9.8c-17 1.5-32.8 9.1-47.9 21.6m61.9 45.7c-19 .5-32.8-6.1-42.6-18.4m42.6 34.5c-21-3.5-40.5 1.2-58.3 15m-102.7-309.5c20.7-21.4 50.6-29.2 76.4-20.7 21 6.9 29.9 22.3 31.5 42 0 0-8.7-28.2-36.2-31.1-27.4-2.9-54.8 23-54.8 23m-77.8-24.5s-41.7-162.9-6.5-273.1c15.5-48.5 48-93.7 77.9-112.8" class="a"/><path d="M2312 4236.7s-29.1-22-37.2 2.5 22.2 120.1 22.2 120.1c-7.6-.1-18.8 55.2 10.5 64.5 12.5 4 19.1-1.9 19.1-1.9m57 165.1c1.1 80.7-2.8 141.6-21.4 196.7" class="a"/><path d="M2382.1 4662.9c-44.3 57.6-135.4 102.4-206.5 115-71.1 12.7-98 15-180.8 51.8-82.8 36.8-120.1 109.3-120.1 109.3h1348.1s-37.3-72.5-120.1-109.3-109.6-39.1-180.8-51.8c-71.1-12.7-162.2-57.4-206.5-115m-395.8 56c-19.5 83.4-28.2 160-13.4 222.3m-58.3-184.7c-27.1 59-46.5 119.2-54.8 181.3m210-1019.3c22.5-34 71-59.3 145.7-59.3M2402.9 4066c-20.1-72.4-21-115.6.3-147.5" class="a"/><path d="M2548.8 4708.9c-86.9-13.8-157.8-76.5-198.3-196.7-26.7-79.4-44.3-165.6-13.4-232.9l1.7-173.1s93.3-79.4 209.9-79.4m-23.2 439.6h40.8m-70.6-121s-14.1 46.6-52.9 46.6m106 104.1c14.6 0 17.9-3.5 28-11.5l24.5.6c8.1-36.6-26.8-76.5-26.8-143.8l12.2-38c20.4-26.5 65.3-51.2 102-55.8 32.7 4.6 53.8 28.5 53.9 58.4m-114.5 246.5c-12.9 5.5-28.2 6-44.9 3.5-11.8 7.3-23.3 10.7-34.4 9.2" class="a"/><path d="M2548.8 4545l14-9.8c17 1.5 32.8 9.1 47.9 21.6m-61.9 45.7c19 .5 32.8-6.1 42.6-18.4m-42.6 34.5c21-3.5 40.5 1.2 58.3 15m102.6-309.5c-20.7-21.4-50.6-29.2-76.4-20.7-21 6.9-29.9 22.3-31.5 42 0 0 8.7-28.2 36.2-31.1 27.4-2.9 54.8 23 54.8 23m77.8-24.5s41.7-162.9 6.5-273.1c-15.5-48.5-48-93.7-77.9-112.8" class="a"/><path d="M2785.6 4236.7s29.1-22 37.2 2.5-22.2 120.1-22.2 120.1c7.6-.1 18.8 55.2-10.5 64.5-12.5 4-19.1-1.9-19.1-1.9m-57 165.1c-1.1 80.7 2.8 141.6 21.4 196.7m42.6-64.8c19.5 83.4 28.2 160 13.4 222.3m58.3-184.7c27.1 59 46.5 119.2 54.8 181.3m-210.1-1019.3c-22.5-34-71-59.3-145.7-59.3m146 206.8c20.1-72.4 21-115.6-.3-147.5" class="a"/><path d="M2548.8 4708.9c86.9-13.8 157.8-76.5 198.3-196.7 26.7-79.4 44.3-165.6 13.4-232.9l-1.7-173.1s-93.3-79.4-209.9-79.4m266.9 283.1c207.5 299.5-156 242.8 8.2 434.2m-364.4-429.7c-9-.9-17.9 1.2-25.9 4.5-1 2.3-1.5 4.9-1.5 7.6 0 11.1 9.1 20.2 20.4 20.2 11.3 0 20.4-9 20.4-20.2 0-3.3-.9-6.4-2.3-9.2-3.4-1.4-7-2.5-11.1-2.9z" class="a"/><path d="M2638 4314.4c-4.1.4-7.8 1.5-11.1 2.9-1.5 2.8-2.3 5.9-2.3 9.2 0 11.1 9.1 20.2 20.4 20.2 11.3 0 20.4-9 20.4-20.2 0-2.7-.6-5.2-1.5-7.6-8-3.3-16.9-5.5-25.9-4.5zm-132.6 114.3s-28.4 20.7-41.5 49.8m128.3-49.8s28.4 20.7 41.5 49.8m-296.6-199.2c-30.5 94.3-19.4 171.7 47.9 235m375.4-235c30.5 94.3 19.4 171.7-47.9 235m-110.7-168.9s14.1 46.6 52.9 46.6m-342 1289.6c-4 20.5-30.8 28.1-39.9 19-16.7-16.7-24.9-59.8-24.9-59.8-60-35-27.3-103.6 8.2-111.4 26.8-5.9 47.7 14 47.7 14-6.9-64.3 5.5-106.9 31.2-134.4-12.1-41.6 4-79.8 34.1-116.4 52.3-16.7 110-21.7 171-19.4" class="a"/><path d="M2261 5551.9c17 5.1 28 23.4 37 45.9-14.5 24.2-11 40.6 13.4 47.7m182.8 19.6c12.1-6.4 28.9 3.8 45.9 14.7l-116.8 48.2-16.9 41.5c-41.8-41.5-74.9-95.2-97.3-163.7m194.5 77.4c-34-.3-36.5-23.4-8-68.9m-99.1-78.9c19.2-18.1 41.6-26.6 67.6-24.1 17.3 6.4 24.8 15.6 32.3 28.1-34 31.4-64.8 48.8-105.9 30.8" class="a"/><path d="M2342.4 5508s22.7-38.8 46.8-50.2 87-6.7 95.6 2c8.7 8.7 31.4 38.8 31.4 38.8v70.9M2330.1 5752c5.6 83.7-14.1 139.5-11.8 229.6" class="a"/><path d="M2319.1 5926.6s-127.2 98.9-161 116.8c-33.8 17.8-142.4 80.9-194.6 89.7-39.4 6.7-76.2 40.3-96.8 62.3m673.4-456.2c-7.9 1.3-14-2-19.2-8-19.1 5.2-34.6 14.4-45.9 28.1m65.1 19.5c-13.5 2.9-33.9.4-50.4-4.9m50.4 25.5s-41.9.9-51.3 15.6m-41.4-270.3c10.7 0 19.4-8.7 19.4-19.4 0-5.6-2.4-10.7-6.3-14.2-10.3-.6-20.1.6-29.2 3.4-2.1 3.1-3.3 6.8-3.3 10.8 0 10.8 8.7 19.4 19.4 19.4z" class="a"/><path d="M2540.1 5841.7h-55.7c-23.7-13.3-43.9-28.6-54-52.2l20.5-36.6c7.1 7.7 15.2 8.8 24.1 6.2 21-7.7 42.7-10.7 65.1-9.4" class="a"/><path d="M2651.6 5884.8c42.8-25 80.9-28.8 115.9-203.2 1.4-67.8 8.9-138.2 8.9-138.2s59.8-176.6-25.9-284.5c-85.6-107.9-173.9-116.8-210.5-116.8s-124.9 8.9-210.5 116.8c-85.6 107.9-25.9 284.5-25.9 284.5s7.5 70.4 8.9 138.2c35 174.3 73.1 178.1 115.9 203.2" class="a"/><path d="M2767.5 5681.6c4 20.5 30.8 28.1 39.9 19 16.7-16.7 24.9-59.8 24.9-59.8 60-35 27.3-103.6-8.2-111.4-26.8-5.9-47.7 14-47.7 14 6.9-64.3-5.5-106.9-31.2-134.4 12.1-41.6-4-79.8-34.1-116.4-52.3-16.7-110-21.7-171-19.4" class="a"/><path d="M2819.3 5551.9c-17 5.1-28 23.4-37 45.9 14.5 24.2 11 40.6-13.4 47.7m-182.8 19.6c-12.1-6.4-28.9 3.8-45.9 14.7L2657 5728l16.9 41.5c41.8-41.5 74.9-95.2 97.3-163.7m-194.5 77.4c34-.3 36.5-23.4 8-68.9m99-78.9c-19.2-18.1-41.6-26.6-67.6-24.1-17.3 6.4-24.8 15.6-32.3 28.1 34 31.4 64.8 48.8 105.9 30.8" class="a"/><path d="M2737.9 5508s-22.7-38.8-46.8-50.2c-24.1-11.4-87-6.7-95.6 2-8.7 8.7-31.4 38.8-31.4 38.8v70.9m186 182.5c-5.6 83.7 14.1 139.5 11.8 229.6" class="a"/><path d="M2761.1 5926.6s127.2 98.9 161 116.8 142.4 80.9 194.6 89.7c39.3 6.6 76.2 40.3 96.9 62.3m-527.2-151c-40.9 30.1-88.5 43.5-141.1 44.1H2535c-52.7-.7-100.2-14-141.1-44.1m146.2-305.2c7.9 1.3 14-2 19.2-8 19.1 5.2 34.6 14.4 45.9 28.1m-65.1 19.5c13.5 2.9 33.9.4 50.4-4.9m-50.4 25.5s41.9.9 51.3 15.6m41.5-270.3c-10.7 0-19.4-8.7-19.4-19.4 0-5.6 2.4-10.7 6.3-14.2 10.3-.6 20.1.6 29.2 3.4 2.1 3.1 3.3 6.8 3.3 10.8 0 10.8-8.7 19.4-19.4 19.4z" class="a"/><path d="M2540.1 5841.7h55.7c23.7-13.3 43.9-28.6 54-52.2l-20.5-36.6c-7.1 7.7-15.2 8.8-24.1 6.2-21-7.7-42.7-10.7-65.1-9.4" class="a"/><path d="M2675.7 5793.6c12 78.5-41.9 145.8-135.6 145.8-93.6 0-147.6-67.3-135.6-145.8m-537.8 401.7h1346.9m-900 678.3c13.2-44 16.8-89 5.5-135.6l32-27.6c-32.1-48.5-23.6-96.8 19.3-145 51.2-10.2 116.5-19.9 176.9-16" class="a"/><path d="M2498.5 6976.9l-23.9-3.6c-1.5-29.2 1.7-57.1 23.1-65-.2-18.6 11.6-27.5 26.5-33.9-6.2-31.5-10.7-65.4-8.8-92.9l-40-36.1s-49.7-.7-72.8-14.1c-37.2 9.1-60.9 30.3-56.2 76.9m200.9 214.2c-13.2.8-23.9-2.2-30.6-11.6 0 0-64.5 32.2-64.5 53.7 29.5-13.5 61.4-17.7 95.1-14.9m0 62.9c-32.9 2.2-61.7 11.6-86 28.9" class="a"/><path d="M2361.6 6842.7c31.4 81.6 91 44.3 135.7-19.6-11.8-18.4-29.8-26.9-50.8-30.6-30.7.5-67 26.9-67 26.9m-77.9-5.3s-31.8-19.1-47.2-10.3c-15.4 8.8-24.5 45.5-20.7 89 3.9 43.5 33.4 95.3 89.4 91.5" class="a"/><path d="M2263.5 6822.3c16.3 9.1 28.9 26.2 38 50.7-31.1 37-16.1 63.3 12.7 71.1m233.1-227c0 79.4-22.3 58.7-32 64.5m32-355.6c-67.8 0-167.6 26.5-226 143.3-58.4 116.8-7.7 304.2-7.7 304.2s16.3 110.8 33.4 214.5c8.7 52.9 62 113.7 99.6 124m100.7-786c67.8 0 167.6 26.5 226 143.3 58.4 116.8 7.7 304.2 7.7 304.2s-16.3 110.8-33.4 214.5c-8.7 52.9-62 113.7-99.6 124" class="a"/><path d="M2781 6873.6c-13.2-44-16.8-89-5.5-135.6l-32-27.6c32.1-48.5 23.6-96.8-19.3-145-51.2-10.2-116.5-19.9-176.9-16m48 399.4l-48 24.8-47.9-24.8" class="a"/><path d="M2596.1 6976.9l23.9-3.6c1.5-29.2 4.6-62.1-35.5-65 10.5-48.5-22.6-94.5-22.6-94.5l17.4-32.2 40-36.1s49.7-.7 72.8-14.1c37.2 9.1 60.9 30.3 56.2 76.9m-201 214.1c13.2.8 23.9-2.2 30.6-11.6 0 0 64.5 32.2 64.5 53.7-29.5-13.5-61.4-17.7-95.1-14.9" class="a"/><path d="M2547.3 7090.2c44.1-2.8 77.8-10.4 95.1-25.6 0 0 23.6-1.2 21.5-15.3m-116.6 63.2c32.9 2.2 61.7 11.6 86 28.9m99.8-298.7c-31.4 81.6-91 44.3-135.7-19.6 11.8-18.4 29.8-26.9 50.8-30.6 30.7.5 67 26.9 67 26.9m50.3 164.5c-3.6 96.4-4.7 233 6.1 319.1M2332 6983.9c3.6 96.4 4.7 233-6.1 319.1" class="a"/><path d="M2335.5 7185l-148 74.4s-119.9 59-171.4 73.9c-105.3 30.3-156 80.8-193.5 154.3h1452.1c-37.4-73.6-88.2-124-193.5-154.3-51.5-14.8-171.4-73.9-171.4-73.9l-148-74.4m-315.4-361.8c9.6 0 17.4-7.8 17.4-17.4 0-3.6-1.1-6.9-2.9-9.7-4.6-1.5-9.4-2.7-14.4-3.6-4.2.1-8.5.7-12.8 1.6-2.8 3.1-4.6 7.2-4.6 11.7 0 9.6 7.8 17.4 17.3 17.4zm201.8 0c9.6 0 17.4-7.8 17.4-17.4 0-4.5-1.8-8.6-4.6-11.7-4.3-.9-8.6-1.5-12.8-1.6-5 .9-9.8 2.1-14.4 3.6-1.9 2.8-2.9 6.1-2.9 9.7-.1 9.6 7.7 17.4 17.3 17.4zm-100.9 267c-44.1-2.8-77.8-10.4-95.1-25.6 0 0-23.6-1.2-21.5-15.3m-117.1-182.6c0 69.2 37.4 110 85 113.2m381.6-113.2c0 69.2-37.4 110-85 113.2M2415 7089.6c-.5 77.5 13 159 132.3 157.6m132.3-157.6c.5 77.5-13 159-132.3 157.6m245.7-433.1s31.8-19.1 47.2-10.3c15.4 8.8 24.5 45.5 20.7 89-3.9 43.5-33.4 95.3-89.4 91.5" class="a"/><path d="M2831.2 6822.3c-16.3 9.1-28.9 26.2-38 50.7 31.1 37 16.1 63.3-12.7 71.1m-233.2-227c0 79.4 22.3 58.7 32 64.5" class="a"/><path d="M1097.7 932.1s21.6 87.9-2.9 170.6m86.9-148.9s42.1 23.2 48.3 149M846 559.7c-12.8 3.8-6.5-16.5-34.6-16.5" class="b"/><path d="M814.8 561.7s-22.7 6.7-22.7-26.2c0-21.8 15.8-32.7 15.8-32.7s-1-26.4 11-38.4m-18-36.4c-6.8-18.8-18.8-30.1-36.3-40.5-36.1-.5-57.9 7.9-78.9 28.8m105.6-56.4c-26-4.1-59.2-4.1-102.9 2.1 0 0-9.3 3.4-19.7 12.6m122.6-14.7c15.3 15.1 28.9 52.8 24 76.3M846 619.3c-6.5 0-13-.8-20.2-8.9 0 0-48 27.4-67.2 27.4 24 16.5 52.7-1.6 87.4 4.8m0 23.3s-32.6 1.4-46.3-6.2M846 692s-22.3.7-42.2 12.3" class="b"/><circle cx="747.4" cy="408.1" r="19.9" class="b"/><path d="M700.8 424.6s26.3-33.7 63.8-37M846 559.7c12.8 3.8 6.5-16.5 34.6-16.5" class="b"/><path d="M877.2 561.7s22.7 6.7 22.7-26.2c0-21.8-15.8-32.7-15.8-32.7s1-26.4-11-38.4m18-36.4c6.8-18.8 18.8-30.1 36.3-40.5 36.1-.5 57.9 7.9 78.9 28.8m-105.6-56.4c26-4.1 59.2-4.1 102.9 2.1 0 0 24.7 11.7 35 30.2m-137.9-32.3c-15.3 15.1-28.9 52.8-24 76.3M846 619.3c6.5 0 13-.8 20.2-8.9 0 0 48 27.4 67.2 27.4-23.3 17.8-52.7-1.6-87.4 4.8m0 23.3s32.6 1.4 46.3-6.2m-4.1 44.6C868.3 692.7 846 692 846 692" class="b"/><circle cx="944.6" cy="408.1" r="19.9" class="b"/><path d="M927.5 387.6c37.5 3.3 63.8 37 63.8 37M450 964.7L519 393c19.2-150 77-278.9 151.9-320.4 97.4-54 200-59.3 262.6-14.9 0 0 31.4 43.1-9.9 84.4-118.3-.1-209.2 57.6-238 133.7m359.6 351.8c-3 111.5-6.4 205.3-6.4 205.3" class="b"/><path d="M923.5 142.1s125.1 2 125.1 296.2c0 46.1-1.6 118.3-3.5 189.3" class="b"/><path d="M933.4 57.8s120.3 17.5 159.4 157.4c39.1 139.9 52.3 384.6 55.5 486.5 3.3 101.9 8 248.9 8 248.9" class="b"/><path d="M1048.2 491.8s-4.7 56.5-63.3 67.8c0 0 4.1 64.8-14.4 113.1M794.1 522.8s-36.8 20.5-42.3 49.3m147.3-49.3s36.8 20.5 42.3 49.3m-283-35.8c9.4 10.4 23.1 19.5 43.2 23.4 0 0-2.2 99.3 20 121.4" class="b"/><path d="M654 652.7c20.4 47.2 68.1 94.8 94.2 111.9 36.3 23.7 72.8 30.5 97.8 30.5s61.5-6.8 97.8-30.5c33.2-21.7 98.7-86.2 101.5-143.1" class="b"/><path d="M846 1102.7h631.5s-46.9-120.3-321.1-152.2C999.9 932.3 1022.1 684 1022.1 684M450 964.7L519 393c19.2-150 77-278.9 151.9-320.4 97.4-54 200-59.3 262.6-14.9 0 0 31.4 43.1-9.9 84.4-118.3-.1-209.2 57.6-238 133.7s-37 526.8-44.2 594.7" class="b"/><path d="M846 1102.7H214.5s46.9-120.3 321.1-152.2C692.1 932.3 669.9 684 669.9 684m-75.6 248.1s-21.6 87.9 2.9 170.6m-86.8-148.9s-42.1 23.2-48.3 149m328.7 811.1s-12.5-23.6-8.3-36.6c4.2-13.1 21.9-24.3 21.9-24.3" class="b"/><path d="M843.1 1975.2l-14.5-23.5c-29.5 10.2-62.7 27.9-87.4 8.3 0 0 13.3 20.8 23.1 23.6 9.8 2.8 54.1-3.3 54.1-3.3 3.3 14 24.7 13.5 24.7 13.5" class="a"/><path d="M843.1 2024.6s-40.1 0-58.8-22.9m58.8 43.4s-35.9-2.3-42.4 4.2m-42.9 28.5s-68.6-61.8-87.3-96.6c-13.3-24.9-23-77.7-26.9-102.2" class="b"/><path d="M712.8 1928.3c-58.1-18-92.7-66.4-103.5-145.5 0 0-24.7-135.3 11.4-207.1 27.5-54.6 105.2-77.2 161-86.6" class="b"/><path d="M818.4 1812.9l2.3-39.6s-26.1-57.4-41-66.2c-14.9-8.9-102.1-42.9-128.7 7.9" class="b"/><path d="M682.7 1750.2c48.1-27.4 83.4-24.4 109.1 33.6 0 0-11.7-26.6-37.8-35-26.1-8.4-53.2 10.3-53.2 10.3" class="a"/><circle cx="741.5" cy="1762.1" r="20.3" class="b"/><path d="M693.4 1791.9c4.9 19.7 29.2 22.9 70.9 11.2m206.6 183.7c-28.5 90.3-70.1 140.2-127.8 140.8-57.6-.7-99.3-50.5-127.8-140.8m167.5-84.8l-14.9-3.7c-4.7 25.7-24.7 22.7-24.7 22.7s-20.1 3-24.7-22.7l-14.9 3.7m91.9 11.9s12.5-23.6 8.3-36.6c-4.2-13.1-21.9-24.3-21.9-24.3" class="b"/><path d="M843.1 1975.2l14.5-23.5c29.5 10.2 62.7 27.9 87.4 8.3 0 0-13.3 20.8-23.1 23.6-9.8 2.8-54.1-3.3-54.1-3.3-3.3 14-24.7 13.5-24.7 13.5" class="a"/><path d="M843.1 2024.6s40.1 0 58.8-22.9m-58.8 43.4s35.9-2.3 42.4 4.2m42.9 28.5s68.6-61.8 87.3-96.6c13.4-24.9 23-77.8 26.9-102.2" class="b"/><path d="M973.5 1928.3c58.1-18 92.7-66.4 103.5-145.5 0 0 5.1-28 7.3-65.2m-216.4 95.3l-2.3-39.6s26.1-57.4 41-66.2c14.9-8.9 102.1-42.9 128.7 7.9" class="b"/><path d="M1003.6 1750.2c-48.1-27.4-83.4-24.4-109.1 33.6 0 0 11.7-26.6 37.8-35 26.1-8.4 53.2 10.3 53.2 10.3" class="a"/><circle cx="944.8" cy="1762.1" r="20.3" class="b"/><path d="M992.8 1791.9c-4.9 19.7-29.2 22.9-70.9 11.2m125.5 346.5s35.5-114.2 48.2-198.6c13.1-86.9 12.7-240.8-57.5-357.7-56.2-93.7-139.9-97.9-256.4-104.2-60.5-56.1-74.9-143.7-8.4-186.6 62.6-40.3 190-20.6 289.9 79.3 100.6 100.6 99.1 223 111.1 333.9 12 110.9 10.3 527 10.3 527" class="b"/><path d="M740.8 1336.6s-163.5-38.5-213 200.2c-27.3 131.7-7 381.6-40.1 500.5-26.7 96-60.3 184-142.7 265.6" class="b"/><path d="M781.7 1489.2c-68.2-11.2-173.6 13.1-196 111-22.4 97.9-20.3 119.9-1.7 236.5 12.2 76 50.1 169.2 75 267.5m773.2 254.8c-46.2-51.7-122.2-64.7-173.1-82.4-64.4-22.4-191.2-93.4-211.7-126.9-20.5-33.6-26.8-179-26.8-179" class="b"/><path d="M673.1 1985.6c-1.9 34.1-10.4 136-27.5 164-20.5 33.6-147.3 104.6-211.7 126.9-52 18.1-128.3 29-174.1 83.5m317.4-570.2s-7.5-90.9 25.2-65.8m519.5 484.4s12.9 89.6-37.2 145.2m99.8-112.2s45.1 49.8 34.4 112.1m-646.4-145.1s-12.9 89.6 37.2 145.2m-99.8-112.2s-45.1 49.8-34.4 112.1m567.2-474.6s37.7 11.7 56.9-22.9m-455.7 22.9s-37.7 11.7-56.9-22.9m-327.2 504.1H1431" class="b"/><path d="M846 4655.1c-71.1 0-119.1-32.9-136.8-126.1m136.8-29.5s-61.9 3.7-69.4-32.8" class="a"/><path d="M846 4411c-8.6 2.8-16.1-2-22.9-11.1-34.6 6.9-64 21.3-83 50.8 8.8 14.3 22 17.1 36.5 16.1 15.5-15.6 41.8-17.9 69.4-18.6m-28.6 97.9c-9.6 1.9-18.9 5-27.6 9.5m56.2-181.8l-29.7-18c-9-1-20.3.1-24.2 8.1" class="a"/><path d="M832.4 4365.6l-53.3 11.9c-18.2-15.6-20.9-36.2-6.2-62.5m21-52c-.6-14.6 5.6-28.1 15.5-40.9-9.2-17.7-22.3-28.9-41.5-29.7m6.8-36.7s-60.7-8.1-84.9-8.1-49.2 18.4-55.7 36.5m33.5 52.2c13.4-14.5 35.4-24 61.9-31 24.2 7.7 40.1 19 44 35.3-13.2 33.4-48.4 53.2-96.6 65m-90.2-77.3c-7.4 16-34.6-22.6-55.4-1.8-15.9 15.9-8 72.4-3 92.2 5 19.8 32.8 69.4 32.8 69.4-6.9 34.1 10.3 45.5 48.5 37m-59.7-189.4l32.2 68.1" class="a"/><path d="M592 4290.3c-13.7 12.5-20.9 25.7-22.8 39.6 6.9 16.3 16.4 22.5 28.1 20.5 25 58 63.2 94.7 104.6 105.9 16.1-38.3 31-65.2 77.2-78.7m-161.8 77.2c3.9 70.1 6 136.7-6.7 174.8" class="a"/><path d="M620.3 4539.1c-51.3 40.3-119.9 74.3-167.4 82.7-53 9.4-142.3 65.2-196.5 124.1-124.1 18.1-172.8 73.3-249.7 159.8h1678.5c-76.9-86.6-125.6-141.7-249.7-159.8-54.3-58.9-143.5-114.7-196.5-124.1-47.5-8.4-116.1-42.4-167.4-82.7m-254.2-41.7v48.6" class="a"/><path d="M740.1 4450.6s-9.3 20.4-9.3 44c0 0 7.8 61 59 61m56.2 99.5c71.1 0 119.1-32.9 136.8-126.1" class="a"/><path d="M955.4 4602.6c84-29.2 130.8-125.9 142.4-286.8l7.4-87.5s20.6-86.7-18.2-183.3c-40.5-127.6-206.4-150.3-241.1-150.3s-200.6 22.7-241.1 150.3c-38.8 96.6-18.2 183.3-18.2 183.3l7.4 87.5c11.5 161 58.4 257.7 142.4 286.8M846 4499.5s61.9 3.7 69.4-32.8" class="a"/><path d="M846 4411c8.6 2.8 16.1-2 22.9-11.1 34.6 6.9 64 21.3 83 50.8-8.8 14.3-22 17.1-36.5 16.1-15.5-15.6-41.8-17.9-69.4-18.6m28.5 97.9c9.6 1.9 18.9 5 27.6 9.5M846 4373.8l29.7-18c9-1 20.3.1 24.2 8.1" class="a"/><path d="M859.5 4365.6l53.3 11.9c18.2-15.6 20.9-36.2 6.2-62.5m-21-52c.6-14.6-5.6-28.1-15.5-40.9 9.2-17.7 22.3-28.9 41.5-29.7m-6.8-36.7s60.7-8.1 84.9-8.1c24.2 0 49.2 18.4 55.7 36.5m-33.5 52.2c-13.4-14.5-35.4-24-61.9-31-24.2 7.7-40.1 19-44 35.3 13.2 33.4 48.4 53.2 96.6 65m90.2-77.3c7.4 16 34.6-22.6 55.4-1.8 15.9 15.9 8 72.4 3 92.2-5 19.8-32.8 69.4-32.8 69.4 6.9 34.1-10.3 45.5-48.5 37m59.7-189.4l-32.2 68.1" class="a"/><path d="M1100 4290.3c13.7 12.5 20.9 25.7 22.8 39.6-6.9 16.3-16.4 22.5-28.1 20.5-25 58-63.2 94.7-104.6 105.9-16.1-38.3-31-65.2-77.2-78.7m161.7 77.2c-3.9 70.1-6 136.7 6.7 174.8m-206.8-132.2v48.6m77.3-95.4s9.3 20.4 9.3 44c0 0-7.8 61-59 61m-265.5-435.1s-18.6-104 75.5-157.3m332.9 157.3s18.6-104-75.5-157.3m-7.5 242.3c-6.1 3.4-10.2 9.8-10.2 17.2 0 10.9 8.9 19.8 19.8 19.8s19.8-8.9 19.8-19.8c0-3.1-.8-5.9-2-8.5-8.3-3.4-17.4-6.3-27.1-8.8 0 0-.1 0-.3.1zm-241.8 37c10.9 0 19.8-8.9 19.8-19.8 0-7.4-4.1-13.8-10.2-17.2-.1 0-.2-.1-.3-.1-9.7 2.5-18.8 5.5-27.1 8.8-1.2 2.6-2 5.5-2 8.5 0 10.9 8.9 19.8 19.8 19.8zM846 3235.4h-47.4M846 3263c-29.3-.2-56.9 4.7-82 16.4m82-148.8c-25.2 0-41.7-24.3-58-23.4" class="a"/><path d="M797.4 3126.5h-21.7c-17.6-29.3.1-58 21.1-83.8m10-33.4c16.4-16.4 17-40.4 16.1-60.6m-25.5 34.8l-16.4-24c-43-5.1-83.4-7.5-100.2 15.8" class="a"/><path d="M650.4 2947.2c8.7-20.2 27.3-37.3 55.1-35.7 36.6 24.5 74.8 38.1 121.8 37.5m-217.9-35.2s-25.8-26.9-38.7-21.1c-12.9 5.9-29.3 36.9-29.3 65.6 0 27.8 8.3 121.4 18.3 139 10 17.6 51.8 16.3 51.8 16.3M566 2914.4c23.9 18.7 38.1 44.6 37.5 81.6m10.1-61.9c-1.4-36.4 9.7-62.9 33.8-79.1-16-56.2 3.6-102.2 41.3-143.2 50.4 15.2 102.7 23.3 157.3 23.7m-164 256.8c-1 26.4 23.3 34.7 79.7 19.9m-124.3 228.7c-3.5 70.8-13.5 137.9-33.3 199.5" class="a"/><path d="M628.2 3335.7c-35.6 47.7-287 194-374.2 206.5-34.2 4.9-82.7 40.5-121.4 126.4h1427c-38.8-85.9-87.2-121.5-121.4-126.4-87.2-12.5-338.7-158.8-374.2-206.5m-218 47.9c-70.8 5-106.1-26-112.5-77.9" class="a"/><path d="M940 3354s88.7-46.6 109.8-99.3c21.1-52.7 48.2-235.5 37.4-263.8-9.3-24.3-12.3-60.4-4.6-77.1 0 0 31.6-83.2-13.9-205.1-38.1-101.9-201.7-133.5-222.7-133.5-21.1 0-184.6 31.6-222.7 133.5-45.6 121.9-13.9 205.1-13.9 205.1 7.8 16.7 4.7 52.8-4.6 77.1-10.8 28.3 16.3 211.1 37.4 263.8C663.3 3307.5 752 3354 752 3354m206.5-48.3c-6.4 51.9-41.7 82.9-112.5 77.9" class="a"/><path d="M846 3202.6c25.9-10 48.3-8.6 66.2 7.6h28.7c-18.8-18.4-41.2-32-66.2-42.2-9.4 9.9-19 14.7-28.7 13.5-9.7 1.3-19.3-3.5-28.7-13.5-25 10.2-47.4 23.8-66.2 42.2h28.7c18-16.2 40.4-17.6 66.2-7.6zm0 32.8h47.5M846 3263c29.3-.2 56.9 4.7 82 16.4m-82-148.8c25.2 0 41.7-24.3 58-23.4" class="a"/><path d="M894.6 3126.5h21.7c17.6-29.3-.1-58-21.1-83.8m-9.9-33.4c-16.4-16.4-17-40.4-16.1-60.6m25.4 34.8l16.4-24c43-5.1 83.4-7.5 100.2 15.8" class="a"/><path d="M1041.7 2947.2c-8.7-20.2-27.3-37.3-55.1-35.7-36.6 24.5-74.8 38.1-121.8 37.5m217.9-35.2s25.8-26.9 38.7-21.1c12.9 5.9 29.3 36.9 29.3 65.6 0 27.8-8.3 121.4-18.3 139-10 17.6-51.8 16.3-51.8 16.3m45.4-199.2c-23.9 18.7-38.1 44.6-37.5 81.6m-10-61.9c1.4-36.4-9.7-62.9-33.8-79.1 16-56.2-3.6-102.2-41.3-143.2-50.4 15.2-102.7 23.3-157.3 23.7m163.9 256.8c1 26.4-23.3 34.7-79.7 19.9m-51.5 82c0 9.5-65.6 9.5-65.6 0m241.5 146.7c3.5 70.8 13.5 137.9 33.3 199.5m-160.5-482.7c-1.9 2.9-3 6.4-3 10.1 0 10.4 8.4 18.7 18.7 18.7 10.4 0 18.7-8.4 18.7-18.7 0-4.4-1.6-8.5-4.2-11.7-9.4 0-19.6.6-30.2 1.6zm-193.3-1.6c-2.6 3.2-4.2 7.2-4.2 11.7 0 10.4 8.4 18.7 18.7 18.7 10.4 0 18.7-8.4 18.7-18.7 0-3.7-1.1-7.2-3-10.1-10.4-1-20.6-1.6-30.2-1.6zm-112 59.6c3.9 48.6 27.8 70.5 62.1 78.5m384.9-78.5c-3.9 48.6-27.8 70.5-62.1 78.5m-158.4 2614l-17.2-13.2c-25.2 7.7-45.1 24-61.7 45.8 21.3-9.7 48.9-12.3 78.8-12.3m.1 61.7c-29.1 2.6-54.2 10.4-70 30m-49.6 37.5c-91.9-35.1-131-159.9-124.1-362.6 0 0-9.5-139.1-6.2-178.8 4.1-48.5 120-164.6 249.8-180.6m-14.5 508.2c-5.6-12.6-19.1-12.2-36.1-6.2m4.4 20.3c-33-1-34.1-23.5 3.5-72.2M653.5 5473c37.8-42 94.4-36.4 147.1-7.9" class="a"/><path d="M605.1 5495s-27.3-27.3-48.5-6.2c-21.1 21.1-2.6 84.6 9.7 117.2s45 49.2 45 49.2M569 5508.6c15.4 4.8 28.1 14.8 35.4 36.1m28.1 201.4c3.2 77.6-.9 153-13.3 225.6" class="a"/><path d="M630.8 5874s-244.7 128.1-288.7 147.4c-72.2 34.4-52.4 75.3-140.5 88.5-94.1 14.1-115.1 40.9-152.3 111.4m604-794.7c0-23.3 12.3-49.1 27.5-57.5-61.1-61.1-20.5-158.5 39.9-186.4m128 525.5l17.2-13.2c25.2 7.7 45.1 24 61.7 45.8-21.3-9.7-48.9-12.3-78.8-12.3m78.7 12.3c-20.8 21.2-136.9 21.2-157.7 0m78.9 49.4c29.1 2.6 54.2 10.4 70 30" class="a"/><path d="M998 5773.4c-10.6 92.9-63.9 134.9-149.3 138.3-85.5-3.4-138.7-45.4-149.3-138.3" class="a"/><path d="M968.2 5857.7c91.9-35.1 131-159.9 124.1-362.6 0 0 9.5-139.1 6.2-178.8-4.1-48.5-120-164.6-249.8-180.6m14.5 508.2c5.6-12.6 19.1-12.2 36.1-6.2m-7.9-51.9c37.6 48.7 36.5 71.3 3.5 72.2m10.6-192.9c52.7-28.5 100.5-34.1 138.3 7.9" class="a"/><path d="M1092.3 5495s27.3-27.3 48.5-6.2c21.1 21.1 2.6 84.6-9.7 117.2-12.3 32.6-45 49.2-45 49.2m42.3-146.6c-15.4 4.8-28.1 14.8-35.4 36.1m-28.1 201.4c-3.2 77.6.9 153 13.3 225.6" class="a"/><path d="M1066.5 5874s244.7 128.1 288.7 147.4c72.2 34.4 52.4 75.3 140.5 88.5 94.2 14.1 109.8 40.9 147 111.4M432.4 6099c73.4-36.1 176.5.8 286.8 55.5m545.7-55.5c-73.4-36.1-176.5.8-286.8 55.5m-155.4-544.9h52m169.3-183c0-23.3-12.3-49.1-27.5-57.5 61.1-61.1 20.5-158.5-39.9-186.4M698.5 5510c23.2-14.9 51.7-21.4 84.6-21.1 12.4 6.5 19.5 15.5 17.6 29.1l-49.3 64.3" class="a"/><path d="M774.1 5498.1c0-3.3-.8-6.3-2.1-9.1-14.1.6-27.2 2.6-39.5 6-.2 1-.3 2-.3 3.1 0 11.6 9.4 21 21 21s20.9-9.4 20.9-21zm224.8 11.9c-23.2-14.9-51.7-21.4-84.6-21.1-12.4 6.5-19.5 15.5-17.6 29.1l49.3 64.3" class="a"/><path d="M923.2 5498.1c0-3.3.8-6.3 2.1-9.1 14.1.6 27.2 2.6 39.5 6 .2 1 .3 2 .3 3.1 0 11.6-9.4 21-21 21-11.5 0-20.9-9.4-20.9-21zM49.3 6221.4h1593.4M846 7278.2c-83-2.1-129.9-54-129.8-171.1m129.8-60.8c-10.3 2.6-19.9-2.2-29.2-11.4l-25.1 4.9c-25.4-21.5-6.1-44.8 11.4-68.1.8-29.2 8.8-62.7 21.9-92.5L705 6833c-25 12.5-36.3 28.6-46.2 48.7" class="a"/><path d="M694.4 6904.4c16.2-18.8 39.6-28.5 68.9-30.8 17.1 9.4 30.4 21.4 35.7 38.9-8.2 22.9-33.4 46.3-63 58.2m110 135.6l-20.3-15.4-75.4 30.8 32.4.8c21.8-6.5 42.9-6.7 63.3.8m0 29.2c-20.6 1.3-39.7-4.7-57.6-17m57.6 44.6c-24.8 0-46.2 4.6-59.2 20.3m-139.2-105.6c1.3 70.5-.2 133.8-10.8 173.7" class="a"/><path d="M647.4 7176.8s-73.7 72.6-181.7 100c-40.5 10.3-49.7 44.7-86 67.1-36.3 22.4-159.2 38.6-173 138.9h1278.6c-13.7-100.3-136.7-116.5-173-138.9-36.3-22.4-45.4-56.8-86-67.1-108-27.4-181.7-100-181.7-100m-435.4-293.5s-21.5-44.7-47-21.9c-22.1 19.7-20.8 92.3 33.3 123.3 1.5 29.7 11.2 46.2 32.9 41.3m-54.1-144.1c17.9 18.4 32.6 42.7 45.9 88.2m195 41.3c7.6 13 17.8 19.3 30.8 17.8m-66.3-16s-28.6 26.6-32.6 44.4m4.8-149.2c10.7 0 19.5-8.7 19.5-19.5 0-5.8-2.5-10.9-6.5-14.5-.5-.3-1-.6-1.6-.9-10 .8-19.2 2.4-27.8 5-1.9 3-3 6.6-3 10.4 0 10.8 8.7 19.5 19.4 19.5zm94.1 369.8c83-2.1 129.9-54 129.8-171.1M846 7046.3c10.3 2.6 19.9-2.2 29.2-11.4l25.1 4.9c25.4-21.5 6.1-44.8-11.4-68.1-.8-29.2-8.8-62.7-21.9-92.5l120-46.2c25 12.5 36.3 28.6 46.2 48.7M846 7106.3l20.3-15.4 75.4 30.8-32.4.8c-21.8-6.5-42.9-6.7-63.3.8m0 29.2c20.6 1.3 39.7-4.7 57.6-17" class="a"/><path d="M1008.8 6695.4c80.5-234.4-53.3-269.7-162.8-264.1-201.1 10.5-300 167.9-300 281.7 8.7 91.1 63.3 170.3 63.3 170.3l10.5 81.9c11 124.9 54.7 210.2 124.9 263.3" class="a"/><path d="M947.4 7228.5c70.2-53.1 113.8-138.4 124.9-263.3l10.5-81.9s81.3-94.6 67.6-200.9c-9.2-71-59.5-135.1-120.2-135.1M846 7180.1c24.8 0 46.2 4.6 59.2 20.3m139.2-105.6c-1.3 70.5.2 133.8 10.8 173.7" class="a"/><path d="M1082.8 6883.3s29.2-51.1 47-21.9c9.9 16.1-.1 86.3-33.3 123.3-4.7 19.6-15.1 33.8-32.9 41.3" class="a"/><path d="M622.3 6989.2s-5-250.3 60.9-293.8c8.1-5.3 84.3-37.9 162.8-37.9s154.8 32.6 162.8 37.9c65.9 43.5 60.9 293.8 60.9 293.8m48-119.7l-29.2 51.1c14.9 30.6 7.3 45.7-16.7 49.5m-195 41.3c-7.6 13-17.8 19.3-30.8 17.8m66.3-16s28.6 26.6 32.6 44.4m-248.6-322.2l3.2 55.1m278.9-55.1l3.2 55.1" class="a"/><path d="M997.5 6904.4c-16.2-18.8-39.6-28.5-68.9-30.8-17.1 9.4-30.4 21.4-35.7 38.9 8.2 22.9 33.4 46.3 63 58.2" class="a"/><path d="M939.9 6908.4c-10.7 0-19.5-8.7-19.5-19.5 0-5.8 2.5-10.9 6.5-14.5.5-.3 1-.6 1.6-.9 10 .8 19.2 2.4 27.8 5 1.9 3 3 6.6 3 10.4.1 10.8-8.7 19.5-19.4 19.5zm8178.9 69.6c-.9 7.4-46.7-8.5-54.3-48.2-5.9-31.1-23-80-27.7-97.4s8.7-62.6 32.5-62.6 54.1 40.4 54.1 40.4" class="a"/><path d="M9311.3 7025.2l48.5 28-114.8 29.3-13.5 45.9s-42.8-41.2-38-87.9c0 0-79.9-36.3-79.9-160.5" class="a"/><path d="M9340.3 7042.6c-16.9 9.8-33.9 6.5-51-8.3 1.2-43.4 14.3-83.8 40.2-118.8l-1.2-62.5m31.5 326.2s-33.7-2.8-47.5 11.1" class="a"/><path d="M9341.6 6827.6s-.8 34.8-38.8 30.1-70.5-22.2-99.8-17.4c-29.3 4.8-60.2 26.9-60.2 26.9" class="a"/><path d="M9309.1 6891.8s-1.8-17.8-19-26.1c-26.6-12.8-91.5 5.9-98.2 12.7m167.9-177.5s-196.9-30-221.9-171" class="a"/><path d="M9169.6 6600.5l-18 68.7s24.5 30.9 11.9 99l-24.5 17.4s8.8 51.2-25.3 94.5c-12.8-43-32.3-70.5-57.8-83.4m91.1 318.9s-1.8 152.3 17.2 218m-150.9 33s22.6 51.1 146.1 51.1" class="a"/><path d="M9359.8 6407.2c-106.9 0-324 106.7-240.8 366.8 13 40.7-7.1 96.2-7.1 124.7s16.3 200.5 47.5 241.1c31.2 40.6 97.4 139.9 200.5 139.9s169.2-99.3 200.5-139.9c31.2-40.6 47.5-212.6 47.5-241.1s-20.1-84-7.1-124.7c83-260.1-134.1-366.8-241-366.8" class="a"/><path d="M9600.8 6978c.9 7.4 46.7-8.5 54.3-48.2 5.9-31.1 23-80 27.7-97.4s-8.7-62.6-32.5-62.6-54.1 40.4-54.1 40.4" class="a"/><path d="M9408.3 7025.2l-48.5 28 114.8 29.3 13.5 45.9s42.8-41.2 38-87.9c0 0 79.9-36.3 79.9-160.5" class="a"/><path d="M9379.3 7042.6c16.9 9.8 33.9 6.5 51-8.3-1.2-43.4-14.3-83.8-40.2-118.8l.5-62.9m5.6 295.8h-72.8m36.4 30.8s33.7-2.8 47.5 11.1" class="a"/><path d="M9378 6827.6s.8 34.8 38.8 30.1 70.5-22.2 99.8-17.4c29.3 4.8 60.2 26.9 60.2 26.9" class="a"/><path d="M9527.7 6878.3c-6.7-6.7-71.6-25.5-98.2-12.7-17.2 8.3-19 26.1-19 26.1m-50.7-190.8s196.9-30 221.9-171" class="a"/><path d="M9550.1 6600.5l18 68.7s-24.5 30.9-11.9 99l24.5 17.4s-8.8 51.2 25.3 94.5c12.8-43 32.3-70.5 57.8-83.4m-91.2 318.9s1.8 152.3-17.2 218m151 33s-22.6 51.1-146.1 51.1m-200.5-295.2c19.2 0 70.2 8.1 92.6-.3-19.3 3.4-71.5-29.5-71.5-29.5s-9 10.6-21.1 10.6c-12.1 0-21.1-10.6-21.1-10.6s-52.3 32.9-71.5 29.5c22.4 8.4 73.4.3 92.6.3zm-79-248.2c0-4.8-1.7-9.1-4.6-12.5-5.5-.7-11.7-.8-18-.4-1.3.1-2.5.2-3.8.3-1.3.1-2.6.2-3.8.4-1.3.1-2.6.3-3.9.5-2.6 3.3-4.1 7.3-4.1 11.8 0 3.7 1.1 7.2 2.9 10.1l29.8 3.4c3.3-3.5 5.5-8.3 5.5-13.6zm196.3 0c0-4.5-1.5-8.6-4.1-11.8-1.3-.2-2.6-.3-3.9-.5-1.3-.1-2.6-.3-3.8-.4-1.3-.1-2.6-.2-3.8-.3-6.3-.4-12.5-.3-18 .4-2.9 3.3-4.6 7.7-4.6 12.5 0 5.3 2.1 10.1 5.6 13.5l29.8-3.4c1.8-2.8 2.8-6.3 2.8-10zm-141.9 139.6c0 11.6 46.4 11.6 46.4 0m-82.6-38.4l-52.4 57.2m175.3-57.2l52.4 57.2" class="a"/><path d="M10079.4 7506.4h-1445v-7.1c26.6-35.4 60.9-69.6 97.2-75.4 60-9.7 53.7-56.1 124.9-84.7 54.9-22.1 292.3-132.9 292.3-132.9m422 0s237.4 110.8 292.3 132.9c71.3 28.6 64.9 75.1 124.9 84.7 36.3 5.8 70.6 40 97.2 75.4M9141.9 600.1s-2.8 13.8-29.1 10.1c-19.7-2.7-52.2-80.3-57.7-112.2-5.5-31.9-4.3-65 23.5-69.5 33.4-5.4 40.3 32.4 40.3 32.4m240.9 196.6s-22.1-8.6-22.1-12.3c0 0-49.1 28.2-64.4 28.2-3.2 5 29.3 12.3 47.3.1 11.2-7.7 39.2 2.4 39.2 2.4m0 58.2s-34-2.8-49.1 12.3" class="a"/><path d="M9126.7 508.4c14.6 84 85.6 114.7 85.6 114.7s-8.5 41.3 16.6 66.4l13.7-49.3s80.3-41.7 117.1-41.7c-15.9-5.5-30.2-34.7-41.7-20.2" class="a"/><path d="M9359.8 598.6s-39.6 7.7-50-2.8c-10.4-10.4-12.7-31.1-4.9-47.8 7.8-16.8 29.7-64.1 29.7-64.1-5.7-12.9-6.4-19.4-3.7-42.3l-112.2-56.4-61.9 38" class="a"/><path d="M9120.9 473.5s-16-110.2 50.3-158l.9-99s248.5 15.6 401.5-95.1m-240.8 431.8s6.7 19.6 27 19.6m0 273.5s-72.4 3.7-94.4-60.7" class="a"/><path d="M9605.6 170.6c-36.3-87.9-173.4-156.5-245.8-150.7-72.4-5.8-209.5 62.8-245.8 150.7-23.7 57.2 1.7 271.6 1.7 271.6l45.7 275.7s43.7 152.4 198.4 152.4 198.4-152.4 198.4-152.4l45.7-275.7s25.3-214.4 1.7-271.6z" class="a"/><path d="M9359.8 657.5s22.1-8.6 22.1-12.3c0 0 49.1 28.2 64.4 28.2 3.2 5-29.3 12.3-47.3.1-11.2-7.7-39.2 2.4-39.2 2.4m0 58.2s34-2.8 49.1 12.3m184-238c-14.6 84-85.6 114.7-85.6 114.7s8.5 41.3-16.6 66.4l-13.7-49.3s-80.3-41.7-117.1-41.7c15.9-5.5 30.2-34.7 41.7-20.2" class="a"/><path d="M9446.3 673.4s-11 30.7-86.5 30.7c-75.4 0-86.5-30.7-86.5-30.7l-18.4 48.9c19.2 32.8 57 43 57 43h95.6s37.8-10.3 57-43l-18.2-48.9zm-86.5-74.8s39.6 7.7 50-2.8c10.4-10.4 12.7-31.1 4.9-47.8s-29.7-64.1-29.7-64.1c5.7-12.9 6.4-19.4 3.7-42.3l131.9-56.4 42.3 38" class="a"/><path d="M9408.9 465.5c6.2-13.8 24-24.8 41.1-35.6 23.6 0 39 7.5 58.9 23.9 0 0-10.4 30.1-42.3 30.1m132.1-10.4s16-110.2-50.3-158c10.8-53.2 15-83-57-141.4m-104.6 379.1s-6.7 19.6-27 19.6m0 273.5s72.4 3.7 94.4-60.7M9564 462.4s6.9 102.6-71.6 110" class="a"/><path d="M9450 429.9c-.4.2-.8.5-1.1.7-2.7 3.5-4.4 8-4.4 12.8 0 11.5 9.3 20.9 20.9 20.9s20.9-9.3 20.9-20.9c0-1.9-.3-3.8-.7-5.5-10.9-5.4-21.9-8-35.6-8zm-180.3 0c.4.2.8.5 1.1.7m38.9 34.9c-6.2-13.8-24-24.8-41.1-35.6-23.6 0-39 7.5-58.9 23.9 0 0 10.4 30.1 42.3 30.1" class="a"/><path d="M9268.6 429.9c.4.2.8.5 1.1.7 2.7 3.5 4.4 8 4.4 12.8 0 11.5-9.3 20.9-20.9 20.9s-20.9-9.3-20.9-20.9c0-1.9.3-3.8.7-5.5 10.8-5.4 21.8-8 35.6-8zm-125.9 175.2l-3.6 353.7m438.5-353.7l3.6 353.7M9249.5 922c0 44.2 215.3 44.2 215.3 0m-292.7-705.6s-31.1-3.5-65.1-15.1m48.6 261.1s-6.9 102.6 71.6 110" class="a"/><path d="M9134.9 845.7s-81.3 65.2-139.4 88.3c-71 28.2-64.8 47.6-117.6 85.7-52.7 38-140.7 43.3-183.3 91.4H10025c-42.7-48.1-130.6-53.3-183.3-91.4-52.7-38-46.6-57.5-117.6-85.7-58-23.1-139.4-88.3-139.4-88.3m-7-245.6s2.8 13.8 29.1 10.1c19.7-2.7 52.2-80.3 57.7-112.2 5.5-31.9 4.3-65-23.5-69.5-33.4-5.4-40.3 32.4-40.3 32.4m-278.5 1334.5c-18.7 21.7-44.1 45.5-19.8 69.8 26-11.2 34 14.4 57.5 14.4m0 70.1s-57.5-10.6-93.6 3.2c18.5-16.9 38.8-30.9 65.4-35.1 9.6 11.4 19.1 18.1 28.3 14.9m-.1 45.7s-49 6.4-93.6-25.5m45.1-221.1c-2.6-10-18-20.6-35.6-31.4-26.1 1.7-49.1 6-61.7 18.6m6.1 223.1c24.9-68.2 100.9-78.9 100.9-78.9m-194.2-213.5c-17.4-20.7-36-32.7-45.9-22.9-9.8 9.8-14.9 47.3-8.8 70.2 6.2 22.9 20.2 68.9 38.3 87.7-13.7 33.2 8.6 47.5 34.1 35m-52.5-164.5l41.6 63" class="a"/><circle cx="9259.9" cy="1714.2" r="18.1" class="a"/><path d="M9176.7 1698.5s19.2-41.9 63.1-38.2c34.8 34.8 95.3 40.6 95.3 40.6s2.8 20.4-1.4 33.9c0 0-22.9 13.2-11.4 60.6m-102.1 146.7c-18.6-18.6-13.3-86.2-13.3-86.2-21.8 0-66.5-46.5-73.2-137.7m49.6-70.1c-14.4-44.7 36-34.2 29.3-53.9-7.8-23-17.4-50.8-7.1-84.3m84.1 544.6c21.8-40.7 118.8-40.7 140.5 0m-272.4-125.9s-6.1 146.3-18.9 178.2" class="a"/><path d="M9151.4 2025.3s-220.9 104.6-259.8 123c-69.4 32.7-106.1 75-131.6 92.5s-84.4 30.6-109.1 55.3-52.7 79.4-52.7 79.4h1523.3s-28-54.6-52.7-79.4-83.6-37.8-109.1-55.3-62.2-59.8-131.6-92.5c-38.9-18.3-259.8-123-259.8-123m-281.5-278.2c-40.4 30.6-73.1 30.5-95.7-9.6m-63.2 449s104.1 105.7 173.4 94.9m-167.6-563.2s-12.9-110.6 36.9-136c-17-44.7-14.9-105.3 31.9-158.7m-33.3-26.5c38.9 38.9 104.2 59.8 190.5 59.8m-20.1 385.9c0 12.8 41.5 12.8 41.5 0" class="a"/><path d="M9397.4 1795.4c18.7 21.7 44.1 45.5 19.8 69.8-26-11.2-34 14.4-57.5 14.4m0 70.1s57.5-10.6 93.6 3.2c-18.5-16.9-38.8-30.9-65.4-35.1-9.6 11.4-19.1 18.1-28.3 14.9m.1 45.7s49 6.4 93.6-25.5m-45.1-221.1c2.6-10 18-20.6 35.6-31.4 26.1 1.7 49.1 6 61.7 18.6m-6 223.1c-24.9-68.2-100.9-78.9-100.9-78.9m194.2-213.5c17.4-20.7 36-32.7 45.9-22.9 9.8 9.8 14.9 47.3 8.8 70.2-6.2 22.9-20.2 68.9-38.3 87.7 13.7 33.2-8.6 47.5-34.1 35m52.4-164.5l-41.6 63" class="a"/><circle cx="9459.8" cy="1714.2" r="18.1" class="a"/><path d="M9542.9 1698.5s-19.2-41.9-63.1-38.2c-34.8 34.8-95.3 40.6-95.3 40.6s-2.8 20.4 1.4 33.9c0 0 22.9 13.2 11.4 60.6m102.2 146.7c18.6-18.6 13.3-86.2 13.3-86.2 21.8 0 66.5-46.5 73.2-137.7m-49.7-70.1c14.4-44.7-36-34.2-29.3-53.9 7.8-23 17.4-50.8 7.1-84.3m47.8 418.7s6.1 146.3 18.9 178.2m-148-359.7c40.4 30.6 73.1 30.5 95.7-9.6m63.2 449s-104.1 105.7-173.4 94.9m167.6-563.2s12.9-110.6-36.9-136c17-44.7 14.9-105.3-31.9-158.7m33.3-26.5c-38.9 38.9-104.2 59.8-190.5 59.8" class="a"/><path d="M9359.9 1311.8c25.1 0 133.2-2.2 197 94.5 43.8 66.3 48.6 128.3 43.3 183-5.3 54.8-15 134.9-15 134.9 0 1.4-7.7 207.7-51.7 311.9-28.5 67.6-90.8 136-173.6 136.1h-.2c-82.8-.1-145.1-68.5-173.6-136.1-44-104.2-51.7-310.5-51.7-311.9 0 0-9.7-80.1-15-134.9s-.5-116.7 43.3-183c63.8-96.7 171.9-94.5 197-94.5m.1 4509.8s-60.3 1.2-87-5.4m-73.7-226c16.9-20.5 41.9-30.2 76.5-27.1 16.2 10.7 28.1 25 36.6 42.3-7.7 28.9-28.4 49.7-71.2 56.9m118.8 199.9c-28.7-.8-48.9 8.8-60.7 28.5m-173.6-365.8s-24.2-3.2-30 27.6c-5.8 30.9 11.6 114.6 22.7 137.7 5.7 12 23.5 19.9 23.5 19.9m-46.2-157.5c11.6 9.5 31.4 33.4 41.7 68.2m-1.8-51.2c-4.8-75.6-16.3-133.4 27.7-143.6 0 0-28.1-105.4 74.8-140.9 94.3-32.5 121.9 58.5 121.9 58.5m-179.9 486.1c14.8 75.4 19.6 140.2-16.3 190" class="a"/><path d="M9191 5925.6s-171 119-232.9 151.5c-50.4 26.4-117.3 12.1-164.5 49.1-55 43.1-73.6 124.5-73.6 124.5h1277.3m-457.6-421c-14.8 75.4-19.6 140.2 16.3 190" class="a"/><path d="M9528.6 5925.6s171 119 232.9 151.5c50.4 26.4 117.3 12.1 164.5 49.1 55 43.1 73.6 124.5 73.6 124.5m-639.8-429.1s60.3 1.2 87-5.4" class="a"/><path d="M9359.8 5849.2c25.2 0 55.5-5.8 71.1-30.2-12.9-18.7-30.9-21.1-55-25.6l-16.1 8.7-16.1-8.7c-24.1 4.5-42.2 6.9-55 25.6 15.6 24.4 45.9 30.2 71.1 30.2zm205.5-295.3c-2.9-25.7-32.8-45.1-55-45.1-22.2 0-90.1 27.5-90.1 27.5l-41 64.3s20.4 51.2 19.9 84.5c25.5 17.3 18.8 37.9 8.9 56.3l-15.5-13c-8.6 18.9-32.7 27.1-32.7 27.1s-24.1-8.2-32.7-27.1l-15.5 13c-10-18.4-16.6-39 8.9-56.3-3.1-28.4 19.9-84.5 19.9-84.5l-41-64.3s-68-27.5-90.1-27.5-52.1 19.4-55 45.1" class="a"/><path d="M9520.5 5590.2c-16.9-20.5-41.9-30.2-76.5-27.1-16.2 10.7-28.1 25-36.6 42.3 7.7 28.9 28.4 49.7 71.2 56.9m-118.8 199.9c28.7-.8 48.9 8.8 60.7 28.5m173.6-365.8s24.2-3.2 30 27.6c5.8 30.9-11.6 114.6-22.7 137.7-5.7 12-23.5 19.9-23.5 19.9m-440.6-89.3c12.5 81.4 25.9 125 99.6 150.4m345.4-150.4c3.9 81.2-20.8 138.5-99.6 150.4m101.5-201.6c4.8-75.6 16.3-133.4-27.7-143.6 0 0 28.1-105.4-74.8-140.9-94.3-32.5-121.9 58.5-121.9 58.5" class="a"/><path d="M9359.8 5171.4s177 0 220.2 130.8c45 136.1 4.2 267.4 4.2 267.4s-5.2 173.5-12.5 197.5c-17.5 57.7-101.4 175.5-211.9 181.2-110.5-5.7-194.5-123.5-211.9-181.2-7.3-24-12.5-197.5-12.5-197.5s-40.8-131.2 4.2-267.4c43.2-130.8 220.2-130.8 220.2-130.8z" class="a"/><path d="M9359.8 5171.4s70.7 0 133.7 33.1c-17.8-56.9-70.9-98.2-133.7-98.2-62.8 0-115.9 41.3-133.7 98.2 63-33.1 133.7-33.1 133.7-33.1zm264.3 381.2c-11.6 9.5-31.4 33.4-41.7 68.2M9032.6 6032c0 83.3-4.9 161.8-32 218.6m115.8-274c-3.6 112.5 12.4 207 58.1 274.1m512.6-218.7c0 83.3 4.9 161.8 32 218.6m-115.9-274c3.6 112.5-12.4 207-58.1 274.1m-283.9-645.3c12.6 0 22.8-10.2 22.8-22.8 0-8.5-4.6-15.8-11.5-19.7-8.5-.6-16.3-.4-23.6.6-6.3 4-10.5 11.1-10.5 19.1 0 12.6 10.2 22.8 22.8 22.8zm209.5-41.9c-7.3-1-15.2-1.2-23.6-.6-6.8 3.9-11.5 11.3-11.5 19.7 0 12.6 10.2 22.8 22.8 22.8s22.8-10.2 22.8-22.8c0-8-4.2-15-10.5-19.1z" class="a"/><path d="M9245.9 3378.8c-84.3-36.7-108.8-144.9-125.5-313.2 0 0 5.5-28.5-1.2-59.4-4.1-19.1-28.4-99.4-20.9-205.8 8.8-125.8 134.8-204.6 261.6-213.1" class="b"/><path d="M9120.4 3012.8s-28.9-21.8-48-13.6c-19.1 8.2-19 41-11.7 78.3 7.3 37.3 36.2 105.6 75.8 115.4m172.4-197l-49.7-26.7c-20.4 2.9-37.5 12.2-52.1 26.7m152.7 161.3c-20 0-32.7-34.6-49.7-30.9" class="b"/><path d="M9318.6 3142.6l-22.4-5.5c-4.4-33 2.2-50.6 22.4-58.8l11.5-79.4" class="b"/><path d="M9154.9 2954.1c22.5-52 96.8-38.5 160.8-15.4l14.4 60.3c-11.9 19.3-27.2 36.4-46.4 51.1m76.1 216.8c-31.1-2.9-56.8 6.3-78.8 24.2m-133.9-49.6c5.3 98 5.7 188.4-7.4 257.9m459.5-486.6s28.9-21.8 48-13.6c19.1 8.2 19 41 11.7 78.3-7.3 37.3-36.2 105.6-75.8 115.4" class="b"/><path d="M9646.9 3023.7c-21.1 3.3-33.7 13.9-48.3 37.3l-7.8-159.1c-21.7-9.4-36.3-24.9-43.6-46.7 27-39.9 16.4-135-36.2-158.8-50.1 50.1-78.4 46.4-151.1 41.8m-.1 419c20 0 32.7-34.6 49.7-30.9" class="b"/><path d="M9401 3142.6l22.4-5.5c4.4-33-2.2-50.6-22.4-58.8l-11.5-79.4m6.1 111l-35.8 23.6-35.8-23.6m35.8 112.1c22.9-11.2 46.4-11.1 70.3-1.2 8.9 3 17.4 1.8 25.5-4.2-20.1-14.9-47.1-23.6-72.1-26.7-7.9 9.1-12.9 13.6-23.6 12.7-10.7.9-15.7-3.7-23.6-12.7-25.1 3-52 11.7-72.1 26.7 8.1 6 16.6 7.2 25.5 4.2 23.8-9.9 47.2-10 70.1 1.2z" class="b"/><path d="M9435.3 3222c-18.6 15.9-23.6 24.6-75.5 24.6-51.8 0-56.8-8.7-75.5-24.6m75.5 44.9c31.1-2.9 56.8 6.3 78.8 24.2m133.9-49.6c-5.3 98-5.7 188.4 7.4 257.9m-507.1-475.7c21.1 3.3 33.7 13.9 48.3 37.3l7.8-159.1c21.7-9.4 36.3-24.9 43.6-46.7-27-39.9-27.3-145.9 25.3-169.7 50.1 50.1 89.3 57.3 162 52.7m134 571.1c-8.5 60.6-19.4 112.8-134 112.8s-125.5-52.1-134-112.8m12 37.1c80.8 16 162.1 15.8 243.8 0" class="b"/><path d="M9473.8 3378.8c84.3-36.7 108.8-144.9 125.5-313.2 0 0-5.5-28.5 1.2-59.4 4.1-19.1 28.4-99.4 20.9-205.8-8.8-125.8-134.8-204.6-261.6-213.1m-100.6 381.9c-8.7 1.2-16.8 3.7-24.4 7.2-1.4 2.7-2.2 5.9-2.2 9.2 0 11 9 20 20 20s20-9 20-20c0-4.1-1.2-7.8-3.3-11l-10.1-5.4z" class="b"/><path d="M9410.7 2995.9l49.7-26.7c20.4 2.9 37.5 12.2 52.1 26.7" class="b"/><path d="M9460.4 2969.2c8.7 1.2 16.8 3.7 24.4 7.2 1.4 2.7 2.2 5.9 2.2 9.2 0 11-9 20-20 20s-20-9-20-20c0-4.1 1.2-7.8 3.3-11l10.1-5.4zm-339.3 91.8c4.4 53.1 32.1 81.3 87.8 79.8l2.4 93.4" class="b"/><path d="M9564.7 2954.1c-22.5-52-96.8-38.5-160.8-15.4l-14.4 60.3c11.9 19.3 27.2 36.4 46.4 51.1m162.7 10.9c-4.4 53.1-32.1 81.3-87.8 79.8l-2.4 93.4M9151 3398.1s-254.1 132.6-336.7 157.1c-50 14.8-112.5 59.3-131.3 101.3h1353.7c-18.9-42-81.3-86.4-131.3-101.3-82.6-24.5-336.7-157.1-336.7-157.1" class="b"/><path d="M9333.5 4368.7c16.6 6.5 32.7 7 48.1 0m-19.5-400.1H9290l-21.4-39.4-64.1 19.1c-74.5 57.2-92.2 166.2-86.1 297.1m241.4 410.3c-106.8-1-122.2-48.3-137.9-124.9m137.9 124.9c106.8-1 122.2-48.3 137.9-124.9 40.4-25.7 74.4-67.6 100.3-129.4 0 0 12.1 5.8 29.8-11.9 22.4-22.4 19.8-89 19.8-89s16-31.2 16-48.1c0-16.9-6.8-40.5-26.2-40.5s-36.3 33.7-36.3 33.7" class="a"/><path d="M9357.5 3968.6h72.2l21.4-39.4 64.1 19.1c74.5 57.2 92.2 166.2 86.1 297.1m-241.5 157.9c-27.1 0-38.7-35.8-66.9-23.6m66.9 145.4c-29.3 1-54.6 10.9-74.3 33.2m-213.6-323.8c19.6 14.3 36.9 31.5 47.3 58.2m303.7 200.9c-19.4 14.1-106.8 14.5-126.2 0m63.1 31.5c29.3 1 54.6 10.9 74.3 33.2m213.6-323.8c-19.6 14.3-36.9 31.5-47.3 58.2" class="a"/><path d="M9242.3 4600c-47.3-30.4-90.8-67.3-101.5-95.4-8.5-22.4-23.5-165.8-22.5-259.1 0 0-38-101.2-16.9-191.5 19.2-82.2 112.2-191.6 258.4-191.6m157.9 385.6c-18.5-15.4-39.9-21.8-63.3-21.9-21.4 4.9-36.2 15.5-42.2 33.8 16 31.2 67.3 58.7 108.9 34.6" class="a"/><path d="M9333.1 4394.6c-11.2 6.6-19.5 9.1-37.1 1.1-8.7-30.3-1-52 23.9-66.7l5.9-59.9c14.7-11.3 19.7-69.3-20.2-83s-98.8-36-98.8-36c-22.6 8-43.9 26.2-43.9 61.6m314.4 388.3c47.3-30.4 90.8-67.3 101.5-95.4 8.5-22.4 23.5-165.8 22.5-259.1 0 0 38-101.2 16.9-191.5-19.2-82.2-112.2-191.6-258.4-191.6m-219 642.2c.6 77.5-7.7 142.6-26.4 186.6" class="a"/><path d="M9136.2 4599.7c-1.7 20.7-263.4 148.1-297.5 160-45.3 15.8-61.9 15.8-106.9 21.4-45 5.6-135.2 89.9-157.5 157h848m30.9-711.7c-4.9 3.5-8.1 9.3-8.1 15.7 0 10.7 8.7 19.4 19.4 19.4s19.4-8.7 19.4-19.4c0-5.2-2-9.9-5.4-13.4-7.8-1.8-15.8-2.6-24.2-2.6-.3.1-.7.2-1.1.3zm-251.3 21.6c18.5-15.4 39.9-21.8 63.3-21.9 21.4 4.9 36.2 15.5 42.2 33.8-16 31.2-67.3 58.7-108.9 34.6" class="a"/><path d="M9266.4 4226.4c4.9 3.5 8.1 9.3 8.1 15.7 0 10.7-8.7 19.4-19.4 19.4s-19.4-8.7-19.4-19.4c0-5.2 2-9.9 5.4-13.4 7.8-1.8 15.8-2.6 24.2-2.6.3.1.7.2 1.1.3zm93.9 242.7c-15.4.4-30.9 2.3-38.6 4.7-28.5 8.9-46.9 15.2-65 2.9 24.2-12.1 76.7-31.4 76.7-31.4s11.5 8 26.4 8c14.9 0 26.4-8 26.4-8s52.5 19.2 76.7 31.4c-18.1 12.3-36.5 6-65-2.9-7.7-2.4-23.2-4.3-38.6-4.7m-.5-65.8c27.1 0 38.7-35.8 66.9-23.6" class="a"/><path d="M9385.5 4394.6c11.2 6.6 19.5 9.1 37.1 1.1 8.7-30.3 1-52-23.9-66.7l-5.9-59.9c-14.7-11.3-19.7-69.3 20.2-83s98.8-36 98.8-36c22.6 8 43.9 26.2 43.9 61.6m23.1 292.9c-.6 77.5 7.7 142.6 26.4 186.6" class="a"/><path d="M9583.4 4599.7c1.7 20.7 263.4 148.1 297.5 160 45.3 15.8 61.9 15.8 106.9 21.4 45 5.6 135.2 89.9 157.5 157h-848m-61.4-363.2c43.1 18.2 83.3 20.4 123.9 20.5 40.6 0 81.7-2.1 123.9-20.5" class="a"/><path d="M9359.8 4655.7c-106.8-1-122.2-48.3-137.9-124.9-40.4-25.7-74.4-67.6-100.3-129.4 0 0-12.1 5.8-29.8-11.9-22.4-22.4-19.8-89-19.8-89s-16-31.2-16-48.1c0-16.9 6.8-40.5 26.2-40.5s36.3 33.7 36.3 33.7" class="a"/><path d="M5724 408.7s-35.9-39.1-53.9-21.1-17.1 78.8-6.7 99c10.4 20.2 37 76.7 55 94.8 18 18 27-8.5 27-8.5" class="b"/><path d="M5721.4 459.7c-19-36.7-42.2-53.2-42.2-53.2s-10.3 65.4 22.7 105.8m252.4 111.9c-25.7 0-30.4-31.6-46.1-24.7m1.2 27.4s-21.1-9.3-21.1-19c0-9.8 16.5-50.3 16.5-50.3m17.8-29.6s5.4-54.2 5.4-61.5-9.8-13.4-9.8-13.4-64.2-9.2-132.7 22M5752.6 626s6 143.7 39 225.6" class="b"/><path d="M5763.9 738.3s-225.1 117.4-255.3 134.6c-47.1 26.9-135.1 113.7-111.3 97.2 23.8-16.5-53.2 28.7-80.7 70.9-29.3 44.9-42.2 82.8-42.2 82.8H6634s-12.9-37.9-42.2-82.8c-27.5-42.2-104.5-87.4-80.7-70.9s-64.2-70.3-111.3-97.2c-30.2-17.2-255.3-134.6-255.3-134.6" class="b"/><path d="M5594.4 928.6s127.2 69.3 148.3 74.2c21.2 4.9 49.7-21.2 85.6-4.9s77.4 57.9 77.4 57.9m48.6-833.6l-187.9-3-3.3 124.1s-33.2 19.8-37.5 68.1m49 104s31.8 104.5 116.8-11.6m88.6 240.4h-51.4m35.9-141.4h-20.4m-70.6-150.2s28.2 12.6 28.2 28.5m-105.2-225.9s-4 71.7 8 103.5m380.1 50s35.9-39.1 53.9-21.1 17.1 78.8 6.7 99c-10.4 20.2-37 76.7-55 94.8-18 18-27-8.5-27-8.5" class="b"/><path d="M6187.2 459.7c19-36.7 42.2-53.2 42.2-53.2s10.3 65.4-22.7 105.8m-252.4 111.9c25.7 0 30.4-31.6 46.1-24.7m-1.2 27.4s21.1-9.3 21.1-19c0-9.8-16.5-50.3-16.5-50.3m-17.9-29.6s-5.4-54.2-5.4-61.5 9.8-13.4 9.8-13.4 64.2-9.2 132.7 22m32.9 150.9s-6 143.7-39 225.6m197.3 77s-127.2 69.3-148.3 74.2c-21.2 4.9-49.7-21.2-85.6-4.9-35.9 16.3-77.4 57.9-77.4 57.9m-48.6-833.6l187.9-3 3.3 124.1s33.2 19.8 37.5 68.1m-49 104s-31.8 104.5-116.8-11.6m17.9-51.2s-28.2 12.6-28.2 28.5" class="b"/><path d="M6054.5 689.8s-4 18.7-18.5 18.7c-10.4 0-43.4-14.1-58.6-14.1h-23" class="a"/><path d="M5954.3 677.7s13.8-3 21.1-10.4c5.4-6.7 38.3 12 56.4 40.7" class="a"/><path d="M6183.3 151.6c-28.2-91.5-123.9-144.8-229-144.8s-200.8 53.3-229 144.8c-9.8 31.9-26.5 174.7.4 259.9 0 0-9.8 50.5 0 77s22.3 36.9 22.9 52.9c.6 16-1.5 149.5 35.8 186.8s45.8 164.4 169.9 164.4 132.7-127.2 169.9-164.4c37.3-37.3 35.1-170.8 35.8-186.8.6-16 13.1-26.4 22.9-52.9 9.8-26.5 0-77 0-77 26.9-85.2 10.2-228 .4-259.9zm-71.2 103.6s4 71.7-8 103.5" class="b"/><path d="M6043.4 453.4c-2.9 3.1-4.8 7.2-4.8 11.8 0 9.5 7.7 17.1 17.1 17.1s17.1-7.7 17.1-17.1c0-2.6-.6-5.1-1.6-7.3-9.8-2.1-19.2-3.5-27.8-4.5zm-206.1 4.5c-1 2.2-1.6 4.7-1.6 7.3 0 9.5 7.7 17.1 17.1 17.1 9.5 0 17.1-7.7 17.1-17.1 0-4.6-1.8-8.7-4.8-11.8-8.5 1-17.9 2.4-27.8 4.5zm117-64.7s6.9 54.8 41.1 57.2 92.4-47.7 117.4-47.7 29.5 34.5 29.5 34.5m-188-44s-6.9 54.8-41.1 57.2c-34.2 2.4-92.4-47.7-117.4-47.7s-29.5 34.5-29.5 34.5" class="b"/><path d="M5876.4 811.2h162l19.5-84c20.2 20.2 24.9 74.2 5.7 108.5" class="a"/><path d="M6032.2 811.2h-162l-19.5-84c-20.2 20.2-24.9 74.2-5.7 108.5m9.1-145.9s4 18.7 18.5 18.7c10.4 0 43.4-14.1 58.6-14.1h23" class="a"/><path d="M5954.3 677.7s-13.8-3-21.1-10.4c-5.4-6.7-38.3 12-56.4 40.7m61.4 4929.8c-9.1-15.6-20.6-7.1-32.7 7.1m1.8 20.2c-27.1-6.8-31.5-25.5-8.9-58.3m3.5-68.4c-7.4-15.1-21.3-23.1-38.1-28-26.2 1.7-47.8 13.5-65.4 33.9m111.3 22.7l18.4-26.2c-6.3-18.5-14.5-30.5-25-34.5m11.9-37.5s-95.5-9.2-116.3-3.3c-20.8 5.9-32.4 25.4-31.2 65.7m-28.3 130.4s11 130.9 34.8 168.3c23.8 37.5 77.9 69 77.9 69" class="a"/><path d="M5803.2 5737.1c-8.5 41.6 2.1 73.3 36.9 92.2-3 67.3 31.4 106.9 114.2 110.6m0-223.6l-25.6-1.8c-22.8 6.6-43.2 26.1-61.9 48.8 18.8-16.3 52.6-18.2 87.4-15.5m.1 47.6c-41.1.7-73.7-6.8-87.4-32.1m87.4 54.7c-28.8.1-50.8 8.2-61.9 28.6M5707.8 5554s-32.5-10.3-40.8 9.4c-20.1 47.3-6.2 110.4 17.3 133.9 29.1 29.1 61.7 21.8 61.7 21.8m-22.9-115.2c-10.5-10.2-22.1-18.9-36.4-15.8m241.4 9.2c3.2 7.8 11 13.7 26.2 16.7m-219.5 105.8c-1.1 101.4-5.2 195.6-16.1 274.2" class="a"/><path d="M5728.8 5892.4s-112.4 50.2-146 64.9c-47.3 20.7-47.9 39.2-101.5 66.5-53.5 27.4-201.7 29.1-260.6 185.6h1467c-58.9-156.5-207-158.2-260.6-185.6-53.5-27.4-54.1-45.8-101.5-66.5-33.6-14.7-146-64.9-146-64.9m-294 317c5.4-60.7-129.8-57.6-196.3-124m281.1-447.6c9.1-15.6 20.6-7.1 32.7 7.1m-1.8 20.2c27.1-6.8 31.5-25.5 8.9-58.3m-3.6-68.4c7.4-15.1 21.3-23.1 38.1-28 26.2 1.7 47.8 13.5 65.4 33.9m-111.2 22.7l-18.4-26.2c6.3-18.5 14.5-30.5 25-34.5m-11.9-37.5s95.5-9.2 116.3-3.3c20.8 5.9 32.4 25.4 31.2 65.7" class="a"/><path d="M6169.3 5661.6s-11 130.9-34.8 168.3c-23.8 37.5-77.9 69-77.9 69m-102.3-751.3c-45.5 0-196.3 20.5-243.6 176.7-47.3 156.2 28.6 337.3 28.6 337.3-15.2-93.4-1.4-166.4 39.6-220.1-6.8-30.9 8.9-89.8 8.9-89.8s83.3-33.3 166.6-33.3 166.6 33.3 166.6 33.3 15.7 58.9 8.9 89.8c40.9 53.7 54.7 126.7 39.6 220.1 0 0 75.8-181.1 28.6-337.3-47.5-156.2-198.3-176.7-243.8-176.7" class="a"/><path d="M6105.4 5737.1c8.4 41.6-2.1 73.3-36.9 92.2 3 67.3-31.4 106.9-114.2 110.6m0-223.6l25.6-1.8c22.8 6.6 43.2 26.1 61.9 48.8-18.8-16.3-52.6-18.2-87.4-15.5m-.1 47.6c41.1.7 73.7-6.8 87.4-32.1m-87.4 54.7c28.8.1 50.8 8.2 61.9 28.6m184.6-292.6s32.5-10.3 40.8 9.4c20.1 47.3 6.2 110.4-17.3 133.9-29.1 29.1-61.7 21.8-61.7 21.8m22.9-115.2c10.5-10.2 22.1-18.9 36.4-15.8m-241.4 9.2c-3.2 7.8-11 13.7-26.2 16.7m219.5 105.8c1.1 101.4 5.2 195.6 16.1 274.2M6023 6209.4c-5.4-60.7 129.8-57.6 196.3-124m-355.7-574.9c-10.1.7-19.5 2.9-28.3 6.5-1.1 2.4-1.7 5-1.7 7.7 0 10.2 8.3 18.4 18.4 18.4 10.2 0 18.4-8.3 18.4-18.4 0-5.7-2.7-10.8-6.8-14.2zm181.4 0c-4.2 3.4-6.9 8.5-6.9 14.2 0 10.2 8.3 18.4 18.4 18.4 10.2 0 18.4-8.3 18.4-18.4 0-2.8-.7-5.4-1.8-7.7-8.6-3.6-18-5.8-28.1-6.5z" class="a"/><path d="M5780.9 1479.7c27.4-79.1 38.6-68.5 175.5-109.5m166.2 107.1c-36.4-75.4-71.6-86.8-166.3-107.1m-238.6 339.6s-38.2-20.6-52-6.8c-13.8 13.8-10.5 52.8 2.5 87.8s36.4 100.3 69.1 96.9" class="b"/><path d="M5675.5 1716.2c16.4 12 29.1 29.6 37.1 54.3-17.8 25.9-7 44.2 16.2 59.1m225.5 66.7c-20.4 0-31.6-21.1-54.6-17.5-8.6-15.4-7.8-38.1 8.1-54-6.8-10.8-8.3-23.6-5.2-38.1 11.7-16.5 20.6-36.2 26.6-59.5-14.4-18.3-27.6-36.5-28.8-54.3 0 0-91.3-1.7-102 4.4-13.8 7.8-38.6 21.9-38.6 52.7m27.4 12.3c20-18 37.1-30.8 77.2-34" class="b"/><path d="M5864.4 1708.3l40.8 30.3c-16 41.9-43.7 70-99.7 64.7" class="b"/><circle cx="5850.4" cy="1726.6" r="18.3" class="b"/><path d="M5954.3 1943.3l-16.2-11.5c-23.8 10.3-47.1 17.1-68.9 13.6 20.9 20.9 38.1 7.8 63.7 7.8 2.6 7.8 21.4 8.9 21.4 8.9m0 23.5s-41.8-1-49.1-8.4m49.1 31.4c-23.9-1.7-44.8 1.7-61.1 13.1m-141.3-108c3.1 70.1.6 143.4-12.3 200.3 3.3 79.1 44.6 134.1 121.1 166.6" class="b"/><path d="M5749.8 2048.8c-52.5 42.5-139.5 80.9-166.3 96.6s-106.5 67.9-106.5 67.9-49.3 29.6-88 33.7c-66.6 7-116.7 115.6-116.7 115.6h1363.9m-1011.4-134.2c42.2-29.3 109.3 7.1 179.6 52.2m149.9-955.5c-44.4-4.2-204.2 23.7-240.7 166-31.3 122.2 12.5 248.5 12.5 248.5s1 37.4 4.2 60.2c4.7 34.1 10.9 171.1 116 262.5" class="b"/><path d="M6182.5 1739.6l-12.5-17.2c7.3-27.4 4.8-53 2.6-75.7-13.3-1.2-23.2-9.5-30.8-23 20.2-32.7 11.5-114.9 11.5-114.9h-397.9s-8.7 82.2 11.5 114.9c-7.6 13.5-17.5 21.8-30.8 23-2.2 22.7-4.7 48.3 2.6 75.7l-12.5 17.2m102.7 201.1s-20.4 185.4 125.4 185.4m236.6-416.3s38.2-20.6 52-6.8c13.8 13.8 10.5 52.8-2.5 87.8s-36.4 100.3-69.1 96.9" class="b"/><path d="M6233.1 1716.2c-16.4 12-29.1 29.6-37.1 54.3 17.8 25.9 7 44.2-16.2 59.1m-225.5 66.7c20.4 0 31.6-21.1 54.6-17.5 8.6-15.4 7.8-38.1-8.1-54 6.8-10.8 8.3-23.6 5.2-38.1-11.7-16.5-20.6-36.2-26.6-59.5 14.4-18.3 27.6-36.5 28.8-54.3 0 0 91.3-1.7 102 4.4 13.8 7.8 38.6 21.9 38.6 52.7m-27.4 12.3c-20-18-37.1-30.8-77.2-34" class="b"/><path d="M6044.2 1708.3l-40.8 30.3c16 41.9 43.7 70 99.7 64.7" class="b"/><circle cx="6058.2" cy="1726.6" r="18.3" class="b"/><path d="M5954.3 1943.3l16.2-11.5c23.8 10.3 47.1 17.1 68.9 13.6-20.9 20.9-38.1 7.8-63.7 7.8-2.6 7.8-21.4 8.9-21.4 8.9m0 23.5s41.8-1 49.1-8.4m-49.1 31.4c23.9-1.7 44.8 1.7 61.1 13.1m141.2-108c-3.1 70.1-.6 143.4 12.3 200.3-3.3 79.1-44.6 134.1-121.1 166.6" class="b"/><path d="M6158.8 2048.8c52.5 42.5 139.5 80.9 166.3 96.6 26.8 15.7 106.5 67.9 106.5 67.9s49.3 29.6 88 33.7c66.6 7 116.7 115.6 116.7 115.6m-352.5-134.2c-42.2-29.3-109.3 7.1-179.6 52.2m-149.9-955.5c44.4-4.2 204.2 23.7 240.7 166 31.3 122.2-12.5 248.5-12.5 248.5s-1 37.4-4.2 60.2c-4.7 34.1-10.9 171.1-116 262.5m17.4-121.6s20.4 185.4-125.4 185.4m-28-299.8c0 10.4 50.5 10.4 50.5 0m-22.5 5122.6c19.3 0 19.3-25.5 45.3-22.1" class="b"/><path d="M5990 6950c15 1.2 30.6-12.5 27.8-27.8S5990 6882 5990 6882m.6-57.2c-16.8-18.3 2-38.1 20.1-63.5l115.3-6.8 33.4 33.4" class="b"/><path d="M6190.4 6817.6c-3.5-45.9-15.2-73.1-41.8-92.6l-1.7-118.4c-65.1-9.9-129.5-15.6-192.7-13.6m.1 412.5l16.6-7.2c25.1 0 34.2 21 73.1 25.5-6.1 6-15.3 9.1-27.6 9.4-15.2-11.2-38-12.4-62.1-11.9m0 32.7s48.5 5.5 62.1-20.8m-62.1 47.6c25 1.6 46.6 9.4 65 23" class="b"/><path d="M5954.3 6421.9c84.8 11 179.1 70.3 222.1 146.8 43.1 76.5 30.5 161.9 14 249-12 9.3-3.8 218-38.4 276.4-34.6 58.4-95.7 84.1-95.7 84.1" class="b"/><path d="M6076.6 7106.7c-13.9 47.7-12.4 109.2-122.3 109.2-109.9 0-108.4-61.5-122.3-109.2m358.4-289.1c5.1 16 38.9-21.6 55.2-5.2 11.3 11.3 12.2 48.1 9.1 66.9-5.1 31.5-27.8 73.4-38.3 90.1-10.5 16.7-22.6 23.7-38.4 9.8" class="b"/><path d="M6237.8 6822.4c-17.9 11.1-34 50.6-54.7 54.2 9.9 10.1 22.3 20.7 22.4 32.1-3.5 14-10.7 25-24.9 30.2m-28.5 155.1c4.4 131.3-10.4 237.6-46.5 344.5m323.6-26.3c-135.5-36.7-204 63.7-323.6 26.3m-151.3-489.6c-19.3 0-19.3-25.5-45.3-22.1" class="b"/><path d="M5918.6 6950c-15 1.2-30.6-12.5-27.8-27.8s27.8-40.2 27.8-40.2m8.5 23.2c0-13.3 54.4-13.3 54.4 0m-63.5-80.4c16.8-18.3-2-38.1-20.1-63.5l-115.3-6.8-33.4 33.4" class="b"/><path d="M5802.4 6808.9c11.3-14.1 28.6-21.1 56.6-21 13.3 13.3 39.7 27.8 39.7 27.8s-60.1 58.1-108.5 24.9m-72.2-25.8c3.5-45.9 15.3-70.3 41.9-89.8l1.7-118.4c65.1-9.9 129.5-15.6 192.7-13.6m0 412.5l-16.6-7.2c-25.1 0-34.2 21-73.1 25.5 6.1 6 15.3 9.1 27.6 9.4 15.2-11.2 38-12.4 62.1-11.9m0 32.7s-48.5 5.5-62.1-20.8m62.1 47.6c-25 1.6-46.6 9.4-65 23" class="b"/><path d="M5954.3 6421.9c-84.8 11-179.1 70.3-222.1 146.8-43.1 76.5-30.6 159.1-14.1 246.2 12 9.3 3.9 220.8 38.5 279.2s95.7 84.1 95.7 84.1" class="b"/><path d="M5718 6814.8c-5.1 16-38.7-18.8-55.1-2.4-11.3 11.3-12.2 48.1-9.1 66.9 5.1 31.5 27.8 73.4 38.3 90.1 10.5 16.7 22.6 23.7 38.4 9.8" class="b"/><path d="M5670.8 6822.4c17.9 11.1 34.1 50.6 54.8 54.2-9.9 10.1-22.3 20.7-22.5 32.1 3.5 14 10.7 25 24.9 30.2m28.5 155.1c-4.4 131.3 10.4 237.6 46.5 344.5" class="b"/><path d="M5757.3 7197.8c4.5 26.6-104.5 68.3-185.9 93.9-82.7 26.1-136.8 111-199.9 127.3-49.7 13.5-69.4 24.6-98.9 72.7H6636c-29.5-48.1-49.2-59.2-98.9-72.7-63.1-16.3-117.2-101.2-199.9-127.3-81.4-25.6-190.4-67.3-185.9-93.9m-671.9 214.4c135.5-36.7 204 63.7 323.6 26.3m-24.3-868.2c9.5-65.8 102.4-66.5 175.7-117.9m175.6 117.9c-9.5-65.8-102.4-66.5-175.7-117.9m151.6 356.5c-11.3-14.1-28.6-21.1-56.6-21-13.3 13.3-39.7 27.8-39.7 27.8s60.1 58.1 108.5 24.9" class="b"/><path d="M6044.5 6801c0 10.3 8.4 18.7 18.7 18.7s18.7-8.4 18.7-18.7c0-3.5-1-6.7-2.6-9.5-8.2-2.4-17.9-3.6-29.4-3.6-3.4 3.4-5.4 8-5.4 13.1zm-199.1 18.7c10.3 0 18.7-8.4 18.7-18.7 0-5.1-2.1-9.7-5.4-13.1-11.5-.1-21.2 1.1-29.4 3.5-1.7 2.8-2.7 6.1-2.7 9.6.1 10.4 8.5 18.7 18.8 18.7z" class="b"/><path d="M5954.3 4404.8c29.8 0 36.7-25.4 58.6-3.8 16.9-21.7 15.8-43-5-63.8 3.3-38.2-34.3-58.9-34.3-96l32.7-80.7s56.5-8.2 94.7-4.9c20.2 9.9 35 23.4 43.7 40.9" class="a"/><path d="M5998.5 4251c12.1-11.4 27-19.3 45.4-22.9 20.1-.4 42.7 7.1 66.4 18.5m-96.9 21.3c32.8 21.5 63.3 20.9 90.8-8.2m-104.4-32.5c34.7-43.5 79.6-31 128.5 2.7m11.9 301c-3.9 73-2.8 140.8 9.9 196.1m-60.8 127.1c93 18.8 113-48.3 203.5-56.4m-96.5-563.9c14-21 34.1-29.1 52.4-24.2s42.9 30.8 28.8 82.3c-10.4 37.9-18.3 80.7-36 103.1-14.9 18.8-43.7 38.7-69 4.7m23.8-111.9c12.8-35.1 31.2-50.8 64-57.5" class="a"/><path d="M5954.3 3970.2c66.3-1 129 7.7 185.9 31.6 39.2 35.4 47.1 102 44.8 156.5s-18.3 75.3 1.7 111.2c29.2 52.7-11.5 78-14.4 133.1-4.1 79.9-17.7 158.7-129.2 196 13.1 75.6-21.5 156.1-64.3 237.5m-24.5-431.3c-29.8 0-36.7-25.4-58.6-3.8-16.9-21.7-15.8-43 5-63.8-3.3-38.2 34.3-58.9 34.3-96l-32.7-80.7s-56.5-8.2-94.7-4.9c-20.2 9.9-35 23.4-43.7 40.9" class="a"/><path d="M5910.1 4251c-12.1-11.4-27-19.3-45.4-22.9-20.1-.4-42.7 7.1-66.4 18.5m96.9 21.3c-32.8 21.5-63.3 20.9-90.8-8.2m70.8 205.6c3 6.2 9.1 8.1 17.2 7.1 18.6-10.8 40.2-5.3 61.9.5 21.7-5.9 43.2-11.4 61.9-.5 8.1 1 14.2-.9 17.2-7.1m-141 23.5s14.4 16.4 27.1 19.6c12.7 3.3 22.3.5 34.8.5s22 2.7 34.8-.5c12.7-3.3 27.1-19.6 27.1-19.6m-121 48.5c16.3-9.4 41.8-10.4 59.1-10.4 17.3 0 42.8 1 59.1 10.4" class="a"/><path d="M6186.5 4270.1c-.1.4-.1.5.2-.5 32.7-100.3 21.2-224.2-21.5-289-59.8-90.8-139.4-112.1-211-112.1s-151.2 21.3-211 112.1c-42.7 64.8-54.1 188.7-21.5 289 .3 1 .3.9.2.5m84.7 186c5.3 32.3 16.9 60 38.2 80.7-2.3 60.8 33.8 83.4 109.5 83.4s111.8-22.7 109.5-83.4c21.3-20.7 32.9-48.4 38.2-80.7" class="a"/><path d="M5892.4 4472.4c17.9-25 37.2-40.7 61.9-21.8 24.7-18.9 44-3.2 61.9 21.8m-107.4-245.2c-34.7-43.5-79.6-31-128.5 2.7m-11.9 301c3.9 73 2.8 140.8-9.9 196.1m60.8 127.1c-93 18.8-113-48.3-203.5-56.4m96.5-563.9c-14-21-34.1-29.1-52.4-24.2s-42.9 30.8-28.8 82.3c10.4 37.9 18.3 80.7 36 103.1 14.9 18.8 43.7 38.7 69 4.7m-23.8-111.9c-12.8-35.1-31.2-50.8-64-57.5" class="a"/><path d="M5954.3 3970.2c-66.3-1-129 7.7-185.9 31.6-39.2 35.4-47.1 102-44.8 156.5s18.3 75.3-1.7 111.2c-29.2 52.7 11.5 78 14.4 133.1 4.1 79.9 17.7 158.7 129.2 196-13.1 75.6 21.5 156.1 64.3 237.5" class="a"/><path d="M5864.7 4228.1c-8.4-.2-17.3 1.1-26.5 3.4-1.1 2.3-1.8 4.8-1.8 7.5 0 9.6 7.9 17.4 17.7 17.4 9.8 0 17.7-7.8 17.7-17.4 0-3.7-1.2-7.2-3.2-10-1.2-.3-2.5-.6-3.9-.9zm179.2 0c-1.4.3-2.7.6-4 .9-2 2.8-3.2 6.3-3.2 10 0 9.6 7.9 17.4 17.7 17.4 9.8 0 17.7-7.8 17.7-17.4 0-2.7-.7-5.2-1.8-7.5-9.2-2.3-18-3.5-26.4-3.4zm-367.1 12.4c-20.7 45.7-24 89.8 7.5 130.5m549.6-130.5c20.7 45.7 24 89.8-7.5 130.5m-307.7-1.1c0 14.2 67.1 14.2 67.1 0m154.4 287.9c56.3 47.2 180.4 94.1 248.4 116.8 124.6 41.5 178.8 157.3 178.8 157.3H5341.1s54.2-115.8 178.8-157.3c68-22.7 192.2-69.6 248.4-116.8" class="a"/><path d="M5835.6 3313.8s-35-12-72.1-77.3c-17.3-30.5-18.3-137.2-29.4-220.7-51-153-82.3-242.6 2.3-341.1 63.6-82.7 135.7-126.3 218.2-122.1" class="b"/><path d="M5717.1 2973.2s-30.6-14.8-41.5 2.2c-19.5 30.5-1.2 84.8 9.9 110.9 11.1 26.2 18.3 49.4 35 55.1 17.9 6.1 25.2-3.9 25.2-3.9m209-42c-19.4-1.8-18.2-19.1-40.5-19.1" class="b"/><path d="M5923 3094.7c-18 4.4-32.5-5.8-32.5-27.5 0-15.8 15.6-39.9 15.6-39.9l25.5-108.5s-6-29.1-34-41.3l-88.9-13.3s-39.9 13.1-33.1 55.3" class="b"/><path d="M5791.3 2949.4c21-21 46-33.8 74.6-39 14.6 9.9 28.2 19.2 40.5 27.5-1 21.5-12.5 40-34.1 55.8m-138.1 22.1c-8.4-63.8-5.7-125.7 18.2-175.1-17.9-53.3-8.8-109.6 20.6-168.3 60 14.8 120.5 22.2 181.7 20.7m0 488.8c-29.2-5.1-56.4-3-81.7 6.1-7.3 1.9-11.6 2.8-18.1-2.3m36.6 2.3c18.4 16.8 38.8 26.9 63.2 24.5" class="b"/><path d="M5954.7 3158.7l-20.6-7.3c-27.5 7.6-48.4 19.4-61.1 36.7m-116.8 25.6c-.1 116.5.4 195.9-11.8 284.2m344.2-273.7c-4.9 100.1-30.4 153.5-133.9 153.5s-129-53.4-133.9-153.5m174.4-147.8c-22.2 0-21.1 17.3-40.5 19.1m82.5-101.8c-21.6-15.8-33.1-34.4-34.1-55.8 12.3-8.4 25.9-17.6 40.5-27.5 28.6 5.2 53.5 18.1 74.6 39M6017.9 3188c-18.4 16.8-38.8 26.9-63.2 24.5m0-53.8l20.6-7.3c27.5 7.6 48.4 19.4 61.1 36.7m-81.7 49c-26.9.3-49.2 9.3-67 26.8m67-26.8c26.9.3 49.2 9.3 67 26.8m131.5-50.2c.1 116.5-.4 195.9 11.8 284.2" class="b"/><path d="M5986.4 3094.7c18 4.4 32.5-5.8 32.5-27.5 0-15.8-15.6-39.9-15.6-39.9l-25.5-108.5s6-29.1 34-41.3l88.9-13.3s39.9 13.1 33.1 55.3" class="b"/><path d="M6073.8 3313.8s35-12 72.1-77.3c17.3-30.5 18.3-137.2 29.4-220.7 51-153 82.3-242.6-2.3-341.1-63.6-82.7-135.7-126.3-218.2-122.1" class="b"/><path d="M6175.3 3015.8c8.4-63.8 5.7-125.7-18.2-175.1 17.9-53.3 8.8-109.6-20.6-168.3-60 14.8-120.5 22.2-181.7 20.7m237.5 280.1s30.6-14.8 41.5 2.2c19.5 30.5 1.2 84.8-9.9 110.9s-18.3 49.4-35 55.1c-17.9 6.1-25.2-3.9-25.2-3.9m49.7-137.3c-24.6 5.8-39.2 23.4-43.1 60.2m-215.6 10.6l-35.9-24.5m35.9 24.5l36-24.5m-125.9-135.9c-10.1 1.9-19.7 4.8-28.8 8.6-1.7 3.1-2.7 6.6-2.7 10.3 0 11.8 9.6 21.4 21.4 21.4 11.8 0 21.4-9.6 21.4-21.4.1-8.2-4.6-15.3-11.3-18.9zm168.5 18.9c0 11.8 9.6 21.4 21.4 21.4 11.8 0 21.4-9.6 21.4-21.4 0-3.7-1-7.3-2.7-10.3-9.1-3.8-18.7-6.7-28.8-8.6-6.7 3.6-11.3 10.7-11.3 18.9zm-78.6 252.4c29.2-5.1 56.4-3 81.7 6.1 7.3 1.9 11.6 2.8 18.1-2.3m-47.1-151.5c24.5 13.9 34.6 28.2 41.6 62.5m-353-96.5c24.6 5.8 39.2 23.4 43.1 60.2m162.9-26.2c-24.5 13.9-34.6 28.2-41.6 62.5M5755 3391.5c-32.3 32.5-123.2 77.3-172.4 107.1-49.2 29.8-96.8 88.7-199.2 99.4-49.8 5.2-96.7 35.2-124.8 93.4h1387.9l3.5-1.7c-28.2-57.1-74.6-86.6-124-91.7-102.4-10.7-150-69.6-199.2-99.4-49.2-29.8-140.1-74.7-172.4-107.1M4251.5 616.7c-13.5 1-3.2-4.1-20.6-21.5-16.9-16.9-41.2-22.7-49.2-14.7m1.7 21.9c-23.5-12.1-36.6-27.1 5.9-58.1m-151.5-137.1c-.7-28.5 14.3-32.9 50.1-48.1 46.5 12.7 39.1 36.3 121.6 27.9m-115.3 62.3s42.9-20.2 69-10.9c26.1 9.3 25.9 19.8 25.9 19.8m-93.2 15.5c11.6 15.8 42.4 16.3 86.7 5.9" class="b"/><path d="M4251.5 185.7c-71.3-2.6-137.7-.3-193.8 12.6-28.2 32.7-38.9 75.3-35.3 126.2-24.7 11.5-28.2 43.7-17.6 89.9m246.7 246.9c-4.9-13.4-13.3-16.6-22.7-16.8-35.7 6.8-61.1 18.5-82.9 37 8.9 10.6 21.4 16.7 47.6 17.7 15.7-7.4 35.1-9 58.1-5m-252.4-236.5c11 105.2 41.7 195.5 112.7 222.1l13.5-38.7c34.4-14 77.8-21.2 126.2-24.4m-56.2-185.9l29.4 25.2-10.9 42.1" class="b"/><path d="M4002.4 402.7l-26.3-32c-24.1 2.8-18.2 24.4-5 35.3 8.2 6.9 1.7 17.4 1.7 17.4-16.8 44.2-.9 82.1 25.7 117.9m25.6 122.3s-15.6 273.1 27.3 385.5" class="b"/><path d="M4022.2 834.4S3748.8 944.7 3722.1 977c-57.8 70-178 7.6-247.4 125h1553.8c-69.4-117.5-189.5-55.1-247.4-125-26.7-32.3-300.1-142.6-300.1-142.6" class="b"/><path d="M4251.5 28.5c-238.4 0-272.3 198.6-265.3 291.4 2.1 28.3 18.9 60.2 18.9 101.8s-15.4 38.4-11.9 74.6c18.5 193.5 81.6 373.6 258.3 373.6s239.8-180.1 258.3-373.6c3.5-36.3-11.9-32.9-11.9-74.6s16.7-73.5 18.9-101.8c7.1-92.8-26.9-291.4-265.3-291.4z" class="b"/><path d="M4251.5 616.7c13.5 1 3.2-4.1 20.6-21.5 17.6-17.6 42.1-25.7 42.1-14.7m5.5 21.9c23.5-12.1 36.6-27.1-5.9-58.1m151.5-137.1c.7-28.5-14.3-32.9-50.1-48.1-46.5 12.7-39.1 36.3-121.6 27.9m115.3 62.3s-42.9-20.2-69-10.9c-26.1 9.3-25.9 19.8-25.9 19.8m93.2 15.5c-11.6 15.8-42.4 16.3-86.7 5.9" class="b"/><path d="M4251.5 185.7c71.3-2.6 137.7-.3 193.8 12.6 28.2 32.7 38.9 75.3 35.3 126.2 24.7 11.5 28.2 43.7 17.6 89.9m-246.7 246.9c4.9-13.4 13.3-16.6 22.7-16.8 35.7 6.8 61.1 18.5 82.9 37-8.9 10.6-21.4 16.7-47.6 17.7-15.7-7.4-35.1-9-58.1-5m57.9 24.7c-20.6 9.4-21.4 9.5-57.8 9.5s-37.2-.1-57.8-9.5m310.2-261.2c-11 105.2-41.7 195.5-112.7 222.1l-13.5-38.7c-34.4-14-77.8-21.2-126.2-24.4m56.2-185.9l-29.4 25.2 10.9 42.1m-10.1 57.8s-8.7 11-27.6 11-27.6-11-27.6-11" class="b"/><path d="M4500.7 402.7l26.3-32c24.1 2.8 18.2 24.4 5 35.3-8.2 6.9-1.7 17.4-1.7 17.4 16.8 44.2.9 82.1-25.7 117.9m-25.7 122.3s15.6 273.1-27.3 385.5m-325.7-610.5c-1.4 2.7-2.2 5.8-2.2 9 0 10.7 8.7 19.4 19.4 19.4s19.4-8.7 19.4-19.4c0-3.8-1.1-7.4-3-10.4-10.4-2.4-22.6-1.1-33.6 1.4zm217.9-1.4c-1.9 3-3 6.6-3 10.4 0 10.7 8.7 19.4 19.4 19.4s19.4-8.7 19.4-19.4c0-3.3-.8-6.3-2.2-9-11.2-2.5-23.4-3.8-33.6-1.4zm-190.9 407.9s18.5 151.3 43.9 201.2m153.4-201.2s-18.5 151.3-43.9 201.2" class="b"/><path d="M4218.6 3223.8s-20.1.7-24.5-13.4c-7.1-22.9 2-38.3 14.2-50.6m17.4-48.1l.8-52.1c-13.3-9.2-22.4-21.3-25.3-37.9-30.5 6.6-85.5-35.3-101.5-35.9-37.3-1.5-47.8 44.6-47.8 44.6" class="a"/><path d="M4104.1 3058.7c18.7-14.5 42.1-20.4 68.7-20.5 17.4 7.9 27.6 21.2 33.2 37.9-12.9 22.9-30.5 41.6-60.8 49" class="a"/><circle cx="4153.8" cy="3053.2" r="19" class="a"/><path d="M4136.7 3362.8c-108.7-108.7-49.3-172.9-109.3-285.1l19.8-105.9c-11.9-50 6.8-90.7 49-124 48.5 39.3 99.8 63.6 155.4 64.8" class="a"/><path d="M4017.7 2992.1s-48.6-25.8-68.3-6c-16.7 16.7-6 51.2.3 74.1 6.3 22.9 46.1 90.3 61.1 96.6 15 6.3 42.7-7.6 42.7-7.6" class="a"/><path d="M3953.2 3005.8c15.1-3.6 30.7 2.9 46.6 17.4-.7 21.3 8.8 39.4 27.7 54.5 0-117.7-64-212.5-35.6-326.3 49.9-90.1 116.6-164.5 259.1-168.3m-183.5 659.4s-10 146.4-6.1 189.9m52.9-49.8s48.6 118.1 80.6 150.1" class="a"/><path d="M4061.6 3353.4s-139.2 59.2-179.5 86.9c-40.4 27.7-143 31.6-178.6 81-32.6 45.3-57.7 139.5-57.7 139.5h1211.4s-25.1-94.2-57.7-139.5c-35.6-49.4-138.1-53.2-178.6-81-40.3-27.7-179.5-86.9-179.5-86.9M4051.9 3065c-20.1 53.6-5.3 95.7 58.5 121.7" class="a"/><path d="M4397.4 3229.4c-15 153.5-64 212.5-145.9 212.5s-130.9-59.1-145.9-212.5m189.9-25.3c-22.1 4.7-29.1 23.4-44 21.3-14.9 2.1-21.9-16.6-44-21.3" class="a"/><path d="M4284.5 3223.8s20.1.7 24.5-13.4c7.1-22.9-2-38.3-14.2-50.6m61.6 114.6s-5.6 26-24.5 19.3c-46.6-16.6-53 3.6-80.4 3.6s-33.7-20.2-80.4-3.6c-18.8 6.7-24.5-19.3-24.5-19.3" class="a"/><path d="M4323.2 3296.5c-32.8 32.8-71.6 27.7-71.6 27.7s-38.8 5.1-71.6-27.7m128.2 57.7c-19-10.3-94.3-10.3-113.2 0m82.3-242.5l-.8-52.1c13.3-9.2 22.4-21.3 25.3-37.9 30.5 6.6 85.5-35.3 101.5-35.9 37.3-1.5 47.8 44.6 47.8 44.6" class="a"/><path d="M4399 3058.7c-18.7-14.5-42.1-20.4-68.7-20.5-17.4 7.9-27.6 21.2-33.2 37.9 12.9 22.9 30.5 41.6 60.8 49" class="a"/><circle cx="4349.2" cy="3053.2" r="19" class="a"/><path d="M4366.3 3362.8c108.7-108.7 49.3-172.9 109.3-285.1l-19.8-105.9c11.9-50-6.8-90.7-49-124-48.5 39.3-99.8 63.6-155.4 64.8" class="a"/><path d="M4485.4 2992.1s48.6-25.8 68.3-6c16.7 16.7 6 51.2-.3 74.1-6.3 22.9-46.1 90.3-61.1 96.6-15 6.3-42.7-7.6-42.7-7.6" class="a"/><path d="M4549.9 3005.8c-15.1-3.6-30.7 2.9-46.6 17.4.7 21.3-8.8 39.4-27.7 54.5 0-117.7 64-212.5 35.6-326.3-49.9-90.1-116.6-164.5-259.1-168.3m183.5 659.4s10 146.4 6.1 189.9m-53-49.8s-48.6 118.1-80.6 150.1m143.1-467.7c20.1 53.6 5.3 95.7-58.5 121.7m-170.1-1.3c0 16.5 52.9 16.5 52.9 0m-218.8-403.2c30.1-86.7 42.4-75.1 192.5-120.1m182.4 117.5c-39.9-82.7-78.6-95.2-182.4-117.5m82.7 631.6c-13.9-14.3-33.5-23.6-56.9-29.6-8.2 11.9-38.6 11.9-46.9 0-23.4 5.9-43 15.2-56.9 29.6m-82.9 1006.1l16.5-19.5 58.3-4.3c19.1 0 31.5 9.7 38.5 27.1-20.8 55.9-78.6 98.3-138.5 39.1m187.9 191.9c-29.6.9-59.4-13.5-89.3-24.8 35.9-2.6 73.8-7.1 89.3 8.1m0-447.8l-162.7-39.9c-39.2 40.2-64.5 82.7-46.2 132.7l-21.9 65.3" class="a"/><path d="M4143.2 4633.6c-61-55.7-111.5-111.9-129.9-173.1l2.5-163.7c31.3-57-30.5-127-30.5-227.2 63.8-145.5 156.5-198.7 265.8-198.7" class="a"/><path d="M4040 4265l63.8-57.6 130.8 47.8c-.2 44.9-19.8 120.5-19.8 120.5s-27.6-1.9-31.5 38.1l67.8 31.4c-47.2.5-88 10-116.5 36.4v38.3c-68.5-53.6-104.5-130.5-118.7-223.1-16.1-13.2-23-29.3-19-48.9-12.9-18.3-27.3-31.8-44.6-36" class="a"/><path d="M4020.2 4227.7s-30.8-39.2-62.2-21.3c-21.5 12.3-33.4 99.2 28.9 163.7-.2 14.4 5.8 26 27.3 30.9m31.8 123.1c-1.4 77.6-9.2 150.6-26.1 217.4" class="a"/><path d="M4041 4616c-166.2 145.8-343.4 116.9-406.5 237-38.1 9.1-68.2 49.4-95 76.6h1424.2c-26.9-27.2-57.9-67.6-96-76.6-63.1-120.1-240.3-91.2-406.5-237m-373.7-548.9c-11.3 36-8.2 72.1 6.6 108.3m319.6 124.4l-16.5-19.5-58.3-4.3c-19.1 0-31.5 9.7-38.5 27.1 20.8 55.9 78.6 98.3 138.5 39.1M4251 4534.1c29.6.9 59.4-13.5 89.3-24.8-35.9-2.6-73.8-7.1-89.3 8.1m0-447.8l162.7-39.9c39.2 40.2 64.5 82.7 46.2 132.7l21.9 65.3" class="a"/><path d="M4367.2 4590.2c-2.9 71.5-37.7 103.8-116.1 103.8-78.5 0-113.3-32.3-116.1-103.8" class="a"/><path d="M4358.9 4633.6c61-55.7 111.5-111.9 129.9-173.1l-2.5-163.7c-31.3-57 30.5-127 30.5-227.2-63.8-145.5-156.5-198.7-265.8-198.7" class="a"/><path d="M4462.1 4265l-63.8-57.6-130.8 47.8c.2 44.9 19.8 120.5 19.8 120.5s27.6-1.9 31.5 38.1l-67.8 31.4c47.2.5 88 10 116.5 36.4v38.3c68.5-53.6 104.5-130.5 118.7-223.1 16.1-13.2 23-29.3 19-48.9 12.9-18.3 27.3-31.8 44.6-36" class="a"/><path d="M4481.8 4227.7s30.8-39.2 62.2-21.3c21.5 12.3 33.4 99.2-28.9 163.7.2 14.4-5.8 26-27.3 30.9m-31.8 123.1c1.4 77.6 9.2 150.6 26.1 217.4m-67.5-674.4c11.3 36 8.2 72.1-6.6 108.3m-117.9 355.5c3 16-.6 23.7-18.1 35.5l9.1 43.2c33.8-4.1 50.1-18.4 59.6-44.2l-.3-55.9-68.4-26.6-20.9 10.3-20.9-10.3-68.4 26.6-.3 55.9c9.6 25.8 25.8 40.2 59.6 44.2l9.1-43.2c-17.5-11.8-21.1-19.5-18.1-35.5m-62.2-225.7c10.9 0 19.8-8.8 19.8-19.5 0-3.5-.9-6.8-2.6-9.6-1.3-.1-2.6-.2-4-.2l-31.5 2.3c-1 2.3-1.5 4.8-1.5 7.4 0 10.9 8.9 19.6 19.8 19.6zM4335 4276c-1.6 2.8-2.6 6.1-2.6 9.6 0 10.8 8.9 19.5 19.8 19.5s19.8-8.8 19.8-19.5c0-2.6-.5-5.1-1.5-7.4l-31.5-2.3c-1.4 0-2.7 0-4 .1z" class="a"/><path d="M4136.8 5819.8c10 65.5 41.4 108 114.7 105.2M4025 5484.6c4.7-36 12.3-65.2 22.4-73.4 59.4 33.2 128.1 47.4 204.2 46.8" class="b"/><path d="M4029.6 5671.4c-1.1-5.5-2.4-11.2-4-17-8.6-31.4-8.4-110-.6-169.8m132.7 397.3s-89.9-47.2-110.3-116.3c-10.9-36.9-11.6-64.1-17.8-94.2" class="b"/><path d="M4007.1 5535.9s-26.9-13.3-31.2 18c-1.5 11.1 5.1 86.9 17 107.1s40.4 32.4 40.4 32.4m-41.1-132.4c16 6.2 20.4 21.6 27.5 46.3m197.4 119.6s-29.1 6.4-26.4-26.6c2-24.7 24.2-29.8 24.2-29.8m-21-81.8s-7.5-23.4-36.6-27.1c-29.1-3.7-67.3 19.7-67.3 19.7m161.5 190.7l-17.2-10.1c-18.3 1.7-37.1 9.7-56 20.2 6 6.7 13.3 9.9 22.1 9 16.9-9.2 34-6.8 51.2 2.1m-.1 48.4c-16.4-.2-30.1 4.9-40.9 15.4m-131.3-36.8c7.1 79.9 5.7 154.3-21.2 212.7" class="b"/><path d="M4081.1 5938.2c-136.1 92.6-176 67.6-289.6 132.9-43.3 24.9-67.2 31.1-78.7 36.7-35.9 17.5-59.6 13.7-115.3 86.1h1308c-55.7-72.3-79.4-68.6-115.3-86.1-11.5-5.6-35.3-11.7-78.7-36.7-113.7-65.4-153.5-40.4-289.6-132.9m-402.2-330.8c2.5 71.6 33.6 119.9 87.4 149.8m376.9-165.8s41.7-155.7 17-270.2c-28.6-145.8-227.3-158.1-249.4-158.1s-220.9 12.2-249.4 158.1c-24.8 114.5 17 270.2 17 270.2m347.1 228.4c-10 65.5-41.4 108-114.7 105.2" class="b"/><path d="M4345.4 5881.9s89.9-47.2 110.3-116.3c13-43.7 11.6-73.7 21.8-111.2 13.7-50.3 5.1-221.4-21.8-243.2-59.4 33.2-128.1 47.4-204.2 46.8" class="b"/><path d="M4495.9 5535.9s26.9-13.3 31.2 18c1.5 11.1-5.1 86.9-17 107.1s-40.4 32.4-40.4 32.4m-177.2 17c-21-10.1-19.6 18.1-40.9 18.1s-19.9-28.2-40.9-18.1" class="b"/><path d="M4286 5726.9s29.1 6.4 26.4-26.6c-2-24.7-24.2-29.8-24.2-29.8m-36.7 101.5l17.2-10.1c18.3 1.7 37.1 9.7 56 20.2-6 6.7-13.3 9.9-22.1 9-16.9-9.2-34-6.8-51.2 2.1m44.3 13.9c-8.7 13.3-21.4 16.5-44.2 16.5s-35.4-3.2-44.2-16.5m44.2 34.5c16.4-.2 30.1 4.9 40.9 15.4m131.4-36.8c-7.1 79.9-5.7 154.3 21.2 212.7m38.3-425.5c-2.5 71.6-33.6 119.9-87.4 149.8m-202-168.5s-7.5-23.4-36.6-27.1c-29.1-3.7-67.3 19.7-67.3 19.7" class="b"/><path d="M4223.5 5602l1.1-52.6c-36.4-33-83.8-63.5-114.7-55.8-31 7.7-48.9 23.9-51.2 51.5m144.9 26.1c-15.6-43.6-58.9-47.2-102.9-19.7m178.8 50.5l-1.1-52.6c36.4-33 83.8-63.5 114.7-55.8 31 7.7 48.9 23.9 51.2 51.5m-144.8 26.1c15.6-43.6 58.9-47.2 102.9-19.7m108.4 9.5c-16 6.2-20.4 21.6-27.5 46.3" class="b"/><path d="M4165.4 5563.3c-2.5-.7-5.2-1.3-8.1-1.7-3.5-.4-7.1-.5-10.8-.2-5.4 2.9-9.1 8.5-9.1 15 0 9.5 7.7 17.1 17.1 17.1s17.1-7.7 17.1-17.1c0-5.3-2.5-9.9-6.2-13.1zm143.8 25.4s7.5-23.4 36.6-27.1c29.1-3.7 67.3 19.7 67.3 19.7" class="b"/><path d="M4309.2 5588.7s7.5-23.4 36.6-27.1c29.1-3.7 67.3 19.7 67.3 19.7" class="b"/><path d="M4337.7 5563.3c2.5-.7 5.2-1.3 8.1-1.7 3.5-.4 7.1-.5 10.8-.2 5.4 2.9 9.1 8.5 9.1 15 0 9.5-7.7 17.1-17.1 17.1s-17.1-7.7-17.1-17.1c0-5.3 2.5-9.9 6.2-13.1z" class="b"/><path d="M4132.3 7172.2c-70.3-35.3-106.4-144.7-106.4-144.7s-6.1-110.9-6.1-163.8c2-88-11.4-133.2 31.7-163.8l20.8-112.5c56.6-30.1 118-45.2 180.8-47.1" class="a"/><path d="M4253 7251.9c-76.8 1.8-128-56.1-128-121.2s5.9-126.8 5.9-126.8l107.7-67.8m14.4 6.4c-18.5 0-29.1-35.3-49.3-5" class="a"/><path d="M4214.3 6950c-14.3 3.2-23.9-3-30.8-12.6-1-28.8 5.2-50.6 20.3-64m11.1-41.7c-.7-21.8 13.5-66.2 13.5-66.2l-28.2-33.4-109.2-16.8s-44.6 26.1-44.6 73.8" class="a"/><path d="M4199.6 6804.2c-12-15.2-27.4-23.8-45.2-27.5-29.4 6.8-54.1 16.9-71.6 32m-67.5 26.9s-31.1-26.9-49.6-9.3c-18.5 17.7-10.9 48.5-7.9 70.4 2.9 21.9 23.5 78 33.5 87.5s34.5-.6 34.5-.6m-58.6-141.3c17-3.4 33.3 7.4 48.1 47.1m208.9 169.6c10.3 19.5 8.2 40.8 5.7 64.4h-63.1c-9.8-28.3-12.5-56.9-8.8-85.8m-115.4 29.7l-13.2 324m8.3-180.1s-39.4 64.8-145.1 103.5c-53 19.4-285.2 123.4-334.5 177.3m815.7-319.8c70.3-35.3 106.4-144.7 106.4-144.7s6.1-110.9 6.1-163.8c-2-88 11.4-133.2-31.7-163.8l-20.8-112.5c-56.6-30.1-118-45.2-180.8-47.1" class="a"/><path d="M4253 7251.9c76.8 1.8 128-56.1 128-121.2s-5.9-126.8-5.9-126.8l-107.7-67.8m242.5-112.3s31.5-119.7-33.6-265.7c-51.6-115.8-196.4-136.5-223.3-136.5s-171.7 20.7-223.3 136.5c-65.1 146-33.6 265.7-33.6 265.7m256.9 118.7c18.5 0 29.1-35.3 49.3-5" class="a"/><path d="M4291.8 6950c14.3 3.2 23.9-3 30.8-12.6 1-28.8-5.2-50.6-20.3-64m-11.1-41.7c.7-21.8-13.5-66.2-13.5-66.2l28.2-33.4 109.2-16.8s44.6 26.1 44.6 73.8" class="a"/><path d="M4306.5 6804.2c12-15.2 27.4-23.8 45.2-27.5 29.4 6.8 54.1 16.9 71.6 32m67.5 26.9s31.1-26.9 49.6-9.3c18.5 17.7 10.9 48.5 7.9 70.4-2.9 21.9-23.5 78-33.5 87.5s-34.5-.6-34.5-.6m58.6-141.3c-17-3.4-33.3 7.4-48.1 47.1M4253 7032.5s15.7-12 39.8-6.9c24.1 5 36.4 21.7 55.3 12-17.4-19.9-39.2-35.5-65.7-46.6-9.2 9.8-19 15.5-29.4 16.3-10.4-.7-20.1-6.4-29.4-16.3-26.5 11-48.3 26.7-65.7 46.6 19 9.7 31.3-6.9 55.3-12 24.1-5.1 39.8 6.9 39.8 6.9zm52.9 17.4c0 14.7-105.7 14.7-105.7 0" class="a"/><path d="M4281.9 7059c-10.3 19.5-8.2 40.8-5.7 64.4h63.1c9.8-28.3 12.5-56.9 8.8-85.8m115.4 29.7l13.1 324m468.3 100.7c-49.2-53.9-278.5-157.9-331.5-177.3-105.7-38.7-145.1-103.5-145.1-103.5m-116.6-434.5c-3.5.7-6.9 1.7-10.2 2.8-2.6 3.2-4.2 7.3-4.2 11.8 0 10.2 8.3 18.5 18.5 18.5s18.5-8.3 18.5-18.5c0-3.3-.9-6.4-2.4-9.1-6.5-2.1-13.2-3.9-20.2-5.5zm-197.3 0c-7 1.6-13.8 3.5-20.2 5.5-1.5 2.7-2.4 5.8-2.4 9.1 0 10.2 8.3 18.5 18.5 18.5s18.5-8.3 18.5-18.5c0-4.5-1.6-8.6-4.2-11.8-3.3-1.1-6.7-2.1-10.2-2.8zM3558.1 7492h1386.8m-693.4-5394.8c-114.9-8.4-156.9-70.9-180.9-111.1-17.1-28.6-29.1-135.5-29.1-135.5m210 30.5l-31.6-31-17.9 7.4c-6.4-21.2-5.6-39.1 14-48.9l16.6-105.6c-38.3-70.5-92.4-87.9-136.8-68.9m155.7 335.1c-29.3 2.6-55.6-8.2-80.3-26.2-9 2.9-19.2-.4-22.6-8.3m102.9 59.6c-27.3-2.2-49.1 6.6-63.4 30.8m-95.1-108.2c-30.5-25.2-52.8-61.1-61.9-99.6m167.4 21.1c-37.5 13.1-57.3 25.3-61.9 75.9" class="a"/><path d="M4070.6 1986.1s4.1 176.8-77.1 223.1c-81.1 46.2-198.5 60.4-247.4 72.6-90.3 22.5-111.2 116.8-111.2 116.8h1233.2s-20.9-94.2-111.2-116.8c-48.9-12.2-166.2-26.3-247.4-72.6s-77.1-223.1-77.1-223.1" class="a"/><path d="M4251.5 2097.2c114.9-8.4 156.9-70.9 180.9-111.1 17.1-28.6 29.1-135.5 29.1-135.5m-210 30.5l31.6-31 17.9 7.4c6.4-21.2 5.6-39.1-14-48.9l-16.6-105.6c54.1-99.5 139.6-93.4 185-27.9m-203.9 257.5c28.7-5.7 55.6-2.9 80.3 10.5-13.7-19.9-31.8-41.2-54.7-47.1-7.6 9.2-14.8 13.9-25.6 14-10.8-.1-18-4.8-25.6-14-22.9 5.9-41 27.2-54.7 47.1 24.8-13.4 51.7-16.2 80.3-10.5zm0 61.7c27.3-2.2 49.1 6.6 63.4 30.8" class="a"/><path d="M4410.1 1916.9c58.6-48.5 87-136.1 49.7-206.8 21.1-178.2-31.8-272.1-138.1-291.9" class="a"/><path d="M4424.9 1697c-51.9-51.9-122.1-24.4-127.4 34.9 1.4-23.9 30.2-38.4 51.2-38.4 20.9 0 33.2 4.7 55.2 18.3m-54.1 67.2c-23.8-12.1-42.5-27.1-52.4-47.1m-201.6-97.7c.5-20.2.7-39.9 2.1-58.2 7.3-94.9 124-155.5 223.7-157.8 7.7-71-30.6-129.5-110.5-129.5-58.4 0-188.9 24.3-254 139.5-52.8 93.4-65.6 198.4-107 385.1s-104 468.4-104 468.4" class="a"/><path d="M3922.9 2239.9c128.5-143.8 33.3-380.4 33.3-380.4 128.9-46.6 137.3-140.8 139.6-225.2m218-298.6c108.8-12.2 254.2 78.6 215.8 320.6 0 0 87.3 114 51.2 276.6-32.6 147 1.4 212.7 90.6 331.2m-134.3-41c20.4 43.9 35.8 117.8 21 175.4m43.4-151.9c25.9 25.9 63.9 83.8 55.2 151.9m-196.9-688.4c88.9 88.9 76.5 202.4-21.6 356.1m-396.7-215.6c-15.5 18.6-37 19.8-48.1-7.6m-27.4 380.1c-20.4 43.9-35.8 117.8-21 175.4m-43.4-151.9c-25.9 25.9-63.9 83.8-55.2 151.9m615.1-547.9c15.5 18.6 42.4 20.9 56.6-27.1m-159.9-129.6c-3.2-.2-6.4-.4-9.6-.4-5.7 0-12 1.1-18.2 3.2-2.8 3.4-4.5 7.8-4.5 12.5 0 10.9 8.9 19.8 19.8 19.8s19.8-8.9 19.8-19.8c.1-6.2-2.8-11.7-7.3-15.3z" class="a"/><path d="M4092.9 1684.7c49.6-34.3 107.9-6.7 112.7 47.2-1.4-23.9-30.2-38.4-51.2-38.4s-33.2 4.7-55.2 18.3m54 67.2c23.8-12.1 42.5-27.1 52.4-47.1" class="a"/><path d="M4144.8 1693.9c3.2-.2 6.4-.4 9.6-.4 5.7 0 12 1.1 18.2 3.2 2.8 3.4 4.5 7.8 4.5 12.5 0 10.9-8.9 19.8-19.8 19.8s-19.8-8.9-19.8-19.8c0-6.2 2.9-11.7 7.3-15.3zm106.7 275.3c29.3 2.6 55.6-8.2 80.3-26.2 9 2.9 19.2-.4 22.6-8.3m-49.9-96.3c37.5 13.1 57.3 25.3 61.9 75.9m3344.5-1218c-35.3 12.2-70.8 12-106.6 0m279.3-258.8s55.9-159.6-6.2-268.7c-37.7-66.2-107.2-130.7-220.9-130.7s-183.2 64.5-220.9 130.7c-62.1 109.1-3.4 268.7-3.4 268.7m225.7 406.1c-37.4-2.6-61.8-5.1-85.7-21.4-24-16.5-35.1-34.6-45-82m130.7-18.4c-35.4 2.4-63.8 13.1-84.1 33.2m84.1-162.9c-11.8.7-21.6-7-30.8-17.2-8.6 3.5-13.3 8.3-10.7 15.4m-184.2-152.8c-13.7-30.3-28.1-44.9-47.8-36.3s-45.8 80.8-22.1 131.8c14.4 31 36.3 103.1 76.9 90.7" class="a"/><path d="M7389.9 423.4c9.6 25.1 19.6 47.3 38.2 56.6-39.3 17.4-47.2 48.5-21.8 95.1m49.9 110.1c-3.5 97.9-29.3 282-29.3 282m204.8-499.9c-1.2 20.4-1.8 39.1-.5 44.3-26.1 12.5-55.7 56.1-24.7 94.3h30.8m-175.8-168.4c.8-37.5 18.9-55 49.1-62.6 30.2-7.6 125.7 28.3 125.7 28.3s-2.9 33.9-4.7 64m-2.5 83.3c0 17.9 59.2 17.9 59.2 0m-184-330.8c-10 44.8-9.5 86.9 10.3 123.9" class="a"/><path d="M7499.5 450.2l61.4-24.3s35.5 12.5 50.9 32c-19.1 32.2-46.3 52.7-84.7 57m130.8 328.7c37.4-2.6 61.8-5.1 85.7-21.4 24-16.5 35.1-34.6 45-82" class="a"/><path d="M7583.8 180.6c-65.7 7.6-111 22.5-111 22.5l-7.1 149.2s-42.4 41-37.9 166.6c8.5 235.6 111.4 271.6 111.4 271.6m237.4 0s102.9-35.9 111.4-271.6c4.5-125.6-37.9-166.6-37.9-166.6l-7.1-149.2s-81.9-26.8-185.1-26.8c-26.4 0-51.5 1.8-74.1 4.4m74.1 541.1c35.4 2.4 63.8 13.1 84.1 33.2m-84.1-162.9c11.8.7 21.6-7 30.8-17.2 8.6 3.5 13.3 8.3 10.7 15.4" class="a"/><path d="M7883.6 437.5c13.7-30.3 28.1-44.9 47.8-36.3 19.7 8.7 45.8 80.8 22.1 131.8-14.4 31-36.3 103.1-76.9 90.7" class="a"/><path d="M7925.9 423.4c-9.6 25.1-20 47.3-38.5 56.6 39.3 17.4 47.6 48.5 22.2 95.1m-50 110.1c3.5 97.9 29.3 282 29.3 282m-205-501.6c1.2 21.1 1.9 40.7.6 46 26.1 12.5 55.7 56.1 24.7 94.3h-30.8m175.8-168.4c-.8-37.5-18.9-55-49.1-62.6-30.2-7.6-125.7 28.3-125.7 28.3s2.8 32.6 4.6 62.3m127.4-245.8c10 44.8 9.5 86.9-10.3 123.9" class="a"/><path d="M7816.2 450.2l-61.4-24.3s-35.5 12.5-50.9 32c19.1 32.2 46.3 52.7 84.7 57M7556.4 460c11.8 0 21.3-9.5 21.3-21.3 0-2.1-.4-4-.9-5.9-9-4.4-15.9-6.8-15.9-6.8l-25.5 10.1c-.1.9-.3 1.7-.3 2.6 0 11.7 9.6 21.3 21.3 21.3z" class="a"/><path d="M7738.9 432.7c-.6 1.9-.9 3.9-.9 5.9 0 11.8 9.5 21.3 21.3 21.3s21.3-9.5 21.3-21.3c0-.9-.2-1.8-.3-2.6l-25.5-10.1s-6.9 2.4-15.9 6.8zM7428 480c-1.5 53.1 13.2 94.7 61.4 112.3M7887.3 480c1.5 53.1-13.2 94.7-61.4 112.3m-168 79.7c28.2-7.2 63.5 16.6 101.4 11.1l-80.5-36.3c0 12.6-41.8 12.6-41.8 0l-80.5 36.3c37.8 5.5 73.2-18.3 101.4-11.1zm-223.4 167.3c-139.2 37.4-216.1 134.4-328.6 155.5-64.8 12.2-108.6 28.2-151.4 97.7m927.3-253.2c139.2 37.4 216.1 134.4 328.6 155.5 63.2 11.9 107.3 31.9 149.1 97.7m-1404.9.1h1404.9M7437 1706.3c-8.7-72.5-13.5-89.1 21.4-162.8 27-57 61.1-79.4 107.1-97.8 29.1 13.4 59.4 21.3 91.5 21.4m-103.8 569.6c-143.2-34.7-89.5-154.8-121.2-236.2" class="a"/><path d="M7425.1 1737.1s-46.5-20.4-64.5-2.4-1.7 106.4 19.7 136.4 36.9 39.9 66.8 32.6m-9.5-81c-24.2-41.1-26.8-53.8-54.1-70.2m53.5-46.2c-35 69.8-10 117.6 77.9 142.5m107.3-6.9l-34.3-12c-1.1-28.3 5.8-53.4 25.7-57.5-3.3-25.3 7.2-57.1 18.4-85.3 3.3-22.4-19.6-53.9-40.2-53.9l-82.3-14.9c-35.7 0-54.5 21.2-53.7 66.9" class="a"/><path d="M7606.2 1683c-10.2-14.2-23.3-31.1-39.5-36.6-32.7 5.4-58.2 26.7-70.3 57.8 18-15.6 41.5-22.2 68-24 17.8 3.9 31.5 11 40.6 21.7m52 222.3l-53.2-1.7c-9.4 7.6-22.9 9.1-43.5 0 22.6-17.4 47-31.1 74.3-38.9 4.4 6.8 11.1 11.6 22.3 12.6m.1 65.8c-24 0-46.1-4.9-65.2-17.2m65.2 44.6c-17.8-3-34.6-.8-49.7 9.1m-145-27.5c2.2 89.2 1.1 172-7.7 239.7" class="a"/><path d="M7461.9 2119.8c8.2 12-207.6 106.4-250.8 146.3-75.5 67.5-122.4 33.2-156.7 114.4h1205.3c-34.3-81.2-81.2-46.9-156.7-114.4-43.2-39.9-259-134.3-250.8-146.3m-195.2-36c-91.5 0-112.5-45.9-116.8-97.3m-140.6-257.7c-24.1-119.7-3.3-259.4 39.5-317 34.7-46.7 112.2-105.1 218-105.1M7524.4 2153c37.9 57.9 66 117.2 79.5 178.4m273.2-625.1c8.7-72.5 13.5-89.1-21.4-162.8-27-57-61.1-79.4-107.1-97.8-29.1 13.4-59.4 21.3-91.5 21.4m103.8 569.6c143.2-34.7 89.5-154.8 121.2-236.2" class="a"/><path d="M7889 1737.1s46.5-20.4 64.5-2.4 1.7 106.4-19.7 136.4-36.9 39.9-66.8 32.6m63.6-151.2c-27.3 16.4-29.9 29.2-54.1 70.2m.6-116.4c35 69.8 10 117.6-77.9 142.5m-91.7-30.3c-2.7-6.5-6-6.6-13-7.4l-25.7 11.1v15.4l-11.7 8.1-11.7-8.1v-15.4l-25.7-11.1c-7 .8-10.2.9-12.9 7.3" class="a"/><path d="M7691.9 1841.9l34.3-12c1.1-28.3-5.8-53.4-25.7-57.5 3.3-25.3-7.2-57.1-18.4-85.3-3.3-22.4 19.6-53.9 40.2-53.9l82.3-14.9c35.7 0 54.5 21.2 53.7 66.9" class="a"/><path d="M7707.9 1683c10.2-14.2 23.3-31.1 39.5-36.6 32.7 5.4 58.2 26.7 70.3 57.8-18-15.6-41.5-22.2-68-24-17.8 3.9-31.5 11-40.6 21.7m-29.2 81.7c-6.4-8.2-39.3-8.2-45.7 0m22.8 140.6l53.2-1.7c9.4 7.6 22.9 9.1 43.5 0-22.6-17.4-47-31.1-74.3-38.9-4.4 6.8-11.1 11.6-22.3 12.6m-.1 65.8c24 0 46.1-4.9 65.2-17.2m-65.2 44.6c17.8-3 34.6-.8 49.7 9.1m145.1-27.5c-2.2 89.2-1.1 172 7.7 239.7M7657 2083.8c91.5 0 112.5-45.9 116.8-97.3m140.7-257.7c24.1-119.7 3.3-259.4-39.5-317-34.7-46.7-112.2-105.1-218-105.1m132.7 846.3c-37.9 57.9-66 117.2-79.5 178.4" class="a"/><path d="M7742.6 1681.9c-2.7 3-4.4 7-4.4 11.3 0 9.5 7.7 17.2 17.2 17.2s17.2-7.7 17.2-17.2c0-4.2-1.5-7.9-4-10.9-6.1-1.1-12.4-1.8-18.8-2.2-2.6.5-4.9 1.2-7.2 1.8zm-183.9 28.5c9.5 0 17.2-7.7 17.2-17.2 0-4.4-1.7-8.3-4.4-11.3-2.3-.7-4.6-1.3-7.1-1.8-6.5.4-12.8 1.2-18.8 2.2-2.5 3-4 6.7-4 10.9-.1 9.5 7.6 17.2 17.1 17.2z" class="a"/><path d="M6977.5 6060.8c32.6-30.6 104.8-40.8 138.9-57.3 27.2-13.2 97.5-76 179.5-115.7 73.6-35.7 130.8-50.2 141.7-52.9 1.3-11 2.7-21.9 4.5-32.5 2.1 8.6 4.5 16.8 7.2 24.9 18.8 55.6 44.3 110.1 95.7 142 28.7 17.9 65.5 28.7 113.6 28.7 48.2 0 84.9-10.9 113.6-28.7 51.4-31.9 76.9-86.4 95.5-142 2.7-8.1 5.1-16.5 7.3-25.1 1.7 10.6 3.2 21.5 4.6 32.6 11.2 2.7 68.2 17.4 141.5 52.9 82 39.7 152.3 102.5 179.4 115.7 34.2 16.5 106.3 26.8 139 57.3" class="b"/><path d="M7889.9 5689.6c0 .7 0 1.5-.1 2.2-1.9 38.4-6.2 76.2-14.8 110.5-2.2 8.6-4.6 16.9-7.3 25.1-18.7 55.6-44.2 110.1-95.5 142l-1.3-1.9c5.8-18.5 9.7-44.5 12.1-70.9l1.6.1c50.9-33.6 44.7-128.7 44.7-128.7 38.9-6.4 54.4-44.5 60.6-78.4z" class="c"/><path d="M7533.9 5896.2c-1.9-22.4-2.9-45.2-3.1-64.2 40.2-20.4 82.8-33.8 127.7-41.1 44.9 7.3 87.4 20.7 127.6 41.1-.1 19.1-1 42-3.1 64.5-2.4 26.4-6.3 52.4-12.1 70.9l1.3 1.9c-28.7 17.9-65.5 28.7-113.6 28.7-48.2 0-84.9-10.9-113.6-28.7l1.3-1.9c-6.1-18.6-10-44.7-12.4-71.2zm208.8 17.9c7.7-23.6 13-48.1 9.5-70.8-28.5-1.4-50.8-14.6-72.7-29.1l-21.1 10.3-21.1-10.3c-21.9 14.4-44.2 27.7-72.8 29.1-3.4 22.8 1.8 47.3 9.5 70.8 29.8 11.7 43.3 17.4 84.3 17.4 41.3 0 54.8-5.7 84.4-17.4z" class="c"/><path d="M7752.2 5843.3c3.5 22.8-1.8 47.3-9.5 70.8-29.6 11.7-43.1 17.4-84.2 17.4s-54.6-5.7-84.3-17.4c-7.7-23.6-12.9-48.1-9.5-70.8 3.8 3.9 10.8 5.6 18.5 6.1v.7s6.4 42.1 75.3 42.1c68.8 0 75.3-42.1 75.3-42.1v-.7c7.8-.5 14.7-2.3 18.4-6.1z" class="c"/><path d="M7752.2 5843.3c-3.8 3.8-10.6 5.6-18.4 6.1-16.8 1.3-37.5-3.2-37.5-3.2 0 16.7-75.5 16.7-75.5 0 0 0-20.6 4.3-37.5 3.2-7.8-.5-14.8-2.2-18.5-6.1 28.6-1.4 50.9-14.6 72.8-29.1l21.1 10.3 21.1-10.3c21.6 14.5 44 27.7 72.4 29.1zm123.3-566.8c45.8 69.8 48.6 142.8 29.1 214.1-3.7 13.6-8.2 27.2-13.5 40.7l-3.9-60.3-22.2-8.6c-7.9-77.4-31-139.4-71.6-183.9-17 25.7-39 47.5-68.8 62.7h-132c-29.8-15.2-51.8-37-68.9-62.7-40.5 44.5-63.6 106.5-71.5 183.9l-22.2 8.6-3.9 60.3c-5.3-13.5-9.8-27.1-13.6-40.8-19.6-71.2-16.6-144.2 29.2-214 45.8-70 104.2-105.2 216.9-104.9 112.5-.3 171.1 34.8 216.9 104.9z" class="c"/><path d="M7733.8 5849.4v.7s-6.5 42.1-75.3 42.1c-68.9 0-75.3-42.1-75.3-42.1v-.7c16.9 1.1 37.5-3.2 37.5-3.2 0 16.7 75.5 16.7 75.5 0 .1 0 20.8 4.4 37.6 3.2zm-187.6 118.1l-1.3 1.9c-51.4-31.9-76.9-86.4-95.7-142-2.7-8.1-5.1-16.4-7.2-24.9v-.1c-8.6-34.3-12.8-72.1-14.8-110.5-.5-8.4-.8-16.8-1-25.2 3 37 15.4 93.5 63.5 101.3 0 0-6.2 94.2 44.2 128.3 2.4 26.4 6.3 52.5 12.3 71.2z" class="c"/><path d="M7658.5 5764.7s-20.6.6-25.5-11.3l-34.4.6c-13.4-31.6-7.2-54.9 17.7-70m-55.6-93.6c2.3-.2 4.7-.3 7.1-.3.7-.1 1.3-.1 1.9-.1 17.3 8.4 30.6 18.4 34.9 31.9m-89.8-15.4c6.5-7.2 15.4-11.1 25.6-13.4 4.2-1 8.6-1.6 13.2-2.1" class="a"/><path d="M7457 5590.5c7.8-16.4 30.3-40.2 67.7-44.4 21.4 22 88.8 35.8 88.8 35.8l17.7 37.6s-15.8 33-15.8 60.3m-189.1-13.2c3 37 15.4 93.5 63.5 101.3 0 0-6.2 94.2 44.2 128.3.2.1.5.3.7.5m-109.1-262.1s-.9 13.5.7 31.9M7583 5644c-40.8 26.7-68.4 27-74.8-14.8" class="a"/><path d="M7658.5 5790.9c-44.9 7.3-87.5 20.7-127.7 41.1.2 19 1.1 41.8 3.1 64.2 2.4 26.5 6.3 52.6 12.2 71.3m-104.1-165c-1.7 10.6-3.2 21.5-4.5 32.5-5.4 43.5-7.4 89.7-4.9 139.8m992.1 210.7c-24.4-62.5-60.6-101.8-85.1-124.7-32.7-30.6-104.8-40.8-139-57.3-27.1-13.2-97.4-76-179.4-115.7-73.3-35.5-130.3-50.1-141.5-52.9-1.4-.3-2.1-.5-2.1-.5" class="a"/><path d="M7439.5 5834.5s-.7.1-1.9.5c-10.9 2.6-68.1 17.2-141.7 52.9-82 39.7-152.3 102.5-179.5 115.7-34.1 16.5-106.3 26.8-138.9 57.3-24.5 22.8-63.6 62.1-88 124.7m769-420.9s20.5.6 25.5-11.3l34.4.6c13.3-31.6 7.2-54.9-17.9-70m48.8-93.9c-.7-.1-1.3-.1-1.9-.1-17.4 8.4-30.6 18.4-35 31.9m44-31.5c-2.1-.2-4.2-.2-6.4-.3m52.2 16.4c-6.5-7.2-15.4-11.1-25.6-13.4-4.2-1-8.6-1.6-13.2-2.1m-180.2 258.4c16.9 1.1 37.5-3.2 37.5-3.2 0 16.7 75.5 16.7 75.5 0 0 0 20.7 4.5 37.5 3.2 7.8-.5 14.6-2.3 18.4-6.1-28.5-1.4-50.8-14.6-72.7-29.1l-21.1 10.3-21.1-10.3c-21.9 14.4-44.2 27.7-72.8 29.1 4.1 3.9 11.1 5.6 18.8 6.1z" class="a"/><path d="M7733.8 5850.1s-6.5 42.1-75.3 42.1c-68.9 0-75.3-42.1-75.3-42.1m150.7-206.1c41 26.7 68.5 27 74.9-14.8" class="a"/><path d="M7658.5 5790.9c44.9 7.3 87.4 20.7 127.6 41.1-.1 19.1-1 42-3.1 64.5-2.4 26.4-6.3 52.4-12.1 70.9m104.1-165.1c1.7 10.6 3.2 21.5 4.6 32.6 5.3 43.5 7.3 89.7 4.8 139.8m-24.5-383.8c-7.8-16.4-30.3-40.2-67.7-44.3-21.4 21.9-88.8 35.7-88.8 35.7l-17.7 37.6s15.8 33 15.8 60.3m-161.1-87.1c-1.7 2.7-2.7 5.9-2.7 9.4 0 9.8 7.9 17.7 17.6 17.7s17.6-7.9 17.6-17.7c0-4.8-1.9-9.2-5.1-12.4-2.4.1-4.8.2-7.1.3-2.4.1-4.8.3-7.1.6-4.6.5-8.9 1.1-13.2 2.1z" class="a"/><path d="M7749.3 5590.1c-3.2 3.2-5.1 7.6-5.1 12.4 0 9.8 7.9 17.7 17.6 17.7s17.6-7.9 17.6-17.7c0-3.4-1-6.6-2.7-9.4-4.2-.9-8.6-1.6-13.2-2.1-2.3-.2-4.7-.5-7.1-.6-2.1-.1-4.2-.2-6.4-.3h-.7zm-117.9 141.2c0 6.8 50.5 6.8 50.5 0m70.3 112c3.5 22.8-1.8 47.3-9.5 70.8-29.6 11.7-43.1 17.4-84.2 17.4s-54.6-5.7-84.3-17.4c-7.7-23.6-12.9-48.1-9.5-70.8m326.1-176.7c-3 37-15.4 93.5-63.5 101.3 0 0 6.2 94.2-44.2 128.3-.2.1-.5.3-.7.5" class="a"/><g id="XMLID_12_"><path d="M7378 5514.3s24.7 54.4 47.7 69.5h.1" class="a"/><path d="M7412.3 5490.7l-.1-.1c-1.5-.9-17.7-11.2-27.1-4.2-4.2 3.1-6.4 13.5-7 27.9-.1.9-.1 1.9-.1 2.9-.8 33.3 7.4 86 24.8 123-2.5 22.5 4.7 40.4 24.5 51.7" class="a"/><path d="M7890 5689.6c1.7-33.1 1.7-66.6 1.5-98.7v-7.1c-.1-18-.3-35.6-.3-52.4 5.3-13.5 9.8-27.1 13.5-40.7 19.6-71.3 16.7-144.3-29.1-214.1-45.8-70-104.4-105.2-216.9-104.9-112.7-.2-171.2 34.9-216.9 104.9-45.8 69.8-48.7 142.8-29.2 214v.1c3.8 13.7 8.4 27.2 13.6 40.7 0 16.8-.2 34.4-.3 52.4v6.8c-.2 24.8-.2 50.5.6 76.1v.1c.2 8.4.6 16.8 1 25.2 1.9 38.4 6.2 76.2 14.8 110.5v.1c2.1 8.6 4.5 16.8 7.2 24.9 18.8 55.6 44.3 110.1 95.7 142 28.7 17.9 65.5 28.7 113.6 28.7s84.9-10.9 113.6-28.7c51.4-31.9 76.9-86.4 95.5-142 2.7-8.1 5.1-16.5 7.3-25.1 8.6-34.3 12.8-72.1 14.8-110.5.1-.7.1-1.5.1-2.2" class="a"/><path d="M7891.1 5531.3l-3.9-60.3-22.2-8.6c-7.9-77.4-31-139.4-71.6-183.9-17 25.7-39 47.5-68.8 62.7h-66m280.6 173.1s-24.7 54.4-47.7 69.5h-.1" class="a"/><path d="M7905 5490.7l.1-.1c1.5-.9 17.7-11.2 27.1-4.2 4.2 3.1 6.4 13.5 7 27.9.1.9.1 1.9.1 2.9.8 33.3-7.4 86-24.8 123 2.5 22.5-4.7 40.4-24.5 51.7" class="a"/></g><path d="M7426 5531.3l3.9-60.3 22.2-8.6c7.9-77.4 31-139.4 71.5-183.9 17 25.7 39.1 47.5 68.9 62.7h66m423.3 734c-147.9-26.3-289.8-9.3-423.3 68.7-133.5-77.9-275.4-95-423.3-68.7m-345.8 110.3h1535.3" class="a"/><path d="M7890 2775c-22.4-121.8-136.7-179.1-232.9-179.1-96.3 0-210.5 57.3-232.9 179.1-21.9 119.1 13.4 387.2 34.6 463.5 10.4 37.6 79.4 90.6 98.1 112.8 30.2 35.8 62.8 46.8 100.1 46.8s69.9-11 100.1-46.8c18.8-22.2 87.7-75.2 98.1-112.8 21.3-76.3 56.7-344.4 34.8-463.5z" class="b"/><path d="M7457.6 2998.7s27.5-22.7 69.6-14.4c31.5 6.2 87.6 38.1 87.6 38.1" class="b"/><path d="M7495.8 3029.4c-3-5.8 56.8-23.1 78.6-7.8 15.3 10.8 26.2 30.1 26.2 30.1m56.4 146.6c-17.3 3.6-22.5-25.2-50.6-25.2" class="b"/><path d="M7622.3 3185s-31.7 1.6-31.7-22.3c3.4-13.9 20.7-26.9 20.7-26.9s-41.4 29.1-46.6 49.2m-2 67.3c23.3 23.3 38.2 3.9 56.3 3.9 10.4 0 18.1 12.3 18.1 12.3h19.9m0 53.7s-23.1-1.3-37.4 4.5M7507.1 3055c9.5 33.6 46.2 32.6 89.9 16.5m259.5-72.8s-27.5-22.7-69.6-14.4c-31.5 6.2-87.6 38.1-87.6 38.1" class="b"/><path d="M7818.3 3029.4c3-5.8-56.8-23.1-78.6-7.8-15.3 10.8-26.2 30.1-26.2 30.1m-56.5 146.6c17.3 3.6 22.5-25.2 50.6-25.2" class="b"/><path d="M7691.8 3185s31.7 1.6 31.7-22.3c-3.4-13.9-20.7-26.9-20.7-26.9s41.4 29.1 46.6 49.2m2 67.3c-23.3 23.3-38.2 3.9-56.3 3.9-10.4 0-18.1 12.3-18.1 12.3h-20m0 53.7s23.1-1.3 37.4 4.5M7807 3055c-9.5 33.6-46.2 32.6-89.9 16.5m133.8-384.8c0 139.9-387.6 139.9-387.6 0" class="b"/><path d="M7765.1 2777.6s46.1 13 75.2 149.7c0 0 52.3-29.1 52.3 75.9 0 0 32.2-54.1 45.4-32.3 17.5 28.9 1 82.6-16.8 126.2-10.6 25.9-38.3 43-46.4 45.1m-218.6 105.9l-34.9-16s-34.3 20.2-57.9 20.2c-24.2 0 56.9 42.7 56.9 42.7l37.4-.6" class="b"/><path d="M7659.1 3248.1l34.9-16s34.3 20.2 57.9 20.2c24.2 0-56.9 42.7-56.9 42.7l-37.4-.6m-26.8-133.6c0 9.7 48 9.7 48 0m19-10.2l-2.9-36.4m-78.6 36.4l2.9-36.4m-31.1 349c0 85.4 137.8 85.4 137.8 0m-253.3-195.6l-13.6 180" class="b"/><path d="M7467.7 3321.6c-224.7 72.3-387.9 141.9-453.9 326.3h1286.4c-66-184.4-229.2-254-453.9-326.3" class="b"/><path d="M7404.7 3500.1c6 20.5 144.3 47.5 163 50.5 35.2 5.6 23.3 44.6 23.3 44.6m-147.5-266s-58.7 184.7-44.2 318.7m-44.8-286.5s-114.3 152.5-114.3 283.6m645-582.7s18.9-43.3 37.7-54.3m-495.3 54.3s-18.9-43.3-37.7-54.3m50.7 137.7c-1.7 5.9.1 10.9 2.4 14.9-.9-4.8-1.6-9.8-2.4-14.9zm339.6-129.3c-10.1-1.2-20.5-1.4-29.1.6-3.6 3.7-5.8 8.8-5.8 14.4 0 11.4 9.3 20.7 20.7 20.7 11.4 0 20.7-9.3 20.7-20.7-.1-5.9-2.6-11.2-6.5-15zm-246.3 0c-4 3.8-6.4 9.1-6.4 15 0 11.4 9.3 20.7 20.7 20.7s20.7-9.3 20.7-20.7c0-5.6-2.2-10.7-5.8-14.4-8.7-2-19.1-1.8-29.2-.6z" class="b"/><path d="M7548.4 2777.6s-46.1 13-75.2 149.7c0 0-52.3-29.1-52.3 75.9 0 0-32.2-54.1-45.4-32.3-17.5 28.9-1 82.6 16.8 126.2 10.6 25.9 38.3 43 46.4 45.1m402.5 125.4l13.6 180m54.3 52.5c-6 20.5-144.3 47.5-163 50.5-35.2 5.6-23.3 44.6-23.3 44.6" class="b"/><path d="M7419 3131.7c-10.2 76.7-45.1 55.8-45.1 118.3 0 83.9 70.8 83.2 70.8 83.2m470.6-219.3c9.4 14.1-9.1 26.4.3 40.5 9.4 14.1 27.8 1.9 37.2 16 9.4 14.1-9.1 26.4.3 40.5 9.4 14.1 27.8 1.9 37.2 16.1 9.4 14.1-9.1 26.4.3 40.5m-108.9-131.8c9.4 14.1-9.1 26.4.3 40.5 9.4 14.1 27.8 1.9 37.2 16 9.4 14.1-9.1 26.4.3 40.5 9.4 14.1 27.8 1.9 37.2 16.1 9.4 14.1-9.1 26.4.3 40.5m-557.1-176.8c-6.4 15.7-26.9 7.3-33.3 23-6.4 15.7 14.1 24.1 7.7 39.8-6.4 15.7-26.9 7.3-33.3 23-6.4 15.7 14.1 24.1 7.7 39.8-6.4 15.7-26.9 7.3-33.3 23m555.2 68.1s58.7 184.7 44.2 318.7m44.8-286.5s114.3 152.5 114.3 283.6" class="b"/><g id="XMLID_23_"><path d="M7612.2 4414.5s-18.6 28-5.7 49.6c8.3 13.7 25.5 7 25.5 7m-69.8 68.8c.3.3.8.6 1.3.8 12.3 4.7 74.4-24.3 74.4-24.3 2.8 8.6 19.6 17.6 19.6 17.6m.1 46.3s-31 1.6-46.7-6.7m46.7 40.5s-25.1-5.5-50.2 6.2m-44.6-325c1.6.4 3.1.9 4.7 1.6 11.5 4.1 23.1 12.2 34.8 24.1m-53.3-27.6c1.9 0 3.8.1 5.7.3.7.1 1.5.1 2.1.3 1.8.2 3.6.6 5.4 1.1m-50.2 12.8c10.2-8 20.4-12.7 30.8-14.1.4-.1.8-.1 1.2-.2m-33.2 38.7c4.4 20.4 21 25.3 47.2 17.7 7.7-2.1 16.2-5.4 25.4-9.6m-84.5-244.4s-5.4 58.9 11.8 90.2" class="b"/><path d="M7436.9 4315.3s13.4-24.7 13.4-48.2c0 0-12.5-18.9-12.5-32.2 0 0 32.1-121.7 32.1-150.7 0 0 63.6-45.5 98.9-40.8 0 0 25.9 26.7 88.7 26.7m-244.4 187c-7.8-9.6-14.6-9.9-20.1-4.6-5.4 5.5 5 52.4 14.9 67.2-2.5 16.2 1 34.9 7.5 55 0 0-.8 29 16.1 36 17 7.1 21.1-5.4 21.1-5.4m57.8 152.3c.3 2.5 4.5 36.8 1.6 81.2-2.1 32.6-7.9 70.5-21.6 105.1" class="b"/><path d="M7657.6 3866.8c-173.6 0-256.4 113.2-263.5 270.7-1.9 43.5 8.1 86.7 19 119.6 11.5 34.9 23.9 58.2 23.9 58.2 0 10.4 6.8 49.2 15.6 90 7.7 35.9 17.2 73.5 24.7 94.6 4.8 13.5 18.1 34.9 33.2 57.6v.1c15.4 23 32.6 47 44.1 64 22 32.8 56.7 69.6 103.1 66.9 46.3 2.7 81.1-34.1 103.1-66.9 11.5-17.2 28.7-41.2 44.1-64.1 15.1-22.6 28.4-44.1 33.2-57.6 7.5-21.1 17-58.7 24.7-94.6 8.8-40.8 15.6-79.6 15.6-90 0 0 12.4-23.3 23.9-58.2 10.8-32.9 20.9-76.1 19-119.6-7.3-157.5-90.8-270.7-263.7-270.7" class="b"/><path d="M7702.9 4414.5s18.6 28 5.7 49.6c-8.3 13.7-25.4 7-25.4 7m69.7 68.8c-.3.3-.8.6-1.3.8-12.4 4.7-74.4-24.3-74.4-24.3-2.8 8.6-19.6 17.6-19.6 17.6" class="b"/><path d="M7752.9 4539.9c-.4.3-.9.6-1.3.8-24.9 15.4-65 5.1-65 5.1-7.8 11.4-50.2 11.4-58 0 0 0-40.2 10.3-65-5.1-.4-.2-.9-.4-1.3-.8m95.3 40.4s31 1.6 46.7-6.7m-46.7 40.5s25.1-5.5 50.2 6.2m136.9-377.9c-104-40.5-161.6 50.1-161.6 50.1l1.1 43.3" class="b"/><path d="M7766.1 4293.4c-1.9 0-3.8.1-5.7.3-.7.1-1.5.1-2.1.3-1.8.2-3.6.6-5.4 1.1-1.8.4-3.6 1-5.4 1.7-11.5 4.1-23.1 12.3-34.7 24.1m90.3-13c-10.2-8-20.4-12.7-30.8-14.1-.4-.1-.8-.1-1.2-.2m33.3 38.7c-5.8 26.4-31.8 26.8-72.6 8.1m84.3-244.4s5.5 58.9-11.7 90.2" class="b"/><path d="M7878.2 4315.3s-13.4-24.7-13.4-48.2c0 0 12.5-18.9 12.5-32.2 0 0-32.1-121.7-32.1-150.7 0 0-63.6-45.5-98.9-40.8 0 0-25.9 26.7-88.7 26.7m244.5 187c7.8-9.6 14.6-9.9 20-4.6 5.5 5.5-4.9 52.4-14.8 67.2 2.3 16.2-1 34.9-7.5 55 0 0 .8 29-16.2 36-16.8 7.1-21-5.4-21-5.4" class="b"/><path d="M7883.6 4410.7s16.7 19.1 16.7 56.8v70.6c0 42.4 23.5 43.6 35.4 101.3 11.7 57.7-11.4 87.6-11.4 87.6m-152-433.2l-.1-.1c-.3 0-.8-.1-1.1-.1-1.7-.2-3.3-.2-5-.2-1.9 0-3.8.1-5.7.3-.8.1-1.5.1-2.1.3-1.8.2-3.6.6-5.4 1.1-1.8.3-3.5.9-5.2 1.6l-.1.1c-2.5 3.1-4.1 7-4.1 11.5 0 9.9 8.1 18.1 18.1 18.1 10 0 18.1-8.1 18.1-18.1-.1-6-3-11.1-7.4-14.5zm-228.3-.2c-.3 0-.8.1-1.1.1l-.1.1c-4.4 3.3-7.3 8.5-7.3 14.5 0 9.9 8 18.1 18 18.1s18.1-8.1 18.1-18.1c0-4.5-1.6-8.4-4.1-11.5l-.1-.1c-1.6-.6-3.1-1-4.6-1.5-.2-.1-.4-.1-.6-.1-1.8-.6-3.6-.9-5.4-1.1-.8-.2-1.5-.2-2.1-.3-1.9-.2-3.8-.3-5.7-.3-1.6 0-3.3 0-5 .2zm149.3 158.6c-20.5 14.4-17.3 21.8-35.7 21.8-18.5 0-15.2-7.4-35.8-21.8" class="b"/><path d="M7470.4 4242.4c104-40.5 161.6 50.1 161.6 50.1l-1.1 43.3m173.8 221.7s-4.5 35.2-1.6 81.3c2.1 32.6 7.9 70.5 21.6 105.1m-9-460.8c-24.4-27.9-53.9-22.1-87.5-1.5m-226.5 1.5c24.5-27.9 54-22.1 87.5-1.5m403.1 474.1s27.1 88.6 43.4 177.9" class="b"/><path d="M7859.1 4933.6H8249s9.8-10.4-31-69.9c-40.8-59.7-118.5-75.4-164.9-87.2-11.7-3-34-10.5-60.8-20.7-21-8.1-44.7-18-68-28.8-17.8-8.3-35.5-17.1-51.5-26.1-37.9-21.2-67-43.5-69.4-62-.2-1.8-.1-3.5.1-5.1m-322.8 299.8h353.8m-322.9-299.9c.2 1.7.3 3.5.1 5.1-2.3 18.5-31.5 40.8-69.4 62-37 20.7-82.4 40.5-119.5 54.9-26.8 10.3-49.2 17.7-60.9 20.7-46.3 11.8-123.9 27.6-164.8 87.2-40.8 59.6-32.3 69.9-32.3 69.9H7456" class="b"/><path d="M7834.5 4933.6h24.7c25.8-109.8 13.6-232.8 13.6-232.8m-392.1 232.8H7456c-25.8-109.8-13.7-232.8-13.7-232.8m-119.5 54.9s-27.1 88.6-43.5 177.9" class="b"/></g><path d="M7657 6977.1c-19 0-16.5-29.8-36.1-29.8m4.5 20.3l-26.6-12.7c-2.4-25.3 1.7-43.3 19-46.9 4.8-15.6 15.6-43.5 15.6-43.5s.7-48.3.8-71.2c-23.9-51.6-104.9-58.6-104.9-58.6-35.7 6.7-55.1 29.5-59.8 58m187.5 252.2c-27.9-20.9-51.3.6-97.6-8.9 19.9 5.9 32.3-30.4 67.8-33.6 9 11.2 18.7 17.5 29.8 13.9m0 64.7c-19.4 3-37.5-6-54.5-24.7m54.5 43.4c-18.2-1.8-32.1 3.1-40.8 16.2m40.8 89.3c-59.6-.4-97.3-29.4-107.9-94m-86.1-92.4s-17.5 8.3-36.5-10.7-48.1-99.5-48.1-131.8c0-32.3 8-42.5 23.3-42.5 15.2 0 33.1 22.2 33.1 22.2m60.7 254.3c3 72-6.3 147.8-23 225.7" class="a"/><path d="M7487.2 7254.4c-60.3 76-188.7 151.7-263.8 170.3-43.1 10.6-95.4 40.3-132.5 76m250.9-128c-21.6 40.9-29.8 82.4-30.4 127.4m96.8-171.5c-12.8 61.4-13.4 117.7-4.2 172.2m394.5-689.1c-8.9-15-28.5-18.9-45.2-14.8-20.4 5-32.4 16.2-43.5 31.3 0 0 10.1-22.8 20.3-32.9 10.1-10.1 27.1-19.1 48.4-15.4 30.7 5.3 36.8 24 36.8 24M7657 6977.1c19 0 16.5-29.8 36.1-29.8" class="a"/><path d="M7688.7 6967.6l26.6-12.7c2.4-25.3-1.7-43.3-19-46.9-11.1-36-16.2-74.4-16.5-114.7 23.9-51.6 123.5-61.4 123.5-61.4 31.9 15.9 44.9 36.3 41.2 60.8M7657 7044.9c27.9-20.9 51.3.6 97.6-8.9-19.9 5.9-32.3-30.4-67.8-33.6-9 11.2-18.7 17.5-29.8 13.9m0 64.7c19.4 3 37.5-6 54.5-24.7m-54.5 43.4c18.2-1.8 32.1 3.1 40.8 16.2m-40.8 89.3c59.6-.4 97.3-29.4 107.9-94m53.7-.9c-3 72 6.3 147.8 23 225.7" class="a"/><path d="M8090.8 7424.7s-67.2-353.8-135.1-712.9c-35.5-187.5-114.9-299-269.4-299-172.3 0-192.2 103.3-165.6 152.9 199.4-40.6 336.2 26.5 358.9 290.3m-369.2-375c-126 60.1-176.4 184.4-108.8 352.9m233.9 99.5c14.3 10 28.4 10.2 42.4 0m194.3-26.7c12.9-18.6 27.7-31 44.5-36.7" class="a"/><path d="M7851.1 7018.8s17.5 8.3 36.5-10.7 48.1-99.5 48.1-131.8c0-32.3-8-42.5-23.3-42.5s-33.1 22.2-33.1 22.2m-437.4 50.7c-12.9-18.6-27.7-31-44.5-36.7" class="a"/><path d="M7739.3 7174.4c85-15.6 114.1-123.9 140.1-318.4-22.6-263.8-159.4-330.9-358.8-290.3-1.2 1.1-2.4 2.2-3.6 3.4-33.6 33.6-76.3 177.4-82.4 287 26 194.5 55.1 302.8 140.1 318.4" class="a"/><path d="M7767.1 6795.5c-4.6-.1-9.3.4-13.8 1.5-7.4 1.8-13.7 4.5-19.2 7.8-1 2.4-1.5 5.1-1.5 7.8 0 11.9 9.6 21.5 21.5 21.5s21.5-9.6 21.5-21.5c.1-7.1-3.3-13.2-8.5-17.1zm-251.5 16.2c8.9-15 28.5-18.9 45.2-14.8 20.4 5 32.4 16.2 43.5 31.3 0 0-10.1-22.8-20.3-32.9-10.1-10.1-27.1-19.1-48.4-15.4-30.7 5.3-36.8 24-36.8 24m105.5 24.3c-28.5 29.8-52.5 33.6-52.5 33.6" class="a"/><path d="M7547 6795.5c4.6-.1 9.3.4 13.8 1.5 7.4 1.8 13.7 4.5 19.2 7.8 1 2.4 1.5 5.1 1.5 7.8 0 11.9-9.6 21.5-21.5 21.5s-21.5-9.6-21.5-21.5c-.1-7.1 3.3-13.2 8.5-17.1zm162.8 32.7c28.5 29.8 52.5 33.6 52.5 33.6m-671.5 639h1128.8m-392.7-246.4c60.3 76 188.7 151.7 263.8 170.3 43.1 10.6 95.4 40.3 132.5 76m-250.9-128c21.6 40.9 29.8 82.4 30.4 127.4m-96.8-171.5c12.8 61.4 13.4 117.7 4.2 172.2" class="a"/></g></svg>