<svg xmlns="http://www.w3.org/2000/svg" viewBox="0 0 722.6 231.1"><style>.a{fill:#747575}.b{fill:none;stroke-linejoin:round;stroke-width:2;stroke:#747474}.c{fill:#747474}.d,.e,.f{stroke-width:2}.d,.e,.f,.g{stroke:#747474}.d{stroke-linejoin:round;fill:#fff}.e{fill:none}.f,.g{fill:#fff}.g{stroke-linejoin:round;stroke-width:3}</style><path d="M3.5 72.9H.7l.1-8h2.7c1.6 0 2.1.8 2.1 2v.3c0 .9-.4 1.4-1.2 1.6.9.2 1.3.8 1.3 1.6v.5c0 1.2-.6 2-2.2 2zm.9-2.5c0-.7-.3-1-1-1H2.1v2.5h1.5c.6 0 .9-.4.9-.9l-.1-.6zm0-3.6c0-.5-.2-.9-.8-.9H2.2v2.4h1.3c.7 0 1-.3 1-1l-.1-.5zm6.8 6.1l-.5-2.1H8.6l-.5 2.1H6.9l2.2-8h1.3l2.1 8h-1.3zm-1.5-6.2l-.8 3.1h1.5l-.7-3.1zm9.2 6.4c-1.1 0-1.4-.3-1.4-1.2v-1.3c0-.6-.3-1-1-1.1h-1.4V73h-1.3l.1-8h2.7c1.6 0 2.1.8 2.1 2v.5c0 .9-.3 1.4-1.2 1.5.9.1 1.3.8 1.2 1.5v1.2c0 .2.1.3.4.3v1l-.2.1zm-1.4-6.2c0-.5-.2-.9-.9-.9h-1.4v2.5h1.3c.6 0 1-.3 1-1v-.6zm8.2 6.2c-1.1 0-1.4-.3-1.4-1.2v-1.3c0-.6-.3-1-1-1.1h-1.4V73h-1.3l.1-8h2.7c1.6 0 2.1.8 2.1 2v.5c0 .9-.3 1.4-1.2 1.5.9.1 1.3.8 1.2 1.5v1.2c0 .2.1.3.4.3v1l-.2.1zM24.3 67c0-.5-.2-.9-.9-.9H22v2.5h1.3c.6 0 1-.3 1-1V67zm6.9 6.1l-.5-2.1h-2.1l-.5 2.1h-1.2l2.2-8h1.3l2.1 8h-1.3zm-1.5-6.3l-.8 3.1h1.5l-.7-3.1zm8.5 6.3l-.2-.6c-.3.6-1 .9-1.8.9-1.7 0-2.4-1.2-2.4-2.5v-3.5c0-1.3.8-2.4 2.6-2.4s2.5 1 2.5 2.5v.2h-1.2v-.3c0-.6-.3-1.2-1.2-1.2-.9 0-1.3.6-1.3 1.2v3.7c0 .6.4 1.3 1.3 1.3s1.3-.6 1.3-1.2v-.9h-1.3v-1.1H39v4.2l-.8-.3zm2.6.1l.1-8h4.3v1.1h-3v2.1h2.2v1.1h-2.2V72h3v1.1l-4.4.1zm12.5.1l-.5-2.1h-2.1l-.5 2.1H49l2.2-8h1.3l2.1 8h-1.3zM51.8 67l-.8 3.1h1.5l-.7-3.1zm6.5-.5l-.1 6.8h-1.3l.1-6.8h-1.9v-1.2h5.2v1.2h-2zm6.3 0l-.1 6.8h-1.3l.1-6.8h-1.9v-1.2h5.2v1.2h-2zm6.7 6.9l-.5-2.1h-2.1l-.5 2.1H67l2.2-8h1.3l2.1 8h-1.3zm-1.5-6.3l-.8 3.2h1.5l-.7-3.2zm6.6 6.5c-1.8 0-2.6-1.2-2.6-2.5v-3.4c0-1.3.8-2.5 2.6-2.5s2.5 1.1 2.5 2.4v.6h-1.2v-.6c0-.8-.4-1.3-1.3-1.3s-1.3.5-1.4 1.2v3.7c0 .7.4 1.3 1.3 1.3s1.3-.5 1.4-1.3v-.6h1.2v.6c0 1.4-.7 2.5-2.5 2.4zm8.1-.1l-1.8-3.6-.7 1v2.6h-1.3l.1-8h1.3v3.7l2.6-3.7h1.4l-2.4 3.4 2.4 4.6h-1.6zM26.6 220.2c-1.5 0-2.5-1-2.5-2.2v-.4h1.3v.1c0 1 .4 1.4 1.3 1.4.8 0 1.2-.5 1.2-1.2s-.3-1-1.5-1.6c-1.1-.5-2.1-1.1-2.1-2.4 0-1.2.9-2.2 2.4-2.2s2.5.9 2.5 2.2v.3H28v-.1c0-.7-.4-1.4-1.3-1.4-.7 0-1.1.4-1.1 1s.3.9 1.7 1.6c1.4.7 2 1.3 2 2.4-.1 1.5-1.2 2.5-2.7 2.5zm8.6-.2l-2.3-3.8-.8-1.5v5.3h-1.2v-8h1l2.2 3.9.8 1.5V212h1.2v8h-.9zm3 0v-8h1.3v8h-1.3zm6.1-3.1h-1.4v3.1h-1.3v-8h2.7c1.6 0 2.1.9 2.1 2v.8c0 1.2-.6 2.1-2.1 2.1zm.8-2.9c0-.6-.2-.9-.9-.9h-1.4v2.7h1.4c.6 0 .9-.4.9-1v-.8zm3 6v-8h4.3v1.1h-3v2.1h2.2v1.1h-2.2v2.5h3v1.1h-4.3zm11.1.1c-1.1 0-1.4-.3-1.4-1.2v-1.3c0-.6-.3-1-1-1h-1.4v3.5h-1.3v-8h2.7c1.6 0 2.1.8 2.1 2v.5c0 .9-.3 1.4-1.2 1.5.9.1 1.3.8 1.3 1.5v1.2c0 .2.1.3.4.3v1h-.2zm-1.5-6.1c0-.5-.2-.9-.9-.9h-1.4v2.5h1.3c.6 0 1-.3 1-1v-.6z" class="a"/><path d="M23.7 25.1H63s2.1-8-6.5-8c0 0 .2-9.5-7.8-9.5S41 14.4 41 14.4c-3-5.3-12.7-1-9.7 5.8-5.1-2.6-7.6 1.4-7.6 4.9" class="b"/><path d="M47.9 29.5l-2.7 4.7h6L40.3 49.7 43.9 38h-5.6l4.1-8.5h5.5m0-2.2h-5.6c-.8 0-1.6.5-2 1.3l-4.1 8.5c-.3.7-.3 1.5.1 2.1.4.6 1.1 1 1.9 1h2.7l-2.7 8.9c-.3 1 .2 2.1 1.1 2.6.3.2.6.2 1 .2.7 0 1.4-.3 1.8-.9L53 35.6c.3-.4.4-.8.4-1.3 0-1.2-1-2.2-2.2-2.2H49l.8-1.4c.4-.7.4-1.5 0-2.2-.4-.8-1.2-1.2-1.9-1.2z" class="c"/><path class="d" d="M58.8 28.8v13m-5.7-1.6v8M30.5 29.8v14.8"/><circle cx="42.7" cy="176.7" r="17.1" class="b"/><path d="M663.7 213.2v6.8h-1.3v-6.8h-1.9V212h5.2v1.2h-2zm6.8 6.8l-.5-2h-2.1l-.5 2.1h-1.2l2.1-8h1.3l2.1 8h-1.2zm-1.6-6.2l-.8 3.1h1.5l-.7-3.1zm8.1 6.2l-1.8-3.6-.7 1v2.6h-1.3v-8h1.3v3.7l2.6-3.7h1.4l-2.4 3.4 2.4 4.6H677zm2.9 0v-8h4.3v1.1h-3v2.1h2.2v1.1h-2.2v2.5h3v1.1h-4.3zm8.7 0H686v-8h2.6c1.7 0 2.5 1.1 2.5 2.4v3.3c0 1.3-.8 2.3-2.5 2.3zm1.2-5.5c0-.8-.4-1.3-1.3-1.3h-1.2v5.7h1.2c.9 0 1.3-.5 1.3-1.3v-3.1zm5.7 5.7c-1.8 0-2.6-1.1-2.6-2.6v-3.2c0-1.5.8-2.6 2.6-2.6s2.6 1.1 2.6 2.6v3.2c0 1.5-.8 2.6-2.6 2.6zm1.3-5.9c0-.8-.4-1.4-1.3-1.4s-1.3.6-1.3 1.4v3.4c0 .8.4 1.4 1.3 1.4s1.3-.6 1.3-1.4v-3.4zm9.3 5.7h-1.2l-1.2-5.7-1.3 5.7h-1.2l-1.7-8h1.3l1 6 1.3-6h1.2l1.2 6 1-6h1.3l-1.7 8zm7.4 0l-2.3-3.8-.8-1.5v5.3h-1.2v-8h1l2.2 3.9.8 1.5V212h1.2v8h-.9zm5.2.2c-1.5 0-2.5-1-2.5-2.2v-.4h1.3v.1c0 1 .4 1.4 1.3 1.4.8 0 1.2-.5 1.2-1.2s-.3-1-1.5-1.6c-1.1-.5-2.1-1.1-2.1-2.4 0-1.2.9-2.2 2.4-2.2s2.5.9 2.5 2.2v.3h-1.2v-.1c0-.7-.4-1.4-1.3-1.4-.7 0-1.1.4-1.1 1s.3.9 1.7 1.6c1.4.7 2 1.3 2 2.4-.2 1.5-1.2 2.5-2.7 2.5zM666.8 72.9h-1.2l-1.2-5.7-1.3 5.7h-1.2l-1.7-8h1.3l1 6 1.3-6h1.2l1.2 6 1-6h1.3l-1.7 8zm3.1 0v-8h1.3v8h-1.3zm3.4 0v-8h1.3v6.8h3v1.1h-4.3zm5.8 0v-8h1.3v6.8h3v1.1h-4.3zm11.3-3.1H689v3.1h-1.3v-8h2.7c1.6 0 2.1.9 2.1 2v.8c0 1.3-.5 2.1-2.1 2.1zm.8-2.8c0-.6-.2-.9-.9-.9H689v2.7h1.4c.6 0 .9-.4.9-1V67zm5.5 6.1c-1.8 0-2.6-1.1-2.6-2.6v-3.2c0-1.5.8-2.6 2.6-2.6s2.6 1.1 2.6 2.6v3.2c0 1.5-.8 2.6-2.6 2.6zm1.3-5.8c0-.8-.4-1.4-1.3-1.4s-1.3.6-1.3 1.4v3.4c0 .8.4 1.4 1.3 1.4s1.3-.6 1.3-1.4v-3.4zm9.3 5.6H706l-1.2-5.7-1.3 5.7h-1.2l-1.7-8h1.3l1 6 1.3-6h1.2l1.2 6 1-6h1.3l-1.6 8zm3.1 0v-8h4.3V66h-3v2.1h2.2v1.1h-2.2v2.5h3v1.1h-4.3zm11.1.1c-1.1 0-1.4-.3-1.4-1.2v-1.3c0-.6-.3-1-1-1h-1.4V73h-1.3v-8h2.7c1.6 0 2.1.8 2.1 2v.5c0 .9-.3 1.4-1.2 1.5.9.1 1.3.8 1.3 1.5v1.2c0 .2.1.3.4.3v1h-.2zm-1.5-6.1c0-.5-.2-.9-.9-.9h-1.4v2.5h1.3c.6 0 1-.3 1-1v-.6z" class="a"/><path class="e" d="M682 166.6h18v23.8h-18z"/><path class="f" d="M696.2 158.7h-10.5m5.3 7.9v23.9"/><path class="e" d="M672.5 190.4h5.4v-27.8h26.3v27.8h5m-1.3-16.7l2.4-4 2.3 4m-4.7 5.2l2.4 4 2.3-4"/><path d="M701.2 13.1c2.9 0 5.9 1.4 8.7 4.9 8.8 11.4-7 25.4-18.6 32.9-11.6-7.5-27.4-21.5-18.6-32.9 2.7-3.5 5.7-4.9 8.7-4.9 3.9 0 7.6 2.6 10 6.3 2.2-3.7 5.9-6.3 9.8-6.3m0-2.2c-3.6 0-7.2 1.8-10 4.9-2.8-3.1-6.3-4.9-10-4.9-2.7 0-6.7 1-10.4 5.8-2.6 3.3-3.5 7-2.8 11.1 1.9 11.1 16 21.2 22 25 .4.2.8.3 1.2.3s.8-.1 1.2-.3c6-3.8 20.1-13.9 22-25 .7-4-.2-7.7-2.8-11.1-3.7-4.8-7.7-5.8-10.4-5.8z" class="c"/><path d="M704 16.1s8.2 4.6 5 13.5" class="b"/><path d="M176.5 73.1c-1.5 0-2.5-1-2.5-2.2v-.4h1.3v.1c0 1 .4 1.4 1.3 1.4.8 0 1.2-.5 1.2-1.2s-.3-1-1.5-1.6c-1.1-.5-2.1-1.1-2.1-2.4 0-1.2.9-2.2 2.4-2.2s2.5.9 2.5 2.2v.3h-1.2V67c0-.7-.4-1.4-1.3-1.4-.7 0-1.1.4-1.1 1s.3.9 1.7 1.6c1.4.7 2 1.3 2 2.4-.2 1.5-1.2 2.5-2.7 2.5zm6.8 0c-1.5 0-2.6-.8-2.6-2.3V65h1.3v5.9c0 .8.4 1.3 1.3 1.3s1.3-.4 1.3-1.3V65h1.3v5.9c0 1.4-1 2.2-2.6 2.2zm7.4-.2H188v-8h2.7c1.6 0 2.1.8 2.1 2v.3c0 .9-.4 1.5-1.2 1.6.9.2 1.3.7 1.3 1.6v.6c0 1.2-.6 1.9-2.2 1.9zm.8-6c0-.5-.2-.9-.9-.9h-1.4v2.4h1.3c.7 0 1-.3 1-1v-.5zm.1 3.5c0-.7-.3-1-1-1h-1.3v2.5h1.5c.6 0 .9-.4.9-.9v-.6zm8.9 2.5v-6.3l-.4 1.6-1.3 4.7h-1.3l-1.2-4.7-.4-1.6v6.3h-1.1v-8h1.8l1.3 5 .4 1.6.4-1.6 1.3-5h1.8v8h-1.3zm3.2 0v-8h1.3v8h-1.3zm6-6.8v6.8h-1.3v-6.8h-1.9V65h5.2v1.2h-2zm6.2 0v6.8h-1.3v-6.8h-1.9V65h5.2v1.2h-2zm3.5 6.8v-8h1.3v8h-1.3zm5.8.2c-1.8 0-2.6-1.1-2.6-2.6v-3.2c0-1.5.8-2.6 2.6-2.6s2.6 1.1 2.6 2.6v3.2c0 1.5-.8 2.6-2.6 2.6zm1.3-5.8c0-.8-.4-1.4-1.3-1.4s-1.3.6-1.3 1.4v3.4c0 .8.4 1.4 1.3 1.4s1.3-.6 1.3-1.4v-3.4zm7.5 5.6l-2.3-3.8-.8-1.5v5.3h-1.2v-8h1l2.2 3.9.8 1.5V65h1.2v8h-.9zm5.2.2c-1.5 0-2.5-1-2.5-2.2v-.4h1.3v.1c0 1 .4 1.4 1.3 1.4.8 0 1.2-.5 1.2-1.2s-.3-1-1.5-1.6c-1.1-.5-2.1-1.1-2.1-2.4 0-1.2.9-2.2 2.4-2.2s2.5.9 2.5 2.2v.3h-1.2V67c0-.7-.4-1.4-1.3-1.4-.7 0-1.1.4-1.1 1s.3.9 1.7 1.6c1.4.7 2 1.3 2 2.4-.1 1.5-1.2 2.5-2.7 2.5zM181.7 220v-3.5H179v3.5h-1.3v-8h1.3v3.4h2.7V212h1.3v8h-1.3zm3.3 0v-8h1.3v8H185zm7.7 0l-.2-.7c-.3.6-1 .9-1.8.9-1.7 0-2.4-1.2-2.4-2.5v-3.5c0-1.3.8-2.4 2.6-2.4s2.5 1 2.5 2.4v.2h-1.2v-.3c0-.6-.3-1.2-1.2-1.2-.9 0-1.3.6-1.3 1.3v3.7c0 .6.4 1.2 1.3 1.2s1.3-.6 1.3-1.2v-.9H191v-1.1h2.5v4.2h-.8zm6.6 0v-3.5h-2.7v3.5h-1.3v-8h1.3v3.4h2.7V212h1.3v8h-1.3zm8.8-6.8v6.8h-1.3v-6.8h-1.9V212h5.2v1.2h-2zm3.5 6.8v-8h4.3v1.1h-3v2.1h2.2v1.1h-2.2v2.5h3v1.1h-4.3zm11.7 0v-6.3l-.4 1.6-1.3 4.7h-1.3l-1.2-4.7-.4-1.6v6.3h-1.1v-8h1.8l1.3 5 .4 1.6.4-1.6 1.3-5h1.8v8h-1.3zm5.9-3.1h-1.4v3.1h-1.3v-8h2.7c1.6 0 2.1.9 2.1 2v.8c.1 1.2-.5 2.1-2.1 2.1zm.9-2.9c0-.6-.2-.9-.9-.9h-1.4v2.7h1.4c.6 0 .9-.4.9-1v-.8zm5.5 6.2c-1.8 0-2.6-1.1-2.6-2.6v-3.2c0-1.5.8-2.6 2.6-2.6s2.6 1.1 2.6 2.6v3.2c-.1 1.5-.8 2.6-2.6 2.6zm1.3-5.9c0-.8-.4-1.4-1.3-1.4s-1.3.6-1.3 1.4v3.4c0 .8.4 1.4 1.3 1.4s1.3-.6 1.3-1.4v-3.4z" class="a"/><path d="M208.2 14.1c2 0 3.7 1.6 3.7 3.6v6.8h-7.4v-6.8c.1-2 1.7-3.6 3.7-3.6m0-2.2c-3.3 0-5.9 2.6-5.9 5.8v9h11.8v-9c0-3.2-2.6-5.8-5.9-5.8z" class="c"/><path d="M217.4 17.4c0-4.7-4.1-8.5-9.1-8.5s-9.1 3.8-9.1 8.5v8.3h18.2v-8.3z" class="b"/><path class="e" d="M193.6 25.7h29.3v20.5h-29.3z"/><path d="M209.6 35.1c.9-.5 1.6-1.4 1.6-2.5 0-1.6-1.3-2.9-2.9-2.9s-2.9 1.3-2.9 2.9c0 1.1.6 2.1 1.6 2.5l-1.7 5.9h6l-1.7-5.9" class="b"/><circle cx="208.2" cy="176.7" r="20.7" class="b"/><circle cx="208.2" cy="176.7" r="3" class="b"/><path class="d" d="M208.2 156v4m-16.6 16.6h-4m8.9-11.7l-2.9-2.9m29.3 0l-2.9 2.9"/><path class="b" d="M193.6 191.3l2.9-2.9H220l2.9 2.9"/><path class="d" d="M222.8 162.1l-12.6 12.7m-9.9-17.3l1.6 3.7m14.3-3.7l-1.6 3.7M192.8 183l-3.6 1.5m3.6-14.2l-3.6-1.6m35.7 7.9h4m-5.3 6.4l3.7 1.5m-3.7-14.2l3.7-1.6"/><path d="M519 72.9l-.5-2.1h-2.1l-.5 2.1h-1.2l2.1-8h1.3l2.1 8H519zm-1.6-6.2l-.8 3.1h1.5l-.7-3.1zm8.6 6.2l-2.3-3.8-.8-1.5v5.3h-1.2v-8h1l2.2 3.9.8 1.5V65h1.2v8h-.9zm7.3 0l-.2-.7c-.3.6-1 .9-1.8.9-1.7 0-2.4-1.2-2.4-2.5v-3.5c0-1.3.8-2.4 2.6-2.4s2.5 1 2.5 2.4v.2h-1.2V67c0-.6-.3-1.2-1.2-1.2-.9 0-1.3.6-1.3 1.3v3.7c0 .6.4 1.2 1.3 1.2s1.3-.6 1.3-1.2v-.9h-1.3v-1.1h2.5V73h-.8zm2.6 0v-8h1.3v6.8h3v1.1h-4.3zm5.7 0v-8h4.3V66h-3v2.1h2.2v1.1h-2.2v2.5h3v1.1h-4.3zm8.3.2c-1.5 0-2.5-1-2.5-2.2v-.4h1.3v.1c0 1 .4 1.4 1.3 1.4.8 0 1.2-.5 1.2-1.2s-.3-1-1.5-1.6c-1.1-.5-2.1-1.1-2.1-2.4 0-1.2.9-2.2 2.4-2.2s2.5.9 2.5 2.2v.3h-1.2V67c0-.7-.4-1.4-1.3-1.4-.7 0-1.1.4-1.1 1s.3.9 1.7 1.6c1.4.7 2 1.3 2 2.4-.2 1.5-1.2 2.5-2.7 2.5zM508.4 220v-6.3l-.4 1.6-1.3 4.7h-1.3l-1.2-4.7-.4-1.6v6.3h-1.1v-8h1.8l1.3 5 .4 1.6.4-1.6 1.3-5h1.8v8h-1.3zm3.2 0v-8h1.3v8h-1.3zm7.7 0l-2.3-3.8-.8-1.5v5.3H515v-8h1l2.2 3.9.8 1.5V212h1.2v8h-.9zm5.5 0h-2.6v-8h2.6c1.7 0 2.5 1.1 2.5 2.4v3.3c0 1.3-.8 2.3-2.5 2.3zm1.2-5.5c0-.8-.4-1.3-1.3-1.3h-1.2v5.7h1.2c.9 0 1.3-.5 1.3-1.3v-3.1zm10.4 5.5l-.2-.7c-.3.6-1 .9-1.8.9-1.7 0-2.4-1.2-2.4-2.5v-3.5c0-1.3.8-2.4 2.6-2.4s2.5 1 2.5 2.4v.2h-1.2v-.3c0-.6-.3-1.2-1.2-1.2s-1.3.6-1.3 1.3v3.7c0 .6.4 1.2 1.3 1.2s1.3-.6 1.3-1.2v-.9h-1.3v-1.1h2.5v4.2h-.8zm6.3 0l-.5-2.1h-2.1l-.5 2.1h-1.2l2.1-8h1.3l2.1 8h-1.2zm-1.6-6.2l-.8 3.1h1.5l-.7-3.1zm10 6.2v-6.3l-.4 1.6-1.3 4.7h-1.3l-1.2-4.7-.4-1.6v6.3h-1.1v-8h1.8l1.3 5 .4 1.6.4-1.6 1.3-5h1.8v8h-1.3zm3.2 0v-8h4.3v1.1h-3v2.1h2.2v1.1h-2.2v2.5h3v1.1h-4.3zm8.3.2c-1.5 0-2.5-1-2.5-2.2v-.4h1.3v.1c0 1 .4 1.4 1.3 1.4.8 0 1.2-.5 1.2-1.2s-.3-1-1.5-1.6c-1.1-.5-2.1-1.1-2.1-2.4 0-1.2.9-2.2 2.4-2.2s2.5.9 2.5 2.2v.3H564v-.1c0-.7-.4-1.4-1.3-1.4-.7 0-1.1.4-1.1 1s.3.9 1.7 1.6c1.4.7 2 1.3 2 2.4-.2 1.5-1.2 2.5-2.7 2.5z" class="a"/><path class="b" d="M554 37.9l-4.1-4.1m-7.2.7c0-5.7-2.3-10.8-6-14.5m5.6-10.5h-5.8m-16 21.8l-6.6 6.6h9.4c0-2.6-1.1-4.9-2.8-6.6zm21.8-21.8v5.8"/><path class="d" d="M554 37.9l-4.1-4.1m4.1 4.1l-4.1 4.1m-7.6-32.5h-5.8"/><path class="b" d="M541.5 10.3l-27.6 27.6H553"/><path class="d" d="M542.3 9.5v5.8"/><path d="M357.2 220.2c-.3 0-.7-.1-.9-.3-.4.2-.9.3-1.4.3-1.8 0-2.6-1.2-2.6-2.5v-3.5c0-1.3.8-2.4 2.6-2.4s2.6 1.2 2.6 2.4v3.7c0 .4-.1.8-.3 1.1.2.2.4.2.8.2v.7c-.3.2-.4.3-.8.3zm-1.1-6c0-.6-.4-1.3-1.3-1.3s-1.3.6-1.3 1.3v3.7c0 .6.4 1.2 1.3 1.2.3 0 .5-.1.7-.2l-.3-.3.9-.7v-3.7zm5.8 6c-1.5 0-2.6-.8-2.6-2.3V212h1.3v5.9c0 .8.4 1.3 1.3 1.3s1.3-.4 1.3-1.3V212h1.3v5.9c0 1.5-1 2.3-2.6 2.3zm4.7-.2v-8h1.3v8h-1.3zm5.8.2c-1.8 0-2.6-1.2-2.6-2.5v-3.4c0-1.3.8-2.5 2.6-2.5s2.5 1.1 2.5 2.3v.6h-1.2v-.6c0-.8-.4-1.3-1.3-1.3s-1.3.5-1.3 1.3v3.7c0 .7.4 1.2 1.3 1.2s1.3-.5 1.3-1.3v-.6h1.2v.6c.1 1.5-.7 2.5-2.5 2.5zm8.1-.2l-1.8-3.6-.7 1v2.6h-1.3v-8h1.3v3.7l2.6-3.7h1.4l-2.4 3.4 2.4 4.6h-1.5zm1.7-3.1v-1h2.9v1h-2.9zm6-3.7v2.3h2.3v1.1h-2.3v3.4H387v-8h4.3v1.1h-3.1zm4.6 6.8v-8h1.3v8h-1.3zm8.4.1c-1.1 0-1.4-.3-1.4-1.2v-1.3c0-.6-.3-1-1-1h-1.4v3.5h-1.3v-8h2.7c1.6 0 2.1.8 2.1 2v.5c0 .9-.3 1.4-1.2 1.5.9.1 1.3.8 1.3 1.5v1.2c0 .2.1.3.4.3v1h-.2zm-1.5-6.1c0-.5-.2-.9-.9-.9h-1.4v2.5h1.3c.6 0 1-.3 1-1v-.6zm3.3 6v-8h4.3v1.1h-3v2.1h2.2v1.1h-2.2v2.5h3v1.1H403z" class="a"/><circle cx="380.1" cy="180.9" r="16.6" class="b"/><circle cx="380.1" cy="180.9" r="12.6" class="b"/><path class="b" d="M380.1 180.9v-12.6"/><path class="e" d="M375.7 155.1h8.8v4.9h-8.8zm2 4.9h4.8v4.4h-4.8z"/><path d="M364.2 168.5c1.3-1.6 2.8-3.1 4.5-4.2m27.3 4.2c-1.3-1.6-2.8-3.1-4.5-4.2" class="g"/><path d="M338 72.9l-1.8-3.6-.7 1v2.6h-1.3v-8h1.3v3.7L338 65h1.4l-2.4 3.4 2.4 4.6H338zm7.2 0l-2.3-3.8-.8-1.5v5.3h-1.2v-8h1l2.2 3.9.8 1.5V65h1.2v8h-.9zm5.4.2c-1.8 0-2.6-1.1-2.6-2.6v-3.2c0-1.5.8-2.6 2.6-2.6s2.6 1.1 2.6 2.6v3.2c0 1.5-.8 2.6-2.6 2.6zm1.4-5.8c0-.8-.4-1.4-1.3-1.4s-1.3.6-1.3 1.4v3.4c0 .8.4 1.4 1.3 1.4s1.3-.6 1.3-1.4v-3.4zm5.7 5.8c-1.8 0-2.6-1.2-2.6-2.5v-3.4c0-1.3.8-2.5 2.6-2.5s2.5 1.1 2.5 2.3v.6H359V67c0-.8-.4-1.3-1.3-1.3s-1.3.5-1.3 1.3v3.7c0 .7.4 1.2 1.3 1.2s1.3-.5 1.3-1.3V70h1.2v.6c0 1.5-.7 2.5-2.5 2.5zm8.1-.2l-1.8-3.6-.7 1v2.6H362v-8h1.3v3.7l2.6-3.7h1.4l-2.4 3.4 2.4 4.6h-1.5zm5.2.2c-1.8 0-2.6-1.1-2.6-2.6v-3.2c0-1.5.8-2.6 2.6-2.6s2.6 1.1 2.6 2.6v3.2c0 1.5-.8 2.6-2.6 2.6zm1.3-5.8c0-.8-.4-1.4-1.3-1.4s-1.3.6-1.3 1.4v3.4c0 .8.4 1.4 1.3 1.4s1.3-.6 1.3-1.4v-3.4zm5.8 5.8c-1.5 0-2.6-.8-2.6-2.3V65h1.3v5.9c0 .8.4 1.3 1.3 1.3s1.3-.4 1.3-1.3V65h1.3v5.9c0 1.4-1.1 2.2-2.6 2.2zm7.3-7v6.8h-1.3v-6.8h-1.9V65h5.2v1.2h-2zm9 3.7H393v3.1h-1.3v-8h2.7c1.6 0 2.1.9 2.1 2v.8c0 1.3-.6 2.1-2.1 2.1zm.8-2.8c0-.6-.2-.9-.9-.9h-1.4v2.7h1.4c.6 0 .9-.4.9-1V67zm5.5 6.1c-1.8 0-2.6-1.1-2.6-2.6v-3.2c0-1.5.8-2.6 2.6-2.6s2.6 1.1 2.6 2.6v3.2c0 1.5-.8 2.6-2.6 2.6zm1.3-5.8c0-.8-.4-1.4-1.3-1.4s-1.3.6-1.3 1.4v3.4c0 .8.4 1.4 1.3 1.4s1.3-.6 1.3-1.4v-3.4zm9.3 5.6H410l-1.2-5.7-1.3 5.7h-1.2l-1.7-8h1.3l1 6 1.3-6h1.2l1.2 6 1-6h1.3l-1.6 8zm3.1 0v-8h4.3V66h-3v2.1h2.2v1.1h-2.2v2.5h3v1.1h-4.3zm11.1.1c-1.1 0-1.4-.3-1.4-1.2v-1.3c0-.6-.3-1-1-1h-1.4V73h-1.3v-8h2.7c1.6 0 2.1.8 2.1 2v.5c0 .9-.3 1.4-1.2 1.5.9.1 1.3.8 1.3 1.5v1.2c0 .2.1.3.4.3v1h-.2zm-1.5-6.1c0-.5-.2-.9-.9-.9h-1.4v2.5h1.3c.6 0 1-.3 1-1v-.6z" class="a"/><path d="M403.8 28.8c0-3.2-2.7-9.1-14.1-9.1-11.3 0-23.7 5.6-23.7 5.6v7.2s12.3 5.6 23.7 5.6c11.4-.2 14.1-6.1 14.1-9.3z" class="b"/><path class="d" d="M376.7 28.5h-19.1m30.6 9.4v-18"/><path class="b" d="M366.1 25.2l-6.6-7.3h11.6l4.2 4.1m-9.2 9.8l-6.6 7.4h11.6l4.2-4.1"/><path fill="#FFF" d="M63.3 176.6H48.2"/><path d="M42.7 183.7c-.4 0-.7 0-1.1-.1v14.8h2.2v-14.8c-.4 0-.8.1-1.1.1zm6.9-8.2c.1.4.1.7.1 1.1s0 .7-.1 1.1h14.8v-2.2H49.6zm-6.9-5.9c.4 0 .7 0 1.1.1v-14.8h-2.2v14.8c.3-.1.7-.1 1.1-.1zm-7.1 7c0-.4 0-.7.1-1.1H20.9v2.2h14.8c0-.3-.1-.7-.1-1.1zm9-3.5l-5.5 5.5c.4.7.9 1.2 1.6 1.6l5.4-5.4c-.3-.8-.8-1.3-1.5-1.7z" class="c"/><path d="M40.7 173.1c-.7.4-1.2.9-1.6 1.6l5.5 5.5c.7-.4 1.2-.9 1.6-1.6l-5.5-5.5zm490.3-5.9c.9.5 2 .8 3.2.8 1.1 0 2.2-.3 3.2-.8 1.1.4 1.9 1.3 1.9 3.1h-1.9c-2.2 6.6 2.2 15.4 5.5 16.9.2 1.6-.2 1.9-.2 1.9h-17s-.4-.3-.2-1.9c3.3-1.5 7.8-10.3 5.5-16.9h-1.9c0-1.8.7-2.7 1.9-3.1m.1-2.4l-.9.3c-2.2.7-3.4 2.6-3.4 5.1v2.2h2.4c.8 5.4-2.7 11.8-4.7 12.7l-1.1.5-.2 1.2c-.4 2.4.4 3.5 1 4l.6.5h18.6l.6-.5c.7-.5 1.4-1.6 1-4l-.2-1.2-1.1-.5c-2-.9-5.5-7.4-4.7-12.7h2.4v-2.2c0-2.5-1.2-4.4-3.4-5.1l-.9-.3-.8.4c-.7.4-1.4.5-2.1.5-.7 0-1.5-.2-2.1-.5l-1-.4z" class="c"/><path d="M545.2 191.3v2.4H523v-2.4h22.2m2.2-2.2h-26.6v6.8h26.6v-6.8z" class="c"/><path class="e" d="M528.1 171.3h12"/><circle cx="534.1" cy="161.1" r="5.7" class="e"/></svg>