<svg xmlns="http://www.w3.org/2000/svg" viewBox="0 0 2500 375"><style>.a{fill:#CEA472;}.b{fill:#EBCB96;stroke-linejoin:round;stroke-width:3;stroke:#EBCB96;}.c{fill:#99623C;}.d{fill:#EFD9B1;}.e{fill:#EBCB96;}.f{fill:#F3EBDF;}.g{fill:#7C5031;}.h{fill:#CEAE84;}.i{fill:#666B56;}.j{fill:none;stroke-width:4;stroke:#0E423A;}.k{fill:none;stroke-linejoin:round;stroke-width:4;stroke:#003F33;}.l{fill:none;stroke-width:4;stroke:#003F33;}.m{fill:none;stroke-linejoin:round;stroke-width:4;stroke:#0E423A;}.n{fill:#B9896E;}.o{fill:#996D60;}.p{fill:#D3A994;}.q{fill:none;stroke-linejoin:round;stroke-width:4;stroke:#3F3117;}.r{fill:none;stroke-linejoin:round;stroke-width:4;stroke:#010101;}.s{fill:#594319;stroke-linejoin:round;stroke-width:4;stroke:#3F3117;}.t{fill:none;stroke-linejoin:round;stroke-width:4;stroke:#3C2C14;}.u{fill:#CB8F71;}.v{fill:#41141C;}.w{fill:#CEB1AE;}.x{fill:#3A1215;}.y{fill:#DBC2C0;}.z{fill:#E0A892;}.A{fill:#996556;}.B{fill:#63483C;}.C{fill:#562B36;}.D{fill:none;stroke-width:4;stroke:#27153C;}.E{fill:none;stroke-width:4;stroke:#301218;}.F{fill:#442A3D;stroke-width:4;stroke:#27153C;}.G{fill:#242F49;}.H{fill:#845B3E;}.I{fill:#AA6D53;}.J{fill:#CC8A76;}.K{fill:none;stroke-width:4;stroke:#152B44;}.L{fill:none;stroke-width:4;stroke:#152235;}.M{fill:#FCCAAD;}.N{fill:#442B2B;}.O{fill:#562B2B;}.P{fill:#D8A380;}.Q{fill:#F8DAC5;}.R{fill:#331D1D;}.S{fill:#DDB89E;}.T{fill:#3C7268;}.U{fill:#FDDFCF;}.V{fill:#C5485B;}.W{fill:#4C3939;}.X{fill:none;stroke-linejoin:round;stroke-width:4;stroke:#501426;}.Y{fill:none;stroke-linejoin:round;stroke-width:3;stroke:#501426;}</style><rect x="1000" width="500" height="375" fill="#61C4B5"/><path d="M1308.1 236.7L1308.1 236.7c0 0 61.7 29.2 72.6 34.3 19.4 9.1 29.6 20.9 36.7 25.8 7.1 4.9 23.6 8.5 30.5 15.4 6.9 6.9 14.7 22.1 14.7 22.1h-425.1c0 0 7.8-15.2 14.7-22.1 6.9-6.9 23.3-10.5 30.5-15.4 7.1-4.9 17.4-16.7 36.7-25.8 10.9-5.1 72.5-34.3 72.5-34.3l0 0c1-11.5 1.6-23.1 1.7-25.4 2 10.4 4.6 20.5 8 28.5 8 18.9 25.3 37.9 48.4 38h0c23.1 0 40.5-19.1 48.4-38 3.4-7.9 6-18 8-28.5C1306.5 213.5 1307.1 225.2 1308.1 236.7z" class="a"/><path d="M1313.1 151C1313.1 150.9 1313.1 150.9 1313.1 151c0-0.1 0-0.1 0-0.2 0 0 0-0.1 0-0.1 0.4-3.4 1.3-11 2.2-19.3 4.8-5.5 9.8-8.7 12.5-6 2.7 2.7 4.2 13.2 2.4 19.6 -1.7 6.4-5.7 19.2-10.7 24.5 3.8 9.3-1 13.3-8.2 9.8l-0.5 0c1.3-12.6 1.8-22.6 1.9-25.6C1313 152.7 1313 151.8 1313.1 151z" class="a"/><path d="M1267.8 309.2c11.6 0 33.4-10.7 46.9-27.6 26.1 2.9 59.2 17.2 72.9 26.9 18.1 12.8 28 0.7 41.4 25.9h-168.3C1275.9 325.8 1278.7 317.4 1267.8 309.2z" class="b"/><path d="M1266.3 308.2c0.5 0.4 1 0.7 1.5 1.1C1266.9 309.1 1266.3 308.8 1266.3 308.2z" class="b"/><path d="M1315.3 131.4c-0.9 8.3-1.8 15.9-2.2 19.3 0.3-2.9 2.8-31-10.3-37.7 4.7-12.5 4.2-29.4-8.9-44.3l-0.2-0.3c3.6-2.1 6.7-4.4 9.4-7.1 0.6 0.8 1.2 1.7 1.8 2.6 12.2 18.5 13.6 35.8 12.1 51.1C1316.6 120 1316 125.9 1315.3 131.4z" class="c"/><path d="M1256.9 146.1c-0.4-1.2 20.1-3.3 26.6-11.3 2.1-0.1 4.2 0 6.1 0.6 0.1 0 0.2 0.1 0.3 0.1 0.1 0 0.2 0.1 0.3 0.1 0.1 0.1 0.3 0.1 0.4 0.1 1.7 0.6 3.1 1.5 4.4 2.4 0.1 0.1 0.2 0.2 0.3 0.3 0 0 2.6-4.6 3.9-7 2.4-2.4 3.1-8.8-8.3-13.7 1.6-4.3 2.5-8.1 2.9-11.6 0.7-4 0.7-8.5-0.8-13.3 0-12.6-9.7-19.4-9.9-19.6 3.8-1.3 7.4-2.9 10.5-4.7 0.1 0 0.1-0.1 0.1-0.1l0.2 0.3c13 14.9 13.6 31.8 8.9 44.3 13.2 6.7 10.6 34.8 10.3 37.7 0 0 0 0 0 0.1 0 0.1 0 0.1 0 0.1s0 0 0 0.1c-0.1 1.1-0.2 1.7-0.2 1.7 0 0 0 0.4 0 1 -2.5 23.7-14.3 35.8-20.2 35.8 0 0 1.5 18.9-3.7 24 -1.9-5.2-4.9-9.2-8.3-12.3 -6-6.1-12.3-8.5-14.7-9.1 2.7-1.5 7-10.2-5.5-19.5 3.4-10.1-0.8-15-2.5-16.4 -0.1-0.1-0.2-0.2-0.3-0.3 -0.1-0.1-0.2-0.2-0.3-0.2 0 0-0.1-2.1-0.1-4.3C1257.1 149.1 1257 146.7 1256.9 146.1zM1283.1 147.4c-3.6-1.6-6.7-2.2-9.7-1.4 -3.7 1.1-7.7 4.6-9.4 7.4 -0.2 0.4-0.4 0.8-0.5 1.2 0 0 0 0.1 0 0.1 0.1 0.9 1.2 1.6 2.6 2.3 1.4 0.7 3 1.3 4.3 2 11.3 8.5 20.4 8.5 26.7-2.7 -1.1-1.5-6.4-5.2-6.4-5.2C1288.8 149.4 1286.2 148.2 1283.1 147.4L1283.1 147.4z" class="a"/><path d="M1193.6 211.2c-2.1-10.9-3.5-22.2-4.5-32 -1.2-11.8-1.7-21.3-1.9-25 2.6 23 14 34.8 19.9 35.1 0.1 0 0.2 0 0.2 0 0 0-1.5 18.9 3.7 24.1 0 0 0 0 0 0 0 0 0 0 0 0 0.1-0.2 0.2-0.4 0.2-0.7 2.1-4.7 4.8-8.3 7.5-11.2 8.8-8.5 20.4-10.2 20.4-10.2 3.7 0.9 6.1 4.6 10.8 4.6 0 0 0 0 0 0 4.7 0 7.1-3.6 10.8-4.6 0 0 11.1 1.6 19.9 9.7 3 3.1 5.9 7.1 8.2 12.3 5.2-5.2 3.7-24.1 3.7-24.1 5.9 0 17.7-12.1 20.2-35.8 -0.1 3.1-0.6 13-1.9 25.6 -1 9.7-2.4 21.1-4.5 32 -2 10.5-4.6 20.5-8 28.5 -8 18.9-25.3 37.9-48.4 38h0c-23.1 0-40.5-19.1-48.4-38C1198.2 231.7 1195.6 221.7 1193.6 211.2 1193.6 211.2 1193.6 211.2 1193.6 211.2zM1276.1 216.5c-5.2-4.7-10.8-8.6-18.2-9.8 -2.7 5.5-13 5.4-15.7 0 -7.4 1.2-13.1 5.1-18.3 9.8C1236.4 228.2 1263.7 228.2 1276.1 216.5z" class="c"/><path d="M1232.2 309.2c-11.6 0-33.4-10.7-46.9-27.6 -26.1 2.9-59.2 17.2-72.9 26.9 -18.1 12.8-28 0.7-41.4 25.9h168.3C1224.1 325.8 1221.3 317.4 1232.2 309.2z" class="b"/><path d="M1233.7 308.2c-0.5 0.4-1 0.7-1.5 1.1C1233.1 309.1 1233.7 308.8 1233.7 308.2z" class="b"/><path d="M1233.7 308.2c0 17 32.6 17 32.6 0 19.4 3 48.4-26.5 48.4-26.5v52.7H1184l6.1-25.6L1233.7 308.2z" class="b"/><path d="M1290.9 117.7c11.4 4.9 10.7 11.3 8.3 13.7C1302.9 120.1 1291.7 121.4 1290.9 117.7z" class="d"/><path d="M1206.8 93.5c0-0.2 0.1-0.4 0.1-0.7 0-12.8 10-19.6 10-19.6s-0.1 0-0.3-0.1c9.3 3.2 20.5 4.9 33.4 4.9h0c12.7 0 23.8-1.6 33.1-4.8 0.2 0.2 10 7 10 19.6 0.9 4 1.4 8.4 0.8 13.3 -0.6 3.7-1.8 7.1-2.8 10.2 -0.2 0.5-0.2 1-0.1 1.4 0.8 3.7 11.9 2.4 8.3 13.7 -1.3 2.4-3.9 7-3.9 7 -0.1-0.1-0.2-0.2-0.3-0.3 -1.4-1.1-2.9-1.9-4.4-2.4 -0.1-0.1-0.3-0.1-0.4-0.1 -0.1 0-0.2-0.1-0.3-0.1 -0.1 0-0.2-0.1-0.3-0.1 -1.8-0.5-3.8-0.8-6.1-0.6 -9.7 9.7-26.6 11.3-26.6 11.3s-0.8 5.7 0.4 9.5c0 0 0 0 0 0 0 0 0.1 0.1 0.3 0.2 0.1 0.1 0.2 0.2 0.3 0.3 1.5 1.4 5.1 5.8 2.5 16.4 5.2 6 12.3 12.7 5.5 19.5 -2.1-0.9-3.7-0.9-5.2-0.6 -3.7 0.9-6.1 4.6-10.8 4.6 0 0 0 0 0 0 -4.7 0-7.1-3.6-10.8-4.6 -1.5-0.4-3.1-0.3-5.2 0.6 0 0 0 0 0 0 -6.7-6.8 0.3-13.4 5.5-19.4 0 0 0 0 0 0 -2.9-12.1 2.1-16.2 3-16.8 0.1-0.1 0.1-0.1 0.1-0.1 1.2-3.8 0.4-9.5 0.4-9.5s0 0 0 0c0.8-1.2-8.2-1.5-16.4-4.5 -3.6-1.6-7.2-3.8-10.2-6.8 -1.8-0.2-3.5 0-5.1 0.3 -2.4 0.5-4.7 1.5-6.8 3.3 0 0-2.5-4.6-3.9-7l0 0c-3.6-11.3 7.5-10 8.3-13.7 0.1-0.4 0.1-0.8-0.1-1.4 -1.1-3.3-2.4-7-2.9-11.1C1205.6 101 1206 97.1 1206.8 93.5z" class="e"/><circle cx="1248.6" cy="98.6" r="32.8" class="f"/><path d="M1258.3 182.3c0 3.9-3.7 6.4-8.4 6.4s-8.4-2.5-8.4-6.4c0-3.9 3.7-7.8 8.4-7.8S1258.3 178.4 1258.3 182.3z" class="f"/><path d="M1255.4 167.3c0 7.2-2.4 16.8-5.5 16.8s-5.5-9.6-5.5-16.8c0-7.2 2.4-9.1 5.5-9.1S1255.4 160.1 1255.4 167.3z" class="f"/><path d="M1303.2 61.3c-2.7 2.7-5.8 5.1-9.4 7.1 -0.1 0-0.1 0.1-0.2 0.1 -3.2 1.8-10.1 4.5-10.5 4.7 0 0 0 0 0 0 -9.2 3.1-20.3 4.8-33.1 4.8h0c-12.9 0-24.1-1.7-33.4-4.9 0 0 0 0 0 0 -1.3-0.5-6.1-2.4-9.2-4 0 0 0 0 0 0 -0.4-0.2-0.8-0.4-1.1-0.6 -3.6-2.1-6.7-4.4-9.4-7.1 18-24.3 46.4-23.8 53.2-23.8h0C1256.8 37.5 1285.2 37 1303.2 61.3z" class="g"/><path d="M1293 92.8c1.5 4.9 1.5 9.3 0.8 13.3C1294.4 101.2 1294 96.9 1293 92.8z" class="h"/><path d="M1290.7 151.2c0 0 5.3 3.7 6.4 5.2 -6.3 11.2-15.4 11.2-26.7 2.7 -1.3-0.7-2.9-1.3-4.3-2 -1.4-0.7-2.4-1.4-2.6-2.3 0 0 0-0.1 0-0.1 0.1-0.4 0.3-0.8 0.5-1.2 0 0 0 0 0 0 1.5-2.4 5.2-4.9 9.3-7.4 0.4 0 0.7 0.1 1.1 0.1l0 0c0 0 0 0 0 0 -1 0.9-1.7 2.3-1.7 3.8 0 2.7 2.1 4.9 4.8 5 0.1 0 0.2 0 0.3 0 0.1 0 0.1 0 0.2 0 2.7-0.1 4.8-2.3 4.8-5 0-1-0.3-1.9-0.8-2.7 0.3 0.1 0.7 0.2 1 0.2h0C1285.4 148.3 1287.9 149.7 1290.7 151.2z" class="e"/><path d="M1291.1 116.4c1-3.1 2.2-6.5 2.8-10.2 -0.4 3.5-1.3 7.3-2.9 11.6C1290.9 117.3 1290.9 116.9 1291.1 116.4z" class="d"/><path d="M1295 138.1c-1.3-0.9-2.7-1.8-4.4-2.4C1292.2 136.3 1293.6 137.1 1295 138.1z" class="h"/><path d="M1290.7 135.7c-0.1 0-0.3-0.1-0.4-0.1C1290.4 135.6 1290.5 135.7 1290.7 135.7z" class="h"/><path d="M1289.9 135.5c-0.1 0-0.2-0.1-0.3-0.1C1289.7 135.4 1289.8 135.5 1289.9 135.5z" class="d"/><path d="M1283.1 73.2c0.4-0.2 7.3-2.9 10.5-4.7C1290.4 70.4 1286.9 71.9 1283.1 73.2z" class="h"/><path d="M1283.2 147.4c3.1 0.8 5.7 2 7.5 3.8C1287.9 149.7 1285.4 148.3 1283.2 147.4z" class="h"/><path d="M1283.5 134.8c2.3-0.2 4.3 0.1 6.1 0.6C1287.7 134.8 1285.6 134.7 1283.5 134.8z" class="d"/><path d="M1283.2 147.4c-0.3-0.1-0.7-0.2-1-0.2 0 0 0 0 0 0l0 0c-0.3-0.1-0.6-0.1-0.8-0.2 -0.3-0.1-0.6-0.1-0.9-0.2 -0.3-0.1-0.6-0.1-0.9-0.2 -0.3 0-0.6-0.1-0.9-0.1 -0.1 0-0.1 0-0.2 0 -0.2 0-0.4-0.1-0.6-0.1 -0.1 0-0.2 0-0.3 0 0 0 0 0 0 0 -0.3 0-0.6-0.1-0.8-0.1 -0.6-0.1-1.2-0.1-1.8-0.2 -0.1 0-0.2 0-0.2 0 -0.4 0-0.7-0.1-1.1-0.1C1276.4 145.2 1279.5 145.8 1283.2 147.4z" class="d"/><path d="M1282.1 147.1c0.5 0.8 0.8 1.7 0.8 2.7 0 2.7-2.1 4.9-4.8 5 2.7-0.1 4.8-2.3 4.8-5C1282.9 148.8 1282.6 147.9 1282.1 147.1c-0.5-0.1-0.9-0.2-1.4-0.3 -0.2 0-0.3-0.1-0.5-0.1 -0.2 0-0.3-0.1-0.5-0.1s-0.3 0-0.5-0.1c-0.1 0-0.2 0-0.4-0.1 -0.2 0-0.5-0.1-0.7-0.1 -0.2 0-0.4-0.1-0.6-0.1 -0.1 0-0.2 0-0.3 0 -0.3 0-0.6-0.1-0.9-0.1 -0.6-0.1-1.2-0.1-1.8-0.2 -0.1 0-0.1 0-0.2 0l0 0c0.1 0 0.2 0 0.2 0 0.6 0 1.2 0.1 1.8 0.2 0.3 0 0.6 0.1 0.8 0.1 0 0 0 0 0 0 0.1 0 0.2 0 0.3 0 0.2 0 0.4 0.1 0.6 0.1 0.1 0 0.1 0 0.2 0 0.3 0 0.6 0.1 0.9 0.1 0.3 0 0.6 0.1 0.9 0.2 0.3 0.1 0.6 0.1 0.9 0.2C1281.5 147 1281.8 147.1 1282.1 147.1L1282.1 147.1C1282.1 147.1 1282.1 147.1 1282.1 147.1z" class="d"/><path d="M1282.1 147.1c0.5 0.8 0.8 1.7 0.8 2.7 0 2.7-2.1 4.9-4.8 5 -0.1 0-0.1 0-0.2 0 -0.1 0-0.2 0-0.3 0 -2.7-0.1-4.8-2.3-4.8-5 0-1.5 0.7-2.9 1.7-3.8 0.1 0 0.1 0 0.2 0 0.6 0 1.2 0.1 1.8 0.2 0.3 0 0.6 0.1 0.9 0.1 0.1 0 0.2 0 0.3 0 0.2 0 0.4 0.1 0.6 0.1 0.2 0 0.5 0.1 0.7 0.1 0.1 0 0.2 0 0.4 0.1 0.2 0 0.3 0 0.5 0.1s0.3 0.1 0.5 0.1c0.2 0 0.3 0.1 0.5 0.1C1281.2 146.9 1281.7 147 1282.1 147.1z" class="i"/><path d="M1282.1 147.1c-0.3-0.1-0.6-0.1-0.8-0.2C1281.5 147 1281.8 147.1 1282.1 147.1z" class="d"/><path d="M1289 213.5c-2.3-5.2-5.2-9.2-8.2-12.3C1284.1 204.2 1287.1 208.2 1289 213.5z" class="h"/><path d="M1280.4 146.8c0.3 0.1 0.6 0.1 0.9 0.2C1281 146.9 1280.7 146.8 1280.4 146.8z" class="d"/><path d="M1277.4 146.3c-0.3 0-0.6-0.1-0.8-0.1C1276.8 146.3 1277.1 146.3 1277.4 146.3z" class="d"/><path d="M1266 192c2.4 0.6 8.8 3 14.7 9.1 -8.8-8.1-19.9-9.7-19.9-9.7C1262.3 191 1263.9 191.1 1266 192z" class="d"/><path d="M1274.5 146.1C1274.5 146.1 1274.5 146.1 1274.5 146.1c-1 0.9-1.7 2.3-1.7 3.8 0 2.7 2.1 4.9 4.8 5 -2.7-0.1-4.8-2.3-4.8-5C1272.8 148.3 1273.5 147 1274.5 146.1z" class="d"/><path d="M1257.9 206.7c7.4 1.2 13.1 5.1 18.2 9.8 -9.9-3.8-25.5-1-26.1-0.9 -0.7-0.1-16.2-2.9-26.1 0.9 5.2-4.7 10.8-8.6 18.3-9.8C1244.8 212.1 1255.2 212.2 1257.9 206.7z" fill="#AA6E5D"/><path d="M1264.1 153.4c1.6-2.8 5.6-6.4 9.3-7.4C1269.3 148.5 1265.6 151 1264.1 153.4z" class="d"/><path d="M1266 192c6.8-6.8-0.3-13.4-5.5-19.5C1273 181.8 1268.8 190.5 1266 192z" class="d"/><path d="M1264.1 153.4c-0.2 0.4-0.4 0.8-0.5 1.2C1263.7 154.2 1263.8 153.8 1264.1 153.4z" class="h"/><path d="M1250 215.6c0.7-0.1 16.2-2.9 26.1 0.9 -12.5 11.7-39.8 11.7-52.2 0C1233.8 212.7 1249.3 215.5 1250 215.6 1250 215.6 1250 215.6 1250 215.6L1250 215.6C1250 215.6 1250 215.6 1250 215.6z" fill="#E8A18B"/><path d="M1258 156.1c1.7 1.4 5.9 6.3 2.5 16.4C1263.1 161.9 1259.5 157.4 1258 156.1z" class="d"/><path d="M1257.3 155.6c0 0 0.1 0.1 0.3 0.2C1257.5 155.7 1257.4 155.6 1257.3 155.6z" class="h"/><path d="M1243.1 146.1c0 0 0.8 5.7-0.4 9.5 0 0 0 0-0.1 0.1l0 0c0.1 0 0.1-0.1 0.1-0.1S1242.9 147.2 1243.1 146.1C1243 146.1 1243 146.1 1243.1 146.1 1243.1 146.1 1243.1 146.1 1243.1 146.1z" class="d"/><path d="M1226.6 141.6c8.2 3 17.2 3.3 16.4 4.5C1242.4 146.1 1234.6 145.2 1226.6 141.6z" class="h"/><path d="M1215.7 165.1c4.1-0.1 8.8-2.2 13.9-6.1 1.3-0.7 2.9-1.3 4.3-2 1.4-0.7 2.4-1.4 2.6-2.3 -0.2-0.6-0.5-1.2-1-1.9 -1.8-2.7-5.4-5.8-8.9-6.8 0 0 0 0 0 0 0 0 0 0 0 0l0 0c-3-0.8-6.1-0.2-9.8 1.4 -3 0.8-5.5 2-7.3 3.7 0 0-0.1 0-0.1 0.1 0 0-5.3 3.7-6.4 5.2 3.3 5.8 7.3 8.6 12 8.8C1215.2 165.1 1215.4 165.1 1215.7 165.1zM1211.4 135.1c1.6-0.3 3.3-0.4 5-0.3 2.4 3.2 6.2 5.3 10.2 6.8 7.9 3.6 15.8 4.5 16.4 4.5 0 0 0 0 0 0 -0.1 1.1-0.4 9.5-0.4 9.5s0 0-0.1 0.1c-0.9 0.6-7 5.3-3.1 16.9 -12.5 9.3-8.3 18-5.5 19.5 -2.5 0.6-9.1 3.1-15.2 9.6 -3 2.9-5.7 6.6-7.5 11.2 -0.1 0.2-0.2 0.4-0.3 0.6 -5.2-5.2-3.7-24-3.7-24 0 0 0 0 0 0 -0.1 0-0.2 0-0.2 0 -6-0.4-17.4-12.4-19.9-35.8 0-0.6 0-1 0-1 0 0-0.1-0.6-0.2-1.7 0 0 0 0 0 0 0 0 0-0.1 0-0.1 0 0 0-0.1 0-0.1 -0.3-2.9-2.8-31 10.3-37.7 -4.7-12.5-4.2-29.4 8.9-44.3l0.2-0.3c0.3 0.2 0.7 0.4 1.2 0.6 0 0 0 0 0 0 2.8 1.5 5.9 2.9 9.2 4 0 0 0 0 0 0 0.2 0.1 0.3 0.1 0.3 0.1s-10 6.8-10 19.6c-0.1 0.2-0.1 0.4-0.1 0.7 -1.2 4.2-1.3 8.2-0.8 11.8 0.3 3.7 1.3 7.8 3 12.5 -11.4 4.9-10.7 11.3-8.3 13.7 0 0 0 0 0 0 1.3 2.4 3.9 7 3.9 7C1206.8 136.7 1209 135.6 1211.4 135.1z" class="a"/><path d="M1242.5 155.7L1242.5 155.7c-0.9 0.6-6 4.8-3 16.9 0 0 0 0 0 0l0 0C1235.6 160.9 1241.7 156.3 1242.5 155.7z" class="d"/><path d="M1239.5 172.5L1239.5 172.5c-5.2 6.1-12.2 12.7-5.5 19.5l0 0C1231.2 190.5 1227 181.8 1239.5 172.5z" class="d"/><path d="M1234 192c2.1-0.9 3.7-0.9 5.2-0.6 0 0-11.6 1.6-20.4 10.2C1224.9 195.1 1231.4 192.6 1234 192L1234 192C1234 192 1234 192 1234 192z" class="d"/><path d="M1214.9 165.1c-4.7-0.2-8.7-2.9-12-8.8 1.1-1.5 6.4-5.2 6.4-5.2 0 0 0.1 0 0.1-0.1 0 0 0.1 0 0.1-0.1 2.6-1.5 5-2.7 7.2-3.6 0.4-0.1 0.7-0.2 1.1-0.3 -0.5 0.8-0.8 1.7-0.8 2.7 0 2.7 2.1 4.9 4.8 5 0.1 0 0.2 0 0.3 0 0.1 0 0.1 0 0.2 0 2.7-0.1 4.8-2.3 4.8-5 0-1.5-0.7-2.9-1.7-3.8 0.4 0 0.7-0.1 1.1-0.1 0 0 0.1 0 0.1 0 3.8 2.3 7.2 4.6 8.9 6.8 0.4 0.7 0.8 1.3 1 1.9 -0.1 0.9-1.2 1.6-2.6 2.3 -1.4 0.7-3 1.3-4.3 2 -5.1 3.9-9.7 6-13.9 6.1C1215.4 165.1 1215.2 165.1 1214.9 165.1z" class="e"/><path d="M1235.5 152.8c-1.7-2.2-5.1-4.5-8.9-6.8C1230.1 147 1233.7 150.1 1235.5 152.8z" class="d"/><path d="M1239.6 172.5c-20 4-30.9 17.8-28.2 40.3 3-8.9 11-15.6 22.7-20.8L1239.6 172.5z" class="e"/><path d="M1225.4 146.1c1 0.9 1.7 2.3 1.7 3.8 0 2.7-2.1 4.9-4.8 5 2.7-0.1 4.8-2.3 4.8-5C1227.1 148.3 1226.4 147 1225.4 146.1 1225.4 146.1 1225.4 146.1 1225.4 146.1z" class="d"/><path d="M1217.9 147.1C1217.9 147.1 1217.9 147.1 1217.9 147.1c0.4-0.1 0.9-0.2 1.3-0.3 0.2 0 0.3-0.1 0.5-0.1 0.2 0 0.3-0.1 0.5-0.1 0.2 0 0.3 0 0.5-0.1 0.1 0 0.2 0 0.4-0.1 0.2 0 0.5-0.1 0.7-0.1 0.2 0 0.4-0.1 0.6-0.1 0.1 0 0.2 0 0.3 0 0.3 0 0.6-0.1 0.8-0.1 0 0 0 0 0 0 0.6-0.1 1.2-0.1 1.8-0.2 0.1 0 0.1 0 0.2 0 1 0.9 1.7 2.3 1.7 3.8 0 2.7-2.1 4.9-4.8 5 -0.1 0-0.1 0-0.2 0 -0.1 0-0.2 0-0.3 0 -2.7-0.1-4.8-2.3-4.8-5C1217.1 148.9 1217.4 147.9 1217.9 147.1z" class="i"/><path d="M1226.6 146C1226.6 146 1226.5 146 1226.6 146 1226.5 146 1226.5 146 1226.6 146 1226.6 146 1226.6 146 1226.6 146z" class="h"/><path d="M1226.5 146L1226.5 146c-0.4 0-0.7 0.1-1.1 0.1 0 0 0 0 0 0l0 0c-0.1 0-0.2 0-0.2 0 -0.6 0-1.2 0.1-1.8 0.2 -0.3 0-0.6 0.1-0.9 0.1 -0.1 0-0.2 0-0.3 0 -0.2 0-0.4 0.1-0.6 0.1 -0.1 0-0.1 0-0.2 0 -0.3 0-0.6 0.1-0.9 0.1 -0.3 0-0.6 0.1-0.9 0.2 -0.3 0.1-0.6 0.1-0.9 0.2 -0.3 0.1-0.6 0.1-0.9 0.2 0 0 0 0 0 0 0 0 0 0 0 0 -0.4 0.1-0.7 0.2-1.1 0.3C1220.4 145.8 1223.5 145.2 1226.5 146z" class="d"/><path d="M1260.5 172.5c20 4 30.9 17.8 28.2 40.3 -3-8.9-11-15.6-22.7-20.8L1260.5 172.5z" class="e"/><path d="M1225.4 146.1L1225.4 146.1c-0.1 0-0.1 0-0.2 0 -0.6 0-1.2 0.1-1.8 0.2 0 0 0 0 0 0 -0.3 0-0.6 0.1-0.8 0.1 -0.1 0-0.2 0-0.3 0 -0.2 0-0.4 0.1-0.6 0.1 -0.2 0-0.5 0.1-0.7 0.1 -0.1 0-0.2 0-0.4 0.1 -0.2 0-0.3 0-0.5 0.1 -0.2 0-0.3 0.1-0.5 0.1 -0.2 0-0.3 0.1-0.5 0.1 -0.4 0.1-0.9 0.2-1.3 0.3 0 0 0 0-0.1 0 0 0 0 0 0 0 0 0 0 0 0 0 0.3-0.1 0.6-0.1 0.9-0.2 0.3-0.1 0.6-0.1 0.9-0.2 0.3-0.1 0.6-0.1 0.9-0.2 0.3 0 0.6-0.1 0.9-0.1 0.1 0 0.1 0 0.2 0 0.2 0 0.4-0.1 0.6-0.1 0.1 0 0.2 0 0.3 0 0.3 0 0.6-0.1 0.9-0.1 0.6-0.1 1.2-0.1 1.8-0.2C1225.2 146.1 1225.3 146.1 1225.4 146.1z" class="d"/><path d="M1223.4 146.3c-0.3 0-0.6 0.1-0.8 0.1C1222.8 146.3 1223.1 146.3 1223.4 146.3z" class="d"/><path d="M1217.1 149.9c0 2.7 2.1 4.9 4.8 5C1219.2 154.8 1217 152.6 1217.1 149.9c0-1 0.2-1.9 0.7-2.7 0 0 0 0 0.1 0C1217.4 147.9 1217.1 148.9 1217.1 149.9z" class="d"/><path d="M1217.9 147.1C1217.9 147.1 1217.9 147.1 1217.9 147.1 1217.8 147.1 1217.8 147.1 1217.9 147.1 1217.8 147.2 1217.8 147.1 1217.9 147.1 1217.8 147.1 1217.8 147.1 1217.9 147.1z" class="d"/><path d="M1217.8 147.1C1217.8 147.1 1217.8 147.2 1217.8 147.1c-0.4 0.1-0.8 0.2-1.1 0.3 0 0 0 0 0.1 0C1217.1 147.3 1217.4 147.2 1217.8 147.1z" class="d"/><path d="M1216.5 134.8c3 3 6.6 5.2 10.2 6.8C1222.6 140.1 1218.8 138 1216.5 134.8c-1.8-0.1-3.4 0-5.1 0.3C1213 134.8 1214.6 134.7 1216.5 134.8z" class="d"/><path d="M1216.7 147.4C1216.7 147.4 1216.7 147.4 1216.7 147.4c-3 0.8-5.5 2-7.2 3.7 0 0-0.1 0-0.1 0.1C1211.2 149.4 1213.7 148.2 1216.7 147.4z" class="h"/><path d="M1209.5 151.1c1.8-1.7 4.2-2.9 7.2-3.6C1214.5 148.4 1212.1 149.6 1209.5 151.1z" class="h"/><path d="M1207.4 69.1c3.1 1.6 7.9 3.5 9.2 4C1213.3 72 1210.2 70.6 1207.4 69.1z" class="h"/><path d="M1211.3 212.8c1.8-4.7 4.5-8.3 7.5-11.2C1216 204.5 1213.4 208.1 1211.3 212.8z" class="h"/><path d="M1211 213.4c0.1-0.2 0.2-0.4 0.3-0.6C1211.2 213 1211.1 213.2 1211 213.4 1211 213.4 1211 213.4 1211 213.4z" class="d"/><path d="M1211 213.4C1211 213.4 1211 213.4 1211 213.4c-5.2-5.2-3.7-24-3.7-24 0 0 0 0 0 0C1207.3 189.4 1205.8 208.2 1211 213.4z" class="h"/><path d="M1208.9 116.4c0.2 0.5 0.2 1 0.1 1.4l0 0c-1.8-4.6-2.7-8.7-3-12.5C1206.5 109.4 1207.8 113 1208.9 116.4z" class="d"/><path d="M1209 117.7L1209 117.7c-0.8 3.7-11.9 2.4-8.3 13.7l0 0c0 0 0 0 0 0C1198.3 129 1197.6 122.7 1209 117.7z" class="d"/><path d="M1206.2 68.5c0.4 0.2 0.8 0.4 1.1 0.6C1207 68.9 1206.6 68.7 1206.2 68.5L1206.2 68.5z" class="d"/><path d="M1184.7 131.4c-0.6-5.5-1.2-11.4-1.7-16.4 -1.5-15.3-0.1-32.6 12.1-51.1 0.6-0.9 1.2-1.8 1.8-2.6 2.7 2.7 5.8 5.1 9.4 7.1l0 0c0 0 0 0 0 0l-0.2 0.3c-13 14.9-13.6 31.8-8.9 44.3 -11.9 6.1-11 29.6-10.4 36.2C1186.2 145.4 1185.5 138.6 1184.7 131.4z" class="c"/><path d="M1206.2 68.5l-0.2 0.3c-13 14.9-13.6 31.8-8.9 44.3 -13.2 6.7-10.6 34.8-10.3 37.7 -0.1-0.4-0.1-0.9-0.2-1.5 -0.5-6.6-1.5-30.1 10.4-36.2 -4.7-12.5-4.2-29.4 8.9-44.3L1206.2 68.5C1206.2 68.5 1206.2 68.5 1206.2 68.5z" class="h"/><path d="M1206.8 93.5c-0.8 3.6-1.2 7.4-0.8 11.8C1205.5 101.7 1205.6 97.8 1206.8 93.5z" class="h"/><path d="M1187.1 153.6c2.5 23.3 13.9 35.4 19.9 35.8 -5.9-0.3-17.3-12.2-19.9-35.1C1187.2 154 1187.2 153.8 1187.1 153.6z" class="h"/><path d="M1186.8 150.9C1186.9 150.9 1186.9 150.9 1186.8 150.9 1186.9 150.9 1186.9 150.9 1186.8 150.9c0.1 0.5 0.1 0.9 0.1 1.2 0 0 0 0 0 0 0 0.3 0 0.5 0.1 0.8 0 0 0 0 0 0 0 0.2 0 0.4 0 0.7 0 0.2 0 0.5 0.1 0.7 0.2 3.7 0.7 13.2 1.9 25l-0.5 0c-7.1 3.5-12-0.5-8.2-9.8 -5-5.2-9-18.1-10.7-24.5 -1.7-6.4-0.3-16.8 2.4-19.6 2.7-2.7 7.7 0.5 12.5 6 0.8 7.2 1.6 13.9 2 17.8C1186.8 150 1186.8 150.5 1186.8 150.9 1186.8 150.8 1186.8 150.8 1186.8 150.9z" class="a"/><path d="M1187.2 154.3c0-0.2-0.1-0.5-0.1-0.7 0-0.3 0-0.5 0-0.7 0 0.2 0 0.5 0.1 0.7C1187.2 153.8 1187.2 154 1187.2 154.3z" class="h"/><path d="M1187.1 152.6c0 0 0 0.4 0 1 0-0.2-0.1-0.5-0.1-0.7 0 0 0 0 0 0C1187.1 152.7 1187.1 152.6 1187.1 152.6c0 0-0.1-0.2-0.1-0.5 0 0 0 0 0 0 0-0.4-0.1-0.7-0.1-1.1C1187 152 1187.1 152.6 1187.1 152.6z" class="h"/><path d="M1186.9 151c0 0.4 0.1 0.7 0.1 1.1C1187 151.8 1186.9 151.4 1186.9 151 1186.9 150.9 1186.9 150.9 1186.9 151 1186.9 150.9 1186.9 150.9 1186.9 151L1186.9 151z" class="h"/><path d="M1186.9 150.9C1186.9 150.9 1186.9 150.9 1186.9 150.9L1186.9 150.9c-0.1-0.1-0.1-0.1-0.1-0.1 0-0.3-0.1-0.8-0.1-1.6 0.1 0.6 0.1 1.1 0.2 1.5 0 0 0 0.1 0 0.1C1186.9 150.8 1186.9 150.9 1186.9 150.9z" class="h"/><path d="M1250 37.5L1250 37.5c-6.2 0-30-0.5-47.8 17.4 1.3 0.9 2.6 1.8 4 2.6 0.4 0.2 0.8 0.4 1.1 0.6 0 0 0 0 0 0 3.1 1.6 7.9 3.5 9.2 4 0 0 0 0 0 0 9.3 3.2 20.5 4.9 33.4 4.9h0c12.7 0 23.8-1.6 33.1-4.8 0 0 0 0 0 0 0.4-0.2 7.3-2.9 10.5-4.7 0.1 0 0.1-0.1 0.2-0.1 1.4-0.8 2.7-1.7 4-2.6C1280 37.1 1256.1 37.5 1250 37.5z" class="c"/><path d="M1239.5 172.5C1239.5 172.5 1239.5 172.5 1239.5 172.5c-5.2 6.1-12.3 12.7-5.6 19.5 0 0 0 0 0 0 2.1-0.9 3.7-0.9 5.2-0.6 3.7 0.9 6.1 4.6 10.8 4.6" class="j"/><path d="M1223.4 146.3c-0.3 0-0.6 0.1-0.8 0.1" class="j"/><path d="M1230.4 244.8l19.3 32.8c-65.1-2.6-61-113.1-63-128.4 2 19.8 7.4 34.9 20.3 40.2 -0.7 9.3 0.1 17.6 4 24C1209 225.1 1219.6 242.7 1230.4 244.8z" class="g"/><path d="M1236.5 154.7c-0.2-0.6-0.5-1.3-1-1.9 -1.7-2.2-5.1-4.5-8.9-6.8 0 0 0 0 0 0 0 0 0 0 0 0 -0.4 0-0.7 0-1.1 0.1" class="j"/><path d="M1269.6 244.8c-6.1-11.3-33.1-11.3-39.2 0l19.6 32.8L1269.6 244.8z" class="g"/><path d="M1211 213.5c0.1-0.2 0.2-0.4 0.2-0.7 1.8-4.7 4.5-8.3 7.5-11.2 8.8-8.5 20.4-10.2 20.4-10.2" class="j"/><path d="M1185 131.8c-0.1-0.1-0.2-0.3-0.3-0.4 -4.8-5.5-9.8-8.7-12.5-6 -2.7 2.7-4.2 13.2-2.4 19.6 1.7 6.4 5.6 19.2 10.7 24.5 -3.8 9.3 1 13.3 8.2 9.8" class="j"/><polyline points=" 1175.3 133.4 1186.8 150.9 1186.9 151 " class="j"/><path d="M1198.9 145.5c0 0 3.9-8.4 12.5-10.3 1.5-0.3 3.2-0.5 5.1-0.3 3 3 6.6 5.2 10.2 6.8 7.9 3.6 15.8 4.5 16.4 4.5 0 0 0 0 0 0s0.8 5.7-0.4 9.5c0 0 0 0-0.1 0.1 -0.9 0.6-6 4.8-3 16.8" class="k"/><path d="M1211 213.5C1211 213.4 1211 213.4 1211 213.5c-5.2-5.3-3.7-24.1-3.7-24.1 0 0 0 0 0 0 -0.1 0-0.2 0-0.2 0 -6-0.4-17.4-12.4-19.9-35.8 0-0.2-0.1-0.5-0.1-0.7 0 0 0 0 0 0 0-0.3-0.1-0.5-0.1-0.8 0 0 0 0 0 0 0-0.4-0.1-0.7-0.1-1.1" class="j"/><path d="M1200.8 131.4c-3.6-11.3 7.5-10 8.3-13.7 0.1-0.4 0.1-0.8-0.1-1.4 -1.1-3.3-2.4-7-2.9-11.1 -0.5-3.6-0.4-7.5 0.8-11.8 0.1-0.2 0.1-0.4 0.2-0.7" class="j"/><path d="M1269.6 244.8c-6.1-11.3-33.1-11.3-39.2 0" class="j"/><path d="M1193.6 211.2c-0.1 2.3-0.7 14-1.7 25.4 -0.9 9.6-2 19-3.6 22.7" class="j"/><path d="M1193.6 210.8c0 0 0 0.1 0 0.4" class="j"/><path d="M1191.8 236.7c0 0-61.6 29.2-72.5 34.3 -19.4 9.1-29.6 20.9-36.7 25.8 -7.1 4.9-23.6 8.5-30.5 15.4 -6.9 6.9-14.7 22.1-14.7 22.1h425.1c0 0-7.8-15.2-14.7-22.1 -6.9-6.9-23.3-10.5-30.5-15.4 -7.1-4.9-17.4-16.7-36.7-25.8 -10.9-5.1-72.5-34.3-72.5-34.3" class="l"/><path d="M1229.6 159c-5.1 3.9-9.8 6-13.9 6.1 -0.3 0-0.5 0-0.8 0 -4.7-0.2-8.7-3-12-8.8" class="j"/><path d="M1185.3 281.7c0 0 29 29.5 48.4 26.5" class="j"/><path d="M1186.9 150.7c-0.3-2.9-2.8-31 10.3-37.7 -4.7-12.5-4.2-29.4 8.9-44.3" class="j"/><path d="M1196.8 61.3L1196.8 61.3c2.7 2.7 5.8 5.1 9.4 7.1 0.4 0.2 0.8 0.4 1.1 0.6 0 0 0 0 0 0 2.8 1.5 5.9 2.9 9.2 4 0 0 0 0 0 0 9.3 3.2 20.5 4.9 33.4 4.9" class="j"/><path d="M1244.4 185.7c0 3.6 11.6 3.6 11.6 0" class="j"/><path d="M1260.5 172.5c5.2 6 12.3 12.7 5.5 19.5 -2.1-0.9-3.7-0.9-5.2-0.6 -3.7 0.9-6.1 4.6-10.8 4.6 0 0 0 0 0 0" class="j"/><path d="M1250 215.6c-0.7-0.1-16.2-2.9-26.1 0.9 5.2-4.7 10.8-8.6 18.3-9.8 2.7 5.4 13.1 5.5 15.7 0 7.4 1.2 13.1 5.1 18.2 9.8C1266.2 212.7 1250.7 215.5 1250 215.6" class="m"/><path d="M1250 215.6C1250 215.6 1250 215.6 1250 215.6L1250 215.6C1250 215.6 1250 215.6 1250 215.6z" class="m"/><path d="M1276.1 216.5c-12.5 11.7-39.8 11.7-52.2 0" class="j"/><path d="M1290.7 151.2c-1.8-1.8-4.4-3-7.5-3.8h0c-0.3-0.1-0.7-0.2-1-0.2" class="j"/><path d="M1280.4 146.8c0.3 0.1 0.6 0.1 0.9 0.2 0.3 0.1 0.6 0.1 0.8 0.2" class="j"/><path d="M1276.6 146.3c0.3 0 0.6 0.1 0.8 0.1" class="j"/><path d="M1263.5 154.7c0 0 0-0.1 0-0.1 0.1-0.4 0.3-0.8 0.5-1.2 0 0 0 0 0 0 1.5-2.4 5.2-4.9 9.3-7.4 0.4 0 0.7 0.1 1.1 0.1" class="j"/><path d="M1289 213.5c-1.9-5.2-4.9-9.3-8.2-12.3 -8.8-8.1-19.9-9.7-19.9-9.7" class="j"/><path d="M1315 131.8c0.1-0.1 0.2-0.3 0.3-0.4 4.8-5.5 9.8-8.7 12.5-6 2.7 2.7 4.2 13.2 2.4 19.6 -1.7 6.4-5.7 19.2-10.7 24.5 3.8 9.3-1 13.3-8.2 9.8" class="j"/><line x1="1324.7" y1="133.4" x2="1313.1" y2="151" class="j"/><path d="M1269.5 244.8l-19.3 32.8c65.1-2.6 61-113.1 63-128.4 -2 19.8-7.4 34.9-20.3 40.2 0.7 9.3-0.1 17.6-4 24C1291 225.1 1280.3 242.7 1269.5 244.8z" class="g"/><path d="M1289 213.5c5.2-5.2 3.7-24.1 3.7-24.1 5.9 0 17.7-12.1 20.2-35.8 0.1-0.9 0.2-1.7 0.2-2.6" class="l"/><path d="M1299.2 131.4c3.6-11.3-7.5-10-8.3-13.7 -0.1-0.4-0.1-0.8 0.1-1.4 1-3.1 2.2-6.5 2.8-10.2 0.7-4 0.7-8.5-0.8-13.3" class="j"/><path d="M1306.4 210.8c0 0 0 0.1 0 0.4 0.1 2.3 0.7 14 1.7 25.5 0.9 9.6 2 19 3.6 22.7" class="j"/><path d="M1270.4 159c11.3 8.5 20.4 8.5 26.7-2.7" class="j"/><path d="M1314.7 281.7c0 0-29 29.5-48.4 26.5" class="j"/><path d="M1313.1 150.7c0.3-2.9 2.8-31-10.3-37.7 4.7-12.5 4.2-29.4-8.9-44.3" class="j"/><path d="M1303.2 61.3L1303.2 61.3c-2.7 2.7-5.8 5.1-9.4 7.1 -0.1 0-0.1 0.1-0.2 0.1 -3.2 1.8-6.7 3.4-10.5 4.7 0 0 0 0 0 0 -9.2 3.1-20.3 4.8-33.1 4.8" class="j"/><path d="M1250 37.5c6.8 0 35.2-0.6 53.2 23.8 0.6 0.8 1.2 1.7 1.8 2.6 12.2 18.5 13.6 35.8 12.1 51.1 -0.5 5.1-1.1 10.9-1.7 16.4 -0.9 8.3-1.8 15.9-2.2 19.3 0 0 0 0.1 0 0.1 0 0 0 0.1 0 0.1 0 0 0 0 0 0 -0.1 1.1-0.2 1.7-0.2 1.7 0 0 0 0.4 0 1 -0.1 3.1-0.6 13-1.9 25.6 -1 9.7-2.4 21.1-4.5 32 -2 10.5-4.6 20.5-8 28.5 -8 18.9-25.3 37.9-48.4 38h0c-23.1 0-40.5-19.1-48.4-38 -3.4-7.9-6-18-8-28.5 0 0 0 0 0 0 -2.1-10.9-3.5-22.2-4.5-32 -1.2-11.8-1.7-21.3-1.9-25 0-0.2 0-0.4 0-0.6 0-0.6 0-1 0-1 0 0-0.1-0.6-0.2-1.7 0 0 0 0 0 0 0 0 0-0.1 0-0.1 0 0 0-0.1 0-0.1 -0.1-0.4-0.1-0.9-0.2-1.5 -0.5-3.9-1.2-10.6-2-17.8 -0.6-5.5-1.2-11.4-1.7-16.4 -1.5-15.3-0.1-32.6 12.1-51.1 0.6-0.9 1.2-1.8 1.8-2.6C1214.8 37 1243.2 37.5 1250 37.5" class="l"/><path d="M1274.6 146.1L1274.6 146.1c-1 0.9-1.7 2.3-1.7 3.8 0 2.7 2.1 4.9 4.8 5 0.1 0 0.2 0 0.3 0 0.1 0 0.1 0 0.2 0 2.7-0.1 4.8-2.3 4.8-5 0-1-0.3-1.9-0.8-2.7 0 0 0 0 0 0l0 0c-0.3-0.1-0.6-0.1-0.8-0.2 -0.3-0.1-0.6-0.1-0.9-0.2 -0.3-0.1-0.6-0.1-0.9-0.2 -0.3 0-0.6-0.1-0.9-0.1 -0.1 0-0.1 0-0.2 0 -0.2 0-0.4-0.1-0.6-0.1 -0.1 0-0.2 0-0.3 0 0 0 0 0 0 0 -0.3 0-0.6-0.1-0.8-0.1 -0.6-0.1-1.2-0.1-1.8-0.2C1274.7 146.1 1274.6 146.1 1274.6 146.1z" class="j"/><path d="M1225.4 146.1C1225.4 146.1 1225.4 146.1 1225.4 146.1c-0.1 0-0.2 0-0.2 0 -0.6 0-1.2 0.1-1.8 0.2 0 0 0 0 0 0 -0.3 0-0.6 0.1-0.8 0.1 -0.1 0-0.2 0-0.3 0 -0.2 0-0.4 0.1-0.6 0.1 -0.2 0-0.5 0.1-0.7 0.1 -0.1 0-0.2 0-0.4 0.1 -0.2 0-0.3 0-0.5 0.1 -0.2 0-0.3 0.1-0.5 0.1 -0.2 0-0.3 0.1-0.5 0.1 -0.4 0.1-0.9 0.2-1.3 0.3 0 0 0 0 0 0 -0.5 0.8-0.8 1.7-0.8 2.7 0 2.7 2.1 4.9 4.8 5 0.1 0 0.2 0 0.3 0 0.1 0 0.1 0 0.2 0 2.7-0.1 4.8-2.3 4.8-5C1227.2 148.3 1226.5 147 1225.4 146.1z" class="j"/><path d="M1209.4 151.2c0 0 0.1-0.1 0.1-0.1 1.8-1.7 4.2-2.9 7.2-3.6 0.4-0.1 0.7-0.2 1.1-0.3 0 0 0 0 0.1 0 0 0 0 0 0 0" class="j"/><path d="M1300.9 145.5c0 0-3.9-8.4-12.5-10.3 -1.5-0.3-3.2-0.5-5.1-0.3 -3 3-6.6 5.2-10.2 6.8 -7.9 3.6-15.8 4.5-16.4 4.5 0 0 0 0 0 0s-0.8 5.7 0.4 9.5c0 0 0 0 0.1 0.1 0.9 0.6 6 4.8 3 16.8" class="k"/><rect width="500" height="375" fill="#EFC66B"/><path d="M194.2 231.9c0.5-14.7 0.6-27.7 0.6-27.7l0.2-0.1c4.2 12.1 17.4 24.3 21.8 31.3 0.6 1 1.2 1.9 1.9 2.7 0 0 0 0.1 0.1 0.1 1.3 1.9 2.4 2.9 3 3.3 0 0 0 0 0 0 10.7 10 25.4 9.1 28.2 9.1 2.8 0 17.5 0.9 28.2-9.1 0 0 0 0 0 0 0.6-0.4 1.7-1.4 3-3.3 0 0 0.1-0.1 0.1-0.1 0.7-0.8 1.3-1.7 1.9-2.7 4.4-7 17.6-19.2 21.8-31.3l0.2 0.1c0 0 0.1 13 0.6 27.7l0.9 0c0 0.5 0.6 7.7 30.8 15.6 16.4 4.3 16.2 10.7 27.4 15.4 12.9 5.4 40.5 13.3 47.1 21.2 6.6 7.8 15.1 33.4 15.1 33.4H73.2c0 0 8.6-25.6 15.1-33.4 6.6-7.8 34.2-15.7 47.1-21.2 11.3-4.7 11.1-11.2 27.4-15.4 30.2-7.9 30.8-15 30.8-15.6L194.2 231.9z" style="fill:#996D60;stroke-linejoin:round;stroke-width:4;stroke:#997768"/><path d="M313.8 150.3c0.9-5 1.7-9.8 2.5-14.3l0.1 0c0 0 6.6-5.8 12.2-4.2 5.7 1.6 9.1 8.9 6.4 19.3 -2.7 10.5-12.7 34.3-26.3 30.1l-0.1 0C310.2 171.1 312.1 160.3 313.8 150.3z" class="n"/><path d="M286.5 130.4c-2.2-1.1-4.5-1.7-6.8-1.7 -0.4 0-0.8 0-1.1 0.1 -0.4 0-0.8 0.1-1.2 0.2 -0.3 0.1-0.7 0.1-1 0.2 -0.1 0-0.1 0-0.2 0.1 -0.4 0.1-0.8 0.2-1.1 0.3 -0.2 0.5-0.3 1.1-0.3 1.7 0 3.3 2.7 5.9 5.9 5.9 3.3 0 5.9-2.6 5.9-5.9C286.6 131 286.6 130.7 286.5 130.4zM213.4 130.4c0 0.3-0.1 0.5-0.1 0.8 0 3.3 2.7 5.9 5.9 5.9 3.3 0 5.9-2.6 5.9-5.9 0-0.6-0.1-1.2-0.3-1.7 -0.4-0.1-0.8-0.2-1.1-0.3 -0.1 0-0.1 0-0.2-0.1 -0.3-0.1-0.7-0.2-1-0.2 -0.4-0.1-0.8-0.1-1.2-0.2 -0.4 0-0.8-0.1-1.1-0.1 -1.8 0-3.5 0.3-5.2 1 -0.2 0.1-0.5 0.2-0.7 0.3 -0.2 0.1-0.5 0.2-0.7 0.3C213.5 130.4 213.5 130.4 213.4 130.4zM221.8 241.5C221.8 241.5 221.8 241.5 221.8 241.5c-1.1-1-2.1-2.1-3-3.3 0 0-0.1-0.1-0.1-0.1 -0.7-0.8-1.3-1.7-1.9-2.7 -4.4-7-17.6-19.2-21.8-31.3 -0.6-1.6-1-3.3-1.2-4.9 -0.7-5.6-1.5-11.7-2.5-17.9 -1.5-10.2-3.4-20.8-5.2-30.8 -0.7-7.1-2.3-32.8 7.7-37.9 0 0 0.6-35.8 13.2-45.9l42.9 0.4 42.9-0.4c12.6 10.1 13.2 45.9 13.2 45.9 9.9 5 8.4 30.3 7.8 37.7 -1.8 10-3.6 20.7-5.2 31 -1 6.2-1.8 12.3-2.5 17.9 -0.2 1.6-0.6 3.3-1.2 4.9 -4.2 12.1-17.4 24.3-21.8 31.3 -0.6 1-1.2 1.9-1.9 2.7 0 0 0 0.1-0.1 0.1 -0.9 1.2-2 2.3-3 3.3 0 0 0 0 0 0 -10.7 10-25.4 9.1-28.2 9.1C247.2 250.6 232.5 251.5 221.8 241.5zM260.2 208.3c0 0 9.8-1.8 11.1-8.2 -5.8-5.8-12.5-9.1-12.5-9.1 -1.4 3.4-8.9 3.2-8.9 3.2s-7.5 0.2-8.9-3.2c0 0-6.7 3.3-12.5 9.1 1.4 6.4 11.2 8.2 11.2 8.2H250 260.2z" fill="#C4AD9D"/><path d="M271.4 200.1c-3 2.4-7.4 1.3-12.1-0.7H250h-9.3c-4.6 1.9-9 3.1-12.1 0.7 5.8-5.8 12.5-9.1 12.5-9.1 1.4 3.4 8.9 3.2 8.9 3.2s7.5 0.2 8.9-3.2C258.8 191.1 265.6 194.3 271.4 200.1z" fill="#77484D"/><path d="M215.3 233.3c0 0 3 50.3 34.7 50.3s34.7-50.3 34.7-50.3H215.3z" fill="#664943"/><path d="M259.3 199.5c4.6 1.9 9 3.1 12.1 0.7 -1.4 6.4-11.1 8.2-11.1 8.2H250h-10.2c0 0-9.8-1.8-11.2-8.2 3 2.4 7.4 1.3 12.1-0.7h9.3H259.3z" fill="#AF727E"/><path d="M286.5 130.4c-2.2-1.1-4.5-1.7-6.8-1.7 -0.4 0-0.8 0-1.1 0.1 -0.4 0-0.8 0.1-1.2 0.2 -0.3 0.1-0.7 0.1-1 0.2 -0.1 0-0.1 0-0.2 0.1 -0.4 0.1-0.8 0.2-1.1 0.3 -0.2 0.5-0.3 1.1-0.3 1.7 0 3.3 2.7 5.9 5.9 5.9 3.3 0 5.9-2.6 5.9-5.9C286.6 131 286.6 130.7 286.5 130.4zM213.4 130.4c0 0.3-0.1 0.5-0.1 0.8 0 3.3 2.7 5.9 5.9 5.9 3.3 0 5.9-2.6 5.9-5.9 0-0.6-0.1-1.2-0.3-1.7 -0.4-0.1-0.8-0.2-1.1-0.3 -0.1 0-0.1 0-0.2-0.1 -0.3-0.1-0.7-0.2-1-0.2 -0.4-0.1-0.8-0.1-1.2-0.2 -0.4 0-0.8-0.1-1.1-0.1 -1.8 0-3.5 0.3-5.2 1 -0.2 0.1-0.5 0.2-0.7 0.3 -0.2 0.1-0.5 0.2-0.7 0.3C213.5 130.4 213.5 130.4 213.4 130.4zM221.8 241.5C221.8 241.5 221.8 241.5 221.8 241.5c-1.1-1-2.1-2.1-3-3.3 0 0-0.1-0.1-0.1-0.1 -0.7-0.8-1.3-1.7-1.9-2.7 -4.4-7-17.6-19.2-21.8-31.3 -0.6-1.6-1-3.3-1.2-4.9 -0.7-5.6-1.5-11.7-2.5-17.9 -1.5-10.2-3.4-20.8-5.2-30.8 -0.7-7.1-2.3-32.8 7.7-37.9 0 0 0.6-35.8 13.2-45.9l42.9 0.4 42.9-0.4c12.6 10.1 13.2 45.9 13.2 45.9 9.9 5 8.4 30.3 7.8 37.7 -1.8 10-3.6 20.7-5.2 31 -1 6.2-1.8 12.3-2.5 17.9 -0.2 1.6-0.6 3.3-1.2 4.9 -4.2 12.1-17.4 24.3-21.8 31.3 -0.6 1-1.2 1.9-1.9 2.7 0 0 0 0.1-0.1 0.1 -0.9 1.2-2 2.3-3 3.3 0 0 0 0 0 0 -10.7 10-25.4 9.1-28.2 9.1C247.2 250.6 232.5 251.5 221.8 241.5zM260.2 208.3c0 0 9.8-1.8 11.1-8.2 -5.8-5.8-12.5-9.1-12.5-9.1 -1.4 3.4-8.9 3.2-8.9 3.2s-7.5 0.2-8.9-3.2c0 0-6.7 3.3-12.5 9.1 1.4 6.4 11.2 8.2 11.2 8.2H250 260.2z" style="fill:#B9896E;stroke-width:2;stroke:#162B17"/><path d="M234.1 135.6c1.4 12-19.8 26.2-33.7 8.9l-4.2-15.7c1.2-8.1 5.2-13.4 11.5-16.2 8.8-1 18-0.1 27.7 2.3 5.2 6.6 7.9 14.2 8.9 22.6l-2.7 17.6C241.1 145.5 238.6 139 234.1 135.6z" class="o"/><path d="M232.3 163.8l6.7 0.4 5.3 0.3h11.4l12.1-0.7c2.5 6.5-0.7 12.9-8.8 12.3l-0.1 15c-6.5 4.5-12.4 4-17.7 0l-0.1-15C232.3 175.4 231.6 170.9 232.3 163.8z" class="o"/><path d="M186.2 150.6c1.8 10 3.6 20.6 5.2 30.8l-0.1 0c-13.6 4.2-23.6-19.6-26.3-30.1 -2.7-10.5 0.7-17.7 6.4-19.3 5.7-1.6 12.3 4.2 12.3 4.2l0.1 0C184.4 140.6 185.3 145.5 186.2 150.6z" class="n"/><path d="M232.3 163.8c-7.6 11.3-10.6 23.4-10 36.4l6.3 0 12.5-9.1 -0.1-13.7C232.1 175.1 230.8 170 232.3 163.8z" class="p"/><polygon points="243.8 164.3 250.1 154.5 256.4 164.3 " fill="#DABBA9"/><path d="M232.5 67c-10.7 7-17.9 34.7-16 45l18.9 2.8h29.3l-13-47.7L232.5 67z" class="p"/><line x1="244.3" y1="164.4" x2="250" y2="164.4" class="q"/><path d="M267.5 67c10.7 7 17.9 34.7 16 45l-18.9 2.8h-29.3l13-47.7L267.5 67z" class="p"/><path d="M234.1 135.6c-1 14.9-22.2 24.1-33.7 8.9l7.5-10C217.6 125.6 226.1 127.8 234.1 135.6z" class="p"/><path d="M218.1 66.8c-12.6 9.1-14.2 38.1-11.3 45.9 -5.7 2.4-10.5 15.9-10.5 15.9l4.2 15.7c0 0-1.9 48.5 11.8 55 0 0 0.5 2.2 0.2 9.5 -0.4 9.5-0.1 17.9 2.8 24.4L195 204.1c-8.6-51.8-12.7-85-1.1-91.5 0.2-18.6 3.7-34.6 13.2-45.9L218.1 66.8z" class="o"/><path d="M233.3 293.4c-6.6-6.1-64.5-15.7-81-11.2 -22.2 6.1-29 35.3-29 35.3h120.2C243.5 317.5 239.9 299.5 233.3 293.4z" class="n"/><path d="M266.7 293.4c6.6-6.1 64.5-15.7 81-11.2 22.2 6.1 29 35.3 29 35.3H256.5C256.5 317.5 260.1 299.5 266.7 293.4z" class="n"/><path d="M215 129.7c-0.2 0.1-0.5 0.2-0.7 0.3 -0.2 0.1-0.5 0.2-0.7 0.3" class="r"/><path d="M240.6 306.9c0 6.8 18.8 6.8 18.8 0l4.8 10.6h-29L240.6 306.9z" class="n"/><path d="M223.6 129.1c-0.3-0.1-0.7-0.2-1-0.2 -0.4-0.1-0.8-0.1-1.2-0.2 -0.4 0-0.8-0.1-1.1-0.1" class="r"/><path d="M194.7 204.2c0 0-0.1 13-0.6 27.7 -0.6 17.9-1.8 38.2-4.1 40.5" style="fill:none;stroke-linejoin:round;stroke-width:4;stroke:#162B17"/><path d="M212.5 208.9c0 16.6 3.4 25 6.2 29.2 9.6 9.7 20 13.8 31.3 12.5v-18.1C231 234.7 220.2 224.2 212.5 208.9z" class="o"/><path d="M221.8 241.5c-0.6-0.4-1.7-1.4-3-3.3" class="r"/><path d="M281.9 66.8c12.6 9.1 14.2 38.1 11.3 45.9 5.7 2.4 10.5 15.9 10.5 15.9l-4.2 15.7c0 0-0.4 33.8-2.3 33.4 -0.1 8.9-3 16.2-9.5 21.5 0 0-0.5 2.2-0.2 9.5 0.4 9.5 0.1 17.9-2.8 24.4l20.3-29.1c8.6-51.8 12.7-85 1.1-91.5 -0.2-18.6-3.7-34.6-13.2-45.9L281.9 66.8z" class="o"/><path d="M287.5 208.9c0 16.6-3.4 25-6.2 29.2 -9.6 9.7-20 12.5-31.3 12.5l0-18.1c7.2 0.4 16.9-0.9 20.1-3.4C274.8 226.2 281.5 221.4 287.5 208.9z" class="o"/><path d="M299.3 55.7c20 15.5 22.8 42.3 20.5 59.5 -0.7 5.2-2 12.4-3.4 20.9 -0.8 4.5-1.6 9.3-2.5 14.3 0.7-7.4 2.1-32.6-7.8-37.7 0 0-0.6-35.8-13.2-45.9L250 70.4l-42.9-3.6c-12.6 10.1-13.2 45.9-13.2 45.9 -10 5.1-8.4 30.8-7.7 37.9 -0.9-5.1-1.8-10-2.6-14.5 -1.5-8.4-2.7-15.7-3.4-20.9 -2.4-17.2 0.5-44 20.5-59.5s35.1-18.9 49.4-18.9C264.2 36.9 279.3 40.3 299.3 55.7z" fill="#5C4639"/><path d="M222.2 241.7c0 0-0.1-0.1-0.4-0.2" class="r"/><path d="M201.4 55.1c0 0 18.9 5.3 48.3 5.3 29.5 0 49-5.2 49-5.2s-22.3-18.4-48.2-18.4S201.4 55.1 201.4 55.1z" fill="#71584F"/><path d="M278.2 241.5c1.1-1 2.1-2.1 3-3.3" class="r"/><path d="M265.9 135.6c-1.4 12 19.8 26.2 33.7 8.9l4.2-15.7c-1.2-8.1-5.2-13.4-11.5-16.2 -8.8-1-18-0.1-27.7 2.3 -5.2 6.6-7.9 14.2-8.9 22.6l2.7 17.6C258.8 145.5 261.4 139 265.9 135.6z" class="o"/><path d="M267.7 163.8c7.6 11.3 10.6 23.4 10 36.4l-6.3 0 -12.5-9.1 0.1-13.7C267.9 175.1 269.2 170 267.7 163.8z" class="p"/><path d="M265.9 135.6c1 14.9 22.2 24.1 33.7 8.9l-7.5-10C282.4 125.6 273.9 127.8 265.9 135.6z" class="p"/><path d="M279.7 128.7c-0.4 0-0.8 0-1.1 0.1 -0.4 0-0.8 0.1-1.2 0.2 -0.3 0.1-0.7 0.1-1 0.2" class="r"/><path d="M183.6 136.1c0 0-6.6-5.8-12.3-4.2 -5.7 1.6-9.1 8.9-6.4 19.3 2.7 10.5 12.7 34.3 26.3 30.1" class="q"/><path d="M171.5 139.6c0 0 13.8 7.5 14.8 12.6" class="q"/><path d="M213.4 130.4c-1.9 0.9-3.7 2.3-5.5 4" class="q"/><path d="M234.1 135.6c-3.1-3-6.2-5-9.1-6 -0.4-0.1-0.8-0.2-1.1-0.3" class="q"/><line x1="255.7" y1="164.4" x2="250" y2="164.4" class="q"/><path d="M316.4 136.1c0 0 6.6-5.8 12.2-4.2 5.7 1.6 9.1 8.9 6.4 19.3 -2.7 10.5-12.7 34.3-26.3 30.1" class="q"/><path d="M276.2 129.2c-0.4 0.1-0.8 0.2-1.1 0.3 -3 1-6 3-9 6 0 0-0.1 0.1-0.1 0.1" class="q"/><path d="M292.1 134.4c-1.8-1.7-3.6-3-5.5-4" class="q"/><path d="M275 129.5c-0.2 0.5-0.3 1.1-0.3 1.7 0 3.3 2.7 5.9 5.9 5.9 3.3 0 5.9-2.6 5.9-5.9 0-0.3 0-0.5-0.1-0.8 -2.2-1.1-4.5-1.7-6.8-1.7 -0.4 0-0.8 0-1.1 0.1 -0.4 0-0.8 0.1-1.2 0.2 -0.3 0.1-0.7 0.1-1 0.2 -0.1 0-0.1 0-0.2 0.1C275.8 129.3 275.4 129.4 275 129.5z" class="s"/><path d="M213.4 130.4c0 0.3-0.1 0.5-0.1 0.8 0 3.3 2.7 5.9 5.9 5.9 3.3 0 5.9-2.6 5.9-5.9 0-0.6-0.1-1.2-0.3-1.7 -0.4-0.1-0.8-0.2-1.1-0.3 -0.1 0-0.1 0-0.2-0.1 -0.4-0.1-0.7-0.2-1-0.2 -0.4-0.1-0.8-0.1-1.2-0.2 -0.4 0-0.8-0.1-1.1-0.1 -1.8 0-3.5 0.3-5.2 1 -0.2 0.1-0.5 0.2-0.7 0.3 -0.2 0.1-0.5 0.2-0.7 0.3C213.5 130.4 213.5 130.4 213.4 130.4z" class="s"/><path d="M266 135.4c0 0 0 0.1 0 0.1 -1.3 11.9 19.8 26 33.7 8.7" class="q"/><path d="M250 177.4c-5 0-4.6-10.5-11.8-8.2" class="t"/><path d="M241.1 176c-5.3-0.9-10.8-1.5-8.8-12.3l9.3-8.8" class="t"/><path d="M250 199.5h-9.3c-4.6 1.9-9 3.1-12.1 0.7 5.8-5.8 12.5-9.1 12.5-9.1 1.4 3.4 8.9 3.2 8.9 3.2" class="t"/><path d="M250 208.3h-10.2c0 0-9.8-1.8-11.2-8.2" class="t"/><path d="M241.6 154.9l2.7-17.6c0 0-4.2-17.8-8.9-22.6" class="t"/><path d="M196.2 128.7c0 0 2.3-13.2 10.5-15.9 8.2-2.7 28.6 2 28.6 2" class="t"/><path d="M200.4 144.4c13.9 17.3 35.1 3.1 33.7-8.9" class="t"/><path d="M193.6 231.9C193.6 231.9 193.6 231.9 193.6 231.9c0 0.5-0.6 7.7-30.8 15.6 -16.4 4.3-16.2 10.7-27.4 15.4 -12.9 5.4-40.5 13.3-47.1 21.2 -6.6 7.8-15.1 33.4-15.1 33.4h353.9c0 0-8.6-25.6-15.1-33.4 -6.6-7.8-34.2-15.7-47.1-21.2 -11.3-4.7-11.1-11.2-27.4-15.4 -30.2-7.9-30.8-15-30.8-15.6 0 0 0 0 0 0" class="t"/><path d="M218.7 238.1c-2.8-4.2-6.2-12.6-6.2-29.2" class="t"/><path d="M281.3 238.1c0.7-0.8 1.3-1.7 1.9-2.7 4.4-7 17.6-19.2 21.8-31.3 0.6-1.6 1-3.3 1.2-4.9 0.7-5.6 1.5-11.7 2.5-17.9 1.6-10.2 3.4-21 5.2-31 0.9-5 1.7-9.8 2.5-14.3 1.5-8.4 2.7-15.7 3.4-20.9 2.4-17.2-0.5-44-20.5-59.5S264.2 36.9 250 36.9c-14.2 0-29.3 3.4-49.4 18.9s-22.8 42.3-20.5 59.5c0.7 5.2 2 12.4 3.4 20.9 0.8 4.5 1.7 9.4 2.6 14.5 1.8 10 3.6 20.6 5.2 30.8 1 6.2 1.8 12.3 2.5 17.9 0.2 1.6 0.6 3.3 1.2 4.9 4.2 12.1 17.4 24.3 21.8 31.3 0.6 1 1.2 1.9 1.9 2.7 0 0 0 0.1 0.1 0.1 0.9 1.2 2 2.3 3 3.3 0 0 0 0 0 0 10.7 10 25.4 9.1 28.2 9.1 2.8 0 17.5 0.9 28.2-9.1" class="t"/><path d="M250 177.4c5 0 4.5-10.5 11.8-8.2" class="t"/><path d="M258.9 176c5.4-0.9 10.8-1.5 8.8-12.3l-9.3-8.8" class="t"/><path d="M258.4 154.9l-2.7-17.6c0 0 4.2-17.8 8.9-22.6" class="t"/><path d="M250 199.5h9.3c4.6 1.9 9 3.1 12.1 0.7 -5.8-5.8-12.5-9.1-12.5-9.1 -1.4 3.4-8.9 3.2-8.9 3.2" class="t"/><path d="M250 208.3h10.2c0 0 9.8-1.8 11.1-8.2" class="t"/><path d="M270.1 229.1c-5 3.8-20.1 3.4-20.1 3.4s-15.1 0.3-20.1-3.4" class="t"/><path d="M264.6 114.8c0 0 20.5-4.8 28.6-2 8.2 2.7 10.5 15.9 10.5 15.9" class="t"/><path d="M305.2 204.2c0 0 0.1 13 0.6 27.7 0.6 17.9 1.8 38.2 4.1 40.5" class="t"/><path d="M277.8 241.7c0 0 0.1-0.1 0.4-0.2 0 0 0 0 0 0 0.6-0.4 1.7-1.4 3-3.3 0 0 0.1-0.1 0.1-0.1 2.8-4.2 6.2-12.6 6.2-29.2" class="t"/><path d="M276.4 204.7c0 0 20.8-3.6 20.8-26.9" class="t"/><path d="M241.4 184.4c0 0-17.9 5.3-19.1 15.7" class="t"/><path d="M258.6 184.1c0 0 16.1 1.9 17.6 14.4" class="q"/><path d="M313.6 152.3C313.6 152.3 313.6 152.3 313.6 152.3c0-0.3 0.1-1 0.2-2 0.7-7.4 2.1-32.6-7.8-37.7 0 0-0.6-35.8-13.2-45.9 0 0-23.1 3.6-42.9 3.6s-42.9-3.6-42.9-3.6c-12.6 10.1-13.2 45.9-13.2 45.9 -10 5.1-8.4 30.8-7.7 37.9 0.1 0.9 0.1 1.5 0.2 1.7 0 0 0 0.1 0 0.1" class="q"/><path d="M328.5 139.6c0 0-13.8 7.5-14.8 12.6" class="q"/><path d="M240.6 306.9c-5.1-24-47.1-23.8-76-25.9" class="q"/><path d="M259.4 306.9c5.1-24 47.1-23.8 76-25.9" class="q"/><rect x="500" width="500" height="375" fill="#474E9E"/><path d="M659.4 270.8c2 4.6 4.1 8.7 6.5 12.4 -5.4 15.3-8.2 32.8-5.9 53.3h-80.5c3-22 17-30.1 33.6-36.4 11.1-4.1 46-25.2 46-29.2L659.4 270.8z" class="u"/><path d="M937.9 336.5h-80.4c3.4-30.5-4.6-54.8-15.6-74.5v0c6.1 3.3 12 6.6 16.3 8.9 13 7.1 35 25.1 46.1 29.2C921 306.4 934.9 314.5 937.9 336.5z" class="u"/><path d="M826.5 168.7c-2.4-8.7-5.3-18.1-8.8-28.5 -0.5-1.8-1.2-3.7-2-5.4 -5.3-11.3 0.3-34.6-7.9-48.8 -3.9-6.7-10.1-11.4-16.8-14.8 2-12 1.9-22.5-4.1-29.7 0 0 24.5-1.2 41.4 37.8 17.8 41.1 36.3 137.4 29.9 191.5 -4.3-2.3-10.2-5.6-16.3-8.9 -3.7-1.9-7.3-4-10.7-5.8C837.8 230.8 837.1 206.9 826.5 168.7z" class="v"/><path d="M704.6 336.3v0.2H660c-2.3-20.4 0.5-38 5.9-53.3 8.3 13 18.5 20.2 28.5 23.9C696.3 318.3 699.7 328.4 704.6 336.3z" class="w"/><path d="M831.2 256.2c3.4 1.8 7 3.9 10.7 5.8v0c11 19.7 19 43.9 15.6 74.5h-44.7v-0.2c12.4-19.8 15.3-53.4 8.2-83.5l1.4-1.5C824.8 252.7 827.9 254.3 831.2 256.2z" class="w"/><path d="M826.5 168.7c10.6 38.2 11.2 62.1 4.7 87.5 -3.3-1.8-6.4-3.5-8.8-4.8 -3.6-1.9-5.8-3.2-5.8-3.2 -8.6-2.4-16-15.9-14.2-32l0 0c9-9.7 11.3-24.4 13.7-35.9C822.1 180.6 824.2 176.5 826.5 168.7z" class="x"/><path d="M822.4 251.3l-1.4 1.5c7.2 30.1 4.2 63.7-8.2 83.5v0.2H704.6v-0.2c-4.9-7.9-8.3-18-10.2-29.2 19.3 7.3 37.5 1.6 37.5 1.6s-19.8-25.4-26.9-64.6c8.6-2.4 11.9-11.8 10.1-27.9 1.1 1.2 2.3 2.3 3.7 3.4 8.6 6.7 17.2 24.5 40 24.5 22.9 0 31.5-17.8 40.1-24.5 1.4-1 2.6-2.2 3.6-3.4l0 0c-1.8 16.1 5.6 29.6 14.2 32C816.6 248.2 818.8 249.4 822.4 251.3z" class="u"/><path d="M662.2 295.4c2.8-0.9 5.5-1.6 8-1.9 7.2-0.9 14.8-0.2 22.7 1.3 1.1 16 5 30.8 11.7 41.5v0.2h-44.7C658.2 321.3 659.3 307.7 662.2 295.4z" class="y"/><path d="M670.3 293.6c27.4-3.3 62.1 15.6 88.4 15.6V337h-143C615.7 321.3 650.2 295.9 670.3 293.6z" class="z"/><path d="M817.7 140.2c3.5 10.3 6.4 19.8 8.8 28.5 -2.3 7.8-4.4 11.9-10.5 11.6C818.9 166.6 821.3 152.4 817.7 140.2z" fill="#996A56"/><path d="M732.9 209.9c1 0.5 9 4 9 4 5-5 16.7-2 16.7-2s11.7-3 16.7 2c0 0 8-3.5 9-4 0 0-0.1 0-0.1 0 -7.1 2.3-13-5.5-18.6-5.3 -3.2 0.1-7 3.7-7 3.7s-3.8-3.5-7-3.7c-5.6-0.2-11.5 7.6-18.6 5.3C733 209.9 733 209.9 732.9 209.9zM727.4 143.3c-1.2 0.9-2 2.5-2 4.1 0 3.1 2.5 5.5 5.5 5.5s5.5-2.4 5.5-5.5c0-2.3-1.4-4.2-3.4-5l0 0c-0.2 0-0.5-0.1-0.8-0.1 -0.5-0.1-1-0.2-1.5-0.3h0C729.4 142.1 728.3 142.5 727.4 143.3zM711.6 146c0.6-2.1 1.3-4.1 2-6.2 1.2-3.5 2.5-6.8 3.9-10.1 0.5-1.2 1-2.4 1.6-3.6 0.8-1.8 1.6-3.5 2.4-5.2 0.5-1.1 1.1-2.2 1.7-3.2 0.2-0.5 0.5-0.9 0.8-1.4 0.7-1.4 1.5-2.8 2.3-4.2 0.5-0.8 0.9-1.6 1.4-2.4 1.8-3.2 4.1-6.2 6.9-9 0.7-0.7 1.4-1.4 2.1-2.1 1.4-1.4 3-2.6 4.6-3.9 17-13.3 41-20.9 47.9-22.9 0.5-0.1 0.8-0.3 1.1-0.4 0.5-0.1 0.8-0.2 0.8-0.2 6.7 3.4 12.9 8.2 16.8 14.8 8.2 14.2 2.6 37.5 7.9 48.8 0.8 1.8 1.5 3.6 2 5.4 3.5 12.2 1.2 26.4-1.7 40.1 -2.3 11.4-4.7 26.1-13.7 35.9 -1 1.2-2.3 2.4-3.6 3.4 -8.6 6.7-17.2 24.5-40.1 24.5 -22.8 0-31.4-17.8-40-24.5 -1.4-1-2.6-2.2-3.7-3.4 -6.5-7.1-9.6-17-11.6-26.2 0.7-8.7 1.8-16.8 3.2-24.3 0.7-3.7 1.5-7.2 2.3-10.6 0-0.1 0.1-0.2 0.1-0.3C709.9 151.8 710.7 148.9 711.6 146zM786.8 142L786.8 142c-0.5 0.1-1 0.2-1.6 0.3 -0.2 0-0.5 0.1-0.8 0.1l0 0c-1.9 0.8-3.3 2.7-3.3 5 0 3.1 2.4 5.5 5.5 5.5 3.1 0 5.5-2.4 5.5-5.5 0-1.7-0.8-3.2-2-4.1C789.1 142.5 788 142.1 786.8 142z" style="fill:#CB8F71;stroke-width:4;stroke:#27153C"/><path d="M710.8 128.2c7.4-3.6 29.2 5.7 32.9 7.9 7.5 4.3 9.3 12.9 7.3 18l-7.4 0.2 -4.8-9.7c-9.6-7.2-13.5-0.7-22.1 5.4 -9.7 1.8-11.3 10.6-11.3 18.2l9.7 48c-10.9-13.6-18.6-40.9-16.2-72.5l4.3-13.1 5.5-42.5 17.8-16.8 14.1 4.6C727.6 75.8 710.8 100.7 710.8 128.2z" class="A"/><path d="M665.9 283.2c-2.3-3.7-4.5-7.8-6.5-12.4 -5.5-13.3-9.4-30.7-10.5-53.7 -2.3-51.5 18.9-93.9 31.7-128.6C692 57.3 715 31.3 753.1 31.3c18 0 28.3 3.8 33.7 10.2 6.1 7.2 6.1 17.6 4.1 29.7 0 0-0.3 0.1-0.8 0.2 -0.3 0.1-0.7 0.2-1.1 0.4 -6.9 2-31 9.6-47.9 22.9 -1.6 1.2-3.1 2.5-4.6 3.9 -0.8 0.7-1.5 1.4-2.1 2.1 -2.8 2.8-5.1 5.8-6.9 9 -0.5 0.8-0.9 1.6-1.4 2.4 -0.8 1.4-1.5 2.8-2.3 4.2 -0.3 0.5-0.5 0.9-0.8 1.4 -0.6 1.1-1.1 2.2-1.7 3.2 -0.8 1.7-1.6 3.5-2.4 5.2 -0.5 1.2-1.1 2.3-1.6 3.6 -1.4 3.2-2.7 6.6-3.9 10.1 -0.8 2-1.4 4.1-2.1 6.2 -0.9 2.8-1.7 5.7-2.4 8.7 0 0.1 0 0.2-0.1 0.3 -0.9 3.4-1.7 6.9-2.3 10.6 -1.5 7.5-2.6 15.6-3.2 24.3 -0.8 9.3-1 19.3-0.8 30.3 0.2 8.4 1.1 16.3 2.4 23.8 7.1 39.2 26.9 64.6 26.9 64.6s-18.2 5.6-37.5-1.6C684.4 303.4 674.1 296.2 665.9 283.2z" class="v"/><path d="M790 143.3c1.2 0.9 2 2.5 2 4.1 0 3.1-2.4 5.5-5.5 5.5 -3 0-5.5-2.4-5.5-5.5 0-2.3 1.4-4.2 3.3-5l0 0c0.3 0 0.5-0.1 0.8-0.1 0.5-0.1 1-0.2 1.5-0.3h0C788 142.1 789.1 142.5 790 143.3z" class="B"/><path d="M806.6 128.2c-7.4-3.6-29.2 5.7-32.9 7.9 -7.5 4.3-9.3 12.9-7.3 18l7.4 0.2 4.8-9.7c9.6-7.2 13.5-0.7 22.1 5.4 9.7 1.8 11.3 10.6 11.3 18.2l-9.7 48c10.9-13.6 18.6-40.9 16.2-72.5l-4.3-13.1 -5.5-42.5L791 71.2l-14.1 4.6C789.8 75.8 806.6 100.7 806.6 128.2z" class="A"/><path d="M727.4 143.3c0.9-0.8 2-1.2 3.2-1.3h0c0.5 0.1 1 0.2 1.5 0.3 0.3 0 0.5 0.1 0.8 0.1l0 0c2 0.8 3.4 2.7 3.4 5 0 3.1-2.5 5.5-5.5 5.5s-5.5-2.4-5.5-5.5C725.4 145.8 726.2 144.3 727.4 143.3z" class="B"/><path d="M792 55.8C707.8 10 664.5 128.3 651.3 241.4c0 0-9.7-33.2 11.9-108.8 21.6-75.5 37.1-83 61.8-95.9s56.5 0.4 56.5 0.4L792 55.8z" class="C"/><path d="M715 216.2c1.8 16.1-1.5 25.5-10.1 27.9 -1.3-7.4-2.2-15.4-2.4-23.8 -0.2-11 0-21 0.8-30.3C705.5 199.2 708.5 209.1 715 216.2z" class="x"/><path d="M766.4 154.2c-2-5.1-0.3-13.7 7.3-18 3.7-2.2 25.5-11.5 32.9-7.9" class="D"/><path d="M758.7 269c27.4 0 43.7-52.9 43.7-52.9l-87.3 0C715 216.2 731.3 269 758.7 269z" class="A"/><path d="M786.8 142c3.9-0.5 8.2-0.5 11.1 0.2 5.6 1.4 8.4 4.2 8.4 4.2" class="D"/><path d="M758.7 244.1v-23.9c0 0-26.7-3.1-25.8-10.3 1.6-12.2-7.2-19.5-12.3-19.5 -11.3-3.2-14.4-12-15.2-17.9l-2.1 17.5C701.3 210.6 750.3 254 758.7 244.1z" class="A"/><path d="M758.7 244.1v-23.9c2 2.3 13.2-0.8 16.7-6.3 3.5-5.4 9.3-0.6 9-4 -0.9-10.6 7.5-18.3 12.3-19.5 11.3-3.2 14.4-12 15.2-17.9L814 190C814.8 209.7 776.5 247.6 758.7 244.1z" class="A"/><path d="M774.8 216c-2.9 2.9-9.2 4.2-16.1 4.2s-13.2-1.3-16.1-4.2l-0.6-2c2.9-3.1 8.8-3.4 16.7-2 7-1.5 12.9-1.3 16.7 2L774.8 216z" fill="#D38997"/><path d="M766.2 180.6c0 3-3.3 5.4-7.3 5.4 -4 0-7.3-2.4-7.3-5.4s3.3-15 7.3-15C762.9 165.6 766.2 177.6 766.2 180.6z" class="z"/><path d="M785.2 142.3c0.5-0.1 1-0.2 1.5-0.3" class="E"/><path d="M773.9 154.4c0 0 2.3-7.3 4.8-9.7 0.9-0.9 3.1-1.7 5.7-2.2" class="D"/><path d="M785.8 142.4c1.5 0.2 2.9 0.5 4.2 0.9 4.2 1.3 7.8 3.5 10.8 6.7" class="D"/><path d="M792 55.8c21.2-1.3 34.1 29.3 50 65.7 -8.1-43.6-24.7-76.5-55.2-79.9L792 55.8z" class="C"/><path d="M796.7 157.4c-6.1 4.5-7.8 4.1-16.1 1" class="D"/><path d="M673.8 293.3c-1.2 0.1-2.4 0.1-3.5 0.2 -2.5 0.3-5.2 0.9-8 1.9 -2.9 12.3-4 25.9-2.3 41.1h44.7v-0.2c-4.9-7.9-8.3-18-10.2-29.2C687.4 304.5 680.3 300.1 673.8 293.3z" class="y"/><path d="M742.6 216c2.9 2.9 9.2 4.2 16.1 4.2s13.3-1.3 16.1-4.2" class="D"/><path d="M745.6 228.1c0-3.5 26.2-3.5 26.2 0" class="D"/><path d="M812 166.7c0 0 2.4 18.8-15.3 23.8" class="D"/><path d="M847.1 293.6c-27.4-3.3-62.1 15.6-88.4 15.6V337h143C901.8 321.3 867.2 295.9 847.1 293.6z" class="z"/><path d="M791 71.2c2-12 1.9-22.5-4.1-29.7 -5.5-6.4-15.7-10.2-33.7-10.2 -38.1 0-61.1 25.9-72.5 57.1 -12.8 34.7-34 77.1-31.7 128.6 1 23 4.9 40.5 10.5 53.7 2 4.6 4.1 8.7 6.5 12.4 8.3 13 18.5 20.2 28.5 23.9 19.3 7.3 37.5 1.6 37.5 1.6" class="D"/><path d="M789.1 71.8c0.5-0.1 0.9-0.3 1.1-0.4" class="E"/><path d="M734.5 100.6c0.6-0.7 1.4-1.4 2.1-2.1 1.4-1.4 2.9-2.7 4.6-3.9" class="E"/><path d="M724 116.3c0.7-1.4 1.5-2.8 2.3-4.2" class="E"/><path d="M855.2 295.4c-2.8-0.9-5.5-1.6-8-1.9 -7.2-0.9-14.8-0.2-22.7 1.3 -1.1 16-5 30.8-11.7 41.5v0.2h44.7C859.2 321.3 858.1 307.7 855.2 295.4z" class="y"/><path d="M721.5 121c0.5-1.1 1.1-2.2 1.7-3.2" class="E"/><path d="M717.5 129.8c0.5-1.2 1-2.4 1.6-3.6" class="E"/><path d="M709.1 154.8c0.7-3 1.6-5.9 2.4-8.7 0.7-2.1 1.4-4.2 2.1-6.2" class="E"/><path d="M731.9 308.7c0 0-19.8-25.4-26.9-64.6 -1.3-7.4-2.2-15.4-2.4-23.8 -0.2-11 0-21 0.8-30.3 0.7-8.7 1.8-16.8 3.2-24.3 0.7-3.7 1.4-7.2 2.3-10.6" class="D"/><path d="M786.8 41.6c0 0 24.5-1.2 41.4 37.8 17.8 41.1 36.3 137.4 29.9 191.5" class="D"/><path d="M659.2 270.9c-0.1 4.1-35 25.1-46 29.2 -16.6 6.3-30.6 14.3-33.6 36.4H660h44.7 108.2 44.7 80.4c-3-22-16.9-30.1-33.6-36.4 -11.1-4.1-33.1-22.1-46.1-29.2 -4.3-2.3-10.2-5.6-16.3-8.9 -3.7-1.9-7.3-4-10.7-5.8 -3.3-1.8-6.4-3.5-8.8-4.8 -3.6-1.9-5.8-3.2-5.8-3.2 -8.6-2.4-16-15.9-14.2-32" class="D"/><line x1="758.7" y1="193.7" x2="749.8" y2="187.8" class="D"/><path d="M786.7 142c-0.5 0.1-1 0.2-1.5 0.3 -0.2 0-0.5 0.1-0.8 0.1l0 0c-1.9 0.8-3.3 2.7-3.3 5 0 3.1 2.4 5.5 5.5 5.5 3.1 0 5.5-2.4 5.5-5.5 0-1.7-0.8-3.2-2-4.1C789.1 142.5 788 142.1 786.7 142L786.7 142z" class="F"/><path d="M730.6 142c-3.9-0.5-8.2-0.5-11.1 0.2 -4.2 1.1-6.9 3-7.9 3.8 0 0 0 0-0.1 0 -0.3 0.2-0.4 0.4-0.4 0.4" class="D"/><path d="M732.2 142.3c-0.5-0.1-1-0.2-1.5-0.3" class="E"/><path d="M743.6 154.4c0 0-2.3-7.3-4.8-9.7 -0.9-0.9-3.1-1.7-5.7-2.2" class="D"/><path d="M731.6 142.4c-1.5 0.2-2.9 0.5-4.2 0.9 -4.2 1.3-7.8 3.5-10.7 6.7" class="D"/><path d="M720.7 157.4c6.1 4.5 7.8 4.1 16.1 1" class="D"/><path d="M732.9 209.9c12-1.8 19.2-8.3 25.8-1.6 5.7-7 15.7 1.6 25.6 1.6l-8.9 4 -16.7-2 -16.7 2L732.9 209.9z" fill="#5C464C"/><path d="M730.7 142c0.5 0.1 1 0.2 1.5 0.3 0.3 0 0.5 0.1 0.8 0.1l0 0c2 0.8 3.4 2.7 3.4 5 0 3.1-2.5 5.5-5.5 5.5s-5.5-2.4-5.5-5.5c0-1.7 0.8-3.2 2-4.1C728.3 142.5 729.4 142.1 730.7 142L730.7 142z" class="F"/><path d="M732.9 209.9c1 0.5 9 4 9 4 5-5 16.7-2 16.7-2" class="D"/><path d="M758.7 208.3c0 0-3.8-3.5-7-3.7 -5.6-0.2-11.5 7.6-18.6 5.3 0 0-0.1 0-0.1 0 0 0-0.1 0-0.1 0" class="D"/><path d="M817.7 140.2c3.5 10.3 6.4 19.8 8.8 28.5 10.6 38.2 11.2 62.1 4.7 87.5v0" class="D"/><path d="M816 180.3c6.1 0.3 8.2-3.8 10.5-11.6 0-0.1 0-0.2 0.1-0.3" class="D"/><path d="M792 55.8c-32-15.5-63.5-14.8-90.2 22.9" class="D"/><path d="M817.7 140.2c-0.5-1.8-1.2-3.7-2-5.4 -5.3-11.3 0.3-34.6-7.9-48.8 -3.9-6.7-10.1-11.4-16.8-14.8 0 0-0.3 0.1-0.8 0.2 -0.3 0.1-0.7 0.2-1.1 0.4 -6.9 2-31 9.6-47.9 22.9 -1.6 1.3-3.1 2.5-4.6 3.9 -0.7 0.7-1.4 1.4-2.1 2.1 -2.8 2.8-5.1 5.8-6.9 9 -0.5 0.8-0.9 1.6-1.4 2.4 -0.8 1.4-1.5 2.8-2.3 4.2 -0.3 0.5-0.5 0.9-0.8 1.4 -0.6 1.1-1.1 2.2-1.7 3.2 -0.8 1.7-1.6 3.5-2.4 5.2 -0.5 1.2-1 2.3-1.6 3.6 -1.4 3.2-2.7 6.6-3.9 10.1 -0.7 2-1.4 4.1-2 6.2 -0.9 2.8-1.8 5.8-2.5 8.8 0 0.1 0 0.2-0.1 0.3 -0.9 3.4-1.6 6.9-2.3 10.6 -1.4 7.5-2.6 15.6-3.2 24.3 2.1 9.2 5.1 19.1 11.6 26.2 1.1 1.2 2.3 2.3 3.7 3.4 8.6 6.7 17.2 24.5 40 24.5 22.9 0 31.5-17.8 40.1-24.5 1.4-1 2.6-2.2 3.6-3.4 9-9.7 11.3-24.4 13.7-35.9C818.9 166.6 821.3 152.4 817.7 140.2z" class="D"/><path d="M751 154.2c2-5.1 0.3-13.7-7.3-18 -2.8-1.6-15.8-7.3-25.2-8.5 -0.6 1.4-1.3 2.9-1.8 4.4" class="D"/><path d="M705.5 172.5c0.8 6 3.9 14.7 15.2 17.9" class="D"/><path d="M841.9 262c11 19.7 19 43.9 15.6 74.5" class="D"/><path d="M715 216.2c1.8 16.1-1.5 25.5-10.1 27.9" class="E"/><path d="M758.7 212c0 0 11.7-3 16.7 2 0 0 8-3.5 9-4 0 0 0.1 0 0.1 0" class="D"/><path d="M758.7 208.3c0 0 3.8-3.5 7-3.7 5.6-0.2 11.5 7.6 18.6 5.3 0 0 0.1 0 0.1 0" class="D"/><line x1="758.7" y1="193.7" x2="767.6" y2="187.8" class="D"/><path d="M766.3 192.1c9.1 3.2 12.9-8.9 8.1-13.8" class="D"/><path d="M751.1 192.1c-9.1 3.2-12.9-8.9-8.1-13.8" class="D"/><path d="M820.9 252.8c7.2 30.1 4.2 63.7-8.2 83.5" class="D"/><path d="M694.4 307.1c1.9 11.2 5.3 21.3 10.2 29.2" class="D"/><path d="M665.9 283.2L665.9 283.2c-5.4 15.3-8.2 32.9-5.9 53.3" class="D"/><rect x="2000" width="500" height="375" fill="#3F98BF"/><path d="M2282 140.2c0.1 0.4 0.1 0.8 0.1 1.2 0 2.9-2.3 5.2-5.2 5.2 -2.9 0-5.2-2.3-5.2-5.2 0-1.2 0.4-2.4 1.1-3.2C2276.2 138.3 2279.3 139.1 2282 140.2z" class="G"/><path d="M2227.2 138.1c0.7 0.9 1.1 2 1.1 3.2 0 2.9-2.3 5.2-5.2 5.2 -2.9 0-5.2-2.3-5.2-5.2 0-0.4 0-0.8 0.1-1.2C2220.7 139.1 2223.8 138.3 2227.2 138.1z" class="G"/><path d="M2254.9 205.4c6.1 0.1 11.4 1.6 15.8 4.5 -4.6 9.4-20.8 9.1-20.8 9.1s-16.1 0.3-20.8-9.1c4.4-2.9 9.7-4.4 15.8-4.5 0 1.9 4.9 2.1 4.9 2.1S2254.9 207.4 2254.9 205.4z" style="fill:#A1576D;stroke-width:3;stroke:#152235"/><path d="M2270.8 209.9c-4.4-2.9-9.7-4.4-15.8-4.5 0 1.9-4.9 2.1-4.9 2.1s-4.9-0.1-4.9-2.1c-6.1 0.1-11.4 1.6-15.8 4.5 0-9.6 16.3-16.3 16.3-16.3l4.5 1.9 4.5-1.9C2254.5 193.6 2270.8 200.3 2270.8 209.9z" fill="#673045"/><path d="M2188.7 154.7C2188.7 154.7 2188.7 154.7 2188.7 154.7c0 1.8 0.1 3.5 0.3 5.2 0.3 5.8 0.7 12.6 1.3 19.9 0 0-26.1-13-22.6-28.7 3.6-15.6 20.2-9 20.5-8.9 0 0 0 0 0 0S2188.3 147 2188.7 154.7z" class="H"/><path d="M2311.3 154.7c0.4-7.7 0.5-12.4 0.5-12.4s0 0 0 0c0.3-0.1 16.9-6.7 20.5 8.9 3.6 15.7-22.6 28.7-22.6 28.7C2310.5 170.1 2311 161.3 2311.3 154.7z" class="H"/><path d="M2306.3 248.6c0.3 0.3 21.6 18.3 37.3 24 9.4 3.5 23 13.7 32.7 20.2 9.7 6.4 13.9 5.1 22.7 7.6 8.8 2.5 35.9 31.1 35.9 31.1h-369.8c0 0 27-28.5 35.9-31.1 8.8-2.5 13-1.2 22.7-7.6 9.7-6.4 23.3-16.7 32.7-20.2 15.7-5.8 36.9-23.8 37.3-24 0.9-11.9 1.5-22.1 1.5-22.1 2 13 4.5 24.2 7.7 30.1 11.6 22.1 82.7 22.1 94.4 0 3.1-6 5.7-17.1 7.7-30.1C2304.9 226.8 2305.4 236.9 2306.3 248.6z" class="H"/><path d="M2410.2 331.5c-6.9-16.9-23.2-27.9-46.2-34.5 0 0-64.5 5.2-78.2 9.2s-17.9 12.1-17.9 12.1c0 10.6-35.8 10.6-35.8 0 0 0-4.3-8.1-17.9-12.1 -13.7-4-78.2-9.2-78.2-9.2 -23 6.7-39.2 17.6-46.2 34.5" class="I"/><path d="M2247.3 184.5c-0.1 0-2 0.4-4.7 1.2 -7.5 2.1-21.6 7.2-23.4 15.8l-2.7 15.2c-13.1-17.9-25.6-34.7-27.6-56.8 -0.1-1.8-0.2-3.6-0.3-5.2 0 0 0 0 0 0h0c-0.4-7.7-0.5-12.4-0.5-12.4s0 0 0 0c-0.2-0.4-19-44.9 7.2-76.4 17.3-20.9 41.1-24.1 53.6-24.1 12.5 0 38.3 3.2 55.7 24.1 26.1 31.5 7.3 76 7.2 76.4 0 0 0 0 0 0s-0.2 4.8-0.5 12.4c0 0-0.1 0-0.1 0 -0.3 24.7-13.7 42.7-27.8 62l-2.7-15.2c-1.8-8.6-15.8-13.7-23.3-15.8 -2.5-0.7-4.2-1.1-4.7-1.2 -0.8 0.5-1.7 0.7-2.6 0.6C2249 185.3 2248.1 185 2247.3 184.5zM2282.1 141.4c0-0.4 0-0.8-0.1-1.2 -2.7-1.1-5.8-1.9-9.2-2.1 -0.7 0.9-1.1 2-1.1 3.2 0 2.9 2.3 5.2 5.2 5.2C2279.8 146.6 2282.1 144.2 2282.1 141.4zM2228.3 141.4c0-1.2-0.4-2.4-1.1-3.2 -3.4 0.1-6.5 1-9.2 2.1 -0.1 0.4-0.1 0.8-0.1 1.2 0 2.9 2.3 5.2 5.2 5.2C2226 146.6 2228.3 144.2 2228.3 141.4z" style="fill:#AA6D53;stroke-width:3;stroke:#152235"/><path d="M2288.4 52c-14.6-8.6-30.4-10.3-39.4-10.3 -8.9 0-23.4 1.6-37.2 9.9 -2.3 5.2-3.6 10.9-3.6 17 0 23.1 18.7 41.8 41.8 41.8 23.1 0 41.8-18.7 41.8-41.8C2291.8 62.7 2290.6 57.1 2288.4 52z" class="J"/><path d="M2308.3 70.8c11.2 21.7 14.2 42.9 3.5 71.5 1.6 29.6-13.9 57.1-28.4 74.5l-3.1-18.3c-3.4-6.4-13.6-10.3-23.1-12.7 10.5 2.2 13.7-14.7 4.5-18.2l-4.8-19.7c0 0-1.3-8.6 3.3-13.1l0 0c6.9 0 15.9-6.9 21.6-6 6.1 1 13.9 4 22.5 10l-1-11.3c-1.6-7-6.6-9.9-12.1-12.3 21.9-46.9-2.1-65.3-45.6-65.3 3.3-1.6 1.9-8.4 5.2-8.1C2271.7 44.1 2291.6 47.9 2308.3 70.8z" class="H"/><path d="M2238.2 167.5c0 14 23.3 14 23.3 0 8.5 5 4.6 23-8.9 17.1l-6.4-0.8C2235.1 191.3 2229.2 174.1 2238.2 167.5z" fill="#7F5C43"/><path d="M2196 132.8l0.5-5.4c1.6-7 6.6-9.9 12.1-12.3 -21.9-46.9-0.1-64.1 41.4-66.3 -3.3-1.6 2.3-7.4-1-7.1 -20.7 2.4-40.6 6.2-57.3 29 -11.2 21.7-14.2 42.9-3.5 71.5 -1.6 29.6 13.9 57.1 28.4 74.5l3.1-18.3c3.4-6.4 13.6-10.3 23.1-12.7 -10.5 2.2-13.7-14.7-4.5-18.2l4.8-19.7c0 0 1.3-8.6-3.3-13.1l0 0c-6.9 0-15.9-6.9-21.6-6 -6.1 1-13.9 4-22.5 10L2196 132.8" class="H"/><path d="M2216.5 216.7c-2.1-25.3 5.6-41.3 21.7-49.2 -8.3 3.2-6.9 20.7 4.5 18.2L2216.5 216.7z" class="I"/><path d="M2209.4 145.2c1.8-1.3 8.4-7.2 18.8-7.2 3.1 0 8.8 9 8.8 9 -9.8 13.5-19.8 24.8-32.3 8.7C2204.6 152.1 2207.5 146.5 2209.4 145.2z" class="I"/><path d="M2270.8 209.9l2.7 18.5c-11.2 14.8-23.4 14.3-23.4 14.3s-12.2 0.4-23.4-14.3l2.7-18.5c4.6 9.4 20.8 9.1 20.8 9.1S2266.1 219.3 2270.8 209.9z" class="H"/><path d="M2203.4 134.2c5.6-14.5 22.7-25.4 42.9-13 1.7 5.6 0.7 10.1-4.6 13C2230.6 132.4 2219.4 121.9 2203.4 134.2z" class="J"/><path d="M2188.2 142.3c-0.3-0.1-16.9-6.7-20.5 8.9 -3.6 15.7 22.6 28.7 22.6 28.7" class="K"/><path d="M2283.5 216.7c2.1-25.3-5.6-41.3-21.7-49.2 8.3 3.2 6.9 20.7-4.5 18.2L2283.5 216.7z" class="I"/><path d="M2242.7 185.7C2242.7 185.7 2242.7 185.7 2242.7 185.7c-0.5 0.1-10.1 1.3-9.2-11.8 0.3-4.8 4.8-6.4 4.8-6.4" class="K"/><path d="M2257.1 185.7c0 0 0.1 0 0.2 0 1.5 0.1 9.8 0.4 9-11.8 -0.3-4.8-4.8-6.4-4.8-6.4" class="K"/><path d="M2195.5 138.7c0 0 14.6-9.1 22.5-10 7.2-0.8 14.5 6.7 21.6 6 0.7-0.1 1.3-0.2 2-0.4 7.8-2.7 4.6-13 4.6-13" class="K"/><path d="M2209.4 145.2c0 0 8.4-7.2 18.8-7.2 3.1 0 8.8 9 8.8 9 -9.8 13.5-19.8 24.8-32.3 8.7" class="K"/><path d="M2243 147.8c0 0 1.3-8.6-3.3-13.1l0 0" class="K"/><path d="M2195.2 226.5c0 0-0.5 10.2-1.5 22.1 -1.2 15-3 32.6-5.2 35.8" class="L"/><path d="M2193.7 248.6C2193.7 248.6 2193.7 248.6 2193.7 248.6c-0.3 0.3-21.6 18.3-37.3 24 -9.4 3.5-23 13.7-32.7 20.2 -9.7 6.4-13.9 5.1-22.7 7.6 -8.8 2.5-35.9 31.1-35.9 31.1h369.8c0 0-27-28.5-35.9-31.1 -8.8-2.5-13-1.2-22.7-7.6 -9.7-6.4-23.3-16.7-32.7-20.2 -15.7-5.8-37-23.8-37.3-24 0 0 0 0 0 0" class="K"/><path d="M2136 297c0 0 64.5 5.2 78.2 9.2 13.7 4 17.9 12.1 17.9 12.1" class="K"/><path d="M2296.6 134.2c-5.6-14.5-22.7-25.4-42.9-13 -1.7 5.6-0.7 10.1 4.6 13C2269.4 132.4 2280.6 121.9 2296.6 134.2z" class="J"/><path d="M2188.7 154.7c-2.3 0-4.1-1.9-5.2-3.8 -1.2-1.9-1.8-3.8-1.8-3.8 -5.3-1.3-7 0.7-8.8 5.6" class="K"/><path d="M2247.3 184.5c-0.1 0-2 0.4-4.7 1.2 -7.5 2.1-21.6 7.2-23.4 15.8l-2.7 15.2c-13.1-17.9-25.6-34.8-27.5-56.8 -0.1-1.7-0.2-3.4-0.3-5.2" class="K"/><path d="M2304.8 226.5c2.2-14.7 3.8-31.7 4.9-46.7 0.7-9.7 1.2-18.5 1.5-25.1 0.4-7.7 0.5-12.4 0.5-12.4" class="K"/><path d="M2311.8 142.3c0.2-0.4 19-44.9-7.2-76.5 -17.3-20.9-43.1-24.1-55.6-24.1s-36.3 3.2-53.6 24.1c-26.1 31.5-7.4 76-7.2 76.5 0 0 0 1.2 0.1 3.4 0.1 2.1 0.2 5.2 0.4 9.1 0 0 0 0 0 0.1 0.1 1.6 0.1 3.3 0.3 5.2 0.3 5.7 0.7 12.5 1.3 19.9 1.1 15 2.7 32 4.9 46.7 2 13 4.5 24.2 7.7 30.1 11.6 22.1 82.7 22.1 94.4 0 3.2-6 5.7-17.1 7.7-30.1" class="K"/><path d="M2229.3 209.9c0-9.5 16.3-16.3 16.3-16.3l4.5 1.9 4.5-1.9c0 0 16.3 6.7 16.3 16.3 -4.4-2.9-9.7-4.3-15.8-4.5 0 1.9-4.9 2.1-4.9 2.1s-4.9-0.1-4.9-2.1C2238.9 205.6 2233.7 207 2229.3 209.9z" class="K"/><path d="M2270.7 209.9c-4.6 9.4-20.7 9.1-20.7 9.1s-16.1 0.3-20.8-9.1" class="K"/><path d="M2270.7 209.9l2.7 18.5c-11.2 14.8-23.4 14.3-23.4 14.3s-12.3 0.4-23.5-14.3l2.7-18.5" class="K"/><path d="M2252.5 184.5C2252.5 184.5 2252.6 184.6 2252.5 184.5c0.5 0.1 2.3 0.5 4.8 1.2 7.5 2.1 21.5 7.2 23.3 15.8l2.7 15.2c14.1-19.3 27.5-37.3 27.8-62 0.1 0 0.1 0 0.1 0 4.6-0.1 6.9-7.6 6.9-7.6 5.3-1.3 7 0.7 8.7 5.6" class="K"/><path d="M2290.6 145.2c-1.8-1.3-8.4-7.2-18.8-7.2 -3.1 0-8.8 9-8.8 9 9.8 13.5 19.8 24.8 32.3 8.7C2295.4 152.1 2292.5 146.5 2290.6 145.2z" class="I"/><path d="M2262.4 178.7c-4.4-1.3-6.6 4-9.8 5.9 -0.8 0.5-1.7 0.7-2.6 0.6 -1 0.2-1.9-0.1-2.7-0.6 -3.1-1.9-5.3-7.1-9.7-5.8" class="K"/><path d="M2253.7 121.2c0 0-3.1 10.3 4.6 13 0.7 0.2 1.3 0.4 2 0.4 7.1 0.8 14.4-6.8 21.6-6 7.9 0.9 22.5 10 22.5 10" class="K"/><path d="M2290.6 145.2c0 0-8.4-7.2-18.8-7.2 -3.1 0-8.8 9-8.8 9 9.8 13.5 19.8 24.8 32.3 8.7" class="K"/><path d="M2257 147.8c0 0-1.3-8.6 3.3-13.1l0 0" class="K"/><path d="M2303.5 127.4c-1.1-5.1-4.9-9.2-12.1-12.3 0 0 15.8-34.8 3.1-49.3 -12.7-14.5-34.5-17-44.6-17 -10.1 0-31.9 2.5-44.6 17 -12.7 14.5 3.1 49.3 3.1 49.3 -7.2 3.1-11 7.3-12.1 12.3" class="K"/><path d="M2304.8 226.5C2304.8 226.5 2304.8 226.5 2304.8 226.5c0 0.3 0.6 10.4 1.5 22.1 1.2 15 3 32.6 5.2 35.8" class="L"/><path d="M2364 297c0 0-64.5 5.2-78.2 9.2s-17.9 12.1-17.9 12.1" class="K"/><path d="M2227.2 138.1c0.7 0.9 1.1 2 1.1 3.2 0 2.9-2.3 5.2-5.2 5.2 -2.9 0-5.2-2.4-5.2-5.2 0-0.4 0-0.8 0.1-1.2C2220.7 139.1 2223.8 138.3 2227.2 138.1z" fill="#32323F"/><path d="M2223.1 146.6c2.9 0 5.2-2.4 5.2-5.2 0-1.2-0.4-2.4-1.1-3.2 -3.4 0.1-6.5 1-9.2 2.1 -0.1 0.4-0.1 0.8-0.1 1.2C2217.9 144.3 2220.2 146.6 2223.1 146.6z" class="K"/><path d="M2271.7 141.4c0 2.9 2.3 5.2 5.2 5.2 2.9 0 5.2-2.3 5.2-5.2 0-0.4 0-0.8-0.1-1.2 -2.7-1.1-5.8-1.9-9.2-2.1C2272.1 139 2271.7 140.1 2271.7 141.4z" style="fill:#32323F;stroke-width:4;stroke:#152B44"/><path d="M2255.6 168.3c0-2.5-2.7-7.7-6-7.7s-6 5.2-6 7.7c0 2.5 2.7 4.5 6 4.5S2255.6 170.8 2255.6 168.3z" class="J"/><path d="M2311.2 154.7c0.1 0 0.1 0 0.1 0 -0.3 6.6-0.8 15.4-1.5 25.1 -1.1 15-2.7 32-4.9 46.7 -2 13-4.5 24.2-7.7 30.1 -11.6 22.1-82.7 22.1-94.4 0 -3.2-6-5.7-17.1-7.7-30.1 -2.2-14.7-3.8-31.7-4.9-46.7 -0.4-5-0.9-14.1-1.3-19.9 2 22 14.4 38.9 27.5 56.8l2.7-15.2c1.8-8.6 15.9-13.7 23.4-15.8 2.7-0.8 4.5-1.2 4.7-1.2h5.2c0 0 0 0 0.1 0 0.4 0.1 2.2 0.5 4.7 1.2 7.5 2.1 21.5 7.2 23.3 15.8l2.7 15.2C2297.5 197.4 2310.8 179.4 2311.2 154.7zM2273.5 228.4l-2.7-18.5c0-9.5-16.3-16.3-16.3-16.3l-4.5 1.9 -4.5-1.9c0 0-16.3 6.7-16.3 16.3l-2.7 18.5c11.2 14.8 23.5 14.3 23.5 14.3S2262.3 243.2 2273.5 228.4z" fill="#261C1A"/><path d="M2309.3 186.4c-1.1 13.3-2.5 27.6-4.4 40.1 -2 13-4.5 24.2-7.7 30.1 -11.6 22.1-82.7 22.1-94.4 0 -3.2-6-5.7-17.1-7.7-30.1 -1.9-12.6-3.4-27-4.4-40.3 5 34.3 19.4 76.2 59.3 76.2C2289.9 262.4 2304.2 220.7 2309.3 186.4z" fill="#130E0E"/><path d="M2189 159.9c2 22 14.4 38.9 27.5 56.8l2.7-15.2c1.8-8.6 15.9-13.7 23.4-15.8 2.7-0.8 4.5-1.2 4.7-1.2h5.2 0.1" class="K"/><path d="M2188.8 155.4c0 1.2 0.1 2.4 0.2 3.5" style="fill:none;stroke-width:4;stroke:#000"/><path d="M2304.8 226.5c1.9-12.5 3.4-26.9 4.4-40.1 0.1-2.2 0.3-4.4 0.5-6.6 0.7-9.7 1.2-18.5 1.5-25.1 0.4-7.7 0.5-12.4 0.5-12.4" class="K"/><path d="M2188.2 142.2c0 0 0.1 4.8 0.5 12.4 0 0 0 0 0 0.1 0 0.2 0 0.4 0 0.7 0 0.7 0.1 2 0.2 3.5 0 0.3 0 0.7 0.1 1 0.3 5.8 0.9 14.9 1.3 19.9 0.1 2.1 0.3 4.2 0.5 6.4 1 13.3 2.5 27.7 4.4 40.3 2 13 4.5 24.2 7.7 30.1 11.6 22.1 82.7 22.1 94.4 0 3.2-6 5.7-17.1 7.7-30.1" class="K"/><path d="M2229.3 209.9c0-9.5 16.3-16.3 16.3-16.3l4.5 1.9 4.5-1.9c0 0 16.3 6.7 16.3 16.3 -4.4-2.9-9.7-4.3-15.8-4.5 0 1.9-4.9 2.1-4.9 2.1s-4.9-0.1-4.9-2.1C2238.9 205.5 2233.7 207 2229.3 209.9z" class="K"/><path d="M2270.7 209.9c-4.6 9.4-20.7 9.1-20.7 9.1s-16.1 0.3-20.8-9.1" class="K"/><path d="M2270.7 209.9l2.7 18.5c-11.2 14.8-23.4 14.3-23.4 14.3s-12.3 0.4-23.5-14.3l2.7-18.5" class="K"/><path d="M2252.5 184.5C2252.5 184.5 2252.6 184.5 2252.5 184.5c0.5 0.1 2.3 0.5 4.8 1.2 7.5 2.1 21.5 7.2 23.3 15.8l2.7 15.2c14.1-19.3 27.5-37.3 27.8-62 0.1 0 0.1 0 0.1 0 0.2 0 0.4 0 0.6-0.1 4.2-0.7 6.3-7.5 6.3-7.5 5.3-1.3 7 0.7 8.7 5.6" class="K"/><path d="M2311.8 142.3c0.3-0.1 16.9-6.7 20.5 8.9 3.6 15.7-22.6 28.7-22.6 28.7" class="K"/><rect x="1500" width="500" height="375" fill="#BC2F4B"/><path d="M1905.3 311.8c11.3 16.5 8.6 19.4 8.6 19.4h-59.1c-4.5-24.8-12-49.3-12-49.3 7.4 2.8 13.6 4.9 16.8 5.7C1872.5 291 1894 295.3 1905.3 311.8z" class="M"/><path d="M1854.8 331.2h-48.9c7.1-30.4 3.8-64.5 3.8-64.5 4.5 2.5 9.3 4.9 14.3 7.2 6.5 3 13 5.7 18.9 8C1842.8 281.9 1850.3 306.5 1854.8 331.2z" class="N"/><path d="M1790.4 249.5L1790.4 249.5c-0.6-9.2-0.2-16.8 0.2-20.4 2-3.2 3.7-6.6 5.3-10.1 1.9-3.1 3.4-5.9 4.1-8 2.1-5.8 4.7-16.3 6.8-26.2 0 0 1.1 3.5 5.8 1.5 0 0 4.6 5.3 4.6 15.7s0 7.8 0 19.6 6.5 12.1 9.8 28.1c3.2 16-3.2 24.3-3.2 24.3 -4.9-2.3-9.8-4.7-14.3-7.2C1799.1 260.9 1791.1 254.7 1790.4 249.5z" class="O"/><path d="M1823.3 142.5c1.5 1.5-1.4 14.5-4.1 18.6 0.6 4.5-0.3 9.7-2.1 15.2 0 0 0.2 8-4.5 10 -4.7 2-5.8-1.5-5.8-1.5 2.4-11.3 4.3-22.1 4.3-24.9 0 0 3.4-6.5 6.6-16.1C1819.9 141.1 1821.8 141 1823.3 142.5z" class="P"/><path d="M1776.1 222.3c0 0 7.3-17.4 6.8-30.3 20.1-1.4 22.9-24.6 7.8-27.4 0.5-1.4 0.4-5.2 0-6.9 10.7-4.3 13.7-10.3 11.2-18 -1-8-3.8-15.3-10.2-17.7 0.6-1.1 1.1-2.2 1.4-3.4 0.2-0.4 0.3-0.9 0.4-1.3 0.1-0.3 0.2-0.6 0.2-0.9 1.8-8.1 0.2-17.3 0.2-17.3l-1-8.9 8.8 5.5c0.1 0.1 0.2 0.1 0.2 0.1 0 7.5 7.8 37.6 8.8 41.4 0.1 0.2 0.1 0.4 0.1 0.4l-3.4 8.9c0 0 0 0.1 0 0.1 0 6.1 3.2 12.5 3.7 13.3 0 0.1 0 0.1 0 0.1 -3.5 20.7-7.2 41.3-15.3 59.1 -1.5 2.5-3.2 5.2-5.1 8h-25.2 -1.7c0.5-0.4 1-0.8 1.6-1.2 0.6-0.4 1.5-0.8 2.6-1.2h0c2.6-0.2 5.3-0.7 7.6-2 0.1 0 0.2-0.1 0.2-0.2C1776 222.4 1776.1 222.4 1776.1 222.3z" class="P"/><path d="M1811.2 159.9c0 2.9-1.9 13.6-4.3 24.9 -2.1 10-4.8 20.4-6.8 26.2 -0.7 2.1-2.2 4.9-4.1 8C1804 201.2 1807.7 180.7 1811.2 159.9z" class="Q"/><path d="M1807.5 146.6l3.7 13.3C1810.7 159.1 1807.5 152.7 1807.5 146.6z" class="R"/><path d="M1807.5 146.5l3.4-8.9C1810.9 141.1 1807.9 145.9 1807.5 146.5z" class="Q"/><path d="M1802 95.9l8.8 41.4C1809.8 133.5 1802 103.4 1802 95.9z" class="R"/><path d="M1709.7 249.5c0.6-9.2 0.1-16.8-0.2-20.4 0 0.1 0.1 0.2 0.2 0.3 1.9 11.7 12 62.4 40.4 62.4 28.3 0 38.4-50.7 40.4-62.4 0.1-0.1 0.1-0.2 0.2-0.3 -0.3 3.6-0.8 11.2-0.2 20.4h0.1c0.6 5.1 8.7 11.3 19.2 17.2 0 0 3.4 34.1-3.8 64.5h-6.8 -98 -6.8c-7.1-30.4-3.8-64.5-3.8-64.5C1700.9 260.9 1709 254.7 1709.7 249.5L1709.7 249.5z" class="M"/><path d="M1777 146.9l3-9.3c0 0 0.1 0 0.1 0l21.8 2.1c2.5 7.7-0.5 13.8-11.2 18 0.4 1.7 0.5 5.5 0 6.9l-0.3-6.8c-2.8-2.2-5.7-3.5-8.5-3.9l0 0c-0.1 0-0.2 0-0.3 0 -0.5-0.1-0.9-0.1-1.4-0.1 -0.5 0-1.1 0-1.6 0.1 -0.2 0-0.4 0-0.6 0.1 -0.5 0.1-1 0.2-1.5 0.3 -0.5 0.1-1 0.2-1.5 0.4l0 0v0c-0.2 0-0.4 0.1-0.6 0.2L1777 146.9z" class="P"/><path d="M1801.9 139.7l-21.8-2.1C1786.2 136.2 1793.5 136.4 1801.9 139.7z" class="S"/><path d="M1801.8 95.8l-8.8-5.5C1797.5 92.7 1801 95.2 1801.8 95.8z" class="Q"/><path d="M1791.7 122c6.4 2.3 9.2 9.7 10.2 17.7 -8.4-3.3-15.7-3.5-21.8-2.1h-0.1v0c-14.9 3.4-22.9 15.9-22.9 15.9l0.3 12 7.9-4.1c0 0 0 0 0 0 0.2 0.4 2.2 3.8 5.2 5.4 3.7 1.9 7 3 9.7 3.3 5.7 1 9.3-0.6 10.4-5.5 0 0 0-0.1 0-0.1 15.1 2.8 12.3 26-7.8 27.4 0.5 12.9-6.8 30.3-6.8 30.3 0 0.1-0.1 0.1-0.2 0.1 -0.1 0-0.2 0-0.4 0.1 -1.1 0.1-2.8-0.2-4.8-0.8 -1.5-0.4-3.2-1.1-4.8-1.7 -0.2-0.1-0.5-0.2-0.8-0.3 -4.5-1.8-8.9-3.8-9.6-4 0 0 0 0 0 0v0c-0.1 0.3-0.3 0.6-0.5 0.9l-2.3-12.9h-0.1c0.5-0.1 0.9-0.3 1.3-0.6l3.2 0.1c0 0 4.8 1.9 7-1.9 3.6-6-1.6-13.8-1.6-13.8l-5.7 0.2c-0.8-5.5-3.6-16.1-6.9-16.1 -0.5 0-1 0.2-1.4 0.6l-6-6.6 0.3-12c0 0-8-12.5-22.9-15.9v0h-0.1c-6.1-1.4-13.4-1.2-21.8 2.1 1-8 3.8-15.3 10.2-17.7 -0.6-1.1-1.1-2.2-1.4-3.4 -0.2-0.4-0.3-0.9-0.4-1.3 -0.1-0.3-0.2-0.6-0.2-0.9 -1.8-8.1-0.2-17.3-0.2-17.3l1-8.9c2.7-1.5 5.8-3 8.8-4.1 0 22.8 15.3 41.3 34.1 41.3s34.1-18.5 34.1-41.3c3 1.1 6.1 2.6 8.8 4.1l1 8.9c0 0 1.6 9.2-0.2 17.3 -0.1 0.3-0.2 0.6-0.2 0.9 -0.1 0.4-0.2 0.9-0.4 1.3C1792.8 119.8 1792.3 121 1791.7 122z" class="M"/><path d="M1793.1 118.7c0.2-0.4 0.3-0.9 0.4-1.3C1793.4 117.8 1793.3 118.2 1793.1 118.7z" class="S"/><path d="M1790.8 227c1.9-2.8 3.6-5.5 5.1-8 -1.6 3.5-3.3 6.9-5.3 10.1 0-0.4 0.1-0.8 0.1-1.1C1790.8 227.4 1790.8 227 1790.8 227z" class="S"/><path d="M1790.8 227c0 0 0 0.3-0.1 1 -0.1 0.4-0.2 0.8-0.2 1.4 -3.3 5.5-7.2 10.7-11.8 15.4C1781.8 240 1786.5 233.4 1790.8 227z" class="S"/><path d="M1759.4 242.9c-0.1 0-0.1 0-0.1 0 -2.5-1-8.4-1.4-11.9-1.4l0.3-6.8c7.6 0 15.4-5.1 17.8-7.7h25.2c-4.3 6.4-9 13-12.2 17.8 -2.6 3.8-5.7 7.8-9.5 11.2 0 0 0 0 0 0 -5.2 4-12.2 6.5-19.3 7.4l0.1-6.8c8.4-0.1 15.7-3.4 15.7-7.6C1765.5 246.5 1763.1 244.3 1759.4 242.9z" class="P"/><path d="M1790.4 157.9l0.3 6.8c0 0 0 0.1 0 0.1 -1.4 3.8-5 6-10.4 5.5 -2.8-0.5-6-1.6-9.7-3.3l3.8-11.9c0.2-0.1 0.4-0.2 0.6-0.2 -0.7 0.9-1.1 1.9-1.1 3.2 0 2.8 2.3 5 5 5 2.8 0 5-2.3 5-5 0-1.7-0.8-3.1-2-4C1784.7 154.3 1787.6 155.6 1790.4 157.9z" class="M"/><path d="M1790.7 228c0 0.3-0.1 0.7-0.1 1.1 0 0.1-0.1 0.2-0.2 0.3C1790.5 228.8 1790.6 228.4 1790.7 228z" class="S"/><path d="M1790.7 164.7c-1.1 4.9-4.7 6.5-10.4 5.5C1785.7 170.7 1789.3 168.5 1790.7 164.7z" class="S"/><path d="M1790.4 229.4c-2 11.7-12.1 62.4-40.4 62.4 -28.4 0-38.4-50.7-40.4-62.4 3.3 5.5 7.2 10.7 11.8 15.4 2.5 4.5 5.7 8.3 9.5 11.2l0 0c5.1 4.5 11.3 7.7 18.6 7.4 0.1 0 0.2 0 0.4 0 0.1 0 0.2 0 0.2 0 0 0 0.1 0 0.1 0 7.3 0.3 13.5-2.9 18.6-7.4 0 0 0 0 0 0 3.8-2.9 7-6.7 9.5-11.2C1783.2 240.1 1787.1 234.9 1790.4 229.4z" class="P"/><path d="M1781.8 154c1.2 0.9 2 2.3 2 4 0 2.8-2.2 5-5 5 -2.8 0-5-2.3-5-5 0-1.2 0.5-2.3 1.1-3.2v0c0.5-0.2 1-0.3 1.5-0.5 0.5-0.2 1-0.2 1.5-0.3 0.2-0.1 0.4-0.1 0.6-0.1 0.5-0.1 1.1-0.1 1.6-0.1 0.5 0 0.9 0 1.4 0.1C1781.6 153.9 1781.7 153.9 1781.8 154z" class="T"/><path d="M1781.8 154c-0.1 0-0.2 0-0.3-0.1C1781.6 153.9 1781.7 153.9 1781.8 154L1781.8 154z" class="T"/><path d="M1780.1 137.6C1780.1 137.6 1780 137.6 1780.1 137.6L1780.1 137.6 1780.1 137.6z" class="S"/><path d="M1777 146.9l-2.6 8.1c-3 1.2-6 3.4-9 6.5l-7.9 4.1 -0.3-12c0 0 8-12.5 22.9-15.9L1777 146.9z" class="P"/><path d="M1777.9 154c-0.5 0.1-1 0.2-1.5 0.3C1777 154.2 1777.5 154.1 1777.9 154z" class="T"/><path d="M1774.6 84.6c2.8-0.4 6.1 0.4 9.5 1.6 0 22.8-15.3 41.3-34.1 41.3s-34.1-18.5-34.1-41.3c3.4-1.3 6.8-2 9.5-1.6 0 0 7.2 7.4 24.6 7.4C1767.4 92 1774.6 84.6 1774.6 84.6z" class="U"/><path d="M1776.5 154.3c-0.5 0.1-1 0.3-1.5 0.5l0 0C1775.5 154.6 1776 154.4 1776.5 154.3z" class="T"/><path d="M1775.9 222.4c-0.1 0.1-0.2 0.1-0.2 0.2 -0.2 0.1-0.5 0.1-0.8 0.1 0.2-0.1 0.4-0.1 0.6-0.2C1775.7 222.4 1775.8 222.4 1775.9 222.4z" class="S"/><path d="M1774.9 222.6c0.3 0 0.6 0 0.8-0.1 -2.3 1.3-5 1.9-7.6 2C1770.4 223.8 1773.3 223 1774.9 222.6z" class="S"/><path d="M1770.7 221.7c2 0.6 3.7 0.9 4.8 0.8 -0.2 0-0.4 0.1-0.6 0.2C1773.9 222.6 1772.4 222.2 1770.7 221.7z" class="V"/><path d="M1774.4 155l-3.8 11.9 -5.2-5.4c0 0 0 0 0 0C1768.4 158.4 1771.4 156.2 1774.4 155z" class="M"/><path d="M1774.9 222.6c-1.6 0.4-4.5 1.2-6.8 2h0c-5.2 0.4-10-0.8-10-0.8 -2.2 3.2-13.9 3.2-16.1 0 0 0-4.8 1.2-10 0.8h0c-2.6-0.9-6.1-1.8-7.4-2.1 4.4 0.5 20.1-6.9 20.1-6.9 -0.3 3.1 2.6 4.9 5.4 4.9h0c0 0 0 0 0 0s0 0 0.1 0c2.4 0 4.7-1.3 4.9-4 0.2-0.3 0.3-0.6 0.5-0.9 0 0 0 0 0 0 0.5 0.2 4.9 2.3 9.6 4 0.3 0.1 0.6 0.2 0.8 0.3 1.7 0.6 3.3 1.2 4.8 1.7C1772.4 222.2 1773.9 222.6 1774.9 222.6z" class="V"/><path d="M1770.6 166.9c3.7 1.7 7 2.8 9.7 3.3C1777.5 169.9 1774.3 168.8 1770.6 166.9z" class="S"/><path d="M1765.4 161.5l5.2 5.4C1767.6 165.3 1765.7 161.9 1765.4 161.5z" class="M"/><path d="M1769 256c3.8-3.3 7-7.4 9.5-11.2C1776.1 249.3 1772.9 253 1769 256z" class="S"/><path d="M1750.4 263.2c7.2-0.9 13.4-3.3 18.6-7.3C1763.9 260.4 1757.7 263.6 1750.4 263.2L1750.4 263.2z" class="S"/><path d="M1758.1 223.8c0 0 4.8 1.2 10 0.8 -1.1 0.4-2 0.8-2.6 1.2 -0.6 0.4-1.1 0.8-1.6 1.2l-27.7 0c-0.5-0.4-1.1-0.8-1.6-1.2 -0.6-0.4-1.5-0.8-2.6-1.2 5.3 0.4 10-0.8 10-0.8C1744.2 226.9 1755.9 226.9 1758.1 223.8z" class="Q"/><path d="M1765.9 220c-0.2-0.1-0.5-0.2-0.8-0.3C1765.4 219.7 1765.7 219.9 1765.9 220z" class="Q"/><path d="M1763.9 227h1.7c-2.3 2.7-7.9 7.9-15.5 7.9l0-1.6C1757.6 233.4 1759.9 230.3 1763.9 227z" class="S"/><path d="M1753.9 203c-0.4 0.2-0.8 0.4-1.3 0.6l-5.9-0.2 -2.1 12.3c0 0-15.7 7.3-20.1 6.9 -0.2 0-0.3 0-0.4-0.1 -0.1 0-0.1 0-0.2-0.1 0 0-7.3-17.4-6.8-30.3 -20.1-1.4-22.9-24.6-7.8-27.4 0.3 1.5 0.9 2.7 1.7 3.6 0.2 0.3 0.6 0.6 0.9 0.8 1.5 1.2 3.6 1.6 6.2 1.4 0.5 0 1.1-0.1 1.7-0.2 2.8-0.3 6-1.4 9.7-3.3 3.2-1.7 5.2-5.4 5.2-5.4l7.9 4.1 6 6.6c-3.2 2.9-5.7 14.7-5.7 17.9 0 3.6 3.2 6.6 7.1 6.6s7.1-2.9 7.1-6.6c0-0.6-0.1-1.4-0.2-2.4l5.7-0.2c0 0 5.2 7.8 1.6 13.8 -2.3 3.8-7 1.9-7 1.9L1753.9 203z" class="M"/><path d="M1736.2 227l27.7 0c-4 3.2-6.3 6.4-13.8 6.3C1742.5 233.4 1740.2 230.3 1736.2 227z" class="S"/><path d="M1759.4 242.9c3.7 1.4 6.1 3.6 6.1 6 0 4.1-6.7 7.5-15.1 7.6l-0.2-14.6c3.2 0 6.4 0.3 9.1 0.9C1759.3 242.9 1759.3 242.9 1759.4 242.9z" class="Q"/><path d="M1756.9 187.6c0.1 1 0.2 1.9 0.2 2.4 0 3.6-3.2 6.6-7.1 6.6s-7.1-2.9-7.1-6.6c0-3.2 2.4-15 5.7-17.9 0.5-0.4 0.9-0.6 1.4-0.6C1753.3 171.5 1756.1 182.2 1756.9 187.6z" class="U"/><path d="M1823 110.7c-1.9-41.6-23.2-67.9-66.5-74.2 -2.1-0.3-4.3-0.6-6.5-0.8 -47.6 4.6-71 31.4-73 75 -0.5 12.1 2.3 24 5.3 33.1 3.2 9.7 6.6 16.1 6.6 16.1s0 0 0-0.1l3.7-13.3c0 0 0 0 0-0.1 -0.4-0.6-3.4-5.4-3.4-8.9 0 0 0-0.1 0.1-0.4l8.8-41.4c0 0 0.1 0 0.2-0.1 0.8-0.6 4.4-3 8.8-5.5 2.7-1.5 5.8-3 8.8-4.1 3.4-1.3 6.8-2 9.5-1.6 0 0 7.2 7.4 24.6 7.4 17.4 0 24.6-7.4 24.6-7.4 2.8-0.4 6.1 0.4 9.5 1.6 3 1.1 6.1 2.6 8.8 4.1 4.5 2.4 8 4.9 8.8 5.5 0.1 0.1 0.2 0.1 0.2 0.1l8.8 41.4c0.1 0.2 0.1 0.4 0.1 0.4 0 3.5-3 8.3-3.4 8.9 0 0 0 0.1 0 0.1l3.7 13.3c0 0.1 0 0.1 0 0.1s3.4-6.5 6.6-16.1C1820.8 134.7 1823.6 122.7 1823 110.7z" class="O"/><path d="M1755.5 215.6c0.7 0.2 5 2.2 9.6 4C1760.4 217.9 1756 215.9 1755.5 215.6z" class="Q"/><path d="M1755.5 215.6C1755.5 215.6 1755.5 215.6 1755.5 215.6S1755.5 215.6 1755.5 215.6L1755.5 215.6z" class="Q"/><path d="M1752.7 203.6l2.3 12.9c-1.3 1.9-4.5 3.7-4.9 4 0 0-0.1 0-0.1 0h0c-0.5-0.3-4.7-2.6-5.4-4.9l2.1-12.3c0.8 0.4 1.8 0.6 3.3 0.6C1751.2 203.9 1752 203.8 1752.7 203.6L1752.7 203.6z" class="P"/><path d="M1750.1 220.5c0.4-0.2 3.6-2 4.9-4C1754.8 219.2 1752.5 220.4 1750.1 220.5z" class="S"/><path d="M1746.7 203.3l5.9 0.2c-0.7 0.2-1.5 0.3-2.6 0.3C1748.5 203.9 1747.5 203.7 1746.7 203.3z" class="S"/><path d="M1759.3 242.9c-2.8-0.6-6-0.9-9.1-0.9v-0.6C1753.6 241.4 1756.8 241.9 1759.3 242.9z" class="Q"/><path d="M1750.4 263.2L1750.4 263.2c0 0.1-0.1 0.1-0.1 0.1 -0.1 0-0.2 0-0.2-0.1C1750.2 263.3 1750.3 263.3 1750.4 263.2z" class="S"/><path d="M1750.1 242l0.2 14.6c-0.1 0-0.2 0-0.3 0 -0.1 0-0.2 0-0.3 0l0.2-14.6C1750 242 1750.1 242 1750.1 242z" class="Q"/><path d="M1750 263.3c0.1 0 0.2 0 0.2 0.1C1750.2 263.3 1750.1 263.3 1750 263.3c-0.1 0.1-0.2 0.1-0.4 0.1C1749.8 263.3 1749.9 263.3 1750 263.3z" class="S"/><path d="M1750.1 241.4v0.6c-0.1 0-0.1 0-0.2 0v-0.6C1750 241.4 1750 241.4 1750.1 241.4 1750.1 241.4 1750.1 241.4 1750.1 241.4z" class="Q"/><path d="M1750.1 234.9l0.1 6.5c0 0-0.1 0-0.1 0s-0.1 0-0.1 0L1750.1 234.9 1750.1 234.9 1750.1 234.9z" class="S"/><path d="M1750.1 220.5C1750.1 220.5 1750 220.5 1750.1 220.5 1750 220.5 1750 220.5 1750.1 220.5 1750 220.5 1750.1 220.5 1750.1 220.5z" class="Q"/><polygon points="1750 233.3 1750.1 234.9 1750 234.9 1750 234.9 " class="S"/><path d="M1750 233.3l0 1.6c-7.6 0-13.1-5.2-15.5-7.8h1.7C1740.2 230.3 1742.5 233.4 1750 233.3z" class="S"/><path d="M1750 263.3c-0.1 0-0.2 0.1-0.4 0.1v-0.1C1749.8 263.3 1749.9 263.3 1750 263.3z" class="S"/><path d="M1740.7 242.9c-3.7 1.4-6.1 3.6-6.1 6 0 4.1 6.7 7.5 15.1 7.6l-0.1 6.7c-7.2-0.9-13.4-3.3-18.6-7.3l0 0c-3.8-3.3-7-7.3-9.5-11.2 -3.2-4.7-7.9-11.4-12.2-17.7h25.2c2.4 2.7 7.9 7.8 15.5 7.8l3.1 6.5c-3.4 0-9.8 0.6-12.3 1.5C1740.8 242.9 1740.7 242.9 1740.7 242.9z" class="P"/><path d="M1750 241.4v0.6c-3.2 0-6.4 0.3-9.1 0.9C1743.3 241.9 1746.5 241.4 1750 241.4z" class="Q"/><path d="M1750 242l-0.2 14.6c-8.4-0.1-15.1-3.4-15.1-7.6 0-2.4 2.4-4.6 6.1-6 0.1 0 0.1 0 0.1 0C1743.6 242.3 1746.8 242 1750 242z" class="Q"/><path d="M1749.7 263.2L1749.7 263.2c-7.3 0.4-13.5-2.8-18.6-7.3C1736.2 259.9 1742.5 262.4 1749.7 263.2z" class="S"/><path d="M1744.6 215.6c0.7 2.2 4.9 4.6 5.4 4.9C1747.2 220.5 1744.3 218.7 1744.6 215.6z" class="S"/><path d="M1723 146.7l-2.9-9c14.9 3.4 22.9 15.9 22.9 15.9l-0.3 12 -7.9-4.1c-3-3.1-6.1-5.3-9-6.4L1723 146.7z" class="P"/><path d="M1706.3 116.4c0.1 0.3 0.2 0.6 0.2 0.9 0.1 0.4 0.2 0.9 0.4 1.3 0.4 1.2 0.8 2.3 1.4 3.4 -6.4 2.3-9.2 9.7-10.2 17.7 -2.5 7.7 0.5 13.8 11.2 18 -0.4 1.7-0.5 5.5 0 6.9 -15.1 2.8-12.3 26 7.8 27.4 -0.5 12.9 6.8 30.3 6.8 30.3 0.1 0 0.1 0.1 0.2 0.1 2.3 1.4 5.1 2 7.8 2.2h0c1.1 0.4 2 0.8 2.6 1.2 0.6 0.4 1.1 0.8 1.6 1.2h-1.7 -25.2v0c-1.9-2.8-3.6-5.4-5.1-7.9 -8.1-17.9-11.8-38.4-15.3-59.2 0 0 0 0 0-0.1 0.4-0.8 3.7-7.1 3.7-13.3 0 0 0 0 0-0.1l-3.4-8.9c0 0 0-0.1 0.1-0.4 1-3.7 8.8-33.8 8.8-41.4 0 0 0.1 0 0.2-0.1l8.8-5.5 -1 8.9C1706.1 99.2 1704.5 108.3 1706.3 116.4z" class="P"/><path d="M1734.7 161.5c0 0-2.1 3.7-5.2 5.4l-3.8-11.8C1728.7 156.2 1731.7 158.4 1734.7 161.5z" class="M"/><path d="M1725.7 155l3.8 11.8c-2.6 1.2-4.9 2.1-7 2.7l-1.2-6.6c2.8 0 5-2.3 5-5 0-1.2-0.4-2.3-1.1-3.2C1725.3 154.9 1725.5 154.9 1725.7 155z" class="M"/><path d="M1724.5 222.5c1.3 0.3 4.9 1.2 7.4 2.1 -2.7-0.2-5.5-0.8-7.8-2.2C1724.3 222.4 1724.4 222.4 1724.5 222.5z" class="S"/><path d="M1723 146.7l2.7 8.3c-0.2-0.1-0.4-0.2-0.6-0.2l0 0c-0.1 0-0.2-0.1-0.3-0.1 -0.1-0.1-0.2-0.1-0.4-0.1 -0.2-0.1-0.4-0.1-0.6-0.2 -0.1 0-0.1 0-0.2 0 -0.5-0.2-1-0.2-1.5-0.3 -0.2 0-0.3-0.1-0.5-0.1 -0.1 0-0.1 0-0.1 0 -0.5-0.1-1.1-0.1-1.6-0.1 -0.5 0-0.9 0-1.4 0.1 0 0-0.1 0-0.2 0 -0.1 0-0.1 0-0.2 0l0 0c-2.9 0.4-5.7 1.7-8.5 3.9l-0.3 6.8c-0.5-1.4-0.4-5.2 0-6.9 -10.7-4.3-13.7-10.3-11.2-18l21.8-2.1c0 0 0.1 0 0.1 0L1723 146.7z" class="P"/><path d="M1725.1 154.8c0.7 0.9 1.1 1.9 1.1 3.2 0 2.8-2.2 5-5 5 -2.8 0-5-2.3-5-5 0-1.7 0.8-3.1 2-4 0.1 0 0.1 0 0.2 0 0.1 0 0.1 0 0.2 0 0.5-0.1 0.9-0.1 1.4-0.1 0.5 0 1.1 0 1.6 0.1 0 0 0.1 0 0.1 0 0.2 0 0.3 0 0.5 0.1 0.5 0.1 1 0.2 1.5 0.3 0 0 0.1 0 0.2 0 0.2 0.1 0.4 0.1 0.6 0.2 0.1 0 0.2 0.1 0.4 0.1C1724.8 154.7 1725 154.7 1725.1 154.8L1725.1 154.8z" class="T"/><path d="M1724.7 154.7c-0.1-0.1-0.2-0.1-0.4-0.1C1724.5 154.6 1724.6 154.6 1724.7 154.7z" class="S"/><path d="M1722.4 169.5c2.1-0.6 4.5-1.5 7-2.7 -3.7 1.9-7 3-9.7 3.3 0.4-0.1 0.7-0.2 1.1-0.2C1721.4 169.8 1721.9 169.7 1722.4 169.5z" class="S"/><path d="M1731 255.9c-3.8-2.9-7-6.6-9.5-11.2C1724.1 248.6 1727.2 252.6 1731 255.9z" class="S"/><path d="M1721.2 163l1.2 6.6c-0.5 0.2-1 0.3-1.5 0.4 -0.5 0.1-1 0.2-1.5 0.3h-0.1c-5.2 0.4-8.7-1.9-10-5.6l0.3-6.8c2.8-2.2 5.7-3.5 8.5-3.9 -1.2 0.9-2 2.3-2 4C1716.2 160.7 1718.5 163 1721.2 163z" class="M"/><path d="M1720.9 169.9c-0.4 0.1-0.7 0.2-1.1 0.2 -0.1 0-0.2 0-0.3 0C1719.9 170.1 1720.4 170.1 1720.9 169.9z" class="S"/><path d="M1720.1 137.6L1720.1 137.6C1720.1 137.6 1720 137.6 1720.1 137.6L1720.1 137.6z" class="S"/><path d="M1720 137.6l-21.8 2.1C1706.6 136.4 1713.9 136.2 1720 137.6z" class="S"/><path d="M1719.4 170.2c0.1 0 0.2 0 0.3 0 -0.6 0.1-1.2 0.2-1.7 0.2C1718.5 170.4 1719 170.3 1719.4 170.2L1719.4 170.2z" class="S"/><path d="M1719.4 170.2c-0.4 0.1-0.9 0.2-1.3 0.2 -2.6 0.2-4.7-0.2-6.2-1.4 -0.3-0.2-0.6-0.5-0.9-0.8 -0.8-0.9-1.4-2.1-1.7-3.6C1710.7 168.4 1714.2 170.6 1719.4 170.2z" class="S"/><path d="M1718.4 153.9c-0.1 0-0.1 0-0.2 0l0 0C1718.3 153.9 1718.4 153.9 1718.4 153.9z" class="T"/><path d="M1711 168.2c0.2 0.3 0.6 0.6 0.9 0.8C1711.6 168.8 1711.3 168.5 1711 168.2z" class="S"/><path d="M1721.5 244.8c-4.6-4.7-8.5-9.9-11.8-15.4 -0.1-0.7-0.2-1.2-0.3-1.6 -0.1-0.4-0.1-0.7-0.1-0.8C1713.5 233.4 1718.3 240.1 1721.5 244.8z" class="S"/><path d="M1709.7 229.4c-0.1-0.1-0.1-0.2-0.2-0.3 -0.1-0.6-0.1-1-0.1-1.3C1709.4 228.2 1709.5 228.7 1709.7 229.4z" class="S"/><path d="M1709.4 227.8c0 0.3 0.1 0.8 0.1 1.3 -1.9-3.2-3.7-6.6-5.3-10 1.5 2.4 3.2 5.1 5.1 7.9v0C1709.3 227.1 1709.3 227.4 1709.4 227.8z" class="S"/><path d="M1707.1 90.3l-8.8 5.5C1699.1 95.2 1702.6 92.7 1707.1 90.3z" class="Q"/><path d="M1706.6 117.3c0.1 0.4 0.2 0.9 0.4 1.3C1706.8 118.2 1706.7 117.8 1706.6 117.3z" class="S"/><path d="M1704.2 219.1c-1.9-3.2-3.4-6-4.1-8.1 -2.1-5.8-4.7-16.3-6.8-26.2 -2.4-11.3-4.3-22.1-4.3-24.9C1692.4 180.7 1696.1 201.3 1704.2 219.1z" class="Q"/><path d="M1689.3 137.3l8.8-41.4C1698.1 103.4 1690.2 133.5 1689.3 137.3z" class="R"/><path d="M1694.2 331.2h-49c4.5-24.8 12.1-49.3 12.1-49.3 10.3-4 22.8-9.5 33.1-15.2C1690.4 266.7 1687.1 300.8 1694.2 331.2z" class="N"/><path d="M1692.6 146.6c0 6.1-3.2 12.5-3.7 13.3L1692.6 146.6z" class="R"/><path d="M1689.2 137.6l3.4 8.9C1692.2 145.9 1689.2 141.1 1689.2 137.6z" class="Q"/><path d="M1693.2 184.9c0 0-1.1 3.5-5.8 1.5 -4.7-1.9-4.5-10-4.5-10 -1.8-5.6-2.8-10.8-2.1-15.2 -2.8-4.1-5.6-17.1-4.1-18.6 1.5-1.5 3.4-1.4 5.6 1.3 3.2 9.7 6.6 16.1 6.6 16.1C1688.9 162.8 1690.8 173.5 1693.2 184.9z" class="P"/><path d="M1657.3 281.9c0 0-7.5 24.5-12.1 49.3h-59.4c0 0-2.3-2.9 9-19.4 11.3-16.5 32.8-20.9 45.6-24.2C1643.7 286.8 1649.9 284.8 1657.3 281.9z" class="M"/><path d="M1778 331.8h121.3c-0.8-9.2-17-25.9-31.4-27.8 -27.3-3.6-69.2 8.2-117.1 8.2 -48 0-89-13.6-117.1-8.2 -14.3 2.8-30.6 18.6-31.4 27.8h173.5l0 0h1H1778L1778 331.8z" class="U"/><path d="M1772.9 286.7c-1.1 6.6-6.8 35.2-22.8 35.2 -16 0-21.7-28.7-22.8-35.2 1.9 3.1 4.1 6 6.7 8.7 1.4 2.5 3.2 4.7 5.4 6.3l0 0c2.9 2.5 6.4 4.3 10.5 4.2 0.1 0 0.1 0 0.2 0 0.1 0 0.1 0 0.1 0 0 0 0.1 0 0.1 0 4.1 0.2 7.6-1.6 10.5-4.2 0 0 0 0 0 0 2.2-1.7 4-3.8 5.4-6.3C1768.8 292.7 1771 289.8 1772.9 286.7z" class="M"/><path d="M1848.7 303.5c-11.6 0.6-24.8 2.4-39.1 4.2 -0.7 7.7-1.8 15.8-3.7 23.6h48.9C1853 321.4 1850.8 311.7 1848.7 303.5z" class="W"/><path d="M1645.3 331.2h49c-1.9-8.1-3.1-16.5-3.7-24.4 -14.2-2-27.3-3.8-38.9-4.1C1649.4 311.1 1647.1 321.1 1645.3 331.2z" class="W"/><path d="M1750.1 233.3c16.2 0 22.5-10.2 22.5-10.2l-44 0.4C1728.6 223.5 1734 233.3 1750.1 233.3z" fill="#D19EAB"/><path d="M1750.1 226.9c-0.3-1.2 22.4-3.8 22.5-3.8 2.7-0.2-17.1-7.4-17.1-7.4l-5.5 4.8 -5.4-4.9c0 0-19.1 6.6-20.1 6.9C1722.5 223.1 1750.1 223.6 1750.1 226.9z" fill="#7C505D"/><path d="M1737.7 187.3c0 0-5.2 7.8-1.6 13.8 2.3 3.8 7.1 1.9 7.1 1.9" class="X"/><path d="M1723.8 222c0.1 0.1 0.2 0.2 0.4 0.2 3.4 1.3 20.6-6.7 20.6-6.7 0.8 2.4 5.4 4.9 5.4 4.9" class="X"/><path d="M1750.3 233.2c0 0-8.6 0.4-12.9-1.9" class="X"/><path d="M1750.3 242.6c0 0-7-1.5-13.9 1.7" class="X"/><path d="M1724 154.3c0.4 0.1 0.9 0.2 1.3 0.4 3.2 1.1 6.4 3.4 9.6 6.7" class="X"/><path d="M1722.1 153.8c0.6 0.1 1.2 0.2 1.8 0.4" class="X"/><path d="M1720.2 153.7c0.5 0 1 0 1.5 0.1" class="X"/><path d="M1709.9 157.7c2.8-2.3 5.7-3.6 8.5-3.9 0.1 0 0.2 0 0.3-0.1" class="X"/><path d="M1709.6 164.5c1.2 5.7 5.8 7 13.1 4.9 2.1-0.6 4.5-1.5 7-2.7" class="X"/><path d="M1706.3 99.1c0 0-1.5 16.3 3.3 25" class="Y"/><path d="M1689.1 159.8c0 0 3.7-6.8 3.7-13.4 0 0-3.5-5.2-3.5-8.9 0 0 8.9-33.7 8.9-41.8 0 0 17.6-12.6 27.4-11.3 0 0 7.2 7.4 24.6 7.4" class="X"/><path d="M1682.5 143.7c-2.2-2.7-4-2.8-5.6-1.3 -1.5 1.5 1.4 14.5 4.1 18.6 -0.7 4.5 0.3 9.7 2.1 15.2 0 0-0.2 8 4.5 10 4.7 2 5.8-1.5 5.8-1.5" class="X"/><path d="M1709.5 226.9c0.1 0.7 1.2 10.2 0.4 22.5 -0.6 9-2.2 19.5-6 29.1" class="X"/><path d="M1750.3 35.6c-46.8 0-71 31.4-73 75 -0.5 12.1 2.3 24 5.3 33.1 3.2 9.6 6.6 16.1 6.6 16.1 0 2.9 1.9 13.6 4.3 24.9 2.1 10 4.7 20.4 6.8 26.2 1.3 3.7 5 9.7 9.2 15.9 0 0 0 0 0 0 4.3 6.4 9 13 12.2 17.7 6.1 9.1 15.7 19.3 28.6 18.5 12.8 0.7 22.5-9.5 28.6-18.5 3.2-4.8 7.9-11.4 12.2-17.8 4.2-6.3 7.9-12.2 9.2-15.9 2.1-5.8 4.7-16.3 6.8-26.2 2.4-11.3 4.3-22.1 4.3-24.9 0 0 3.4-6.5 6.6-16.1 3-9.1 5.8-21.1 5.3-33.1C1821.3 66.9 1797.9 35.6 1750.3 35.6" class="X"/><path d="M1762.8 187.3c0 0 5.2 7.8 1.6 13.8 -2.3 3.8-7 1.9-7 1.9" class="X"/><path d="M1776.7 222c-0.1 0.1-0.2 0.2-0.4 0.2 -3.4 1.3-20.6-6.7-20.6-6.7 -0.8 2.4-5.4 4.9-5.4 4.9" class="X"/><path d="M1776.7 222c-0.1 0.1-0.2 0.2-0.4 0.2 -6.9 4.3-18 1.4-18 1.4 -2.2 3.2-13.9 3.2-16.1 0 0 0-11.1 2.8-18-1.4 -0.1-0.1-0.2-0.1-0.4-0.2" class="X"/><path d="M1750.3 233.2c0 0 8.6 0.4 12.9-1.9" class="X"/><path d="M1750.3 242.6c0 0 7-1.5 13.9 1.7" class="X"/><path d="M1802.1 139.6c-28.8-11.2-44.8 13.9-44.8 13.9l0.3 12" class="X"/><path d="M1776.5 154.3c-0.5 0.1-0.9 0.2-1.3 0.4 -3.2 1.1-6.4 3.4-9.6 6.7" class="X"/><path d="M1778.4 153.8c-0.6 0.1-1.2 0.2-1.8 0.4" class="X"/><path d="M1780.3 153.7c-0.6 0-1.1 0-1.7 0.1" class="X"/><path d="M1790.6 157.7c-2.8-2.3-5.7-3.6-8.5-3.9 -0.1 0-0.2 0-0.3-0.1" class="X"/><path d="M1790.9 164.5c-1.6 7.3-8.8 7.4-20.1 2.3" class="X"/><path d="M1794.2 99.1c0 0 1.5 16.3-3.2 25" class="Y"/><path d="M1750.3 91.9c17.4 0 24.6-7.4 24.6-7.4 9.8-1.3 27.4 11.3 27.4 11.3 0 8 8.9 41.8 8.9 41.8 0 3.7-3.5 8.9-3.5 8.9 0 6.5 3.7 13.4 3.7 13.4" class="X"/><path d="M1818 143.7c2.2-2.7 4-2.8 5.5-1.3 1.5 1.5-1.4 14.5-4.1 18.6 0.6 4.5-0.3 9.7-2.1 15.2 0 0 0.2 8-4.5 10 -4.7 2-5.8-1.5-5.8-1.5" class="X"/><path d="M1812.9 186.2c0 0 4.6 5.3 4.6 15.7s0 7.8 0 19.6 6.5 12.1 9.8 28.1c3.2 16-3.2 24.3-3.2 24.3" class="X"/><path d="M1782.1 153.8L1782.1 153.8c-0.1 0-0.2-0.1-0.3-0.1 -0.5-0.1-0.9-0.1-1.4-0.1 -0.6 0-1.1 0-1.7 0.1 -0.1 0-0.1 0-0.2 0 -0.6 0.1-1.2 0.2-1.8 0.4 -0.1 0-0.1 0-0.2 0 -0.4 0.1-0.9 0.2-1.3 0.4l0 0c-0.7 0.9-1.1 1.9-1.1 3.2 0 2.8 2.3 5 5 5 2.8 0 5-2.3 5-5C1784.1 156.2 1783.3 154.8 1782.1 153.8z" class="X"/><path d="M1718.8 153.8c-0.1 0-0.2 0-0.3 0l0 0c-1.2 0.9-2 2.3-2 4 0 2.8 2.2 5 5 5 2.8 0 5-2.3 5-5 0-1.2-0.4-2.3-1.1-3.2l0 0c-0.4-0.2-0.8-0.3-1.3-0.4 -0.1 0-0.1 0-0.2 0 -0.6-0.2-1.2-0.3-1.8-0.4 -0.1 0-0.2 0-0.4 0 -0.5-0.1-1-0.1-1.5-0.1C1719.7 153.7 1719.3 153.7 1718.8 153.8z" class="X"/><path d="M1760.2 197.7c-5.7 4-4.8 6-9.9 6 -5.1 0-4.2-2-9.9-6" class="X"/><path d="M1698.4 139.6c28.8-11.2 44.8 13.9 44.8 13.9l-0.3 12" class="X"/><path d="M1791 226.9c0 0-1.2 9.8-0.4 22.5 0.6 9 2.2 19.5 6 29.1" class="X"/><path d="M1794.1 150.9c-6.8-7.7-14.9-6.1-24.2-0.4" class="X"/><path d="M1707.1 150.9c6.8-7.7 15-6.1 24.2-0.4" class="X"/><path d="M1843 281.8c0 0 7.5 24.5 12 49.3" class="X"/><path d="M1806.1 331.1h48.9 59.1c0 0 2.7-2.9-8.6-19.4 -11.3-16.5-32.8-20.9-45.7-24.2 -3.2-0.8-9.5-2.9-16.8-5.7 -5.8-2.3-12.4-5-18.9-8 -4.9-2.3-9.8-4.7-14.3-7.2 -10.5-5.9-18.6-12.1-19.2-17.2 -0.1-0.5 0-1 0-1.4" class="X"/><line x1="1701.3" y1="331.1" x2="1799.3" y2="331.1" class="X"/><path d="M1709.8 248c0.1 0.5 0.1 1 0 1.4 -0.6 5.1-8.7 11.3-19.2 17.2 -10.3 5.7-22.8 11.2-33.1 15.2 -7.4 2.8-13.6 4.9-16.9 5.7 -12.8 3.3-34.3 7.6-45.6 24.2 -11.3 16.5-9 19.4-9 19.4h59.4 49" class="X"/><path d="M1799.3 331.1h6.8c7.1-30.4 3.8-64.5 3.8-64.5" class="X"/><path d="M1701.3 331.1h-6.8c-7.1-30.4-3.8-64.5-3.8-64.5" class="X"/><path d="M1657.5 281.8c0 0-7.5 24.5-12.1 49.3" class="X"/></svg>