<svg xmlns="http://www.w3.org/2000/svg" viewBox="0 0 798.5 798.5" style="version:1"><style>.a{fill:#acacac}.b{fill:#cecece;stroke-linejoin:round;stroke-miterlimit:10;stroke-width:6;stroke:#cecece}.c{fill:#6f6f6f}.d{fill:#dadada}.e{fill:#cecece}.f{fill:#ececec}.g{fill:#5a5a5a}.h{fill:#b2b2b2}.i{fill:#686868}.j{fill:none;stroke-linecap:round;stroke-miterlimit:10;stroke-width:6;stroke:#313131}.k{stroke-linejoin:round}.k,.l,.m{fill:none;stroke-linecap:round;stroke-miterlimit:10;stroke-width:6;stroke:#2b2b2b}.m{stroke-linejoin:round;stroke:#313131}</style><path fill="#A4A4A4" d="M-47.9-76.2h895.8v951.3H-47.9z"/><path d="M494.7 479.6c.1 0 100.5 47.6 118.2 55.9 31.6 14.9 48.2 34.1 59.8 42.1 11.6 8 38.4 13.9 49.6 25.2 11.2 11.2 24 36.1 24 36.1H53.6s12.7-24.9 24-36.1c11.2-11.2 38-17.2 49.6-25.2 11.6-8 28.3-27.2 59.8-42.1 17.7-8.3 118.2-55.9 118.2-55.9h.1c1.7-18.7 2.6-37.7 2.7-41.5 3.3 17 7.5 33.4 13 46.4 13 30.7 41.3 61.8 78.9 61.9h.1c37.7 0 66-31.1 78.9-61.9 5.5-13 9.7-29.4 13-46.4.2 3.7 1.1 22.8 2.8 41.5zm8.1-139.7v-.4c.7-5.6 2.1-18 3.6-31.4 7.8-9 15.9-14.1 20.3-9.8 4.5 4.5 6.8 21.5 4 31.9-2.8 10.4-9.2 31.3-17.4 39.9 6.2 15.1-1.7 21.6-13.3 15.9l-.8-.1c2.1-20.5 2.9-36.8 3.1-41.8.3-1.3.4-2.7.5-4.2z" class="a"/><path d="M429 597.9c18.9 0 54.5-17.5 76.5-44.9 42.5 4.8 96.5 28 118.9 43.8 29.5 20.8 45.7 1.2 67.5 42.1H417.6c24.6-14 29.1-27.7 11.4-41zm-2.4-1.8c.9.6 1.6 1.2 2.4 1.8-1.5-.2-2.4-.8-2.4-1.8z" class="b"/><path d="M506.5 308.1c-1.5 13.4-3 25.8-3.6 31.4.5-4.7 4.6-50.5-16.8-61.4 7.7-20.3 6.8-47.9-14.5-72.2l-.3-.4c5.8-3.4 11-7.2 15.4-11.6l3 4.2c19.9 30.2 22.1 58.3 19.7 83.2-.9 8.3-1.9 17.8-2.9 26.8z" class="c"/><path d="M411.2 332.1c-.6-2 32.8-5.3 43.3-18.4 3.4-.2 6.8 0 10 1 .1 0 .3.1.4.1.2 0 .3.1.5.1.2.1.5.1.7.2 2.7 1 5.1 2.4 7.1 3.9.2.1.4.3.5.4 0 0 4.2-7.5 6.4-11.4 3.8-3.9 5-14.3-13.5-22.3 2.6-6.9 4.1-13.2 4.8-18.9 1.1-6.6 1.1-13.8-1.4-21.7 0-20.6-15.9-31.7-16.2-32 6.3-2.1 12-4.7 17.1-7.6.1 0 .2-.1.2-.1l.3.4c21.3 24.3 22.2 51.8 14.5 72.2 21.5 10.9 17.3 56.7 16.8 61.4v.4c-.2 1.7-.3 2.7-.3 2.7v1.6c-4.1 38.7-23.3 58.4-32.9 58.4 0 0 2.4 30.7-6 39.2-3.1-8.5-8-15-13.4-20.1-9.7-9.9-20-13.9-24-14.9 4.5-2.4 11.4-16.6-9-31.7 5.5-16.5-1.4-24.4-4.1-26.8-.2-.2-.4-.3-.5-.4-.2-.2-.4-.3-.5-.3 0 0-.1-3.4-.2-7.1-.3-3.6-.5-7.4-.6-8.3zm42.8 2c-5.9-2.6-11-3.6-15.8-2.3-6.1 1.7-12.6 7.5-15.2 12.1-.4.6-.7 1.3-.9 1.9v.2c.2 1.4 1.9 2.6 4.2 3.7 2.2 1.1 4.9 2.2 7 3.3 18.3 13.9 33.2 13.9 43.5-4.3-1.8-2.4-10.5-8.4-10.5-8.4-3-2.9-7.2-4.9-12.3-6.2z" class="a"/><path d="M308 438.2c-3.4-17.8-5.8-36.2-7.4-52.1-1.9-19.2-2.8-34.7-3.1-40.7 4.3 37.4 22.8 56.7 32.4 57.2h.4s-2.4 30.7 6 39.2v-.1l.1.1c.1-.4.3-.7.4-1.1 3.5-7.6 7.8-13.6 12.2-18.3 14.4-13.9 33.3-16.5 33.3-16.5 6 1.5 10 7.4 17.6 7.5h.1c7.6 0 11.6-5.9 17.6-7.5 0 0 18.2 2.6 32.5 15.8 4.9 5 9.7 11.6 13.4 20.1 8.5-8.5 6-39.2 6-39.2 9.6 0 28.8-19.7 32.9-58.3-.2 5-1 21.2-3.1 41.8-1.6 15.9-4 34.3-7.4 52.1-3.3 17-7.5 33.4-13 46.4-13 30.7-41.3 61.8-78.9 61.9-37.7 0-66-31.1-78.9-61.9-5.5-13-9.8-29.4-13.1-46.4zm134.6 8.5c-8.4-7.7-17.7-14.1-29.7-16-4.4 9-21.3 8.9-25.6 0-12.1 1.9-21.3 8.3-29.7 16 20.2 19.1 64.6 19.1 85 0z" class="c"/><path d="M371 597.9c-18.9 0-54.5-17.5-76.5-44.9-42.5 4.8-96.5 28-118.9 43.8-29.5 20.8-45.7 1.2-67.5 42.1h274.2c-24.5-14-29-27.7-11.3-41zm2.4-1.8c-.9.6-1.6 1.2-2.4 1.8 1.5-.2 2.4-.8 2.4-1.8z" class="b"/><path d="M373.4 596.1c0 27.7 53.1 27.7 53.1 0 31.5 4.9 78.9-43.2 78.9-43.2v85.9H292.5l9.9-41.8 71-.9z" class="b"/><path d="M466.7 285.8c18.6 8 17.4 18.4 13.5 22.3 6-18.4-12.2-16.2-13.5-22.3z" class="d"/><path d="M329.6 246.3c.1-.4.2-.7.2-1.1 0-20.8 16.2-31.9 16.2-31.9s-.2-.1-.5-.2c15.2 5.2 33.4 8 54.4 8h.1c20.7 0 38.8-2.6 53.9-7.8.4.3 16.2 11.4 16.2 31.9 1.5 6.6 2.3 13.6 1.4 21.7-1 6.1-2.9 11.6-4.6 16.6-.3.9-.3 1.6-.2 2.2 1.3 6 19.4 3.9 13.5 22.3-2.2 3.9-6.3 11.4-6.3 11.4-.2-.2-.4-.3-.6-.4-2.3-1.8-4.7-3-7.1-3.9-.2-.1-.5-.2-.7-.2-.2-.1-.4-.1-.5-.2-.1 0-.3-.1-.4-.1-2.9-.9-6.3-1.3-10-1-15.8 15.8-43.3 18.5-43.3 18.5s-1.3 9.3.6 15.4c.1 0 .2.1.4.3.2.1.3.3.6.5 2.5 2.2 8.3 9.5 4.1 26.8 8.5 9.9 20.1 20.7 9 31.7-3.4-1.5-6.1-1.5-8.5-.9-6 1.5-10 7.4-17.6 7.5h-.1c-7.6 0-11.6-5.9-17.6-7.5-2.4-.6-5.1-.5-8.5.9-11-11 .5-21.8 9-31.7-4.8-19.7 3.5-26.4 5-27.4.1-.1.2-.1.2-.1 1.9-6.1.6-15.4.6-15.4h-.1c1.2-1.9-13.4-2.4-26.7-7.4-5.9-2.7-11.7-6.3-16.5-11.1-3-.3-5.7 0-8.2.5-3.9.8-7.6 2.5-11.1 5.3 0 0-4.1-7.5-6.3-11.4h.1c-5.9-18.3 12.2-16.2 13.5-22.3.1-.6.1-1.4-.2-2.3-1.8-5.4-3.9-11.4-4.8-18.1-.5-6.9.1-13.2 1.4-19.1z" class="e"/><circle cx="397.6" cy="254.7" r="53.4" class="f"/><path d="M413.5 391c0 6.4-6.1 10.5-13.6 10.5s-13.6-4.1-13.6-10.5 6.1-12.7 13.6-12.7c7.5.1 13.6 6.4 13.6 12.7z" class="f"/><path d="M408.8 366.6c0 11.7-4 27.4-8.9 27.4s-8.9-15.7-8.9-27.4 4-14.9 8.9-14.9 8.9 3.2 8.9 14.9z" class="f"/><path d="M486.7 193.9c-4.4 4.4-9.5 8.3-15.4 11.6-.1 0-.2.1-.2.1-5.2 2.9-16.4 7.3-17.1 7.6-15 5.1-33.1 7.8-53.9 7.8h-.1c-21 0-39.3-2.7-54.4-8-2.1-.8-9.9-4-14.9-6.5-.6-.3-1.3-.7-1.9-1-5.8-3.4-11-7.2-15.4-11.6 29.3-39.7 75.6-38.7 86.6-38.7h.1c11-.1 57.3-1 86.6 38.7z" class="g"/><path d="M470.1 245.2c2.4 7.9 2.4 15.1 1.4 21.7.9-8 .1-15.1-1.4-21.7z" class="h"/><path d="M466.2 340.3s8.7 6 10.5 8.4c-10.3 18.2-25.1 18.3-43.5 4.4-2.1-1.1-4.8-2.1-7-3.3-2.2-1.1-4-2.3-4.2-3.7 0-.1 0-.2.1-.2.2-.6.5-1.2.9-1.9 2.4-3.9 8.5-8 15.2-12.1.6 0 1.2.1 1.8.1h-.1a8.23 8.23 0 0 0-2.8 6.2c0 4.4 3.5 8 7.9 8.2h.8c4.4-.2 7.9-3.8 7.9-8.2 0-1.6-.5-3.2-1.3-4.4.6.1 1.1.3 1.7.4 3.6 1.5 7.6 3.6 12.1 6.1z" class="e"/><path d="M466.9 283.6c1.7-5 3.6-10.5 4.6-16.6-.6 5.7-2.1 11.9-4.8 18.8-.1-.6-.1-1.4.2-2.2z" class="d"/><path d="M473.4 319.1c-2-1.5-4.4-2.9-7.1-3.9 2.4.8 4.8 2.1 7.1 3.9zm-7.2-3.9c-.2-.1-.5-.2-.7-.2.3 0 .5.1.7.2z" class="h"/><path d="M465 314.7c-.1 0-.3-.1-.4-.1.1.1.3.1.4.1z" class="d"/><path d="M453.9 213.3c.7-.3 11.9-4.7 17.1-7.6-5.1 2.9-10.8 5.5-17.1 7.6zm.1 120.8c5 1.3 9.2 3.2 12.2 6.2-4.5-2.5-8.5-4.6-12.2-6.2z" class="h"/><path d="M454.6 313.7c3.7-.3 7 .1 10 1-3.2-1-6.6-1.3-10-1zm-.6 20.4c-.5-.1-1.1-.3-1.7-.4-.4-.1-.9-.2-1.4-.3l-1.5-.3c-.5-.1-1-.2-1.5-.2-.5-.1-.9-.1-1.4-.2h-.4c-.3 0-.7-.1-1-.1-.2 0-.3 0-.5-.1h-.1c-.4 0-.9-.1-1.4-.1-.9-.1-1.9-.2-2.9-.3h-.4c-.6 0-1.2-.1-1.8-.1 5-1.5 10.1-.4 16 2.1z" class="d"/><path d="M452.4 333.7c.8 1.3 1.3 2.8 1.3 4.4 0 4.4-3.5 8-7.9 8.2 4.3-.2 7.8-3.8 7.8-8.2 0-1.6-.5-3.1-1.2-4.4-.8-.2-1.5-.3-2.2-.4-.2 0-.5-.1-.7-.1-.2 0-.5-.1-.7-.1-.3 0-.5-.1-.8-.1-.2 0-.4-.1-.6-.1-.4-.1-.7-.1-1.1-.2-.3 0-.7-.1-1.1-.1-.2 0-.3 0-.5-.1-.5-.1-1-.1-1.4-.2-.9-.1-1.9-.2-2.9-.3h-.3.4c1 .1 1.9.2 2.9.3.5 0 .9.1 1.4.1h.1c.2 0 .3 0 .5.1.3 0 .7.1 1 .1h.4c.5.1.9.1 1.4.2.5.1 1 .2 1.5.2l1.5.3c.2.2.6.3 1.2.4-.1 0-.1 0 0 0z" class="d"/><path d="M452.3 333.7c.8 1.3 1.3 2.8 1.3 4.4 0 4.4-3.5 8-7.8 8.2h-.8c-4.3-.2-7.8-3.8-7.8-8.2 0-2.5 1.1-4.6 2.8-6.1h.3c1 .1 1.9.2 2.9.3.5 0 1 .1 1.4.2.2 0 .3 0 .5.1.4 0 .7.1 1.1.1.4 0 .8.1 1.1.2.2 0 .4.1.6.1.3 0 .5.1.8.1.3 0 .5.1.7.1.2 0 .5.1.7.1.8.1 1.5.3 2.2.4z" class="i"/><path d="M452.3 333.7c-.4-.1-.9-.2-1.4-.3.5.1.9.2 1.4.3z" class="d"/><path d="M463.5 441.8c-3.7-8.5-8.5-15.1-13.4-20.1 5.4 5 10.3 11.6 13.4 20.1z" class="h"/><path d="M449.5 333.1l1.5.3c-.6-.1-1-.2-1.5-.3zm-4.9-.7c-.4 0-.9-.1-1.4-.1.5 0 1 .1 1.4.1zm-18.5 74.4c4 1 14.3 4.9 24 14.9-14.3-13.2-32.5-15.8-32.5-15.8 2.4-.6 5.1-.5 8.5.9zm13.8-74.8c.1 0 .1 0 0 0a8.51 8.51 0 0 0-2.7 6.2c0 4.4 3.5 8 7.8 8.2-4.4-.2-7.9-3.8-7.9-8.2.1-2.5 1.1-4.7 2.8-6.2z" class="d"/><path d="M412.8 430.8c12.1 1.9 21.3 8.3 29.7 16-16.1-6.2-41.5-1.7-42.6-1.5-1.1-.2-26.5-4.7-42.6 1.5 8.4-7.7 17.7-14.1 29.7-16 4.6 8.8 21.5 9 25.8 0z" fill="#7E7E7E"/><path d="M423 344c2.6-4.6 9.1-10.4 15.2-12.1-6.7 4.1-12.8 8.2-15.2 12.1zm3.1 62.8c11-11.1-.5-21.9-9-31.7 20.4 15.1 13.5 29.3 9 31.7z" class="d"/><path d="M423 344c-.4.7-.7 1.3-.9 1.9.2-.6.5-1.3.9-1.9z" class="h"/><path d="M400 445.3c1.1-.2 26.5-4.7 42.6 1.5-20.3 19.1-64.8 19.1-85.1 0 16-6.2 41.4-1.7 42.5-1.5z" fill="#B3B3B3"/><path d="M413 348.3c2.8 2.4 9.7 10.3 4.1 26.8 4.2-17.3-1.6-24.6-4.1-26.8z" class="d"/><path d="M411.9 347.5c.1 0 .2.1.4.3-.1-.1-.3-.2-.4-.3z" class="h"/><path d="M388.7 332.1s1.3 9.3-.6 15.4c0 0-.1 0-.2.1.1-.1.2-.1.2-.1s.3-13.6.6-15.4z" class="d"/><path d="M361.9 324.7c13.3 4.9 28 5.5 26.7 7.4-1-.1-13.8-1.5-26.7-7.4z" class="h"/><path d="M344.1 363.1c6.8-.2 14.3-3.7 22.6-9.9 2.1-1.1 4.8-2.1 7-3.3 2.2-1.1 4-2.3 4.2-3.7-.3-1-.8-2-1.6-3.1-2.9-4.4-8.9-9.5-14.5-11.1h-.2c-4.9-1.4-10-.3-15.9 2.3-4.9 1.3-9 3.2-11.9 6.1-.1 0-.1.1-.2.1 0 0-8.7 6-10.5 8.4 5.3 9.5 11.9 14 19.6 14.3.5-.1 1-.1 1.4-.1zm-7-48.9c2.7-.6 5.4-.7 8.2-.5 3.9 5.2 10.1 8.7 16.6 11.1 12.9 5.9 25.7 7.3 26.7 7.4-.2 1.7-.6 15.4-.6 15.4s-.1 0-.2.1c-1.4 1-11.3 8.6-5 27.5-20.4 15.1-13.5 29.3-9 31.7-4.1 1-14.8 5.1-24.7 15.6-4.9 4.7-9.3 10.7-12.2 18.3-.2.3-.3.7-.5 1-8.4-8.6-6-39.1-6-39.1h-.5c-9.7-.6-28.4-20.3-32.4-58.3 0-1-.1-1.6-.1-1.7 0 0-.1-1-.3-2.7v-.4c-.5-4.7-4.6-50.5 16.8-61.4-7.7-20.3-6.8-47.9 14.5-72.2l.2-.4c.6.3 1.2.7 1.9 1 4.6 2.5 9.6 4.7 14.9 6.5.3.1.5.2.5.2s-16.2 11.2-16.2 31.9c-.1.4-.2.7-.2 1.1-2 6.9-2.1 13.3-1.3 19.2.5 6.1 2 12.8 4.9 20.3-18.6 8-17.4 18.4-13.5 22.3 2.2 3.9 6.3 11.4 6.3 11.4 3.6-2.8 7.4-4.5 11.2-5.3z" class="a"/><path d="M387.8 347.6c-1.5 1.1-9.7 7.8-4.9 27.5-6.4-18.9 3.5-26.5 4.9-27.5zm-5 27.5c-8.5 9.9-20 20.7-9 31.7-4.4-2.4-11.3-16.6 9-31.7z" class="d"/><path d="M373.9 406.8c3.4-1.5 6.1-1.5 8.5-.9 0 0-18.8 2.7-33.3 16.5 9.9-10.5 20.6-14.5 24.8-15.6z" class="d"/><path d="M342.8 363.1c-7.7-.2-14.2-4.8-19.6-14.3 1.8-2.4 10.5-8.4 10.5-8.4.1 0 .1-.1.2-.1s.1-.1.2-.1c4.3-2.4 8.1-4.4 11.7-5.9.6-.2 1.2-.3 1.9-.5-.8 1.3-1.3 2.8-1.3 4.4 0 4.4 3.5 8 7.9 8.2h.8c4.4-.2 7.9-3.8 7.9-8.2 0-2.5-1.1-4.6-2.8-6.2.6 0 1.2-.1 1.8-.1h.1c6.2 3.8 11.8 7.5 14.5 11.1.7 1.1 1.3 2.2 1.6 3.1-.2 1.4-2 2.6-4.2 3.7s-4.9 2.2-7 3.3c-8.3 6.3-15.9 9.7-22.6 9.9-.7.1-1.2.1-1.6.1z" class="e"/><path d="M376.4 343c-2.7-3.6-8.3-7.3-14.5-11.1 5.6 1.6 11.6 6.7 14.5 11.1z" class="d"/><path d="M383 375.1c-32.7 6.5-50.3 29-46 65.6 4.9-14.4 18-25.4 37-33.9l9-31.7z" class="e"/><path d="M360 332c1.7 1.5 2.8 3.7 2.8 6.2 0 4.4-3.5 8-7.9 8.2 4.3-.2 7.8-3.8 7.8-8.2 0-2.5-1.1-4.7-2.7-6.2-.1 0 0 0 0 0z" class="d"/><path d="M347.6 333.7c.7-.2 1.4-.3 2.2-.5.2 0 .5-.1.7-.1.2 0 .5-.1.7-.1.3 0 .5-.1.8-.1.2 0 .4-.1.6-.1.4-.1.7-.1 1.1-.2.3 0 .7-.1 1.1-.1.2 0 .3 0 .5-.1.4 0 .9-.1 1.4-.1h.1c.9-.1 1.9-.2 2.9-.3h.3c1.7 1.5 2.8 3.7 2.8 6.1 0 4.4-3.5 8-7.8 8.2h-.8c-4.3-.2-7.8-3.8-7.8-8.2-.1-1.6.4-3.1 1.2-4.4z" class="i"/><path d="M361.9 331.9h-.1.1c-.1 0-.1 0 0 0z" class="h"/><path d="M361.7 331.9c-.6 0-1.2.1-1.7.1h-.5c-1 .1-1.9.2-2.9.3-.5 0-1 .1-1.4.2-.2 0-.3 0-.5.1-.3 0-.7.1-1 .1h-.4c-.5.1-.9.1-1.4.2-.5.1-1 .2-1.5.2l-1.5.3c-.5.1-.9.2-1.4.3-.6.1-1.2.3-1.8.4 6.1-2.5 11.1-3.6 16-2.2z" class="d"/><path d="M417.1 375.1c32.7 6.5 50.3 29 46 65.6-4.9-14.4-18-25.4-37-33.9l-9-31.7z" class="e"/><path d="M359.9 332h-.3c-1 .1-1.9.2-2.9.3h-.1c-.5 0-.9.1-1.4.1-.2 0-.3 0-.5.1-.4 0-.7.1-1.1.1-.4 0-.8.1-1.1.2-.2 0-.4.1-.6.1-.3 0-.5.1-.8.1-.2 0-.5.1-.7.1-.2 0-.5.1-.7.1-.7.1-1.5.3-2.2.4h-.1c.5-.1.9-.2 1.4-.3l1.5-.3c.5-.1 1-.2 1.5-.2.5-.1.9-.1 1.4-.2h.4c.3 0 .7-.1 1-.1.2 0 .3 0 .5-.1.5-.1 1-.1 1.4-.2.9-.1 1.9-.2 2.9-.3.2.1.4.1.5.1z" class="d"/><path d="M356.7 332.3c-.5 0-.9.1-1.4.1.4 0 .9-.1 1.4-.1zm-10.4 5.9c0 4.4 3.5 8 7.8 8.2-4.4-.2-7.8-3.8-7.8-8.2-.1-1.6.4-3.1 1.2-4.4h.1c-.8 1.2-1.3 2.7-1.3 4.4zm1.3-4.5c-.1 0-.1 0 0 0zm-.1 0c-.6.2-1.3.3-1.9.5h.1c.7-.2 1.2-.3 1.8-.5zm-2.1-20c4.8 4.8 10.7 8.4 16.5 11.1-6.5-2.5-12.7-6-16.5-11.1-2.9-.2-5.6 0-8.2.5 2.4-.6 5.2-.8 8.2-.5z" class="d"/><path d="M345.8 334.2c-.1 0-.1 0 0 0-4.9 1.3-8.9 3.2-11.8 6 0 0-.1.1-.2.1 3-2.9 7.1-4.9 12-6.1z" class="h"/><path d="M334 340.2c2.9-2.8 6.9-4.7 11.7-5.9-3.6 1.4-7.4 3.5-11.7 5.9zm-3.4-133.6c5 2.5 12.8 5.7 14.9 6.5-5.4-1.9-10.4-4-14.9-6.5zm6.3 234.1c3-7.6 7.3-13.6 12.2-18.3-4.4 4.7-8.7 10.7-12.2 18.3z" class="h"/><path d="M336.4 441.7c.2-.3.3-.7.5-1-.1.4-.3.7-.5 1 .1.1.1.1 0 0z" class="d"/><path d="M336.4 441.7c0 .1 0 .1 0 0-8.5-8.4-6.1-39.1-6.1-39.1h.1s-2.4 30.6 6 39.1z" class="h"/><path d="M333.1 283.6c.3.9.3 1.6.2 2.3h-.1c-2.9-7.5-4.4-14.2-4.9-20.3.9 6.6 2.9 12.6 4.8 18z" class="d"/><path d="M333.2 285.8c-1.3 6-19.4 3.9-13.5 22.3h-.1c-3.8-3.9-5-14.2 13.6-22.3zm-4.5-80.3c.6.4 1.2.7 1.9 1-.7-.3-1.4-.6-1.9-1z" class="d"/><path d="M293.5 308.1c-1-9-2-18.6-2.8-26.8-2.4-24.9-.2-53.1 19.7-83.2 1-1.5 2-2.9 3-4.2 4.4 4.4 9.5 8.3 15.4 11.6h-.1l-.3.4c-21.3 24.3-22.2 51.8-14.5 72.2-19.4 9.9-17.9 48.3-17 59-.8-6.3-2.1-17.2-3.4-29z" class="c"/><path d="M328.7 205.5l-.2.4c-21.3 24.3-22.2 51.8-14.5 72.2-21.4 10.9-17.3 56.7-16.8 61.4-.1-.7-.2-1.5-.3-2.4-.8-10.8-2.4-49.1 17-59-7.7-20.3-6.8-47.9 14.5-72.2l.3-.4c-.1 0 0 0 0 0zm.9 40.8c-1.3 5.9-1.9 12.1-1.3 19.2-.8-5.9-.7-12.3 1.3-19.2zm-32 98c4 38 22.7 57.7 32.4 58.3-9.6-.5-28.1-19.8-32.4-57.2v-1.1z" class="h"/><path d="M297.1 339.8s0 .1 0 0v.1c.1.7.2 1.3.2 1.8 0 .4.1.9.1 1.3v1.1c0 .4.1.7.1 1.1.3 6 1.1 21.5 3.1 40.7l-.8.1c-11.6 5.7-19.5-.8-13.3-15.9-8.2-8.6-14.6-29.5-17.4-39.9-2.8-10.4-.5-27.4 4-31.9 4.4-4.4 12.5.7 20.3 9.8 1.3 11.7 2.6 22.7 3.3 29 .1 1.3.2 2.1.2 2.5.2.1.2.2.2.2z" class="a"/><path d="M297.6 345.4c0-.4-.1-.7-.1-1.1v-1.1c0 .4.1.8.1 1.2v1z" class="h"/><path d="M297.5 342.7s0 .6.1 1.7c0-.4-.1-.8-.1-1.2-.1-.4-.1-.5 0-.5-.1 0-.1-.3-.2-.9-.1-.6-.1-1.2-.1-1.8.2 1.7.3 2.7.3 2.7z" class="h"/><path d="M297.2 339.9c0 .6.1 1.2.1 1.8 0-.4-.1-1-.1-1.8-.1 0-.1 0 0 0l-.1-.1.1.1z" class="h"/><path d="M297.2 339.9c-.1-.1-.1-.2-.1-.2 0-.4-.1-1.3-.2-2.5.1.9.2 1.7.3 2.4v.3z" class="h"/><path d="M400 155.1c-10 0-48.8-.8-77.8 28.4 2.1 1.5 4.2 2.9 6.5 4.2.6.4 1.2.7 1.9 1 5 2.5 12.8 5.7 14.9 6.5 15.2 5.2 33.4 8 54.4 8h.1c20.7 0 38.8-2.6 53.9-7.8.7-.3 11.9-4.7 17.1-7.6.1 0 .2-.1.2-.1 2.3-1.3 4.4-2.7 6.5-4.2-28.9-29.1-67.7-28.4-77.7-28.4z" class="c"/><path d="M382.9 375.1c-8.5 9.9-20 20.7-9.1 31.7 3.4-1.5 6.1-1.5 8.5-.9 6 1.5 10 7.4 17.6 7.5m-43.2-81.1c-.5 0-.9.1-1.4.1" class="j"/><path d="M368.1 492.9l31.5 53.5c-106.1-4.2-99.4-184.4-102.7-209.3 3.2 32.2 12 56.9 33.1 65.4-1.1 15.2.2 28.7 6.4 39.2-3.3 19.1 14.1 47.8 31.7 51.2z" class="g"/><path d="M378 346.1c-.3-1-.8-2.1-1.6-3.1-2.7-3.6-8.3-7.3-14.5-11.1h-.2c-.6 0-1.2.1-1.8.1" class="j"/><path d="M432 492.9c-9.9-18.5-54-18.5-63.9 0l31.9 53.5 32-53.5z" class="g"/><path d="M336.5 441.8c.1-.4.3-.7.4-1.1 3-7.6 7.3-13.6 12.2-18.3 14.4-13.9 33.3-16.5 33.3-16.5m-88.3-97.1c-.2-.2-.4-.4-.5-.6-7.8-9-15.9-14.1-20.3-9.8-4.5 4.5-6.8 21.5-4 31.9 2.8 10.4 9.2 31.3 17.4 39.9-6.2 15.1 1.7 21.6 13.3 15.9" class="j"/><path class="j" d="M278.3 311.3l18.8 28.5.1.1"/><path d="M316.7 331s6.3-13.8 20.4-16.9c2.5-.6 5.2-.8 8.2-.5 4.8 4.8 10.7 8.4 16.5 11.1 12.9 5.9 25.7 7.3 26.7 7.4h.1s1.3 9.3-.6 15.4c0 0-.1 0-.2.1-1.5 1-9.8 7.7-5 27.4" class="k"/><path d="M336.5 441.8c-8.5-8.6-6-39.2-6-39.2h-.5c-9.7-.6-28.4-20.3-32.4-58.3 0-.4-.1-.8-.1-1.2 0-.4-.1-.9-.1-1.3-.1-.6-.1-1.2-.1-1.8m22.4-31.9c-5.9-18.3 12.2-16.2 13.5-22.3.1-.6.1-1.4-.2-2.3-1.8-5.4-3.9-11.4-4.8-18.1-.8-5.9-.7-12.3 1.3-19.2.1-.4.2-.7.3-1.1M432 492.9c-9.9-18.5-54-18.5-63.9 0M308 438.2c-.2 3.8-1.1 22.8-2.7 41.5-1.4 15.6-3.3 31-5.8 37.1m8.6-79.3v.7" class="j"/><path d="M305.2 479.6S204.7 527.2 187 535.5c-31.6 14.9-48.2 34.1-59.8 42.1-11.6 8-38.4 13.9-49.6 25.2-11.2 11.2-24 36.1-24 36.1h692.8s-12.7-24.9-24-36.1c-11.2-11.2-38-17.2-49.6-25.2-11.6-8-28.3-27.2-59.8-42.1-17.7-8.3-118.2-55.9-118.2-55.9" class="l"/><path d="M366.8 353.1c-8.3 6.3-15.9 9.7-22.7 9.9h-1.3c-7.6-.3-14.2-4.8-19.5-14.3M294.6 553s47.3 48.1 78.9 43.2m-76.4-256.6c-.5-4.7-4.6-50.5 16.8-61.4-7.7-20.3-6.8-47.9 14.5-72.2m-15.1-12.1c4.4 4.4 9.5 8.3 15.4 11.6.6.4 1.2.7 1.9 1 4.6 2.5 9.6 4.7 14.9 6.5 15.2 5.2 33.4 8 54.4 8m-9.1 175.6c0 5.8 18.9 5.8 18.9 0" class="j"/><path d="M417.1 375.1c8.5 9.9 20.1 20.7 9 31.7-3.4-1.5-6.1-1.5-8.5-.9-6 1.5-10 7.4-17.6 7.5h-.1" class="j"/><path d="M400 445.3c-1.1-.2-26.5-4.7-42.6 1.5 8.4-7.7 17.7-14.1 29.7-16 4.4 8.9 21.3 9 25.6 0 12.1 1.9 21.3 8.3 29.7 16-15.9-6.2-41.3-1.7-42.4-1.5m0 0z" class="m"/><path d="M442.6 446.7c-20.3 19.1-64.8 19.1-85.1 0m108.7-106.4c-3-3-7.2-4.9-12.2-6.2-.5-.1-1.1-.3-1.7-.4m-2.8-.6l1.5.3c.5.1.9.2 1.4.3m-9.1-1.4c.5 0 .9.1 1.4.1M422 346.1c0-.1 0-.2.1-.2.2-.6.5-1.3.9-1.9 2.4-3.9 8.5-8 15.2-12.1.6 0 1.2.1 1.8.1m23.5 109.8c-3.1-8.5-8-15.1-13.4-20.1-14.3-13.2-32.5-15.8-32.5-15.8m88.3-97.1c.2-.2.4-.4.5-.6 7.8-9 15.9-14.1 20.3-9.8 4.5 4.5 6.8 21.5 4 31.9-2.8 10.4-9.2 31.3-17.4 39.9 6.2 15.1-1.7 21.6-13.3 15.9m21.7-74.8l-18.9 28.6" class="j"/><path d="M431.8 492.9l-31.5 53.5C506.4 542.2 499.7 362 503 337.1c-3.2 32.2-12 56.9-33.1 65.4 1.1 15.2-.2 28.7-6.4 39.2 3.3 19.1-14.1 47.8-31.7 51.2z" class="g"/><path d="M463.5 441.8c8.5-8.5 6-39.2 6-39.2 9.6 0 28.8-19.7 32.9-58.3.2-1.4.3-2.8.4-4.3" class="l"/><path d="M480.2 308.1c5.9-18.4-12.2-16.2-13.5-22.3-.1-.6-.1-1.4.2-2.2 1.7-5 3.6-10.5 4.6-16.6 1.1-6.6 1.1-13.8-1.4-21.7m21.8 192.2v.6c.2 3.7 1.1 22.8 2.7 41.5 1.4 15.6 3.3 31 5.8 37.1m-67.2-163.6c18.4 13.9 33.2 13.9 43.5-4.4M505.4 553s-47.3 48.1-78.9 43.2m76.4-256.6c.5-4.7 4.6-50.5-16.8-61.4 7.7-20.3 6.8-47.9-14.5-72.2m15.1-12.1c-4.4 4.4-9.5 8.3-15.4 11.6-.1 0-.2.1-.2.1-5.2 3-10.9 5.5-17.1 7.6-15 5.1-33.1 7.8-53.9 7.8" class="j"/><path d="M400 155.1c11 0 57.3-.9 86.6 38.7l3 4.2c19.9 30.2 22.1 58.3 19.7 83.2-.8 8.2-1.8 17.8-2.8 26.8-1.5 13.4-3 25.8-3.6 31.4v.4c-.2 1.7-.3 2.7-.3 2.7s0 .6-.1 1.6c-.2 5-1 21.2-3.1 41.8-1.6 15.9-4 34.3-7.4 52.1-3.3 17-7.5 33.4-13 46.4-13 30.7-41.3 61.8-78.9 61.9h-.1c-37.7 0-66-31.1-78.9-61.9-5.5-12.9-9.7-29.3-13-46.4-3.4-17.8-5.8-36.2-7.4-52.1-1.9-19.2-2.8-34.7-3.1-40.7v-1c0-1-.1-1.6-.1-1.7 0 0-.1-1-.3-2.7v-.4c-.1-.7-.2-1.5-.3-2.4-.7-6.3-2-17.2-3.3-29-1-9-2-18.6-2.8-26.8-2.4-24.9-.2-53.1 19.7-83.2 1-1.5 2-2.9 3-4.2 29.1-39.6 75.4-38.7 86.5-38.7" class="l"/><path d="M440 332a8.23 8.23 0 0 0-2.8 6.2c0 4.4 3.5 8 7.8 8.2h.8c4.4-.2 7.9-3.8 7.9-8.2 0-1.6-.5-3.2-1.3-4.4-.4-.1-.9-.2-1.4-.3l-1.5-.3c-.5-.1-1-.2-1.5-.2-.5-.1-.9-.1-1.4-.2h-.4c-.3 0-.7-.1-1-.1-.2 0-.3 0-.5-.1h-.1c-.4 0-.9-.1-1.4-.1-.9-.1-1.9-.2-2.9-.3 0-.2-.2-.2-.3-.2zm-80 0s-.1 0 0 0h-.4c-1 .1-1.9.2-2.9.3h-.1c-.5 0-.9.1-1.4.1-.2 0-.3 0-.5.1-.4 0-.7.1-1.1.1-.4 0-.8.1-1.1.2-.2 0-.4.1-.6.1-.3 0-.5.1-.8.1-.2 0-.5.1-.7.1-.2 0-.5.1-.7.1-.7.1-1.5.3-2.2.4-.8 1.3-1.3 2.8-1.3 4.4 0 4.4 3.5 8 7.8 8.2h.8c4.4-.2 7.9-3.8 7.9-8.2.1-2.3-1-4.5-2.7-6z" class="j"/><path d="M333.8 340.3l.2-.2c2.9-2.8 6.9-4.7 11.7-5.9.6-.2 1.2-.3 1.9-.5h.2" class="j"/><path d="M483 331s-6.3-13.8-20.4-16.9c-2.5-.6-5.2-.8-8.2-.5-4.8 4.8-10.7 8.4-16.5 11.1-12.9 5.9-25.7 7.3-26.7 7.4h-.1s-1.3 9.3.6 15.4c0 0 .1 0 .2.1 1.5 1 9.8 7.7 5 27.4" class="k"/></svg>